<?xml version="1.0" encoding="UTF-8"?>
<svg id="Layer_2" data-name="Layer 2" xmlns="http://www.w3.org/2000/svg" viewBox="0 0 736 430.62">
  <defs>
    <style>
      .cls-1 {
        fill: #dfceaf;
      }

      .cls-2 {
        fill: #fff;
      }

      .cls-3 {
        fill: #681813;
      }

      .cls-4 {
        fill: #c82928;
      }
    </style>
  </defs>
  <g id="Layer_1-2" data-name="Layer 1">
    <g>
      <rect class="cls-4" y="0" width="736" height="430.62"/>
      <g>
        <path d="M657.9,149.83c32.97-14.39,54.27,16.44,39.12,46.36-6.16,12.17-18,20.18-29.99,25.88-.24,1.25.58.63,1.27.86,16.02,5.28,51.11,18.21,30.45,40.51-10.25,11.06-22.92,12.46-34.96,18.76-2.97,1.55-6.13,4.56-9.15,6.43-18.4,11.38-40.52,15.56-61.99,16.45-25.67,1.07-51.68-1.64-76.05-9.69v7.79c0,13.44-11.92,19.26-22.2,24.53-14.01,7.18-17.91,5.76-32.86,6.9-12.41.95-39.26,18.73-51.14,25.68-19.24,11.27-40.75,26.52-60.89,35.26-12.14,5.27-17.69,4.56-29.37-.7-2.74-1.23-16.13-8.83-17.52-8.61l-46.15,28.02c-1.95.47-4.58.6-6.57.32-5.12-.71-24.72-13.44-30.36-16.92-3.82-2.35-22.55-13.44-23.91-15.84-2.38-4.21.22-7.77,3.48-10.4l45.1-26.09c-1.25-2.19-1.82-4.75-2.14-7.25-2.2-17.32-1.1-24.52,11.27-36.52,22.8-22.14,54.09-45.35,79.58-64.92,18.1-13.9,39.26-30.88,58.88-42.11,20.94-11.99,31.93-4.55,52.41,3.25,18.09,6.89,35.87,14.75,53.53,22.67l12.42-1.86c-3.42-14.29-6.74-28.67-8.53-43.3-1.08-8.85-2.3-19.58-2.75-28.41-.5-9.85,1.59-14.42,10.04-19.49,28.62-17.2,108.19-16.29,137.54-.74,3.47,1.84,11.45,7.97,11.45,12.18v11.01ZM642.86,150.9c18.6-9.3,9.34-18.58-5.25-24.03-29.79-11.13-86.55-11.17-116.6-.82-13.96,4.81-27.52,14.47-7.9,24.78,4.37-6.6,12.02-9.54,19.32-11.76,26.17-7.93,71.57-8.25,97.13,1.75,4.77,1.86,11.58,4.97,13.3,10.08ZM503.17,148.75c1.34,23.19,4.15,47.5,11.13,69.7,11.1,35.28,34.27,47.23,70.82,45.26,43.21-2.33,55.11-25.67,62.86-64.45,3.36-16.81,5.01-34.47,6.15-51.58-9.71,9.27-23.59,12.9-36.52,15.32-26.4,4.95-57.04,4.6-83.3-1.08-11.01-2.38-22.52-5.63-31.15-13.17ZM643.39,228.77c19.91-8.52,44.76-17.24,52.52-39.61,9.6-27.69-11.47-48.66-38.3-35.07l-1.85,16.14c21.61-20.8,42.79,2.29,23.91,24.71-7.62,9.04-19.96,15.91-31.17,19.32l-5.1,14.5ZM649.3,209.98c12.09-3.26,31.51-15.77,33.6-28.97,2.4-15.13-10.28-19.5-21.2-10.99-2.42,1.88-6.12,5.72-6.9,8.68-1.73,6.52-2.19,15.79-3.51,22.81-.53,2.84-1.4,5.66-1.99,8.48ZM501.43,235.65c-.39.69-12.27,5.87-13.57,8.18-43.4,37.47-90.79,71.73-133.53,109.81-11.43,10.18-15.87,14.31-16.67,30.6-.6,12.19,2.32,11.97,12.01,6.63,20.19-11.14,41.47-29.4,60.91-42.76,14.05-9.65,34.85-25.13,49.94-31.71,13.49-5.88,12.9,1.27,21.51,7.35,5.58,3.94,8.09,1.85,13.43-.89,10.18-5.23,16.47-8.3,17.39-20.75,1.21-16.38-.83-42.6-3.32-59.02-2.21-14.57-4.58-15.35-17.29-21.38-15.61-7.41-33.47-14.49-49.66-20.72-7.43-2.86-23.72-9.93-31.02-9.85-10.26.12-25.77,11.51-34.29,17.33-29.25,20.01-58.6,43.49-86.05,65.98-11.09,9.08-35.56,27.37-42.96,38.15-5.09,7.42-2.98,22.13-1.37,30.58l11.79-7.83c.29-1.32-4.47-2.96-5.08-3.99-.86-1.45-.49-3.28,1.39-2.96l68.97,38.42c.94,2.08-.25,4.13-.28,6.15-.04,2.47,1.12,12.04.32,13.21-.61.89-2.56.79-2.9-.38l-.62-11.47-13.96,9.66c4.12,1.48,26.16,14.38,29.01,11.82-1.28-3.09-1.71-5.51-1.63-8.88.42-17.06,3.31-22.33,15.32-33.56,12.72-11.91,27.88-23.66,41.4-34.88,30.49-25.31,62.77-53.53,94.33-77.03,3.09-2.3,11.5-8.56,15.13-8.25.44.04.96.31,1.39.48.23.36.19,1.55-.04,1.97ZM641.39,233.76c-12.15,30.79-49.92,37.16-79.24,32.46-22.11-3.55-36.88-13.17-46.55-33.49-.76-1.6-3.87-10.37-4.35-10.69-1.59-1.07-6.06,1.07-8.08.83,1.6,2.01,4.11,3.26,5.61,5.4,3.66,5.23,5.02,18.9,5.67,25.48.91,9.15,1.07,18.45,1.64,27.63,30.36,7.26,62.64,8.97,93.72,6.46,21.14-1.7,45.55-5.63,65.11-13.87,9.28-3.91,27.71-13.26,25.83-25.48-1.96-12.76-27.42-21.02-38.31-23.51l-21.05,8.76ZM652.52,285.18c-44.66,9.5-91.91,10.37-136.46,0l.59,6.39c11.32,3.59,22.83,6.6,34.67,8.03,28.87,3.5,70.18,3.17,96.19-11.11l5.01-3.31ZM315.66,373.26l-58.92-31.61-55.69,32.77-2.94,3.85c.44,1.38,1.52,2.39,2.61,3.27,7.12,5.71,20.24,12.8,28.48,17.72,4.44,2.65,19.14,12.23,23.3,12.15,3.66-.07,8.86-3.81,12.07-5.7,15.63-9.19,35.07-20.54,49.65-30.93.36-.26,1.68-1.18,1.44-1.51Z"/>
        <path d="M129.76,80.53c15.42,6.42,32.01,9.3,48.63,10.75,12.29,1.07,26.48.28,38.31,3.06,15.99,3.76,31.28,22.51,41.45,34.83,2.99,3.62,6.19,7.52,8.62,11.53l28.47-17.99c9.51-3.59,13.3,3.62,17.74,10.19,12.33,18.26,23.28,37.52,35.35,55.97,4.02,9.08-1.21,12.34-7.68,16.83-17.64,12.25-37.39,24.17-55.66,35.66-10.74,6.75-25.16,17.2-36.12,22.43-5.45,2.6-10.24,2.12-14.24-2.61l-33.45-52.77c-4.11,1.09-7.77,3.69-12.1,4.2s-9.35-.06-12.59-3.41c-.95-.99-1.96-3.27-2.7-3.75-.96-.63-3.73-1.08-5.17-1.82-6.83-3.5-17.55-9.74-13.6-18.89-6.74-1.48-13.69-1.21-20.53-2.31-20.5-3.28-35.28-13.5-46.9-30.41-2.7,1.87-6.68,4.98-9.91,5.62-5.47,1.1-18-5.3-23.5-7.72-11.05-4.87-22.86-10.38-33.68-15.75-.94-.47-10.38-4.47-7.28-6.32l3.19.2,53.17,24.45c-2.12-20,7.14-41.44,18.6-57.41,8.54-11.9,19.08-22.11,31.9-29.33l-40-28.75-1.38-1.87c-.02-1.7,2.5-1.68,3.56-.84l45.91,32.51c3.85,3.97,4.06,8.9,1.59,13.71ZM126.53,78.93c1.04-2.61,1.91-5.46.26-8.04-2.91-4.52-7.81-.1-10.98,1.86l10.73,6.18ZM218.41,138c8.42,5.24,16.12,12.08,22.29,19.84l23.36-15.26c-10.17-12.05-19.92-26-32.22-35.99-17.13-13.92-37.87-9.96-58.83-12.08-21.35-2.16-42.52-7.63-60.72-19.18-19.26,14.87-33.28,36.86-38.45,60.72,2.92,2.1,6.1,3.99,8.89,6.27,8.47,6.94,13.71,16.63,22.06,23.6,13.74,11.47,27.04,12.51,44.03,13.99,2,.17,6.99,1.62,8.08,1.57.77-.03,3.29-1.91,4.57-2.37,4.64-1.67,8.71-1.51,13.42-.29-1.7-2.62-1.56-5.66.54-8.04-4.75-1.51-10.08,0-14.75.02-21.5.09-46.26-5.45-58.75-24.57-1.43-2.19-5.09-8.14-4.32-10.55l1.27-.92c1.56.01,4.8,7.35,5.95,9.11,10.06,15.35,30.02,22.29,47.75,23.17,6.3.31,12.86-.96,18.85-.58,16.54,1.04,44.26,20.44,60.6,27.51,8.09,3.5,18.58,7.8,26.41,1.5,12.08-9.72-5.51-21.11-13.2-25.99-16.76-10.64-35.63-17.52-50.22-31.44-1.15-1.1-5.86-5.67-6.28-6.61-.37-.81-.54-1.64-.39-2.53.55-.09,1.09-.38,1.67-.29,2.34.35,8.37,7.65,10.67,9.68.95.84,6.65,5.55,7.27,5.5,2.49-1.82,5.08-4.41,6.93-6.89,1.43-1.91,3.97-7.64,4.75-8.4.87-.86,2.3-.75,2.84.4.91,1.94-3.18,7.11-4.05,9.11ZM227.54,195.49l-25.52-12.86c-5.87,1.57-8.63,6.88-5.34,12.28l40.62,63.59c4.08,5.69,8.65,2.69,13.29.05,30.82-17.58,59.62-38.91,90.05-57.14,4.3-3.15,7.1-5.31,4.47-10.94-14.19-21.11-26.29-43.93-41.84-63.98-3.7-2.39-5.68-.71-9.07,1.09l-53.23,34.34c-.24,1.04.3.67.67.94,9.47,6.79,30.35,16.34,22.52,31.38-3.04,5.84-9.54,7.7-15.68,8.23-.31.31,3.92,4.8,1.31,8.02l-18.12,11.42c-1.65.73-3.31.62-4.89-.19-1.49-.77-7.77-10.77-8.69-12.79-3.5-7.67,4.8-8.26,9.09-12.34.45-.43.49-.37.34-1.11ZM72.81,140.16v8.32c0,.25,1.01,4.49,1.16,4.75,1.77,2.95,8.84-2.21,10.66-3.69.23-.95-3.68-3.78-4.59-4.52-.68-.56-6.82-5.34-7.23-4.86ZM237.21,160.57c-1.01-3.01-3.43-5.36-5.62-7.53-4.39-4.36-9.92-8.27-14.8-12.1l-5.36,4.87,25.78,14.76ZM198.53,180.97c-.05-.79-.83-.82-1.33-1.08-2.3-1.19-17.52-8.37-18.75-8.01l-.79.85c-.86,7.9,6.54,13.76,14.06,13.64,1.35-2.85,3.5-5.19,6.8-5.41ZM182.41,187.95c-5.91-4.72-14.49-9.23-21.67-4.2-9.49,6.64,6.64,16.25,12.8,17.64.17-5.62,3.52-11.46,8.87-13.44ZM191.48,190.18c-8.28-3.09-17.87,8.13-13.28,15.69,3.84,6.31,15.16,2.42,20.31-.21.86-1.23-8.43-12.16-7.04-15.48Z"/>
        <path d="M590.59.07c.98-.21,2.56.02,2.3,1.25-.11.52-6.57,5.76-7.79,7.25-4.7,5.74-9.61,15.96-4.3,22.58,5.92,7.39,15.95,10.14,19.25,21.04,6.27,20.75-24.24,28.15-21.62,45.24.41,2.69,3.81,5.87,3.12,8.01-1.19,3.7-5.71-3.71-6.23-5.44-6.35-21.05,29.49-29.2,20.2-49.19-6.33-13.62-26.07-13.83-19.14-33.23,1.71-4.78,9.11-16.43,14.22-17.5Z"/>
        <path class="cls-1" d="M501.43,235.65c.24-.41.27-1.61.04-1.97-.43-.17-.95-.45-1.39-.48-3.63-.31-12.05,5.95-15.13,8.25-31.57,23.5-63.84,51.72-94.33,77.03-13.52,11.22-28.67,22.98-41.4,34.88-12,11.23-14.9,16.5-15.32,33.56-.08,3.37.35,5.79,1.63,8.88-2.85,2.56-24.89-10.34-29.01-11.82l13.96-9.66.62,11.47c.34,1.16,2.29,1.26,2.9.38.81-1.17-.35-10.74-.32-13.21.03-2.02,1.22-4.07.28-6.15l-68.97-38.42c-1.88-.32-2.25,1.51-1.39,2.96.61,1.04,5.36,2.67,5.08,3.99l-11.79,7.83c-1.6-8.44-3.72-23.16,1.37-30.58,7.4-10.79,31.87-29.07,42.96-38.15,27.45-22.48,56.79-45.97,86.05-65.98,8.51-5.82,24.03-17.21,34.29-17.33,7.31-.08,23.59,6.99,31.02,9.85,16.19,6.23,34.04,13.31,49.66,20.72,12.71,6.03,15.09,6.82,17.29,21.38,2.49,16.42,4.53,42.65,3.32,59.02-.92,12.45-7.21,15.52-17.39,20.75-5.34,2.74-7.85,4.83-13.43.89-8.61-6.08-8.02-13.23-21.51-7.35-15.09,6.58-35.9,22.06-49.94,31.71-19.45,13.36-40.72,31.62-60.91,42.76-9.68,5.34-12.6,5.56-12.01-6.63.8-16.29,5.24-20.42,16.67-30.6,42.74-38.09,90.13-72.34,133.53-109.81,1.3-2.31,13.18-7.49,13.57-8.18ZM400.82,203.25c-3.32.32-6,2.2-8.73,3.92-14.99,9.48-29.26,21.78-44.16,31.58-3.39,2.94,0,4.85,2.63,6.42,21.15,12.6,47.88,20.74,69.49,33.12,2.67,1.35,5.41,1.46,7.85-.4,13.29-11.88,28.11-22,41.66-33.55,4.55-3.87,11.03-8.17,2.09-12.26l-70.83-28.83ZM323.37,258.51c-1.71,1.98-1.72,3.7.37,5.43,1.69,1.4,14.42,7.53,16.44,7.62,3.55.16,9.14-4.56,11.21-7.32,1.84-2.44,1.96-3.95-.73-5.73-1.49-.99-13.65-6.95-14.89-7.14-1.31-.2-2.61-.13-3.86.38-.98.39-7.72,5.81-8.54,6.76ZM361.75,264.34c-2.39.18-11.19,6.31-12.27,8.18-1.2,2.07-.61,3.48,1.14,4.83,1.54,1.18,13.34,7.4,15.16,7.94,2.66.8,4.1.63,6.48-.74.83-.48,8.59-6.73,8.89-7.22,1.28-2.01.69-3.41-1.05-4.74-2.15-1.65-11.83-6.31-14.64-7.38-1.39-.53-2.08-.99-3.7-.87ZM332.68,279.63c1.32-1.62,1.66-3.3.13-4.89-2.82-2.94-12.12-5.69-15.84-8.33-3.13-1.73-13.81,7.39-14.19,9.38-.14.74-.13,1.85.1,2.57.34,1.11,11.91,7.55,13.73,8.28,3.06,1.23,4.93,1.24,7.84-.48.95-.56,7.71-5.87,8.24-6.53ZM407.88,293.58c2.51-2.76,3.29-4.39.21-7.08-1.3-1.13-14.96-8.05-16.44-8.28-3.9-.6-9.58,4.21-12.34,6.94-3.05,3.01-3.04,4.84.64,7.44,2.37,1.67,10.54,5.77,13.41,7,1.86.8,2.97,1.39,5.07.92,1.8-.4,8.07-5.43,9.45-6.95ZM361.14,288.58c-.87-.91-14.47-7.88-16.08-8.36-3.2-.96-4.42-.52-7.01,1.29-1.22.85-8.32,6.67-8.68,7.44-1.11,2.42.33,3.98,2.23,5.27,2.15,1.46,12.56,7.01,14.83,7.73,2.76.87,4.17.27,6.48-1.28,1.16-.78,8.54-6.92,8.98-7.67.96-1.65.51-3.11-.75-4.41ZM295.09,282.61c-1.67.35-10.79,7.16-11.39,8.48-1.36,2.98.79,4.68,2.99,6.12,2.06,1.35,9.87,5.73,11.92,6.34,2.23.67,3.68.77,5.74-.41.95-.54,9.68-7.72,9.95-8.31,1.36-3-.9-4.22-2.98-5.59-1.54-1.01-11-6.16-12.29-6.5s-2.58-.41-3.93-.13ZM369.23,293.88c-.76.18-10.56,7.86-10.85,8.48-1.35,2.95.45,4.48,2.55,6.03,2.28,1.68,12.05,7.27,14.51,8.05,3.75,1.18,5.52-.46,8.4-2.58s10.14-7.73,5.94-11.22c-5.14-1.6-11.82-7.37-16.62-8.62-1.3-.34-2.62-.45-3.94-.14ZM321.97,296.03c-2.24.38-12.43,8.45-12.76,10.38-.38,2.18.85,3.32,2.51,4.45,2.56,1.75,9.99,5.76,12.87,7,2.47,1.06,3.72,1.58,6.41.63,1.49-.53,8.99-6.49,9.91-7.81,1.69-2.42,1.44-4.23-.8-6.18-1.23-1.07-13.81-7.93-15.31-8.34-1.1-.3-1.71-.32-2.84-.14ZM274.67,299.78c-1.43.33-9.08,6.8-10.05,8.22-2.16,3.12-1.13,5.39,1.78,7.36,1.72,1.16,11.06,6.2,12.72,6.63.9.23,1.34.32,2.29.14,1.36-.26,10.41-7.37,11.71-8.74,2.1-2.2,2.26-4.21-.37-6.11-1.52-1.1-14.15-7.41-15.56-7.56-.86-.09-1.67-.12-2.52.07ZM349.92,310.52c-1.82.27-10.9,7.42-11.93,9.05-1.23,1.95-1.27,3.73.59,5.27,1.42,1.17,14.72,8.55,16.29,8.96,1.67.43,2.55.38,4.17-.16,1.51-.5,11.66-8.57,12.24-9.81.8-1.73-.35-3.23-1.7-4.2-2.32-1.68-12.64-7.15-15.41-8.23-1.55-.61-2.48-1.14-4.25-.88ZM301,313.21c-.81.19-9.54,7.01-10.35,7.92-3.42,3.83-1.99,6.15,1.74,8.51,2.49,1.57,12.58,7.06,14.93,7.14,4.74.15,9.83-6.92,13.73-9.42,2.87-5.01-5.52-8.36-9.15-10.25-2.87-1.49-7.81-4.62-10.91-3.91ZM328.96,328.25c-.87.14-1.54.53-2.28.96-1.24.72-8.21,6.42-9.16,7.49-3.54,3.96.47,6.8,3.69,8.71,2.51,1.48,11.87,6.68,14.16,6.72,2.75.05,8.8-5.06,10.93-7.07,3.74-3.55,5.72-5.43.37-8.97-2.05-1.36-14.03-7.76-15.75-7.93-.7-.07-1.26-.02-1.95.09Z"/>
        <path class="cls-1" d="M503.17,148.75c8.63,7.54,20.14,10.78,31.15,13.17,26.26,5.68,56.9,6.03,83.3,1.08,12.93-2.42,26.8-6.05,36.52-15.32-1.14,17.11-2.79,34.77-6.15,51.58-7.75,38.79-19.65,62.13-62.86,64.45-36.55,1.97-59.72-9.98-70.82-45.26-6.98-22.2-9.79-46.5-11.13-69.7Z"/>
        <path class="cls-1" d="M641.39,233.76l21.05-8.76c10.89,2.5,36.35,10.76,38.31,23.51,1.88,12.22-16.55,21.57-25.83,25.48-19.56,8.23-43.97,12.16-65.11,13.87-31.09,2.51-63.37.8-93.72-6.46-.57-9.18-.72-18.48-1.64-27.63-.66-6.58-2.01-20.25-5.67-25.48-1.5-2.14-4.01-3.39-5.61-5.4,2.03.23,6.49-1.9,8.08-.83.48.32,3.59,9.09,4.35,10.69,9.68,20.32,24.44,29.94,46.55,33.49,29.32,4.7,67.08-1.67,79.24-32.46Z"/>
        <path class="cls-1" d="M315.66,373.26c.25.33-1.08,1.25-1.44,1.51-14.57,10.4-34.02,21.74-49.65,30.93-3.21,1.89-8.41,5.63-12.07,5.7-4.16.08-18.86-9.49-23.3-12.15-8.24-4.92-21.37-12-28.48-17.72-1.09-.88-2.17-1.89-2.61-3.27l2.94-3.85,55.69-32.77,58.92,31.61ZM283.91,376.53c-.27-.39-2.45-.73-3.01-.2-3.62,2.99-26.83,14.74-27.84,17.32-.2.52.25,1.04.33,1.57,1.24.25,2.38.07,3.56-.37,5.16-1.92,19.03-11.26,24.48-14.73,1.03-.66,3.6-1.97,2.47-3.6Z"/>
        <path class="cls-1" d="M642.86,150.9c-1.71-5.11-8.53-8.21-13.3-10.08-25.56-9.99-70.96-9.68-97.13-1.75-7.3,2.21-14.95,5.16-19.32,11.76-19.62-10.32-6.06-19.97,7.9-24.78,30.04-10.35,86.8-10.31,116.6.82,14.59,5.45,23.85,14.73,5.25,24.03Z"/>
        <path class="cls-1" d="M643.39,228.77l5.1-14.5c11.21-3.41,23.56-10.28,31.17-19.32,18.88-22.42-2.3-45.51-23.91-24.71l1.85-16.14c26.83-13.6,47.9,7.38,38.3,35.07-7.75,22.37-32.6,31.09-52.52,39.61Z"/>
        <path class="cls-1" d="M652.52,285.18l-5.01,3.31c-26.01,14.28-67.32,14.61-96.19,11.11-11.85-1.43-23.35-4.45-34.67-8.03l-.59-6.39c44.55,10.37,91.8,9.5,136.46,0Z"/>
        <path class="cls-1" d="M649.3,209.98c.59-2.82,1.45-5.64,1.99-8.48,1.32-7.02,1.78-16.29,3.51-22.81.78-2.96,4.49-6.79,6.9-8.68,10.92-8.51,23.6-4.13,21.2,10.99-2.09,13.2-21.51,25.71-33.6,28.97Z"/>
        <path class="cls-1" d="M218.41,138c.87-1.99,4.96-7.17,4.05-9.11-.54-1.15-1.97-1.26-2.84-.4-.78.77-3.32,6.49-4.75,8.4-1.85,2.49-4.44,5.07-6.93,6.89-.62.05-6.32-4.66-7.27-5.5-2.3-2.03-8.33-9.33-10.67-9.68-.58-.09-1.11.2-1.67.29-.15.89.03,1.72.39,2.53.42.94,5.13,5.52,6.28,6.61,14.59,13.92,33.46,20.8,50.22,31.44,7.68,4.88,25.28,16.27,13.2,25.99-7.83,6.29-18.31,1.99-26.41-1.5-16.34-7.06-44.06-26.47-60.6-27.51-5.99-.38-12.55.89-18.85.58-17.73-.87-37.68-7.82-47.75-23.17-1.15-1.76-4.39-9.1-5.95-9.11l-1.27.92c-.77,2.41,2.89,8.36,4.32,10.55,12.5,19.11,37.26,24.65,58.75,24.57,4.67-.02,9.99-1.53,14.75-.02-2.09,2.39-2.23,5.43-.54,8.04-4.71-1.22-8.78-1.39-13.42.29-1.28.46-3.8,2.33-4.57,2.37-1.09.05-6.08-1.4-8.08-1.57-16.99-1.47-30.3-2.52-44.03-13.99-8.34-6.97-13.59-16.66-22.06-23.6-2.79-2.28-5.97-4.18-8.89-6.27,5.17-23.87,19.19-45.86,38.45-60.72,18.2,11.54,39.37,17.02,60.72,19.18,20.96,2.12,41.7-1.84,58.83,12.08,12.3,9.99,22.05,23.94,32.22,35.99l-23.36,15.26c-6.17-7.76-13.87-14.6-22.29-19.84ZM241.45,190.71c-6.92-.5-1.78-12.67,1.94-13,4.19-.36,7.76,4.14,9.7,4.37s2.35-1.52,1.36-3.01c-1.59-2.39-9.74-5.58-12.54-4.97-6.15,1.36-12.28,20.69-.9,19l.43-2.39Z"/>
        <path class="cls-1" d="M227.54,195.49c.15.75.11.68-.34,1.11-4.28,4.08-12.59,4.67-9.09,12.34.92,2.02,7.2,12.03,8.69,12.79,1.58.81,3.24.92,4.89.19l18.12-11.42c2.61-3.22-1.62-7.72-1.31-8.02,6.14-.53,12.64-2.4,15.68-8.23,7.83-15.04-13.05-24.59-22.52-31.38-.37-.27-.92.1-.67-.94l53.23-34.34c3.38-1.81,5.36-3.48,9.07-1.09,15.56,20.05,27.65,42.87,41.84,63.98,2.63,5.62-.17,7.78-4.47,10.94-30.43,18.24-59.23,39.56-90.05,57.14-4.64,2.65-9.21,5.64-13.29-.05l-40.62-63.59c-3.29-5.4-.53-10.71,5.34-12.28l25.52,12.86ZM272.14,218.57l-3.41.62c-8.38,6.69-19.73,11.65-27.93,18.27-2.01,1.62-3.61,4.27.19,3.97,3.62-2.75,30.45-18.63,31.05-20.55.23-.73.1-1.56.1-2.31Z"/>
        <path class="cls-1" d="M191.48,190.18c-1.39,3.32,7.9,14.25,7.04,15.48-5.15,2.63-16.48,6.52-20.31.21-4.6-7.56,5-18.78,13.28-15.69Z"/>
        <path class="cls-1" d="M182.41,187.95c-5.35,1.99-8.7,7.82-8.87,13.44-6.15-1.39-22.28-11-12.8-17.64,7.18-5.03,15.76-.52,21.67,4.2Z"/>
        <path class="cls-1" d="M198.53,180.97c-3.3.22-5.46,2.56-6.8,5.41-7.53.12-14.92-5.75-14.06-13.64l.79-.85c1.23-.36,16.45,6.81,18.75,8.01.5.26,1.28.29,1.33,1.08Z"/>
        <path class="cls-1" d="M237.21,160.57l-25.78-14.76,5.36-4.87c4.87,3.83,10.41,7.74,14.8,12.1,2.19,2.17,4.61,4.52,5.62,7.53Z"/>
        <path class="cls-1" d="M72.81,140.16c.41-.48,6.55,4.3,7.23,4.86.91.74,4.82,3.57,4.59,4.52-1.82,1.48-8.89,6.64-10.66,3.69-.15-.25-1.16-4.5-1.16-4.75v-8.32Z"/>
        <path class="cls-1" d="M126.53,78.93l-10.73-6.18c3.17-1.96,8.08-6.38,10.98-1.86,1.66,2.58.79,5.42-.26,8.04Z"/>
        <path d="M400.82,203.25l70.83,28.83c8.94,4.1,2.46,8.39-2.09,12.26-13.55,11.54-28.36,21.67-41.66,33.55-2.44,1.85-5.18,1.75-7.85.4-21.61-12.37-48.34-20.52-69.49-33.12-2.63-1.57-6.02-3.47-2.63-6.42,14.9-9.8,29.17-22.1,44.16-31.58,2.73-1.72,5.41-3.6,8.73-3.92ZM461.79,238.45l-62.05-25.57c-12.86,8.87-25.64,18.12-37.87,27.71l61.98,28.92,37.95-31.06Z"/>
        <path d="M349.92,310.52c1.77-.26,2.7.27,4.25.88,2.76,1.08,13.08,6.55,15.41,8.23,1.35.98,2.5,2.47,1.7,4.2-.57,1.24-10.73,9.31-12.24,9.81-1.62.54-2.5.59-4.17.16-1.57-.41-14.87-7.78-16.29-8.96-1.86-1.54-1.82-3.32-.59-5.27,1.03-1.63,10.12-8.78,11.93-9.05ZM367.23,322.24c-3.8-.74-12.9-8.01-15.86-8.11-1.96-.07-10.69,6.82-10.46,7.82l15.85,8.84c1.19,0,5.75-3.77,6.97-4.81.71-.61,3.97-3.11,3.5-3.74Z"/>
        <path d="M328.96,328.25c.69-.11,1.24-.16,1.95-.09,1.72.16,13.7,6.57,15.75,7.93,5.36,3.55,3.37,5.43-.37,8.97-2.12,2.02-8.18,7.12-10.93,7.07-2.29-.04-11.65-5.23-14.16-6.72-3.22-1.91-7.23-4.75-3.69-8.71.95-1.07,7.92-6.77,9.16-7.49.74-.44,1.41-.82,2.28-.96ZM320.1,340.9c3.84,1.07,12.24,7.92,15.71,7.71.61-.04,1.17-.13,1.64-.56l8.82-7.82-16.3-8.73-10.31,7.92.45,1.48Z"/>
        <path d="M301,313.21c3.1-.72,8.04,2.41,10.91,3.91,3.63,1.89,12.02,5.23,9.15,10.25-3.91,2.49-9,9.57-13.73,9.42-2.35-.08-12.44-5.56-14.93-7.14-3.73-2.36-5.16-4.68-1.74-8.51.81-.91,9.54-7.73,10.35-7.92ZM318.34,324.39l-15.86-7.57c-.67-.1-1.09.25-1.62.56-.92.53-6.92,5.42-7.72,6.25-.46.48-.75,1.02-1.11,1.57l15.3,8.29c1.44,0,9.05-6.4,10.44-7.79.44-.44.77-.48.57-1.3Z"/>
        <path d="M361.14,288.58c1.26,1.3,1.71,2.76.75,4.41-.44.75-7.82,6.89-8.98,7.67-2.31,1.54-3.72,2.14-6.48,1.28-2.27-.71-12.68-6.26-14.83-7.73-1.89-1.29-3.34-2.85-2.23-5.27.35-.76,7.45-6.58,8.68-7.44,2.59-1.8,3.81-2.25,7.01-1.29,1.61.48,15.21,7.46,16.08,8.36ZM332.85,291.07l15.86,7.85,9.92-7.58-15.84-8.3c-1.19,0-8.21,5.56-9.37,6.72-.44.44-.77.47-.57,1.3Z"/>
        <path d="M369.23,293.88c1.32-.31,2.63-.2,3.94.14,4.81,1.26,11.48,7.02,16.62,8.62,4.2,3.49-3.2,9.2-5.94,11.22-2.88,2.12-4.66,3.76-8.4,2.58-2.46-.78-12.23-6.37-14.51-8.05-2.1-1.55-3.91-3.07-2.55-6.03.29-.63,10.09-8.31,10.85-8.48ZM370.85,297.07l-9.51,7.17c-.03.94,15.39,9.21,16.38,9.18,2.15-.08,8-5.99,9.93-7.56l-16.8-8.78Z"/>
        <path d="M321.97,296.03c1.13-.19,1.74-.16,2.84.14,1.49.4,14.07,7.26,15.31,8.34,2.24,1.95,2.48,3.76.8,6.18-.92,1.32-8.42,7.28-9.91,7.81-2.69.95-3.94.44-6.41-.63-2.88-1.24-10.31-5.26-12.87-7-1.67-1.13-2.89-2.27-2.51-4.45.33-1.94,10.53-10.01,12.76-10.38ZM321.97,299.8c-1.15.3-9.18,6.88-9,7.65.2.36.57.51.88.74,1.15.85,13.71,7.43,14.52,7.47,2.12.1,7.68-5.94,9.81-7.17l-.5-1.56c-4.12-1.55-8.58-5.3-12.5-6.83-1.17-.45-1.95-.63-3.21-.3Z"/>
        <path d="M407.88,293.58c-1.38,1.52-7.65,6.55-9.45,6.95-2.1.47-3.2-.12-5.07-.92-2.87-1.24-11.04-5.33-13.41-7-3.69-2.6-3.69-4.43-.64-7.44,2.76-2.72,8.44-7.53,12.34-6.94,1.48.23,15.14,7.15,16.44,8.28,3.08,2.69,2.3,4.32-.21,7.08ZM390.2,281.5l-9.52,7.16,14.52,8.03c4.3,1.43,8.12-4.51,11.24-6.95l-16.25-8.23Z"/>
        <path d="M361.75,264.34c1.62-.12,2.31.35,3.7.87,2.81,1.07,12.5,5.72,14.64,7.38,1.73,1.33,2.33,2.73,1.05,4.74-.31.48-8.06,6.74-8.89,7.22-2.38,1.37-3.82,1.54-6.48.74-1.82-.55-13.62-6.76-15.16-7.94-1.74-1.35-2.34-2.76-1.14-4.83,1.09-1.88,9.88-8,12.27-8.18ZM377.98,274.97c-4.23-.86-11.96-7.01-15.85-7.02-3.09-.01-6.45,4.99-9.4,5.95l.33,1.1c3.55.57,12.35,7.32,15.02,7.48,2.24.13,8.11-5.73,9.9-7.5Z"/>
        <path d="M274.67,299.78c.85-.19,1.66-.17,2.52-.07,1.41.15,14.04,6.47,15.56,7.56,2.63,1.9,2.47,3.91.37,6.11-1.3,1.37-10.35,8.48-11.71,8.74-.95.18-1.39.09-2.29-.14-1.66-.43-11-5.47-12.72-6.63-2.91-1.96-3.94-4.24-1.78-7.36.98-1.41,8.62-7.89,10.05-8.22ZM276.25,303.01c-1.56.73-9.76,7.03-9.49,8.2l13.66,7.26,10.51-7.78-14.68-7.68Z"/>
        <path d="M295.09,282.61c1.35-.28,2.6-.23,3.93.13s10.76,5.49,12.29,6.5c2.08,1.37,4.35,2.58,2.98,5.59-.27.59-9.01,7.77-9.95,8.31-2.06,1.18-3.51,1.08-5.74.41-2.05-.62-9.86-4.99-11.92-6.34-2.2-1.44-4.35-3.14-2.99-6.12.6-1.32,9.72-8.13,11.39-8.48ZM310.82,292.7l-14.24-6.95-9.93,7.21,14.23,7.75c.98,0,8.44-5.8,9.59-6.9.45-.43.5-.36.34-1.11Z"/>
        <path d="M332.68,279.63c-.53.65-7.29,5.97-8.24,6.53-2.91,1.72-4.77,1.72-7.84.48-1.82-.73-13.39-7.18-13.73-8.28-.22-.72-.24-1.83-.1-2.57.39-2,11.06-11.12,14.19-9.38,3.72,2.65,13.02,5.39,15.84,8.33,1.53,1.59,1.19,3.27-.13,4.89ZM330.16,276.59l-14.77-6.95c-1.35,0-8,5.52-8.87,7.2.18.76,12.37,7.29,13.7,7.29,1.7,0,10.32-7.04,9.94-7.54Z"/>
        <path d="M323.37,258.51c.82-.95,7.57-6.37,8.54-6.76,1.24-.5,2.54-.58,3.86-.38s13.4,6.15,14.89,7.14c2.7,1.78,2.57,3.29.73,5.73-2.07,2.75-7.66,7.47-11.21,7.32-2.02-.09-14.75-6.22-16.44-7.62-2.09-1.73-2.07-3.45-.37-5.43ZM325.87,261.53c3.47.46,12.09,6.94,14.77,6.95,1.76,0,6.68-5.34,8.32-6.68l-14.32-7.14c-1.44-.18-9.13,6.39-8.77,6.86Z"/>
        <path d="M283.91,376.53c1.13,1.62-1.44,2.94-2.47,3.6-5.45,3.47-19.33,12.81-24.48,14.73-1.18.44-2.32.62-3.56.37-.09-.52-.54-1.05-.33-1.57,1.01-2.59,24.21-14.33,27.84-17.32.56-.54,2.74-.2,3.01.2Z"/>
        <path d="M241.45,190.71l-.43,2.39c-11.39,1.69-5.25-17.65.9-19,2.8-.62,10.95,2.58,12.54,4.97.99,1.49.65,3.25-1.36,3.01s-5.51-4.73-9.7-4.37c-3.72.32-8.86,12.5-1.94,13Z"/>
        <path d="M272.14,218.57c0,.75.13,1.58-.1,2.31-.6,1.92-27.43,17.8-31.05,20.55-3.79.3-2.19-2.35-.19-3.97,8.19-6.62,19.54-11.58,27.93-18.27l3.41-.62Z"/>
        <path class="cls-1" d="M461.79,238.45l-37.95,31.06-61.98-28.92c12.24-9.59,25.02-18.84,37.87-27.71l62.05,25.57Z"/>
        <path class="cls-1" d="M367.23,322.24c.47.63-2.79,3.13-3.5,3.74-1.21,1.03-5.78,4.81-6.97,4.81l-15.85-8.84c-.23-1,8.5-7.89,10.46-7.82,2.96.1,12.06,7.37,15.86,8.11Z"/>
        <path class="cls-1" d="M320.1,340.9l-.45-1.48,10.31-7.92,16.3,8.73-8.82,7.82c-.47.43-1.03.52-1.64.56-3.46.21-11.86-6.64-15.71-7.71Z"/>
        <path class="cls-1" d="M318.34,324.39c.2.82-.13.86-.57,1.3-1.39,1.39-9,7.79-10.44,7.79l-15.3-8.29c.36-.54.65-1.09,1.11-1.57.79-.83,6.8-5.72,7.72-6.25.53-.31.95-.66,1.62-.56l15.86,7.57Z"/>
        <path class="cls-1" d="M332.85,291.07c-.2-.83.13-.86.57-1.3,1.16-1.16,8.18-6.72,9.37-6.72l15.84,8.3-9.92,7.58-15.86-7.85Z"/>
        <path class="cls-1" d="M370.85,297.07l16.8,8.78c-1.93,1.58-7.77,7.49-9.93,7.56-.99.04-16.41-8.23-16.38-9.18l9.51-7.17Z"/>
        <path class="cls-1" d="M321.97,299.8c1.26-.33,2.04-.16,3.21.3,3.92,1.53,8.38,5.29,12.5,6.83l.5,1.56c-2.13,1.23-7.69,7.27-9.81,7.17-.82-.04-13.37-6.62-14.52-7.47-.31-.23-.68-.38-.88-.74-.18-.77,7.85-7.35,9-7.65Z"/>
        <path class="cls-1" d="M390.2,281.5l16.25,8.23c-3.12,2.44-6.94,8.39-11.24,6.95l-14.52-8.03,9.52-7.16Z"/>
        <path class="cls-1" d="M377.98,274.97c-1.79,1.78-7.66,7.64-9.9,7.5-2.67-.16-11.47-6.91-15.02-7.48l-.33-1.1c2.95-.97,6.31-5.96,9.4-5.95,3.89.01,11.62,6.16,15.85,7.02Z"/>
        <path class="cls-1" d="M276.25,303.01l14.68,7.68-10.51,7.78-13.66-7.26c-.28-1.18,7.92-7.47,9.49-8.2Z"/>
        <path class="cls-1" d="M310.82,292.7c.16.75.1.68-.34,1.11-1.15,1.09-8.61,6.9-9.59,6.9l-14.23-7.75,9.93-7.21,14.24,6.95Z"/>
        <path class="cls-1" d="M330.16,276.59c.38.5-8.23,7.55-9.94,7.54-1.33,0-13.52-6.54-13.7-7.29.86-1.68,7.52-7.21,8.87-7.2l14.77,6.95Z"/>
        <path class="cls-1" d="M325.87,261.53c-.36-.47,7.34-7.05,8.77-6.86l14.32,7.14c-1.63,1.33-6.56,6.68-8.32,6.68-2.69-.01-11.3-6.49-14.77-6.95Z"/>
      </g>
      <g>
        <g>
          <circle class="cls-3" cx="578.27" cy="211.91" r="28.98" transform="translate(96.87 596.04) rotate(-58.71)"/>
          <path class="cls-4" d="M602.47,202.73c-.67-2.93-5.77-13.27-14.85-16.27-3.77-1.25-6.18-1.22-8.08-1.27-2.68-.08-5.96.62-8.84,1.62-4.93,1.71-8.31.79-11.71,6.43-3.4,5.64-3.53,7.31-5.36,11.3-1.85,4.02-3.05,8.7-1.05,14.57,2,5.87,3.4,8.35,6.2,10.43,2.8,2.08,3.37,2.65,4.79,4.18s3.84,4.49,10.21,4.93c1.45.1,2.98.15,4.55,0,2.34-.22,4.78-.67,7.1-1.17,2.94-.63,5.69-1.33,8.22-3.26,5.86-4.49,9.25-11.24,10.3-15.19s1.65-7.5.31-10.67c-.43-1.02-.76-1.69-.9-2.21-.26-.96-.45-1.52-.88-3.41Z"/>
        </g>
        <g>
          <path class="cls-2" d="M576.16,222.6c.85-.12,1.94-1.05,2.34-2.72.4-1.66,1.48-2.25,1.48-2.25l.09-1.92c-.34,0-.64.39-.96.95l.02-.05s-1.75,2.93-3.92,1.75c-.12-.07-.2-.2-.19-.34.05-.84,1.16-1.57,1.16-1.57,0,0,.02.73.45.61.42-.12,1.05-1.52.52-1.83s-2.48,1.26-2.48,3.4c0,.93,1.93,1.06,3.31.28-.55.98-1.22,1.8-2.14,1.8-2.3,0-2.48-3.65-2.95-6.18-.47-2.53-.8-6.6-.8-6.6,0,0-.56.84-.75,1.83-.06.31-.11,1.35.68,5.66.17,1.19,0,1.52,0,1.52-.05.33-.66.89-.66.89,0,0-.42-1.36-1.43-1.15s-1.78,3.58-.7,3.63c1.08.05,1.45-.54,1.45-.54,0,0,.3.14.19.75-.12.61-1.75,4.33-10.12,4.64,0,0,3.81.81,6.74.25,2.94-.56,4-5.62,3.97-6.37,0,0,.51-1.06.88-1.93,0,0,0,.02,0,.03,1.12,5.78,3.01,5.57,3.82,5.46Z"/>
          <path class="cls-2" d="M562.88,223.31s1.45-.44,1.74-.58c2.12-1.03,3.28-4.28,3.5-6.53.22-2.25-1.56-7.24-1.41-8.27,0,0-.69,1.62-.34,3.56.34,1.94,1.49,4.74,1.06,6.65-.71,3.12-4.55,5.17-4.55,5.17Z"/>
          <path class="cls-2" d="M565.31,215.58c0-1.83-1.29-2.51-1.26-3.91,0,0-.33,1.2-.37,1.69-.09.96,1.12,2.18,1.12,3.16,0,.89-1.73,2.15-2.76,2.15s-2.84-.4-2.74-2.95c.08-2.05,2.74-3.28,2.79-6.44,0,0-.42,1.33-1.01,2.25-.59.91-2.4,3.09-2.13,5.53.42,2.95,1.73,3.51,2.93,3.51s3.3-1.05,3.44-4.99Z"/>
          <rect class="cls-2" x="560.89" y="214.88" width="1.97" height="1.97" transform="translate(30.98 499.5) rotate(-49.13)"/>
          <path class="cls-2" d="M594.85,220.17c-1.25,4.57-8.43,5.34-8.43,5.34,0,0,2.04.33,4.1.21,3.64-.21,4.4-2.72,5.15-5.46.75-2.74,1.85-2.86,1.85-2.86l.12-1.94c-1.1.12-2.18,2.48-2.79,4.71Z"/>
          <path class="cls-2" d="M586.74,219.75c.03.57.34,1.16.82,1.59-.24.62-.47,1.23-.47,1.38-.01.2.38-.58.69-1.2.37.27.81.44,1.27.44.16,0,1.94.07,3.44-2.2,1.83-2.86,1.78-4.03.37-4.03-2.65.02-4.68,4.1-4.68,4.1-.98-.28-.98-1.94-.98-1.94-.77-.02-1.02,2.2-2.21,2.46,0,0,0,0,0,0-.07.02-.15.02-.23.02-.55,0-1.88-.19-2.61-4.4-.28-1.59-1.17-6.76-1.17-6.76-.18-.77-.3-1.27-.3-1.27,0,0-.44.91-.5,1.91-.01.19,1.34,7.12,1.65,8.6.49,2.32,1.19,3.82,2.72,3.82s1.92-2.44,2.2-2.51ZM591.31,217.5c1.52-.35,1.64.4,1.64.4,0,0-1.94,2.65-4.4,2.08,0,0,1.41-2.15,2.76-2.48Z"/>
          <rect class="cls-2" x="587.41" y="212.61" width="1.97" height="1.97" transform="translate(41.87 518.78) rotate(-49.13)"/>
          <rect class="cls-2" x="582.06" y="202.74" width="1.97" height="1.97" transform="translate(47.48 511.33) rotate(-49.13)"/>
          <rect class="cls-2" x="574.88" y="200.6" width="1.97" height="1.97" transform="translate(46.61 505.15) rotate(-49.13)"/>
          <path class="cls-2" d="M573.81,206.83h0s.94.95,2.65.72,2.73-1.95,2.94-2.78c0,0,0,0,0,0,.12-.35.21-.74.26-1.18.08-.43.24-1.53.16-2.7,1.71.83,2.33-.62,2.81-1.99.48-1.38,1.17-2.15,1.17-2.15l.03-1.85c-.69.12-1.32,4.19-3.26,4.31-.53,0-.94-.19-1.23-.39-.2-.41-.46-.78-.82-1.07l-.39,1.78s.94,1.15,1.33,2.69c-.13.99-1.37,3.5-3.58,3.5-1.08,0-2.64-.37-3.42-2.95-.77-2.56,2.67-4.86,1.87-8.98,0,0,.06,1.38-.56,2.65-.63,1.27-1.74,3.5-1.71,5.89.07,2.44.87,3.76,1.76,4.51Z"/>
          <path class="cls-2" d="M579.58,194.94c.33.43.62.82.62.82l.19-.61c-.14-.17-.37-.48-.62-.8.12-.42.2-.83.28-1.19.23-1.04-.32-1.01-.95-.76-.63.25-.57,1.24-.15,1.74.12.14.27.33.42.52-1.03,1.88-3.93,3.87-3.93,3.87,0,0,1.74-.97,2.95-1.92.6-.47.95-1.07,1.19-1.68ZM578.9,193.22c.55-.4,1.16-.05.74.87,0,.02-.02.04-.02.07-.37-.48-.71-.93-.71-.93Z"/>
          <path class="cls-2" d="M577.65,210.67c-.41.34-.86.63-1.33.87-.51.26-.99.61-1.4,1.03-.2.21-.38.44-.54.69-.15.25-.22.55-.25.83.31-.45.7-.83,1.11-1.16.42-.33.87-.61,1.35-.86.51-.27.99-.62,1.39-1.05.2-.22.37-.45.52-.71.14-.26.17-.55.23-.84-.29.46-.68.85-1.08,1.2Z"/>
          <path class="cls-2" d="M583.7,212.43c.09-.13.2-.26.31-.38.06-.06.12-.12.17-.18l.18-.17c.24-.22.51-.41.78-.59.55-.36,1.13-.67,1.74-.94.64-.28,1.24-.65,1.78-1.11.27-.23.51-.49.72-.77.26-.33.36-.79.39-.97-.08.14-.19.27-.3.39-.11.12-.22.24-.34.35-.24.23-.5.42-.77.61-.54.37-1.12.68-1.72.95-.63.28-1.25.64-1.79,1.09-.27.23-.52.48-.74.75-.27.34-.4.78-.42.96Z"/>
          <path class="cls-2" d="M573.14,227.86c-.5-1.9-.53-2.92-.53-2.92,0,0-.57,1.36-.04,3.22.16.57.23.69.34,1.28.17.89,0,1.69,0,1.7.01.03.34-.5.4-.61.25-.54.21-1.16.07-1.72-.09-.37-.13-.49-.25-.94Z"/>
          <rect class="cls-2" x="582.49" y="229.07" width="1.12" height="1.12" transform="translate(27.88 520.27) rotate(-49.13)"/>
          <path class="cls-2" d="M580.1,228.26c-.08-.59-.12-2.88.11-3.33,0,0,0-.01,0-.02,0-.03-.05-.02-.08,0-.26.18-.59.24-.91.24s-.63-.07-.95-.1c-.68-.07-.84.92-.76,1.14.24-.17.57-.1.86-.07.25.03.51.03.76,0,.18-.02.52-.18.52-.18,0,0-.22.84-.14,2.41.07,1.45.84,2.88.9,2.77.15-.27.27-.54.39-.83.02-.04,0-.07-.01-.1-.39-.59-.59-1.24-.69-1.94Z"/>
          <path class="cls-2" d="M576.66,227.79c-.01-.18-.03-.36-.04-.54,0,0,0,0,0-.01-.04-.46-.08-.92-.18-1.36-.02-.11-.17-.94-1.01-.94-.77,0-1.09.98-1.09,1.8,0,1.67,1.69.51,1.69.51,0,2.62.92,4.01.99,3.9.15-.27.27-.54.39-.83.02-.04,0-.07-.01-.1-.47-.72-.66-1.56-.73-2.41Z"/>
        </g>
      </g>
    </g>
  </g>
</svg>