<?xml version="1.0" encoding="UTF-8"?>
<svg id="Layer_2" data-name="Layer 2" xmlns="http://www.w3.org/2000/svg" viewBox="0 0 736 430.62">
  <defs>
    <style>
      .cls-1 {
        fill: #dfceaf;
      }

      .cls-2 {
        fill: #c82928;
      }
    </style>
  </defs>
  <g id="Layer_1-2" data-name="Layer 1">
    <g>
      <rect class="cls-2" width="736" height="430.62"/>
      <g>
        <path d="M331.18,48.7c12.23-3.31,18.93,7.4,16.61,18.4,3.14-.1,5.72,2.58,6.43,5.47,1.83,7.4-6.65,14.74-13.19,16.35-.1,4.76.23,9.56.02,14.31-.44,10.08-1.54,21.37-2.69,31.43-2.35,20.56-5.43,45.12-21.55,59.72-.8.73-2.26,1.4-2.86,1.98-.37.36-.41.31-.29.93,16.61,5.37,34.2,13.24,45.35,27.18,7.56,9.46,12.14,20.99,16.19,32.3,4.48,12.53,8.03,25.43,12.57,37.94.68-.07.69-.67.87-1.15,4.37-11.76,5.61-26.87,10.01-38.48,4.07-10.76,20.77-10.24,30.67-11.1,34.99-3.02,71.34-5.15,106.45-6.27,5.62-.18,15.21-1.53,20.4.22,6.74,2.28,5.67,8.96,4.83,14.68l-22.78,93.72,18.86-1.8c-1.24-4.36-1.1-8.79-1.35-13.23-.28-5.02-.76-9.67.04-14.78.53-3.36,3.42-5.05,6.27-6.31,14.65-6.45,50.84-6.1,65.67-.13,5.63,2.27,7.34,4.84,6.62,11.11,10.78-2.1,21.68,1.52,24.4,13.09,4.39,18.65-14.18,33.22-31.56,30.46l-.92,2.02c5.81.78,21.43,4.49,23.45,10.67,2.32,7.09-7.06,11.5-12.44,13.37-3.4,1.18-7.06,1.4-10.22,2.35-1.88.57-4.43,2.12-6.63,2.8-14.06,4.36-37.65,3.96-51.63-.47-1.76-.56-3.85-1.87-5.31-2.32-6.04-1.85-11.96-2.18-17.57-5.78-17.2-11.04,7.23-19.99,17.03-20.84-2.23-5.7-4.09-11.55-5.03-17.64l-1.03-.78-19.45,1.9c-4.19,10.24-1.55,23.86-14.46,27.53-12.43,3.54-28.65,3.39-41.5,6.1-34.3,6.27-69.39,9.31-103.72,15.28-6.44,1.12-12.78,3.12-19.24,4.1s-9.57.37-15.63-.79c-24.55-4.67-51.75-10.82-75.99-16.97-4.68-1.19-11.82-1.69-13.66-6.63-4.15.21-8.12.06-12.07-1.32-.02,4.41-6.97,6.91-10.77,7.21-18.06,1.42-40.99-.03-59.3-.91-12.8-.62-25.57-.99-38.15-3.62-17.6.85-35.49,3.72-53.03,4.52-1.13.05-2.27.06-3.26-.56v-2.47s47.95-4.16,47.95-4.16l-5.15-3.6c-18.16-15.29-9.72-48.72-5.49-69.21,8.12-39.33,17.52-72.22,52.89-94.83,17.24-11.02,37.24-19.52,56.55-26.18l5.39-32.44c-17.99-.29-25.69-22.31-19.84-37.12.48-1.22,2.59-4.24,2.67-4.92.1-.93-1.83-4.66-2.25-6.11-1.9-6.53-2.69-14.1-.1-20.53.7-1.75,3.55-5.52,3.73-6.61s-.73-2.68-.81-3.95c-.77-12.02,4.86-23.95,17.96-25.13,7.05-15.35,27.45-23.11,41.54-11.98,8.83-10.14,24.64-10.85,30.98,2.31,11.14-8.72,28.38-3.57,28.52,11.68ZM322.63,81.92c-11.34,7.51-25.98,4.54-33.01-7.18-4.59,3.75-9.56,6.89-15.68,7.2-6.89.36-13.08-2.88-18.2-7.2,3.06,8.71.78,17.77-1.79,26.27-1.58,5.22-5.57,17.12-9.42,20.66-5.97,5.5-8.34-2.47-10.61-6.04-11.2-17.63-24.27-5.65-23.11,11.43.63,9.21,8.4,22.9,19.24,20.1,1.16-.3,2.25-1.4,3.03-1.48,3.3-.33,2.21,3.52,0,4.5-1.21,11.88-4.93,24.42-6.03,36.18-1.08,11.6,4.01,19.52,13.01,26.39,13.33,10.19,41.99,17.63,51.15-1.31-12.73-2.62-26.64-11.66-35.01-21.56-.97-1.15-5.28-6.16-3.56-7.35,1.49-1.04,5.64,4.25,6.93,5.33,6.92,5.81,18.88,10.84,27.89,11.63,37.58,3.29,44.02-36.3,47.31-64.82.82-7.16,1.21-14.51,1.71-21.67-4.81-2.95-10.45-4.93-16.19-4.02-9.01,1.42-5.9,15.68-4.52,21.81s6.93,19.74,5.11,25.47c-2.27,7.18-17.65,7.06-21.16,2.25-.89-1.22-.4-3.36,1.14-3.39.73-.01,4.58,2.58,6.5,2.93,4.24.78,10.55.05,10.36-5.38-.44-12.53-11.66-28-5.8-41.73,3.74-8.75,18.92-6.47,25.09-1.62l.46-19.76c-5.73.31-13.36-1.16-14.83-7.63ZM305.57,208.3c.27-2.15-.2-4.75,0-6.96l-8.46,1.87c-4.04,33.64-45.12,26.31-63.4,9.13-6.16-5.79-12.37-16.26-10.32-24.92l-8.71,2.64c-.37,6.36,2.11,13.78,5.34,19.36,12.37,21.41,47.58,33.08,69.69,21.17,7.72-4.16,14.76-13.48,15.87-22.3ZM309.17,200.67c.02,2.69,0,5.39,0,8.08,0,1.23-1.78,6.5-2.35,7.97-7.57,19.5-30.51,24.9-49.36,21.15-23.3-4.63-45.19-20.97-46.2-46.41-25.5,10.93-54.76,23.76-70.69,47.63-11.36,17.02-17.64,41.52-22.05,61.46-3.29,14.87-9.8,44.42-5.04,58.47,7.22,21.26,31.84,18.64,49.95,21l32.76.92,22.25-.02c-1.89-2.51-2.62-5.75-3.08-8.81-1.94-12.95,2.19-27.69,10.27-37.87-9.02-1.05-18.13-1.31-27.17-2.25-11.01-1.15-22.32-3.5-33.24-4.48-4.92-.44-9.88-.7-14.79,0l-1.55-1.21c-.03-2.42,2.86-2.3,4.64-2.4,8.25-.46,16.3,1.11,24.47,1.78,2.88-18.86,5.51-37.74,7.21-56.76.22-2.43-1.15-8.26,3.04-6.4.96,4.9-.48,10.28-.34,15.37l-6.29,48.72c8.35.37,16.62,1.9,24.93,2.69,10.91,1.04,23.36.86,33.99,2.83,3.48.65,6.55,1.68,7.78,5.27,12.36-2.23,24.16-7.56,36.49-9.76,7.3-1.3,12.77-1.3,19.83,1.01,12.49,4.07,21.6,14.19,28.5,24.93l2.01.38c2.02-13.74,3.86-27.64,4.98-41.49,1.2-14.94,2.1-30.84,1.82-45.81-.04-1.97-1.84-10.99,1.1-10.99,1.62,0,1.83,3.04,1.96,4.34,1.95,19.16-.69,46.01-2.64,65.49-.94,9.36-2.27,18.75-3.59,28.06l35.42-4.54,12.15-47.28c-8.62-21.76-13.07-47.28-25.04-67.45-11.52-19.42-31.16-28.11-51.94-34.72-1.02.61-.23.94-.23,1.12ZM366.27,396.57l2.33.48c39.54-6.08,79.11-11.95,118.7-17.86,9.93-1.48,20.64-2.27,30.4-4.17,3.98-.77,8.43-1.77,10.72-5.45,10.2-40.44,20.62-80.98,29.56-121.74.95-5.89-3.82-7.51-8.77-7.46-12.76.12-25.81,1.63-38.61,2.3-31.16,1.64-64.32,2.58-95.22,6.27-5.52.66-10.98,1.68-13.19,7.47-10.92,42.47-22.72,84.82-33.36,127.38-.49,1.96-3.21,11.77-2.57,12.79ZM586.61,309.22c-3.28.16-6.68.41-9.95.83-3.88.5-16.2,2.69-17.58,6.71-.78,19.53.6,55.81,23.38,62.79,15.17,4.65,32.19,1.45,40.24-13.14,6.7-12.13,9.72-33.41,7.58-46.79-.2-1.26.24-2.77-.11-3.93-.79-2.63-14.4-5.29-17.26-5.64-8.27-1.03-17.98-1.23-26.31-.82ZM634.31,324.8v7.63c10.86-4.93,17.9,4.79,11.6,14.51-3.11,4.8-9.1,7.37-14.77,7.24l-2.22,7.43c15.25,1.54,31.5-12.18,25.81-28.27-2.98-8.44-12.46-10.78-20.42-8.54ZM279.53,365.65c-2.72-3.3,1.8-2.92,4.15-2.57,7.42,1.09,15.25,9.15,22.32,10.45,2.02.37,6.76-.18,5.65-2.92-.22-.53-3.63-4.85-4.29-5.62-3.44-4.02-8.96-9.14-13.74-11.41-1.61-.76-7.84-2.36-8.29-2.93-.5-.64-.62-1.34-.2-2.07.76-1.23,3.55-.51,4.75-.23,5.79,1.36,12.69,6.33,16.83,10.56,5.14,5.25,10.61,17.64,19.33,12.15.85-1.24-.5-3.21-1.07-4.36-1.4-2.83-3.91-5.98-5.92-8.44-5.99-7.31-13.19-13.67-21.78-17.74v-1.8c.33-.48.73-.85,1.34-.87,5.73-.25,20.37,14.48,24.04,19.07,1.36,1.71,6.36,10.07,7.01,10.5,1.76,1.14,5.52.04,5.48-1.89-.05-2.85-4.55-9.57-6.28-12.13-6.98-10.32-17.19-20.31-29.98-22.56-11.41-2-26.37,3.97-37.56,6.95-4.38,1.17-11.2,1.93-15.02,3.39-4.72,1.81-8.66,16.35-8.99,21.09-.23,3.28-.55,9.65,2.71,11.25,5.57,2.73,17.68,1.56,23.56-.26,5.46-1.69,10.46-5.81,15.97-7.61ZM244.5,336.93c-4.48-2.01-9.63-1.87-14.5-2.26-3.23,3.61-6.05,7.92-7.84,12.46-3.23,8.16-5.36,22.45-1.63,30.6.28.62,1.48,2.74,1.97,2.97,5.32.47,11.26.99,15.26-3.15-2.79-2.19-3.78-5.52-4.05-8.96-.62-7.9,1.15-15.42,4.43-22.54l6.37-9.12ZM632.06,350.39c6.34.74,13.81-5.68,12.47-12.24-.93-4.56-8.38-4.22-10.24-1.02-1.59,2.73-1.1,9.94-2.23,13.26ZM373.39,352.64l-37.72,5.16,1.86,3.74,1.47.07,33.19-4.91,1.2-4.06ZM363.96,387.66c-8.11-1.31-16.21-2.95-24.26-4.71-7.43-1.63-20.08-5.89-26.84-6.42-1.7-.14-3.13.83-4.81.84-7.73.04-15.84-7.95-22.98-10.25l-12.27,5.28c.24.72,2.05.86,2.77,1.04,28.38,6.89,56.98,12.92,85.52,19.11l1.97.05.9-4.93ZM565.53,370.22c-4.28-.41-21.77,4.04-22.27,8.74-.4,3.66,6.99,6.97,9.79,8,19.7,7.24,66.15,7.92,85.47-.27,2.7-1.15,9.78-4.53,7.86-8.18s-10.5-6.29-14.39-7.17c-1.46-.33-5.7-1.37-6.86-1.22-1.39.18-2.06,2.36-2.95,3.37-.96,1.09-2.98,2.6-3.62,3.6-1.02,1.6.5,3.15-3.1,4.94-5.45,2.7-17.43,3.67-23.6,3.38-4.34-.2-17.38-1.76-20.2-4.94-1.34-1.51-.14-2.29-.45-3.18-.47-1.33-5.64-4.52-5.66-7.09ZM362.05,396.74l-92.75-21.58-11.78,3.07c-.22,1.03.12.72.57,1,1.58,1,4.3,1.42,6.16,1.91,28.58,7.59,58.09,12.44,86.88,19.1,4.1.35,7.94-.74,11.92-1.37-.4-.53-.64-1.79-1-2.13Z"/>
        <path d="M527.16,88.92c-27-22.54-58.27-27.49-88.08-6.2-2.39,1.71-10.13,8.93-11.77,9.33-4.96,1.2-9.06-2.71-7.1-7.54,1.36-3.35,12.51-12.37,15.9-14.63,29.89-19.9,68.73-16.33,95.36,7.32,3.67,3.26,12.38,10.73,5.53,14.97-4.69,2.91-6.63-.57-9.84-3.25Z"/>
        <path d="M475.24,84.3c14.91-1.07,35.33,5.16,44.99,17.17,2.27,2.83,3.49,6.45.24,9.19-4.96,4.2-8.31-1.51-11.94-4.23-20.34-15.23-44.93-12.98-63.55,3.73-5.01,2.51-9.83-2.66-7.46-7.46,1.05-2.12,6.98-6.89,9.12-8.38,8.34-5.8,18.42-9.29,28.6-10.02Z"/>
        <path d="M476.59,110.79c7.91-.79,19.96,2.4,25.42,8.45,5.04,5.59-.13,13.33-6.7,9.84-1.49-.79-2.75-2.29-4.4-3.23-6.68-3.82-13.84-4.1-20.81-.9-4.15,1.91-7.16,6.43-11.98,3.6-4.08-2.4-3.04-6.93-.08-9.82,4.21-4.12,12.73-7.36,18.56-7.94Z"/>
        <circle cx="479.59" cy="146.48" r="10.76"/>
        <path d="M587.91,215.79c.86-.24,1.4-.15,1.92.59-2.95,5.35-7.55,9.24-6.52,15.97,1.76,11.46,20.13,13.06,12.74,28.85-2.46,5.25-9.95,9.61-11.1,14.49-1.44,6.11,4.07,9.18,6.32,13.79,1.6,3.27,3.16,9.51-.75,11.55l-1.09-.76c3.25-10.57-9.64-14.11-8.01-24.52,1.42-9.11,14.22-12,12.44-23.42-.64-4.11-8.34-8.69-10.94-12.41-3.65-5.24-3.7-10.6-1.1-16.28.79-1.73,4.4-7.37,6.08-7.84Z"/>
        <path d="M604.67,301.91c-.37-2.03.93-3.84.71-5.84-.62-5.75-7.02-9.97-7.04-16.83-.04-12.95,14.9-15.62,14.89-26.49,0-3.91-2.23-8.97-4.75-11.9-1.01-1.18-4.1-3.29-4.49-4.04-2.06-3.94,4.2-.52,5.56.73,4.79,4.37,7.5,11.37,6.74,17.86-1.23,10.48-15.76,13.84-14.28,25.15.66,5.06,5.72,8.57,6.24,13.96.27,2.79.17,7.7-3.58,7.4Z"/>
        <path class="cls-1" d="M309.17,200.67c0-.18-.79-.52.23-1.12,20.78,6.6,40.41,15.3,51.94,34.72,11.97,20.17,16.42,45.69,25.04,67.45l-12.15,47.28-35.42,4.54c1.32-9.31,2.65-18.69,3.59-28.06,1.95-19.48,4.59-46.32,2.64-65.49-.13-1.3-.34-4.33-1.96-4.34-2.95,0-1.14,9.02-1.1,10.99.28,14.96-.62,30.87-1.82,45.81-1.12,13.85-2.96,27.75-4.98,41.49l-2.01-.38c-6.91-10.74-16.01-20.85-28.5-24.93-7.07-2.3-12.53-2.31-19.83-1.01-12.33,2.19-24.13,7.53-36.49,9.76-1.24-3.59-4.3-4.62-7.78-5.27-10.64-1.97-23.09-1.79-33.99-2.83-8.31-.79-16.58-2.32-24.93-2.69l6.29-48.72c-.14-5.09,1.3-10.48.34-15.37-4.18-1.86-2.82,3.96-3.04,6.4-1.7,19.03-4.33,37.91-7.21,56.76-8.17-.66-16.22-2.24-24.47-1.78-1.78.1-4.68-.02-4.64,2.4l1.55,1.21c4.92-.7,9.87-.44,14.79,0,10.92.98,22.23,3.33,33.24,4.48,9.04.94,18.14,1.2,27.17,2.25-8.08,10.18-12.21,24.92-10.27,37.87.46,3.06,1.19,6.3,3.08,8.81l-22.25.02-32.76-.92c-18.11-2.35-42.74.27-49.95-21-4.77-14.05,1.75-43.6,5.04-58.47,4.41-19.94,10.69-44.44,22.05-61.46,15.93-23.86,45.18-36.7,70.69-47.63,1.01,25.45,22.9,41.78,46.2,46.41,18.85,3.75,41.79-1.65,49.36-21.15.57-1.47,2.35-6.74,2.35-7.97,0-2.69.02-5.39,0-8.08Z"/>
        <path class="cls-1" d="M366.27,396.57c-.64-1.02,2.08-10.83,2.57-12.79,10.64-42.56,22.43-84.91,33.36-127.38,2.21-5.78,7.67-6.81,13.19-7.47,30.9-3.69,64.06-4.63,95.22-6.27,12.79-.68,25.84-2.18,38.61-2.3,4.96-.05,9.72,1.58,8.77,7.46-8.95,40.76-19.37,81.29-29.56,121.74-2.29,3.68-6.74,4.68-10.72,5.45-9.76,1.9-20.48,2.69-30.4,4.17-39.58,5.91-79.16,11.78-118.7,17.86l-2.33-.48ZM481.46,301.17c-10.49-10.59-30.34,10.19-22.97,23.63,4.04,7.37,13.77,4.55,18.85-.01,5.81-5.22,10.38-17.3,4.12-23.62Z"/>
        <path class="cls-1" d="M322.63,81.92c1.47,6.47,9.1,7.94,14.83,7.63l-.46,19.76c-6.18-4.85-21.36-7.13-25.09,1.62-5.86,13.72,5.36,29.19,5.8,41.73.19,5.43-6.12,6.17-10.36,5.38-1.92-.35-5.77-2.94-6.5-2.93-1.54.03-2.04,2.17-1.14,3.39,3.51,4.81,18.89,4.93,21.16-2.25,1.82-5.73-3.67-19.09-5.11-25.47s-4.49-20.39,4.52-21.81c5.73-.9,11.38,1.07,16.19,4.02-.5,7.16-.89,14.52-1.71,21.67-3.28,28.53-9.73,68.11-47.31,64.82-9.01-.79-20.97-5.82-27.89-11.63-1.29-1.08-5.44-6.37-6.93-5.33-1.72,1.19,2.59,6.2,3.56,7.35,8.37,9.89,22.28,18.94,35.01,21.56-9.17,18.94-37.82,11.5-51.15,1.31-8.99-6.87-14.09-14.8-13.01-26.39,1.1-11.77,4.82-24.31,6.03-36.18,2.21-.98,3.3-4.83,0-4.5-.78.08-1.87,1.18-3.03,1.48-10.83,2.8-18.61-10.89-19.24-20.1-1.16-17.08,11.91-29.06,23.11-11.43,2.27,3.58,4.64,11.54,10.61,6.04,3.85-3.55,7.84-15.45,9.42-20.66,2.57-8.5,4.85-17.56,1.79-26.27,5.12,4.32,11.31,7.56,18.2,7.2,6.12-.32,11.09-3.46,15.68-7.2,7.03,11.73,21.68,14.69,33.01,7.18ZM295.58,106.73c-1.21-1.24-8.15-2.34-10-2.37-3.21-.05-13.66,2.12-14.83,5.37-.23.63-.24,1.32-.23,1.98.4,1.73,5.21-1.47,6.2-1.85,3.57-1.37,7.3-1.75,11.11-1.45,1.84.15,7.27,2.22,8.03.32.26-.64.21-1.5-.28-2.01ZM218.56,118.63c.56.54,2.31.66,3.15,1.12,2.33,1.27,3.65,2.98,4.33,5.55.5,1.9.11,5.78.57,6.58,1.14,1.99,3.26.84,3.54-1.22.93-6.7-3.3-15.6-10.95-14.99-1.03.35-1.46,2.18-.64,2.96ZM284.79,123.3c-3.13.9-3.88,9.64.73,9.23,4.9-.44,4.2-10.65-.73-9.23ZM323.4,124.66c-2.55.78-2.68,7.01.14,8.21,5.77,2.44,5.22-9.85-.14-8.21ZM308.94,173.51c-1.71-.47-8.41,0-10.78,0-.81,0-5.83-1.6-6.95-2.03-2.48-.95-4.66-2.56-6.98-3.81-.91,0-1.7,1.11-1.59,2,3.83,6.32,19.89,9.55,25.94,6.63,1.52-.73,1.99-2.34.36-2.79Z"/>
        <path class="cls-1" d="M586.61,309.22c8.33-.41,18.04-.21,26.31.82,2.86.36,16.47,3.02,17.26,5.64.35,1.16-.09,2.68.11,3.93,2.14,13.38-.88,34.66-7.58,46.79-8.06,14.59-25.08,17.78-40.24,13.14-22.79-6.98-24.16-43.26-23.38-62.79,1.38-4.02,13.7-6.21,17.58-6.71,3.26-.42,6.66-.67,9.95-.83ZM626.1,319.08c-1.55-1.59-10.61-3.26-13.19-3.64-13.01-1.94-28.64-1.84-41.49,1.04-3.39.76-12.39,3.3-4.72,6.09,12.7,4.62,40.17,4.51,53.33,1.2,1.53-.38,8.53-2.17,6.07-4.69Z"/>
        <path class="cls-1" d="M279.53,365.65c-5.51,1.8-10.51,5.92-15.97,7.61-5.87,1.82-17.99,2.99-23.56.26-3.26-1.6-2.93-7.97-2.71-11.25.33-4.74,4.27-19.29,8.99-21.09,3.82-1.46,10.64-2.23,15.02-3.39,11.19-2.98,26.15-8.95,37.56-6.95,12.8,2.25,23,12.24,29.98,22.56,1.73,2.56,6.23,9.28,6.28,12.13.03,1.92-3.73,3.02-5.48,1.89-.65-.42-5.65-8.79-7.01-10.5-3.66-4.59-18.31-19.31-24.04-19.07-.62.03-1.01.4-1.34.87v1.8c8.59,4.06,15.78,10.42,21.78,17.74,2.01,2.46,4.53,5.61,5.92,8.44.57,1.15,1.92,3.12,1.07,4.36-8.72,5.49-14.18-6.9-19.33-12.15-4.14-4.22-11.04-9.2-16.83-10.56-1.2-.28-3.99-1-4.75.23-.42.73-.3,1.42.2,2.07.45.58,6.68,2.17,8.29,2.93,4.78,2.27,10.3,7.39,13.74,11.41.66.77,4.08,5.09,4.29,5.62,1.11,2.73-3.63,3.29-5.65,2.92-7.07-1.31-14.91-9.36-22.32-10.45-2.35-.35-6.87-.73-4.15,2.57Z"/>
        <path class="cls-1" d="M565.53,370.22c.03,2.57,5.19,5.76,5.66,7.09.31.89-.88,1.67.45,3.18,2.82,3.19,15.86,4.74,20.2,4.94,6.17.29,18.16-.68,23.6-3.38,3.6-1.79,2.08-3.35,3.1-4.94.65-1.01,2.66-2.52,3.62-3.6.89-1.01,1.56-3.19,2.95-3.37,1.16-.15,5.4.89,6.86,1.22,3.9.87,12.45,3.46,14.39,7.17s-5.16,7.03-7.86,8.18c-19.32,8.19-65.77,7.51-85.47.27-2.8-1.03-10.18-4.34-9.79-8,.51-4.7,17.99-9.15,22.27-8.74Z"/>
        <path class="cls-1" d="M305.57,208.3c-1.11,8.81-8.15,18.14-15.87,22.3-22.11,11.91-57.32.24-69.69-21.17-3.23-5.59-5.71-13-5.34-19.36l8.71-2.64c-2.05,8.66,4.16,19.13,10.32,24.92,18.28,17.18,59.37,24.51,63.4-9.13l8.46-1.87c-.2,2.21.27,4.81,0,6.96Z"/>
        <path class="cls-1" d="M244.5,336.93l-6.37,9.12c-3.28,7.13-5.05,14.64-4.43,22.54.27,3.44,1.26,6.78,4.05,8.96-4.01,4.14-9.94,3.62-15.26,3.15-.48-.23-1.68-2.35-1.97-2.97-3.73-8.14-1.6-22.44,1.63-30.6,1.8-4.54,4.61-8.85,7.84-12.46,4.87.39,10.02.25,14.5,2.26Z"/>
        <path class="cls-1" d="M362.05,396.74c.36.34.6,1.6,1,2.13-3.98.63-7.83,1.73-11.92,1.37-28.8-6.66-58.3-11.5-86.88-19.1-1.86-.49-4.58-.91-6.16-1.91-.45-.29-.79.03-.57-1l11.78-3.07,92.75,21.58Z"/>
        <path class="cls-1" d="M363.96,387.66l-.9,4.93-1.97-.05c-28.54-6.19-57.15-12.22-85.52-19.11-.73-.18-2.53-.32-2.77-1.04l12.27-5.28c7.14,2.3,15.25,10.29,22.98,10.25,1.68,0,3.11-.97,4.81-.84,6.76.54,19.42,4.8,26.84,6.42,8.04,1.76,16.14,3.4,24.26,4.71Z"/>
        <path class="cls-1" d="M634.31,324.8c7.96-2.24,17.44.1,20.42,8.54,5.69,16.09-10.57,29.81-25.81,28.27l2.22-7.43c5.66.14,11.65-2.43,14.77-7.24,6.31-9.72-.74-19.44-11.6-14.51v-7.63Z"/>
        <polygon class="cls-1" points="373.39 352.64 372.19 356.7 339 361.62 337.53 361.54 335.67 357.8 373.39 352.64"/>
        <path class="cls-1" d="M632.06,350.39c1.12-3.32.64-10.53,2.23-13.26,1.86-3.2,9.31-3.54,10.24,1.02,1.34,6.57-6.13,12.98-12.47,12.24Z"/>
        <path class="cls-2" d="M481.46,301.17c6.26,6.32,1.69,18.41-4.12,23.62-5.07,4.56-14.8,7.38-18.85.01-7.38-13.44,12.48-34.22,22.97-23.63Z"/>
        <path d="M308.94,173.51c1.63.45,1.16,2.05-.36,2.79-6.05,2.92-22.1-.3-25.94-6.63-.11-.9.67-2.01,1.59-2,2.32,1.25,4.49,2.86,6.98,3.81,1.12.43,6.14,2.03,6.95,2.03,2.37,0,9.07-.47,10.78,0Z"/>
        <path d="M295.58,106.73c.49.5.54,1.36.28,2.01-.75,1.9-6.18-.17-8.03-.32-3.81-.3-7.54.08-11.11,1.45-.99.38-5.8,3.57-6.2,1.85-.01-.66,0-1.35.23-1.98,1.17-3.25,11.62-5.42,14.83-5.37,1.85.03,8.79,1.13,10,2.37Z"/>
        <path d="M218.56,118.63c-.82-.79-.39-2.61.64-2.96,7.65-.61,11.88,8.3,10.95,14.99-.29,2.06-2.4,3.21-3.54,1.22-.46-.8-.07-4.68-.57-6.58-.68-2.58-2-4.28-4.33-5.55-.84-.46-2.59-.58-3.15-1.12Z"/>
        <path d="M284.79,123.3c4.93-1.42,5.63,8.79.73,9.23-4.61.41-3.86-8.33-.73-9.23Z"/>
        <path d="M323.4,124.66c5.37-1.64,5.91,10.65.14,8.21-2.83-1.2-2.7-7.43-.14-8.21Z"/>
        <path d="M626.1,319.08c2.46,2.52-4.54,4.31-6.07,4.69-13.16,3.3-40.63,3.42-53.33-1.2-7.67-2.79,1.33-5.33,4.72-6.09,12.86-2.89,28.48-2.98,41.49-1.04,2.57.38,11.63,2.05,13.19,3.64Z"/>
      </g>
    </g>
  </g>
</svg>