<?xml version="1.0" encoding="UTF-8"?>
<svg id="Layer_2" data-name="Layer 2" xmlns="http://www.w3.org/2000/svg" viewBox="0 0 736 430.62">
  <defs>
    <style>
      .cls-1 {
        fill: #dfceaf;
      }

      .cls-2 {
        fill: #fff;
      }

      .cls-3 {
        fill: #681813;
      }

      .cls-4 {
        fill: #c82928;
      }
    </style>
  </defs>
  <g id="Layer_1-2" data-name="Layer 1">
    <g>
      <rect class="cls-4" width="736" height="430.62"/>
      <g>
        <path d="M86.2,292.72c1.02-10.02,7.33-16.54,17.09-18.52,7.66-1.55,26.31-1.16,33.64,1.56,11.86,4.41,13.18,16.83,14.02,27.82l15.03-.93,1.09-.76c.03-9.75.63-21.17,10.7-25.83,8.32-3.84,37.76-3.89,45.29,1.42,9,6.34,8.86,17.18,10.22,27.01l14.78-1.84c-.16-11.08.77-23.06,12.7-27.29,8.79-3.12,30.54-2.59,39.22,1.05,11.24,4.71,12.54,16.28,12.83,27.17,8.39.73,16.81.28,25.23.44,25.98.5,52.2.74,78.16-.89,1.31-.08,2.56-.58,3.9-.5.46-9.81,1.62-19.5,10.69-25.14,8.16-5.08,32-5.2,41.02-2.25,8.08,2.64,12.59,11.05,12.59,19.32v8.09l15.2.86c1.51-10.04.83-18.55,9.56-25.35,6.38-4.97,25.61-5.18,33.77-4.65,8.91.57,17.02,3.54,20.32,12.51.41,1.11,1.63,5.32,1.63,6.23v10.4c6.02.14,12.13.28,18.03,1.39,1.23-12.13,3.15-26.31,17.1-29.38,9.08-2,29.7-2.17,38.11,1.7,6.07,2.8,10.47,10.14,10.47,16.81v9.48c8.52.33,22.71-1.25,29.16,5.3,7.05,7.15,6.33,17.47,5.99,26.83-.27,7.37-.97,22.12-4.53,28.3-.98,1.7-2.48,3.07-3.68,4.59l5.91,44.36c.87,2.93-3.59,4.8-5.06,2.72-2.86-14.64-3.97-29.72-5.59-44.58l-9.5,1.82-2.15,26.05c-1.1,2.26-3.84,2.41-5.21.32l1.61-26.34h-37.46c-.19,8.85.24,17.75.02,26.6-.1,4.02-.04,10.11-.47,13.86-.45,3.94-5.08,4.6-5.57.46-.53-4.45.42-9.53.49-13.86.13-8.48-.3-17.01-.05-25.48.02-.77.16-1.36.49-2.05-3.32-.22-6.02-1.93-8.32-4.16-.06,4.05-.47,8.21-.93,12.25-.74,6.46-1.37,13.56-3.08,19.69-2.67,1.41-4.74-.72-4.74-3.45,0-5.23,1.69-12.61,2.27-18.09.42-3.97.58-8.01.96-11.98.09-.94.86-1.95.78-2.75-.09-.88-2.92-4.09-3.37-5.83-2.14-8.25,8.09-11.73,14.56-12.06l.95-8.3-15.27-.46c-.7,9.6-.45,20.29-5.82,28.63-.67,1.05-2.16,1.57-2.07,3.02l4.68,43.47c.69,2.92-2.23,5.32-4.64,3.23-1.05-.92-1.63-6.55-1.86-8.31-1.4-10.87-1.32-23.12-3.25-33.74-.1-.52-.22-.87-.69-1.16h-6.71l-2.35,26.09-.64,1.67c-.91.9-2.97.47-4.1.03l-.77-2.11,1.85-25.21h-38.85l-1.03,40.81-1.6,2.57c-1.34.29-3.54.09-3.84-1.54l.88-42.26-6.89-2.36c-.74,7.28-1,14.68-1.86,21.96-.18,1.53-.7,7.5-1.69,8.13-4.74,1.43-4.96-.32-4.8-4.45.38-10.1,2.6-20.89,3.73-30.97-.01-2.1-2.71-4.01-3.15-6.1-1.79-8.7,4.89-11.72,12.32-12.21l.99-9.19-13.88.46c-.73,10.79-.3,23.12-7.87,31.7l4.65,42.06c.83,4.14-3.73,7.38-5.34,2.54-1.73-5.19-2.38-16.92-2.99-22.9-.63-6.21-.94-12.5-1.39-18.73l-5.35.17-.59.58-1.04,24.89c-.37,3-4.73,3.33-5.07.05l1.41-25.22h-39.78s-2.82,41.33-2.82,41.33c-.19,3.28-4.78,2.66-5.4-.05l2.46-41.31-5.33-2.75-3.72,28.88c-.49,2.27-3.34,2.8-4.65.97-1.51-2.11.55-9.78.89-12.58.77-6.31,2.98-17.3,2.78-23.08-.03-.97-1.77-3.19-2.27-4.58-2.74-7.65,2.23-11.47,9.18-12.82l1.01-11.48-13.88.46-.47,31.2c-.17,6.37-4.43,7.56-5.07.46-.92-10.2.8-21.44.21-31.68l-3.45-1.37c-.83,6.9-.55,14.64-1.91,21.44-.87,4.33-3.07,5.79-5.5,1.42l2.57-28.43c-5.88-7.42-1.14-15.23,7.55-16.22l.52-5.48c-5.61.43-11.28.2-16.9.44-19.96.86-38.26,1.24-58.24.92-10.57-.17-21.14-.11-31.7-.45l.06,3.64c5.97,1.34,13.45,2.8,11.76,10.72-.38,1.77-1.75,2.66-2.01,3.54-1.03,3.53,1.99,20.19,2.21,25.34.08,1.97.56,6.1-1.12,7.19-3.83,2.48-4.14-5.82-4.42-8.12-.73-6.02-.9-12.21-1.39-18.26-.23-.26-4.68,2.96-4.85,3.24-.52.86-.29,12.92-.25,15.04.02,1.09.49,2.11.5,3.2.04,3.24.56,16.5-1.16,18.29-1.29,1.35-3.04-.18-3.38-1.73-.78-3.54-.37-9.95-.54-13.79-.05-1.09-.46-2.11-.5-3.2-.2-5.92.18-11.9.02-17.82l-12.95-.46.93,12.48c9.88.21,15.37,7.21,9.45,16.15-.9,1.36-2.84,1.97-2.56,3.95l4.67,29.15c.97,3.69-3.95,5.52-5.33,2.08l-3.69-27.76c-1.89.76-3.63,1.71-5.77,1.4l2.79,34.42c-.19,2.04.61,7.89-1.25,9.07-1.68,1.06-4.24.59-4.28-1.69l-2.81-41.35-40.24.47,1.84,25.18c-.57,2.07-2.58,2.61-4.51,1.78-1.7-.73-1.34-9.51-1.5-11.48-.41-5.22-1.23-10.41-.89-15.67l-5.37-1.09c-.67.12-1.01,4.53-1.13,5.66-.59,5.5-.46,11.15-.93,16.64s-.8,14.45-1.96,19.31c-.55,2.29-1.88,3.65-4.23,2.15-1.73-1.11-1.3-6.02-1.22-8.06.48-12.54,3-25.73,3.73-38.33-2.42-3-6.49-10.64-6.49-14.36v-18.26l-13.41.46.67,8.82c3.67.78,11.33,3.07,12.18,7.24.97,4.77-.49,8.47-3.6,11.92l3.72,32.38c.39,3.22-3.18,4.02-5.02,1.75l-3.32-28.82-6.26,2.29c-.42.63-.27,4.69-.23,5.82.39,11.38,2.55,23.82,1.43,35.15-.1,1.04-.04,2.05-1.28,2.42-3.77,1.13-3.97-1.96-4.24-4.82-.86-8.85-.41-18.72-.97-27.7-.22-3.59-.69-7.25-.95-10.84h-38.39s1.41,24.73,1.41,24.73c.08,3.26-4.56,4.47-5.54,1.35l-1.88-26.09-6.47-.45c-1.43,14.33-2.57,28.86-5.35,42.97-2.8,2.28-5.25-.22-4.85-3.42l4.99-42.5c-4.49-4.16-6.38-10.06-7.06-16.01.17,4.18-1.37,6.93-3.42,10.38.91,8.48,2.46,16.96,3.19,25.46.2,2.39.94,7.6.37,9.61s-4.1,2.58-4.88.45l-3.81-30.17-7.19,3.22-.22,42.31c-.41,2.12-4.3,2.94-5.3.69-.28-14.09-.66-28.45.22-42.53h-37.92l1.41,25.22c-.47,3.6-5.08,3-5.56.43l-1.39-26.12c-3.64.02-7.21-.76-10.64-1.85-1.56,11.71-2.14,23.61-3.76,35.31-.31,2.22-.86,7.57-1.85,9.25-1.44,2.45-5.56,1.22-5.33-1.7,2.69-15.04,3.21-30.61,6.65-45.4-1.59-1.78-3.55-3.74-4.58-5.92-2.79-5.88-4.18-28.55-3.99-35.68.14-5.08,1.37-10.72,4.54-14.78,7.05-9.03,19.34-7.21,29.59-7.64.24-3.35-.33-7.11,0-10.4ZM91.29,303.12h9.94c1.61,0,9.44,2.03,11.04,2.83,8.69,4.31,10.87,19.04,11.89,27.65l14.77-.42c-.3-4.84-1.11-9.57.23-14.34s4.43-8.2,7.17-12.26c-2.06-12.29.03-21.71-13.9-26.33-7.63-2.53-26.15-2.6-33.52.66-7.16,3.17-8.83,15.36-7.62,22.2ZM224.49,332.71v-13.18c0-2.78,3.54-7.03,4.18-9.7-2.72-12.87,1.15-24.89-14.25-29.7-8.19-2.56-32.02-2.91-38.5,3.32-4.22,4.05-3.01,13.71-3.69,19.21,11.22.66,26.25-.57,33.49,9.75,4.11,5.85,3.84,13.52,4.9,20.3h13.87ZM313.75,315.6v7.63c0,.58-3.71,2.8-4.55.38l-2.5-30.33c-1.66-5.12-3.1-9.63-8.36-11.99-7.87-3.53-29.97-3.82-37.73-.09-3.73,1.79-5.11,4.22-6.19,8.14-.34,1.24-1.26,5.11-1.26,6.14v7.17c7.16.1,14.81.01,21.91.98,15.42,2.11,19.76,11.68,19.71,26.3,4.73-.22,12.82,1.78,16.98-.37,2.16-1.12,6.89-5.89,8.21-7.97,2.8-4.41-2.57-6.43-6.22-5.99ZM419.67,323.7c-.44-1.59.32-4.88,0-6.7-4.98.79-6.91,2.83-3.89,7.36,3.37,5.05,6.51,7.49,12.93,6.53l11.31-.95c.16-10.41,2.03-20.47,12.84-24.38,7.95-2.88,18.1-2.68,26.48-2.89-.21-5.28.39-16.66-4.2-20.08-7.34-5.48-30.28-4.82-38.68-1.74s-9.94,8.08-10.78,16.51l-1.45,26.75c-.96,1.64-4.08,1.35-4.56-.4ZM559.8,302.66v-10.4c0-2.99-2.85-8.58-5.4-10.33-6.49-4.45-27.74-4.13-35.31-2.17-4.18,1.08-10.17,4.87-11.78,9.03-.96,2.48-2.97,15.51-2.99,18.33-.01,1.65,4.01,5.74,5.01,7.85.7,1.47,1.91,5.4,1.91,6.88v11.33l13.83-.51c1.03-5.26,1.15-11.07,3.06-16.13,4.88-12.93,19.83-13.63,31.68-13.88ZM597.26,332.71h15.03c1.39-3.31,1.43-7.45,2.31-11.1,2.73-11.31,7.26-16.25,19.02-17.97,1.61-.24,9.31-.42,9.69-.95.34-9.09,1.38-18.99-8.94-22.56-6.99-2.41-28.91-2.24-35.84.44-9.74,3.78-8.81,16.03-10.09,24.65.1.77,3,2.42,3.93,3.49s4.89,8.51,4.89,9.44v14.56ZM610.68,350.28c-6.66.36-12.08,1.75-6.67,8.75,2.11,2.73,6.43,6.64,9.88,7.23,11.73,2,35.29,1.16,47.37-.32,13.93-1.7,15.25-7.13,16.47-20.06.47-4.91.84-10.82.95-15.7.23-10.22-.23-17.9-11.49-20.92-8.69-2.33-29.65-1.66-38.15,1.36-5.88,2.09-7.17,3.14-8.51,9.06-2.9,12.74-4,25.89-5.54,38.85-.49,2.56-4.28,4.03-5.5,1.45-.45-.94,1.55-7.95,1.18-9.7ZM126.44,350.75c-.32.28,1.62,7.04,1.29,8.42-.49,2.06-3.66,3.21-4.77,1.75-.63-.83-2.14-10.89-2.46-12.8-1.21-7.43-1.62-15.18-2.93-22.5-1.15-6.45-2.5-12.22-9.01-15.03-7.89-3.41-32.6-3.47-40.65-.55-7.39,2.68-10.55,8.8-10.41,16.45.11,5.69.48,11.83.95,17.54,1.06,12.97,2.06,19.9,16.48,21.9,11.29,1.57,22.85.89,34.14.51,8.19-.28,12.44,1.66,19.43-3.69,1.17-.89,6.85-6.3,7.11-7.26,1.11-4.02-6.49-5.47-9.18-4.75ZM212.8,360.79c-1.35,1.39-4.11,1.25-4.85-.69l-3.48-34.9c-2.23-15.03-11.75-16.42-25.06-17.02-6.16-.28-25.08-.11-29.82,3.06-2.09,1.4-4.16,5.67-4.88,8.07-1.76,5.92-.43,27.2.83,33.82,1.84,9.68,3.46,12.32,13.56,13.26,12.4,1.16,25.87.51,38.31.04,3.42-.13,11.6.78,14.1-1.16.9-.69,4.52-5.13,5.3-6.26,3.58-5.21,2.11-8.01-4.35-7.82-.86,2.19,1.56,8.33.34,9.59ZM249.37,308.34c-9.36.63-17.11,1.15-19.12,11.86-1.41,7.5-1.12,32.41,1.42,39.31,1.28,3.48,3.32,6.1,7.13,6.74,11.33,1.92,27.43.6,39.09.19,5.08-.18,10.23.16,15.29-.43,2.51-.29,6.52-5.1,8.07-7.19.8-1.09,2.47-2.82,2.34-4.13-.22-1.89-4.85-3.21-6.05-2.36-1.69,1.19,3.24,11.77-4.14,9.28-.97-.49-1.23-3.04-1.37-4.17-1.41-11.11-1.26-22.6-2.84-33.69-.69-4.88-2.79-10.55-7.49-12.85-6.19-3.04-25.07-3.04-32.32-2.55ZM438.17,351.67c-9.89.17-1.98,9.98,2.08,12.95,3.61,2.63,9.18,1.63,13.43,1.83,12.59.6,26.24,1.33,38.76-.51,4.62-.68,7.46-1.12,9.73-5.53,2.01-3.93,2.68-13.89,3.06-18.68.71-8.93,3.15-28.83-8.41-31.82-9.73-2.51-31.34-2.48-40.85.6-6.61,2.14-8.96,5.65-10.28,12.38l-2.99,37.24c-7.68,6.44-3.61-7.57-4.53-8.46ZM523.27,350.74c-2.41-1.31-7.35,1.07-6.94,3.89.19,1.32,3.57,5.22,4.56,6.58.44.61.48,1.57.98,2.25.59.8,3.14,2.56,4.14,2.79,1.47.35,5.03.59,6.72.68,11.28.6,25.23.43,36.58,0,3.36-.13,10.24-.29,13.18-1.16,5.33-1.58,7.93-12.24,8.3-17.13.47-6.14.83-13.69.95-19.85.31-15.92-4.63-19.64-20.15-20.59-10.28-.63-33.78-1.53-38.37,10.18-4.23,10.78-3.04,27.09-5.44,38.49-.94,4.46-4.51,3.49-4.51,1.5v-7.63ZM138.93,337.33h-14.34l1.04,7.28c5.15,1.33,11.74,1.83,14,7.52l-.69-14.8Z"/>
        <path d="M177.67,21.67l352.79-.14c4.99.45,7.81,3.62,8.09,8.56v180.82c-.46,4.84-4.64,6.78-9.02,7.16H178.45c-4.12-.37-6.36-2.24-7.86-6.01V26.62c.69-2.65,4.53-4.59,7.07-4.95ZM533,27.52H175.9s0,185,0,185h357.1s0-185,0-185Z"/>
        <rect x="63.51" y="251.32" width="605.93" height="3.28"/>
        <path class="cls-1" d="M523.27,350.74v7.63c0,1.99,3.58,2.97,4.51-1.5,2.39-11.4,1.21-27.71,5.44-38.49,4.6-11.71,28.1-10.8,38.37-10.18,15.52.95,20.45,4.67,20.15,20.59-.12,6.16-.48,13.72-.95,19.85-.38,4.89-2.97,15.55-8.3,17.13-2.94.87-9.82,1.03-13.18,1.16-11.35.43-25.29.6-36.58,0-1.69-.09-5.25-.33-6.72-.68-1-.24-3.56-1.99-4.14-2.79-.5-.69-.54-1.65-.98-2.25-.99-1.36-4.37-5.26-4.56-6.58-.4-2.82,4.54-5.2,6.94-3.89Z"/>
        <path class="cls-1" d="M212.8,360.79c1.22-1.26-1.2-7.4-.34-9.59,6.47-.19,7.94,2.61,4.35,7.82-.78,1.13-4.4,5.57-5.3,6.26-2.5,1.94-10.69,1.03-14.1,1.16-12.44.47-25.91,1.12-38.31-.04-10.1-.94-11.71-3.58-13.56-13.26-1.26-6.62-2.59-27.9-.83-33.82.71-2.4,2.78-6.67,4.88-8.07,4.74-3.17,23.66-3.34,29.82-3.06,13.3.61,22.83,1.99,25.06,17.02l3.48,34.9c.74,1.93,3.5,2.08,4.85.69Z"/>
        <path class="cls-1" d="M126.44,350.75c2.69-.72,10.29.72,9.18,4.75-.26.96-5.95,6.36-7.11,7.26-6.99,5.36-11.25,3.42-19.43,3.69-11.29.38-22.85,1.06-34.14-.51-14.42-2-15.42-8.93-16.48-21.9-.47-5.71-.84-11.86-.95-17.54-.15-7.66,3.02-13.77,10.41-16.45,8.05-2.93,32.76-2.87,40.65.55,6.51,2.82,7.86,8.59,9.01,15.03,1.31,7.33,1.72,15.08,2.93,22.5.31,1.92,1.83,11.97,2.46,12.8,1.11,1.46,4.28.3,4.77-1.75.33-1.39-1.62-8.15-1.29-8.42Z"/>
        <path class="cls-1" d="M610.68,350.28c.37,1.75-1.63,8.76-1.18,9.7,1.22,2.57,5.01,1.11,5.5-1.45,1.54-12.96,2.64-26.11,5.54-38.85,1.35-5.92,2.63-6.97,8.51-9.06,8.5-3.02,29.46-3.69,38.15-1.36,11.25,3.02,11.71,10.7,11.49,20.92-.11,4.88-.48,10.78-.95,15.7-1.23,12.93-2.55,18.36-16.47,20.06-12.08,1.48-35.64,2.31-47.37.32-3.45-.59-7.77-4.5-9.88-7.23-5.41-6.99,0-8.39,6.67-8.75Z"/>
        <path class="cls-1" d="M249.37,308.34c7.25-.49,26.13-.48,32.32,2.55,4.7,2.31,6.8,7.97,7.49,12.85,1.58,11.09,1.42,22.58,2.84,33.69.14,1.13.4,3.68,1.37,4.17,7.38,2.5,2.45-8.09,4.14-9.28,1.2-.85,5.83.47,6.05,2.36.13,1.31-1.54,3.05-2.34,4.13-1.55,2.09-5.56,6.9-8.07,7.19-5.07.59-10.21.25-15.29.43-11.66.41-27.76,1.73-39.09-.19-3.81-.64-5.85-3.26-7.13-6.74-2.54-6.9-2.83-31.81-1.42-39.31,2.01-10.71,9.76-11.23,19.12-11.86Z"/>
        <path class="cls-1" d="M438.17,351.67c.92.9-3.15,14.91,4.53,8.46l2.99-37.24c1.32-6.73,3.68-10.24,10.28-12.38,9.51-3.09,31.12-3.11,40.85-.6,11.56,2.98,9.12,22.88,8.41,31.82-.38,4.78-1.04,14.75-3.06,18.68-2.26,4.41-5.11,4.86-9.73,5.53-12.53,1.84-26.18,1.11-38.76.51-4.25-.2-9.82.8-13.43-1.83-4.06-2.96-11.97-12.77-2.08-12.95Z"/>
        <path class="cls-1" d="M597.26,332.71v-14.56c0-.93-3.99-8.41-4.89-9.44s-3.83-2.71-3.93-3.49c1.28-8.61.34-20.87,10.09-24.65,6.93-2.69,28.85-2.86,35.84-.44,10.32,3.56,9.28,13.47,8.94,22.56-.37.53-8.08.72-9.69.95-11.76,1.72-16.29,6.66-19.02,17.97-.88,3.66-.91,7.79-2.31,11.1h-15.03Z"/>
        <path class="cls-1" d="M91.29,303.12c-1.21-6.84.46-19.04,7.62-22.2,7.37-3.26,25.9-3.19,33.52-.66,13.93,4.62,11.83,14.04,13.9,26.33-2.74,4.06-5.81,7.39-7.17,12.26s-.53,9.49-.23,14.34l-14.77.42c-1.02-8.61-3.2-23.33-11.89-27.65-1.61-.8-9.43-2.83-11.04-2.83h-9.94Z"/>
        <path class="cls-1" d="M559.8,302.66c-11.85.24-26.79.94-31.68,13.88-1.91,5.05-2.04,10.87-3.06,16.13l-13.83.51v-11.33c0-1.48-1.21-5.41-1.91-6.88-1-2.11-5.02-6.2-5.01-7.85.02-2.82,2.03-15.85,2.99-18.33,1.61-4.16,7.6-7.95,11.78-9.03,7.57-1.97,28.82-2.29,35.31,2.17,2.55,1.75,5.4,7.34,5.4,10.33v10.4Z"/>
        <path class="cls-1" d="M224.49,332.71h-13.87c-1.06-6.78-.79-14.45-4.9-20.3-7.25-10.32-22.28-9.09-33.49-9.75.67-5.49-.53-15.15,3.69-19.21,6.48-6.23,30.31-5.88,38.5-3.32,15.4,4.81,11.54,16.83,14.25,29.7-.64,2.67-4.18,6.91-4.18,9.7v13.18Z"/>
        <path class="cls-1" d="M419.67,323.7c.49,1.75,3.6,2.04,4.56.4l1.45-26.75c.83-8.42,2.19-13.35,10.78-16.51s31.33-3.75,38.68,1.74c4.59,3.43,3.99,14.81,4.2,20.08-8.38.21-18.53.02-26.48,2.89-10.82,3.91-12.68,13.98-12.84,24.38l-11.31.95c-6.42.96-9.56-1.48-12.93-6.53-3.02-4.53-1.09-6.57,3.89-7.36.32,1.83-.44,5.12,0,6.7Z"/>
        <path class="cls-1" d="M313.75,315.6c3.65-.44,9.02,1.59,6.22,5.99-1.32,2.08-6.05,6.85-8.21,7.97-4.15,2.16-12.24.16-16.98.37.05-14.62-4.3-24.19-19.71-26.3-7.1-.97-14.75-.89-21.91-.98v-7.17c0-1.03.91-4.9,1.26-6.14,1.09-3.92,2.46-6.35,6.19-8.14,7.76-3.73,29.86-3.44,37.73.09,5.26,2.36,6.7,6.87,8.36,11.99l2.5,30.33c.83,2.42,4.55.19,4.55-.38v-7.63Z"/>
        <path class="cls-1" d="M138.93,337.33l.69,14.8c-2.26-5.68-8.84-6.18-14-7.52l-1.04-7.28h14.34Z"/>
        <rect class="cls-1" x="175.9" y="27.53" width="357.1" height="184.99"/>
      </g>
      <g>
        <g>
          <circle class="cls-3" cx="354.45" cy="118.4" r="76.85" transform="translate(69.2 359.82) rotate(-58.71)"/>
          <path class="cls-4" d="M418.63,94.07c-1.78-7.77-15.31-35.19-39.37-43.16-10-3.31-16.39-3.23-21.43-3.37-7.1-.2-15.81,1.65-23.46,4.3-13.07,4.53-22.05,2.08-31.06,17.04-9.01,14.96-9.36,19.39-14.22,29.96-4.91,10.67-8.09,23.07-2.79,38.63,5.3,15.56,9.02,22.15,16.45,27.66s8.93,7.04,12.72,11.1,10.17,11.9,27.08,13.08c3.85.27,7.91.41,12.07.02,6.2-.58,12.69-1.78,18.83-3.1,7.81-1.68,15.08-3.52,21.8-8.66,15.54-11.9,24.54-29.81,27.31-40.3,2.77-10.49,4.37-19.89.81-28.29-1.15-2.7-2.01-4.47-2.39-5.87-.69-2.55-1.2-4.03-2.35-9.05Z"/>
        </g>
        <g>
          <path class="cls-2" d="M348.84,146.77c2.26-.31,5.16-2.8,6.21-7.21,1.06-4.41,3.91-5.96,3.91-5.96l.25-5.09c-.9,0-1.71,1.03-2.54,2.51l.05-.12s-4.65,7.77-10.4,4.63c-.32-.18-.53-.52-.5-.89.15-2.24,3.08-4.17,3.08-4.17,0,0,.06,1.93,1.18,1.61,1.12-.31,2.8-4.04,1.37-4.84s-6.58,3.35-6.58,9.01c0,2.45,5.11,2.82,8.77.73-1.47,2.59-3.25,4.76-5.66,4.76-6.09,0-6.58-9.69-7.83-16.4-1.24-6.71-2.11-17.5-2.11-17.5,0,0-1.49,2.24-1.99,4.84-.16.82-.28,3.57,1.81,15.02.46,3.15,0,4.03,0,4.03-.12.87-1.74,2.36-1.74,2.36,0,0-1.12-3.6-3.79-3.04-2.67.56-4.72,9.5-1.86,9.63,2.86.12,3.85-1.43,3.85-1.43,0,0,.81.37.5,1.99-.31,1.61-4.64,11.49-26.83,12.32,0,0,10.1,2.15,17.89.66,7.78-1.49,10.6-14.91,10.52-16.89,0,0,1.35-2.8,2.33-5.11,0,.03,0,.05.01.07,2.98,15.34,7.97,14.77,10.12,14.47Z"/>
          <path class="cls-2" d="M313.63,148.64s3.84-1.16,4.62-1.54c5.63-2.73,8.7-11.35,9.28-17.31.58-5.96-4.14-19.21-3.73-21.95,0,0-1.82,4.31-.91,9.44.91,5.13,3.96,12.57,2.82,17.64-1.87,8.27-12.07,13.71-12.07,13.71Z"/>
          <path class="cls-2" d="M320.08,128.14c0-4.84-3.42-6.65-3.35-10.37,0,0-.87,3.17-.99,4.47-.25,2.55,2.98,5.78,2.98,8.39,0,2.36-4.6,5.71-7.33,5.71s-7.54-1.06-7.27-7.83c.22-5.43,7.27-8.7,7.39-17.08,0,0-1.1,3.52-2.67,5.96-1.55,2.42-6.37,8.2-5.65,14.66,1.12,7.83,4.6,9.32,7.76,9.32s8.76-2.8,9.13-13.23Z"/>
          <rect class="cls-2" x="308.34" y="126.28" width="5.22" height="5.22" transform="translate(10.02 279.69) rotate(-49.13)"/>
          <path class="cls-2" d="M398.4,140.31c-3.32,12.13-22.36,14.16-22.36,14.16,0,0,5.4.87,10.87.56,9.64-.55,11.68-7.21,13.66-14.47,1.99-7.27,4.91-7.58,4.91-7.58l.31-5.16c-2.92.31-5.78,6.58-7.39,12.48Z"/>
          <path class="cls-2" d="M376.91,139.19c.07,1.51.91,3.08,2.17,4.22-.64,1.65-1.24,3.27-1.26,3.65-.03.53,1-1.54,1.82-3.19.98.71,2.14,1.16,3.36,1.16.43,0,5.16.19,9.13-5.84,4.84-7.58,4.72-10.68.99-10.68-7.02.06-12.42,10.87-12.42,10.87-2.61-.75-2.61-5.16-2.61-5.16-2.05-.06-2.72,5.83-5.85,6.52,0,0,0,0,0,0-.19.04-.39.07-.61.07-1.46,0-4.98-.5-6.93-11.67-.74-4.23-3.1-17.93-3.1-17.93-.48-2.04-.8-3.36-.8-3.36,0,0-1.18,2.42-1.32,5.07-.03.5,3.55,18.88,4.38,22.8,1.3,6.15,3.15,10.12,7.21,10.12s5.09-6.46,5.84-6.65ZM389.02,133.23c4.04-.93,4.35,1.06,4.35,1.06,0,0-5.16,7.02-11.68,5.53,0,0,3.73-5.71,7.33-6.58Z"/>
          <rect class="cls-2" x="378.69" y="120.27" width="5.22" height="5.22" transform="translate(38.88 330.81) rotate(-49.13)"/>
          <rect class="cls-2" x="364.49" y="94.09" width="5.22" height="5.22" transform="translate(53.77 311.03) rotate(-49.13)"/>
          <rect class="cls-2" x="345.45" y="88.42" width="5.22" height="5.22" transform="translate(51.48 294.67) rotate(-49.13)"/>
          <path class="cls-2" d="M342.6,104.94h0s2.5,2.51,7.04,1.91c4.53-.6,7.25-5.16,7.81-7.36,0,0,0,0,0,0,.32-.93.56-1.97.68-3.13.2-1.13.64-4.05.43-7.17,4.53,2.21,6.19-1.65,7.45-5.28,1.27-3.65,3.09-5.71,3.09-5.71l.08-4.92c-1.82.32-3.49,11.11-8.65,11.42-1.41,0-2.5-.51-3.27-1.05-.52-1.1-1.23-2.08-2.18-2.83l-1.04,4.72s2.49,3.06,3.54,7.13c-.36,2.62-3.62,9.28-9.5,9.28-2.87,0-7.01-.97-9.07-7.84-2.04-6.8,7.07-12.88,4.95-23.8,0,0,.17,3.66-1.49,7.04-1.66,3.37-4.62,9.28-4.55,15.63.18,6.46,2.32,9.98,4.68,11.96Z"/>
          <path class="cls-2" d="M357.92,73.42c.87,1.13,1.66,2.18,1.66,2.18l.5-1.61c-.36-.45-.99-1.27-1.65-2.11.32-1.12.53-2.21.74-3.17.62-2.76-.84-2.67-2.52-2.02-1.68.65-1.52,3.29-.4,4.63.31.37.71.87,1.11,1.39-2.72,4.98-10.43,10.26-10.43,10.26,0,0,4.63-2.58,7.83-5.09,1.59-1.25,2.53-2.83,3.16-4.45ZM356.1,68.83c1.46-1.06,3.07-.12,1.96,2.3-.02.06-.04.12-.06.18-.98-1.28-1.89-2.48-1.89-2.48Z"/>
          <path class="cls-2" d="M352.8,115.13c-1.09.9-2.27,1.66-3.52,2.32-1.36.7-2.64,1.62-3.71,2.72-.53.56-1.02,1.17-1.42,1.83-.39.67-.57,1.46-.66,2.21.82-1.2,1.86-2.2,2.95-3.09,1.11-.88,2.3-1.62,3.57-2.28,1.37-.71,2.63-1.65,3.69-2.79.52-.58.99-1.2,1.37-1.87.37-.68.46-1.46.6-2.23-.78,1.23-1.79,2.26-2.86,3.17Z"/>
          <path class="cls-2" d="M368.84,119.8c.24-.36.52-.7.82-1.02.15-.16.31-.31.46-.47l.48-.44c.65-.58,1.36-1.09,2.08-1.58,1.45-.96,3-1.77,4.6-2.48,1.69-.75,3.3-1.72,4.71-2.95.7-.61,1.35-1.3,1.91-2.04.69-.88.95-2.11,1.03-2.58-.22.37-.5.72-.79,1.05-.29.33-.59.64-.91.94-.63.6-1.33,1.13-2.04,1.62-1.43.99-2.97,1.81-4.56,2.52-1.68.75-3.3,1.69-4.74,2.89-.72.6-1.38,1.26-1.96,1.99-.72.91-1.06,2.07-1.11,2.55Z"/>
          <path class="cls-2" d="M340.84,160.7c-1.32-5.03-1.41-7.75-1.41-7.75,0,0-1.52,3.61-.09,8.55.44,1.51.61,1.84.91,3.38.46,2.37,0,4.49.02,4.52.03.08.91-1.32,1.06-1.63.67-1.44.55-3.07.2-4.57-.23-.98-.36-1.3-.67-2.5Z"/>
          <rect class="cls-2" x="365.62" y="163.92" width="2.98" height="2.98" transform="translate(1.81 334.78) rotate(-49.13)"/>
          <path class="cls-2" d="M359.28,161.78c-.22-1.57-.33-7.63.28-8.83,0-.02.02-.04.02-.06,0-.08-.13-.06-.2-.01-.7.47-1.57.64-2.41.65s-1.67-.18-2.51-.26c-1.8-.18-2.23,2.45-2.03,3.04.64-.46,1.51-.27,2.28-.18.67.08,1.35.09,2.01.01.49-.06,1.37-.48,1.37-.48,0,0-.57,2.22-.38,6.39.18,3.85,2.22,7.63,2.39,7.34.41-.71.71-1.44,1.02-2.19.04-.1.02-.19-.03-.28-1.03-1.56-1.56-3.28-1.82-5.13Z"/>
          <path class="cls-2" d="M350.18,160.52c-.04-.48-.07-.96-.11-1.44,0-.01,0-.03,0-.04-.1-1.22-.22-2.44-.47-3.62-.06-.3-.46-2.5-2.68-2.5-2.04,0-2.9,2.59-2.9,4.77,0,4.44,4.48,1.34,4.48,1.34,0,6.94,2.45,10.64,2.61,10.35.41-.71.71-1.44,1.02-2.19.04-.1.02-.19-.03-.28-1.26-1.91-1.75-4.15-1.93-6.4Z"/>
        </g>
      </g>
    </g>
  </g>
</svg>