<?xml version="1.0" encoding="UTF-8"?>
<svg id="Layer_2" data-name="Layer 2" xmlns="http://www.w3.org/2000/svg" viewBox="0 0 736 430.63">
  <defs>
    <style>
      .cls-1 {
        fill: #dfceaf;
      }

      .cls-2 {
        fill: #c82928;
      }
    </style>
  </defs>
  <g id="Layer_1-2" data-name="Layer 1">
    <g>
      <rect class="cls-2" width="736" height="430.63"/>
      <g>
        <path d="M662.57,324.06c5.28-35.61,11.63-71.13,16.15-106.81-.96-12.96-12.06-19.24-23.59-21.74-.93-6.39-2.46-13.26-5.05-19.18-5.06-11.53-16.77-21.52-26.61-29.04-9.71-7.43-20.29-14.42-30.86-20.54l-.8-4.65c.93-1.3,2.16-2.1,3.06-3.49,6.14-9.45,12.62-32.09,9.56-42.94-1.45-5.16-8.36-17.85-11.91-21.76-15.36-16.91-42.86-9.61-62.41-6.77-2.73,1.3-2,4.12.93,4.3.12.11-.24.57-.44.67-2.75,1.35-12.27,1.43-14.12,4.28-1.93,2.97.32,7.36,2.43,9.64,1.08,1.16,4.8,3.16,4.75,4.28-.13,2.69-2.91,8.69-3.62,12.08-.73,3.45-1.14,6.96-1.19,10.48-4.18,3.47-7.81,8.01-10.8,12.54-2.43,3.66-5.77,7.49-2.8,11.97,2.85,4.29,10.82,3.15,11.67,4.49-.19,3.51,1.51,6.36,2.32,9.34.72,2.62.62,5.19,1.46,7.97,2.95,9.81,11.33,13.96,21.11,14.34-.82,2.37-1.94,1.79-3.37,2.92-10.82,8.53-23.2,36.14-29.33,49.2-.73,1.55-1.57,3.42-1.87,5.1-13.91-5.33-28.75-7.95-43.42-10.43-.93-4.96-1.27-10.12-2.12-15.16-2.47-14.59-7.11-30.76-12.47-44.53-3.83-9.82-8.1-20.87-17.99-25.99l-34.01-14.6c-1.08-1.64,1.8-6.81,2.3-8.66,11.07,2.89,15.17-16.82,12.65-24.1-.28-.78-1.97-4.01-2.48-4.48-1.43-1.3-4.98-.72-5.23-1.74,2.53-6.31,2.32-14.73.66-21.29-1.26-4.98-3.75-8.01-8.51-9.89-.93-.37-2.29-.27-2.94-.65-.45-.27-1.54-3.68-3.37-5.16-14-11.38-38.75-5.81-53.36,1.85-4.07,2.13-11.29,8.07-6.12,12.38-.15,4.31-.66,8.59-.47,12.93.08,1.74.89,3.76.92,5.37.05,3.92-1.54,9.28-1.79,13.47-.5,8.26-.17,18.62,1.02,26.79.37,2.53,1.12,5.04,1.67,7.53-7.63,2.66-16.11,6.19-23.04,10.41-13.36,8.15-19.13,22.25-24.77,36.27-6.25,15.55-11.51,31.95-14.36,48.48-15.95,3.18-31.71,6.9-46.65,13.38-8.14-12.79-13.05-27.24-22.93-38.98-1.67-1.98-8.79-8.64-8.8-10.55-.03-4.09,5.02-2.17,7-2.02,3.84.29,13.98-1.63,16.85-4.24,4.02-3.64,4.92-11.33,6.29-16.15,1.16-4.06,3.43-7.89,3.32-12.38,5.61-1.85,13.05-2.32,11.37-10.43-.87-4.18-9.35-13.03-12.7-16.02-.93-7.58-1.15-14.63-5.08-21.4-1.25-2.16-3.21-3.86-4.01-6.23,4.72-2.58,8.16-4.44,8.82-10.35.9-7.99-4.02-7.3-10.07-7.37-19.6-.25-41.91-7.47-60.04,3.25-6.12,3.61-6.65,6.02-10.08,11.46-3.36,5.34-6.54,6.25-8.51,13.48-4.72,17.28,1.15,33.93,10.87,48.14l-.55,4.36c-6.58,5.74-13.9,10.61-20.54,16.27-7.14,6.09-15.41,13.35-20.8,20.94-4.94,6.95-8.99,14.24-11.42,22.46-8.56,3.97-21.07,4.45-26.75,12.98-5.7,8.58-1.06,24.39.3,34.11l11.32,80.23c-.46,20.13-5.43,41.1-6.3,61.05-.05,1.14-.27,3.24.4,4.08,1.17,1.48,4.73.42,4.78-1.57,2.84-16.98,2.98-34.89,5.65-51.81.27-1.74,1.22-3.06,1.27-3.29.18-.73-.48-3.29.68-2.83.85.34,2.81,2.13,3.97,2.77,11.02,6.06,24.56,8.5,36.47,12.45,1.78,3.86,2.27,8.27,3.89,12.27,2.24,5.53,5.63,9.43,10.15,13.21l-3.07,14.95c-7.85-1.46-15.2-3.5-20.88,3.58-3.73,4.65-3.52,7.55-2.85,13.18.9,7.47,2.63,18.26,4.65,25.42.2.74.45,1.83.93,2.69h4.88c.48-.45.78-.97.68-1.5-1.95-11.2-5.18-22.36-5.79-33.7.32-1.87,2.63-4.38,4.36-5.07,4.27-1.7,17.12,1.32,22.19,2.26,20.39,3.75,42.66,8.03,62.67,13.19,3.99,1.02,10.32,2.53,12.59,6.26,2.88,4.74,4.14,12.96,6.46,18.56h67.21l-4.02-12.56c15.26,3.24,30.86,5.61,46.46,6.72,43.65,3.11,88.78.14,131.52-8.97-.41,3.58-4.78,11.24-5.05,14.81h64.69c3.62-8.94,2.1-20.21,11.95-24.92,7.15-3.42,20.39-5.77,28.55-7.8,18.34-4.58,36.86-8.48,55.19-13.09,2.92.04,6.09,2.92,6.95,5.69-1.09,12.28-3.77,24.3-6.31,36.33.66,3.59,5.18,4.12,6.21.32.71-10.43,4.15-21.56,4.98-31.82.85-10.46-5.78-18.22-16.54-14.52l-3.64-13.19c8.44-4.69,12.28-11.43,13.81-20.83.64-3.9.29-7.52,1.15-11.2,5.58-1.55,11.26-2.62,16.73-4.59,4.22-1.51,7.98-3.74,12.11-5.39l6.18,62.49c.26,2.16,2.52,4.02,4.41,2.39,1.28-1.1.92-3.36.86-4.97-.81-20.22-5.29-41.15-5.83-61.47ZM84.39,239.69c-1.16,10.08-2.08,20.83-2.7,30.96-.65,10.69-.28,21.45-1.57,32.08-.85-.97-.84-2.62-1.05-3.88-3.7-21.93-7.22-45.69-9.89-67.76-.52-4.31-1.58-11.02-.93-15.16.79-5.07,7.26-7.65,11.4-9.25,3.55-1.36,7.43-2.28,11.02-3.57-2.82,12.02-4.88,24.29-6.28,36.58ZM602.87,146.57l1.69.65-4.97,26.15-9.33,5.34,4.89,11.51c-6.3,12.39-11.31,25.92-18.09,38.03-.81,1.46-1.9,3.47-2.85,4.78-.4.57-.45,1.25-1.42,1.04l19.57-44.41c.19-.46.01-.79-.15-1.21-.84-2.18-5.81-9.09-5.32-10.93.72-2.7,8-4.47,10.17-6.12l5.81-24.83ZM592.32,133.12c1.35.11.01,3.11-.22,3.81-3.7,11.18-9.25,22.27-13.36,33.31-5.99,16.09-10.22,32.83-12.24,49.93-1.7.33-.47-1.52-.45-2.48.31-12.9-1.82-26.51-2.56-39.43l2.57-5.66c1.26-.93,4.83,6.55,7.56,4.86.11-.07.96-2.12.96-2.41-.02-1.13-13-12.95-13.01-16.36,1-.09,1.78-.7,2.57-1.25,8.24-5.8,16.9-11.42,23.69-18.94.84-.93,3.74-5.45,4.49-5.38ZM524.31,133.11c3.01-.53,9.54.28,8.31-4.5-.95-1.89-7.31-.38-9.21.01-1.35-2.36-.69-9.68-2.03-11.21-2.27-2.58-16.27.71-11.64-6.72,1.91-3.08,6.07-8.46,8.49-11.26.76-.89,2.05-1.35,2.93-2.45,2.44-3.03,2.18-9.46,3.09-13.52.33-1.51,3.53-12.16,4.08-12.53,7.87-.03,15.41-.66,22.76-3.68.54-.01,1.49.36,1.76.78.27.45-2.35,8.27-2.5,10.11-.74,9.28,4.69,18.97,10.55,25.79.74.16,4.35-5.35,5.36-6.3,2.1-1.96,6.04-3.79,8.94-3.55,11.68.99,3.21,26.07-5.33,26.05-1.43,0-2.86-.95-4.29-.29-1.28,2.33-.15,4.35,2.25,4.97,4.68,1.23,8.59-2.53,11.47-5.61,1.38,2.11,4.49,1.28,6.3,2.67.14.11,2.32,2.39,2.38,2.56.28.81.14,3.79.02,4.81-.4,3.41-2.01,5.3-4.19,7.72-2.4,2.66-6.37,5.76-9.27,7.99-1.84,1.41-12.88,9.43-14.15,9.57-4.4.53-8.01-6.71-10.37-7.42-1.78-.53-4.59,1.07-6.64,1.26-10.52.98-17.8-4.88-19.07-15.25ZM555.68,177.35l-5.78,42.81c-.15-21.48,1.36-42.93,2.24-64.39l.89-.22c.93,2.21,4.57,2.95,6.74,3.81-1.43,2.09-5.41,4.75-5.81,7.2-.53,3.28,1.17,7.53,1.72,10.79ZM533.73,192.57c.11-.38.87-.82,1.35-.68.83.6.38,17.36.43,19.99.02,1.17.45,2.27.49,3.55.09,3.07-.11,6.16-.03,9.22-2.61-.72-1.53-2.37-1.77-4.28-.07-.55-.47-1.2-.47-1.33v-26.47ZM521.9,230.99c13.15-1.21,25.01,1.33,36.21,8.11,8.64,5.22,15.65,11.82,15.12,22.8-12.69-4.04-30.33-11.29-43.64-7.06-9.37,2.98-16.33,17.54-9.77,25.9-11.09-3.42-22.65-4.47-34.12-5.83l1.35-7.18c.99-.9,3.23,4.93,3.66,5.54,1.29,1.8,3.14,3.06,4.82.89.64-2.03-4.15-9.76-6.61-10.55l-.12-.57c3.56-15.43,16.56-30.53,33.1-32.05ZM482.34,250.23c-1.39-7.62-2.02-16.05-7.85-21.76,4.07-3.26,7.66,2.29,9.05,5.75,2.21,5.52,2.84,11.95,3.51,17.8l-4.71-1.79ZM461.26,212.11c1.08-1.97,1.49-4.66,2.47-6.75l38.13,8.08c-.08.7-.66.69-1.16.85-10.01,3.21-20.97,4.85-29.65,11.19l-13.18-8.91c.5-1.85,2.39-2.64,3.39-4.46ZM451.79,217.49c4.59,1.43,19.97,13.06,22.25,17.25,1.91,3.5,3.06,9.11,3.52,13.09.21,1.81.83,4.33-.37,5.78-.84,1.01-8.72,5.15-10.35,5.81-6.61,2.69-27.64,7.56-34.13,5.87-2.16-.56-3.88-1.66-1.96-3.81,6.83-1.03,13.99-4.3,20.83-3.17.23-2.37-.61-3.94-3.02-4.38-2.89-.53-14.35,2.23-17.53,3.35-2.95,1.04-5.13,3.93-8.07,2.27-1.03-1.96-.83-3.27,1.24-4.16,2.62-1.12,12.64-3.52,15.55-3.75,2.1-.18,3.94-.07,6,.38.8-4.82-4.26-4.72-7.73-4.36-5.47.56-11.94,3.96-16.79,4.36-1.2.09-2.25-.27-2.42-1.59-.33-2.49,1.19-2.68,3.06-3.21,3.43-.97,13.72-3.19,16.97-3.22,1.41-.02,4.63,1.34,4.88,1.29,1.7-.33.33-3.4-1.15-4.22-4.6-2.56-15.18,1.98-20.77,1.81-2.42-.08-2.21-2.45-.73-3.64,1.89-1.52,12.21-2.39,15.36-3.04,4.58-.95,9.71-1.8,13.13-5.25,1.09,1.14,2.33,2.17,3.36,3.36,1.06,1.23,4.82,7.94,6.29,6.94,1.62-4.17-1.89-8.45-4.71-11.21-2.64-2.59-9.99-6.34-11.1-9.09-2.26-5.61,5.16-4.45,8.39-3.46ZM419.71,161.59c.08-.62.25-1.3.89-.66l4.5,28.72,7.63-.9.03,1.54-30.89,7.55c-.3.61-.92,1.49-.8,2.16.24,1.33,3.91,7.06,4.81,9.09,1.99,4.5,3.65,8.69,3.06,13.77h-5.39c1.43-1.42.01-3.04-.01-4.74-.13-8.61-.55-11.25-4.7-19.05-.63-1.2-1.21-2.32-2.47-2.91l26.93-6.07c-.78-1.88-.63-3.69-.9-5.6-.83-6.03-2.26-12.89-2.68-18.86-.08-1.15-.15-2.93-.01-4.04ZM406.26,130.62l-7.6-21.13c-.3-.94.62-.67,1.24-.55l9.06,23.03c-.27,1.71-7.2,4.16-8.54,5.88,1.32,3.19,5.87,7.46,5.19,10.98-.65,3.32-4.96,11.86-6.61,15.4-3.06,6.57-8.17,18.29-11.97,23.94-.39.58-.5,1.22-1.43,1.03,4.24-10.54,9.54-20.68,13.99-31.11.96-2.25,3.7-8.01,3.88-10.07.21-2.35-5.95-8.32-6.68-11.07,1.58-1.29,9.31-4.57,9.47-6.33ZM362.58,197.62c2.34,1.33,6.48,1.86,9.25,3.33,4.13,2.18,11.93,9.57,12.69,14.27.28,1.73-1.09,4.01-2.77,2.73-4.05-5.87-10.78-14.14-18.13-15.53-2.58-.49-3.31-.23-4.95,1.81,3.63,2.21,7.35,2.63,10.77,5.38,1.85,1.49,7.94,8.25,8.07,10.37.18,2.75-2.68.75-3.81-.27-3.73-3.35-5.99-7.92-11.45-9.64-2.06-.65-8.62-1.87-7.87,1.58,2.24,1.75,4.84,1.14,7.4,2.48,1.23.65,10.42,7.82,9,9.17-3.4-.23-5.38-2.99-8.54-4.25-4.24-1.69-6.88-1.7-11.29-.99-6.04.97-12.94,4.33-18.58.31-.44-.86.87-3.96,1.27-5.05,2.06-5.73,4.7-10.48,9.54-14.24,9.19-7.12,25.65-9.85,35.98-3.89.44.26,2.01,2.02,2.62,2.54,2.18,1.84,3.52,1.66,3.74,5.56-2.11,2.64-4.55-1-6.25-2.16-3.52-2.4-12.72-8-16.83-6.13-1.75.79-1.33,1.79.14,2.62ZM377.06,177.53c-.78.11-.42-1.02-.44-1.56-.27-7.12-.14-12.41-1.56-19.54-.63-3.19-3.66-11.64-3.37-14.08.1-.84,2.95-6.01,3.36-6.11,2.22,1.22,3.58,3.96,6.5,3.59,1.55-1.54-6.71-9.38-8.07-10.55-3.6-3.1-5.06-4.25-9.44-.9-.93.71-8.87,10.26-9.18,11.02-.41,1.04-.24,2.06-.24,3.13,3.39-.11,4.83-3.13,6.73-5.39l3.06,6.13c-3.11,7.94-5.08,16.2-6.14,24.67-.31,2.47-.23,5.2-.49,7.59-.07.67-.1,1.39-.91,1.55.11-3.66-.75-7.29-1.49-10.85-3.04-14.54-7.57-28.8-10.18-43.45,1.68.99,3.45,1.62,5.37,2.04,11.6,2.54,25.08,2.16,34.36-6.06,2.1-1.86,3.54-4.22,5.48-6.17.24-.25-.03-.89,1.02-.57l-14.37,65.51ZM336.68,42.93l13.66,1.34c6.7.21,23.53-2.64,29.44-5.61,1.08-.54,5.66-4.45,6.26-3.83-1.88,12.4,4.65,24,7.54,35.77,2.07,3.47,4.44-3.2,6.19-4.77,1.98-1.77,4.62-1.65,6.71-.05,5.04,3.87,1.1,19.47-4.31,21.74-1.74.73-3.67-.19-3.11,2.5l-2.48-.89c-.51,0-.81.31-1.13.65-1.18,1.24-2.81,8.41-3.68,10.68-5.84,15.23-19.17,24.94-35.89,21.29-15.28-3.35-19.59-14.58-21.4-28.87-2.13-16.79-.05-33.32,2.2-49.95ZM335.76,113.36l.38,2.35-6.66,17.39,7.97,2.45c-.35,4.05-6.06,9.76-5.7,13.43l16.13,39.32c-.67-.1-.83-.84-1.12-1.33-2.99-5.03-6.18-11.97-8.68-17.35-3.28-7.06-6.23-14.31-8.96-21.6.18-2.48,5.35-8.28,4.79-10.57-.38-1.53-6.27-2.33-7.6-3.72l9.45-20.37ZM308.63,188.32c1.2-7.59,1.9-15.47,3.49-22.99.18-.82-.05-2.52,1.2-2.16l-2.04,26.06,25.82,6.92c-2.1,1.66-1.73,3.95-2.44,5.63-2.46,5.79-5.9,11.29-7.06,17.62-.5,1.18-3.27,1.18-3.89.03-.94-2.82,3.81-14.43,5.78-16.98.84-1.08,4.47-3.66,3.39-5.19-3.48-1.9-31.19-6.76-31.64-8.33-1-3.48,6.36.96,7.39-.61ZM191.67,210.07c.12,1.86-.07,3.75,0,5.6-.65.11-.63-.79-.76-1.25-.95-3.36-1.32-7.8-2.07-11.39-1.01-4.81-4.25-14.86-4.31-19.05-.02-1.19.7-2.03.82-3.12.45-4.18-.69-6.99-3.08-10.31l4.01-2.44c1.15,6.78,2.3,13.58,3.14,20.42.84,6.81,1.81,14.76,2.25,21.54ZM161.23,128.02c.38-.77.96-3.88,1.49-3.88,3.15,4.76,13.8,10.7,14.59,1.34-2.03-.3-5.1.4-6.96,0-.76-.17-3.44-2.41-4.05-3.13-5.85-6.86-6.06-23.44,6.64-18.76,4.31,1.59,5.39,4.71,8.69,7.49,3.76-2.18,5.78-7.12,7.24-11.06,2.9-7.8,4.53-16.85.56-24.57.27-1.5,4.97-.25,6.04-.22,3.96.13,12.46-1.19,15.25,1.8.92.99,4.33,6.49,5.1,7.92,3.25,6,3.14,13.21,3.92,19.87,1.84,1.78,3.88,3.26,5.58,5.19,1.17,1.31,5.79,7.21,6.34,8.48,2.6,5.92-8.5,4.02-10.14,5.63l-3.01,12.04c-3.03,1-6.59-1.54-9.12.98l-.15,1.48c.56,2,5.83,2.3,7.57,2.11.1,4-2.06,10.86-5.37,13.26-2.05,1.49-8.51,2.89-11.04,2.91-3.54.04-7.54-1.76-11.12-1.83-2.15,3.49-3.47,7.72-6.88,10.3-.41.07-5.99-4.06-6.85-4.7-4.06-3.05-20.91-16.12-22.87-19.33-.87-1.41-1.2-3.54-1.86-5.08,4.35-1.65,8.29-3.92,10.41-8.24ZM145.18,142.96l1.35-.45,33.06,26.71.21.71c-.53,2.47-1.27,4.68-2.58,6.84-1.15,1.88-6.58,6.85-6.67,7.74-.12,1.07,1.71,2.52,2.43,2.4.57-.1,4.09-3.77,3.88-4.89l1.76,4.74c.73,11.47.16,22.76,1.25,34.21.05.49.53,1.53-.31,1.43-2.24-8.38-4.74-16.73-7.63-24.91-5.16-14.58-11.08-26.67-18.79-40.01-2.66-4.6-5.52-9.12-8.43-13.58l.47-.94ZM140.04,158.24l9.67,22.42,9.63,4.53c-1.31,1.77.43,3.9.38,4.61-.11,1.49-3.71,6.64-3.44,8.49l17.43,37.13-11.3-18.99c-1.74-5.09-7.52-12.04-8.6-17.01-.62-2.82,4.15-8.18,2.63-10.68-.96-1.55-8.75-3.21-9.75-5.51l-7.94-24.25,1.29-.74ZM121.22,292.16c-6.95-5.12-13.18-22.52-15.86-30.82-.92-2.86-6.14-19.9-4.81-21.43l1.24.77c2.76,10.93,6.21,22.44,10.8,32.74,3.24,7.3,7.36,16.11,15.3,19.03l-1.07,2.55c-.51.07-4.93-2.34-5.6-2.84ZM140.04,365.56c-7.28-4.59-9.33-13.61-10.76-21.54l7.64,11.43c1.08,1.31,4.09,3.59,4.6,4.86.62,1.54-1.29,3.57-1.48,5.25ZM211.58,331.97c-7.31-3.27-15.4-3.99-23.05-6.12,3.7-4.44,10.33-2.16,15.04-.69,10.21,3.2,21.17,8.5,28.96,15.94,2.52,2.41,3.94,4.25,4.48,7.86-8.57-5.48-16.04-12.8-25.43-16.99ZM198.02,318.83l-.07-4.43c9.5,1.9,17.24-3.49,23.12-10.3,4.05,3.73,7.45,6.74,13.44,5.79,3.97-.64,5.46-6.25,1.3-6.6-.86-.08-1.96,1.02-3.09,1.21-8.31,1.37-14.55-12.73-12.64-19.36,1.99-6.93,10.27-9.1,15.81-4.84,1.02.78,2.4,3.12,2.91,3.37,2.41,1.18,16.03-2.6,19.66-3.24,3.7-.65,7.57-1.16,11.32-1.48.3.3-1.95,6.4,1.58,6.74,3.75.36.73-4.09,1.63-6.45l.66-.69,1.51-.05,2.46,10.78c1.11,1.27,3.94-.55,4.21-1.67.2-.8-.78-1.76-.16-2.37,2.52,2.77,7.54,8.4,5.56,12.28-1.9,3.7-8.91,1.8-12.11,4.05-1.06,2.49.07,12.3-2.96,13.19-1.47.44-5.7-.61-5.98,2.12-.31,3.02,3.78,3.09,5.84,2.91-.4,2.8-1.69,5.8-3.4,8.04-3,3.91-9.47,7.24-14.33,7.66-3.86.33-8.88-1.24-12.05.52-.98.54-4.35,4.04-4.94,3.94-10.7-11-24.66-17.13-39.28-21.12ZM259.2,272.7c3.81,1.8,6.56-3.11,10.58-3.17-.16,2.18-.16,5,2.81,4.42,1.19-.24,2.11-1.81,3.47-1.73l.45,4.49c-.68-.19-.94-1.05-1.66-1.26-2.25-.66-15.4,1.33-18.63,1.84-4.03.63-8.09,1.49-12.03,2.55,3.56-8.35,2.86-16.83-2.51-24.19-3.34-4.59-9.55-7.91-8.51-14.42,4.46-1.8,9.28-1.2,13.96-1.3,4.26-.1,4.85-1.53,9.06,1.22,8.2,5.35,12.6,14.9,14.04,24.34-2.79-.65-13.74,3.34-11.03,7.21ZM512.42,353c-8.73,5.36-19.42,7.97-26.46,15.74-7.64,12.67-11.83,27.25-17.39,40.95l-.69.66c-6.66,1.61-13.41,2.92-20.18,4.06-37.5,6.34-77.86,7.85-115.74,5-15.43-1.16-30.82-3.6-45.91-6.84l-12.91-33.09c-5.13-12.64-17.7-18.3-28.24-25.62l-4.18-9.17,4.7-4.63c13.86,1.99,26.77-3.61,30.88-17.56.79-2.68,2.33-7.68,2.79-10.23.41-2.25.15-5.01.77-7.31.56-.9,1.89.03,2.72.02,2.63-.03,3.96-.33,6.06-2.01,5.89-4.7,3.79-10.64.45-16.18-2.18-3.62-7.8-8.13-8.43-11.76-.46-2.64.75-4.14-2.19-5.88-.87-.52-1.88-.66-2.8-1.03-1.65-25.51-22-41.07-46.96-39.87-42.97,2.05-65.31,44.33-39.66,79.57,1.05,1.44,2.36,1.99,3.26,3.02,1.71,1.97.3,5.53.69,8.03-1.96-.02-4.06,1.1-5.59,2.26-2.33,1.77-5.01,6.27-6.99,7.38-8.25,4.6-15.75,6.14-23.72,12.64-5.16,4.21-8.43,9.23-12.39,14.53-5.3-4.07-9.09-9.86-11.97-15.84-6.43-13.34-8.55-29.03-1.72-42.72,2.21-4.44,2.68-2.53,6.49-2.44,12.64.28,25.57.64,38.18-.47.44-.04,1.98-.25,2.05-.73-1.26-8.01-1.94-16.98-1.4-25.09.17-2.5.62-5.41,1.82-7.6l-27.29-2.58-8.59-38.78c-.31-2.19.85-3.63,1.9-.97,3,7.67,4.57,19.37,6.81,27.73.68,2.54,1.68,9.02,4.08,9.84,1.71.59,7.26.89,9.37.95,1.41.05,5.01.23,6.07-.25.71-.32,5.46-4.78,6.79-5.78,12.9-9.67,27.48-19.35,41.12-28.01,3.98-2.53,8.74-5.72,12.99-7.65,12.06-5.47,26.78-7.76,39.67-10.39-.59,11.89,12.23,13.42,21.09,15.49,10.06,2.36,22.25,5.08,32.54,4.25,2.43-.19,5.34-1.33,7.65-1.37,3.52-.06,6.96,1.3,11.21.93,6.41-.57,9.98-4.16,16.96-1.69,4.19,1.47,7.1,5.65,12.12,4.73,1.35-.25,2.09-1.21,3.01-1.48.77-.22,1.77.19,2.9-.21,1.5-.53,1.84-1.71,2.99-2.43,1.08-.68,2.63-.85,3.78-1.61,5.36-3.56,1.79-9.67-.68-13.91,4.37-.63,5.32-2.52,4.04-6.73l1.55.47.5-.94c7.34.77,10.61,9.98,9.6,16.37-.7,4.41-8.66,6.35-12.35,6.55-1.72.09-4.31-1.57-4.28,1.11.02,2.2,4.21,3.01,6.08,2.92,2.6-.13,5.3-1.78,7.65-1.84,2.17-.05,4.13,1.16,6.29,1.38,9.39.95,19.59-3.43,28.5-6.05,1.45-.43,3.41-.37,4.61-.79.99-.34,1.7-1.85,3.02-1.68-1.17,2.96,1.18,6.16,3.13,8.32.56.62,3.29,2.09,2.71,2.89-7.33,3.1-15.71,2.45-23.25,4.81-3.61,1.13-6.02,3-5.97,7.1.02,1.32.91,2.41.85,3.06-.07.73-1.16,1.68-1.48,2.54-1.51,4.13-.66,6.9,3.34,8.8-.55,1.88-.45,3.98.53,5.72,1.39,2.47,4.15,1.87,6.21,3.23,1.09.73,1.49,1.92,2.31,2.62,1.65,1.43,5.19,2.31,7.37,2.51,6.2.57,22.01-2.92,28.39-4.81,5.96-1.77,9.9-4.75,15.07-7.83,1.27-.75,3.72-1.22,3.9-2.61l2.49,1.33c.42.58-2.39,9.17-2.82,10.69-1.32,4.62-.33,5.82-3.93,9.53-3.21,3.31-7.68,7.54-9.75,11.8-2.05,4.22-.86,8.89,3.51,11.02,2.69,1.31,4.62.7,7.4,1.21.84,3.26.01,6.83,1.06,10.07.62,1.91,3.41,4.37,3.62,5.34.14.63-.95,2.36-1.1,3.44-1.84,13.41,17.47,18.79,27.68,18.92l4.98,5.83-3.29,9.1ZM508.31,332.41c-1.33-.17-2.72.12-3.97-.06-6.16-.89-15.34-4.38-16.54-11.33-.84-4.84,5.07-2.47,5.88-6.06.89-4.01-2.78-2.06-4.71-2.69-6.8-2.21-2.57-13.08-4.85-15.8-2.23-2.66-14.9,1.07-10.38-7.26,2.54-4.68,8.85-12.24,14.65-12.05-.65,3.07-.94,8.53,2.93,9.31,2.71-1.98.91-5.54-.23-7.96,1.38-.97,29.23,6.31,32.55,8.46,3.97-4.79,6.42-11.32,13.71-7.82,10.46,5.02,3.67,26.94-6.6,27.59-2.07.14-5.8-1.81-5.99,1.64-.35,6.66,15.11,2.11,16.37-2.9,5.89,3.89,12.57,5.57,19.55,6.44l1.33,3.82c-15.72,4.88-31.4,11.61-42.87,23.78-2.61-3.45-6.4-6.54-10.83-7.11ZM565.23,322.33c-9.44,2.16-20.7,7.75-29.1,12.64-7.17,4.16-11.76,9.75-17.65,15.33,1.28-5.34,6.64-10.62,10.76-14.14,5.4-4.62,25.39-14.46,32.3-15.72,2.23-.41,5.5-.62,6.76,1.59-1.06-.1-2.04.06-3.07.3ZM623.53,340.67c-.57,8.93-3.99,17.81-11.46,23.09-.52,0-1.66-3.75-1.36-4.47.24-.58,4.46-4.68,5.36-5.88,3.31-4.43,5.84-9.8,7-15.22.79,0,.5,1.96.46,2.48ZM620,337.15c-1.57,3.84-7.99,16.08-11.53,17.64-3.33-8.47-10.17-16-18.04-20.56-2.91-1.68-7.42-2.69-9.79-4.57-2.22-1.76-3.89-5.79-5.83-8.08-2-2.38-5.87-4.25-6.98-5.59-1.21-1.47-.94-5.73-2.25-7.61,2.21-1.21,3.51-3.52,4.75-5.64,2.94-5.03,6.56-13.14,7.64-18.84,1.69-8.97.35-18.38-.66-27.34l19.75-6.65,8.05-45.46h1.79s-7.2,44.23-7.2,44.23l.06.61c4.12.97.3,2.81-1.53,3.71-5.59,2.75-12.43,4.75-18.26,7.11,2.13,12.06,2.26,25.62-2.7,37.01l39.66-6.43c8.62,13.57,9.12,31.65,3.07,46.46ZM638.34,267.07c-3.24,8.66-7.6,19.85-17.07,23.1-.72-3.4,1.58-3.14,3.55-4.75,9.91-8.06,14.77-30.67,19.45-42.49.48-1.21,1.13-3.1,2.13-3.92-2.07,9.48-4.67,18.97-8.06,28.06ZM659.88,302.73l-.88-46.01-3.16-55.4c8.18,2.97,17.1,4.98,17.54,15.48-4.54,27.37-7.24,55.22-12.23,82.5-.2,1.06-.18,2.95-1.27,3.43Z"/>
        <path class="cls-1" d="M510.73,338.07c-10.21-.13-29.52-5.51-27.68-18.92.15-1.08,1.24-2.81,1.1-3.44-.21-.97-3-3.43-3.62-5.34-1.05-3.24-.22-6.81-1.06-10.07-2.78-.51-4.71.1-7.4-1.21-4.37-2.13-5.56-6.8-3.51-11.02,2.07-4.26,6.54-8.49,9.75-11.8,3.6-3.71,2.61-4.91,3.93-9.53.43-1.52,3.24-10.11,2.82-10.69l-2.49-1.33c-.18,1.39-2.63,1.86-3.9,2.61-5.17,3.08-9.11,6.06-15.07,7.83-6.38,1.89-22.19,5.38-28.39,4.81-2.18-.2-5.72-1.08-7.37-2.51-.82-.7-1.22-1.89-2.31-2.62-2.06-1.36-4.82-.76-6.21-3.23-.98-1.74-1.08-3.84-.53-5.72-4-1.9-4.85-4.67-3.34-8.8.32-.86,1.41-1.81,1.48-2.54.06-.65-.83-1.74-.85-3.06-.05-4.1,2.36-5.97,5.97-7.1,7.54-2.36,15.92-1.71,23.25-4.81.58-.8-2.15-2.27-2.71-2.89-1.95-2.16-4.3-5.36-3.13-8.32-1.32-.17-2.03,1.34-3.02,1.68-1.2.42-3.16.36-4.61.79-8.91,2.62-19.11,7-28.5,6.05-2.16-.22-4.12-1.43-6.29-1.38-2.35.06-5.05,1.71-7.65,1.84-1.87.09-6.06-.72-6.08-2.92-.03-2.68,2.56-1.02,4.28-1.11,3.69-.2,11.65-2.14,12.35-6.55,1.01-6.39-2.26-15.6-9.6-16.37l-.5.94-1.55-.47c1.28,4.21.33,6.1-4.04,6.73,2.47,4.24,6.04,10.35.68,13.91-1.15.76-2.7.93-3.78,1.61-1.15.72-1.49,1.9-2.99,2.43-1.13.4-2.13,0-2.9.21-.92.27-1.66,1.23-3.01,1.48-5.02.92-7.93-3.26-12.12-4.73-6.98-2.47-10.55,1.12-16.96,1.69-4.25.37-7.69-.99-11.21-.93-2.31.04-5.22,1.18-7.65,1.37-10.29.83-22.48-1.89-32.54-4.25-8.86-2.07-21.68-3.6-21.09-15.49-12.89,2.63-27.61,4.92-39.67,10.39-4.25,1.93-9.01,5.12-12.99,7.65-13.64,8.66-28.22,18.34-41.12,28.01-1.33,1-6.08,5.46-6.79,5.78-1.06.48-4.66.3-6.07.25-2.11-.06-7.66-.36-9.37-.95-2.4-.82-3.4-7.3-4.08-9.84-2.24-8.36-3.81-20.06-6.81-27.73-1.05-2.66-2.21-1.22-1.9.97l8.59,38.78,27.29,2.58c-1.2,2.19-1.65,5.1-1.82,7.6-.54,8.11.14,17.08,1.4,25.09-.07.48-1.61.69-2.05.73-12.61,1.11-25.54.75-38.18.47-3.81-.09-4.28-2-6.49,2.44-6.83,13.69-4.71,29.38,1.72,42.72,2.88,5.98,6.67,11.77,11.97,15.84,3.96-5.3,7.23-10.32,12.39-14.53,7.97-6.5,15.47-8.04,23.72-12.64,1.98-1.11,4.66-5.61,6.99-7.38,1.53-1.16,3.63-2.28,5.59-2.26-.39-2.5,1.02-6.06-.69-8.03-.9-1.03-2.21-1.58-3.26-3.02-25.65-35.24-3.31-77.52,39.66-79.57,24.96-1.2,45.31,14.36,46.96,39.87.92.37,1.93.51,2.8,1.03,2.94,1.74,1.73,3.24,2.19,5.88.63,3.63,6.25,8.14,8.43,11.76,3.34,5.54,5.44,11.48-.45,16.18-2.1,1.68-3.43,1.98-6.06,2.01-.83,0-2.16-.92-2.72-.02-.62,2.3-.36,5.06-.77,7.31-.46,2.55-2,7.55-2.79,10.23-4.11,13.95-17.02,19.55-30.88,17.56l-4.7,4.63,4.18,9.17c10.54,7.32,23.11,12.98,28.24,25.62l12.91,33.09c15.09,3.24,30.48,5.68,45.91,6.84,37.88,2.85,78.24,1.34,115.74-5,6.77-1.14,13.52-2.45,20.18-4.06l.69-.66c5.56-13.7,9.75-28.28,17.39-40.95,7.04-7.77,17.73-10.38,26.46-15.74l3.29-9.1-4.98-5.83ZM342.94,385.07c-15.49,6.27-42.55,6.28-56.69-3.44-2.54-1.75-4.64-3.81-5.5-6.86,1.18-1.36.45-2.97.74-4.46,1.1-5.68,6.19-9.18,11.59-10.18-.22-6.62-2.69-17.13,1.01-22.99,3.02-4.78,11.96-6.8,17.22-7.47,1.09-.14,3.47.38,4.06-.45-.36-5.28-1.78-10.64.47-15.66,1.01-2.25,3.38-4.29,4.12-6.21.61-1.55.96-8.07,1.68-8.21,2.86-.55,2.73,5.58,2.65,7.41-.26,6.33-4.25,6.26-5.02,10.88-.26,1.53.13,11.01.9,11.67,8.49,1.41,21.2,1.64,23.27,12.18,13.96-2,16.45,13.22,8.56,21.89,7.18,11.09,1.56,17.61-9.06,21.9ZM381.57,278.3c-13.05,6.73-42.15,6.41-54.74-1.4-4.65-2.89-6.86-5.41-4.75-10.96,1.7-4.48,7.15-6.29,11.44-7.19-1.41-5.35-1.96-12.66-1.34-18.17,1.19-10.6,20.52-11.13,28.5-10.54,7,.52,16.37,2.72,18.16,10.56,3.19.55,5.42-.59,8.06,1.82,5.54,5.05,3.39,14.23-1.75,18.8,7.64,5.48,3.43,13.46-3.58,17.08ZM457.85,368.01c-14,6.18-35.67,6.74-50.04,1.6-5.25-1.88-10.27-4.88-13.05-9.87l-.19-1.11c1.27-1.59.67-3.14,1.01-4.86.92-4.71,6.57-8.61,11.08-9.34-.85-5.56-1.36-12.04-.86-17.68.25-2.76,1.06-5.27,3.16-7.16,8.38-7.55,35.97-7.87,43.81.36,1.55,1.63,2.86,4.27,2.86,6.57,13.28-5.1,14.97,13.02,8.6,20.42,9.11,8.25,2.85,17.01-6.38,21.07Z"/>
        <path class="cls-1" d="M406.48,65.78c-2.09-1.6-4.73-1.72-6.71.05-1.75,1.57-4.12,8.24-6.19,4.77-2.89-11.77-9.42-23.37-7.54-35.77-.6-.62-5.18,3.29-6.26,3.83-5.91,2.97-22.74,5.82-29.44,5.61l-13.66-1.34c-2.25,16.63-4.33,33.16-2.2,49.95,1.81,14.29,6.12,25.52,21.4,28.87,16.72,3.65,30.05-6.06,35.89-21.29.87-2.27,2.5-9.44,3.68-10.68.32-.34.62-.65,1.13-.65l2.48.89c-.56-2.69,1.37-1.77,3.11-2.5,5.41-2.27,9.35-17.87,4.31-21.74ZM341.38,64.45c-.72,0-2.59-2.92-.9-3.59h9.43c2.37,0,3.23,3.59,1.79,3.59h-10.32ZM347.41,76.09c-3.42,1.2-6.42-4.66-2.41-4.9,2.85-.18,2.85,2.83,2.41,4.9ZM349.36,84.99c.83-5.15,3.03-17.33,4.67-21.81.45-1.22.88-2.08,2.38-1.87.47,1.31.49,2.36.4,3.75-.56,8.29-4.11,17.46-4.88,25.86h7.85c1.26,0,1.26,4.04,0,4.04-2.38,0-6.42.37-8.53,0-.78-.14-2.64-1.3-2.85-2.12-.14-.55.77-6.69.96-7.85ZM363.37,106.63c-4.16-.29-8.38-.39-12.55-.46-1.73-.46-2.28-1.92-2.04-3.58,1.73.38,3.58-.4,5.12-.4.66,0,1.44.42,2.28.42,3.63,0,12.68-.73,15.08,2.42,2.91,3.81-6.72,1.69-7.89,1.6ZM371,77.02c-1.69-.34-1.7-3.42-1.5-4.88,2.81-1.05,4.44-.91,4.46,2.4,0,2.26-.44,2.98-2.96,2.48ZM377.72,64.44c-1.63.31-3.57-.49-5.37-.48-1.21.02-12.4,2.61-9.06-1.18,1.89-2.13,12.9-2.7,15.09-1.22,1.56,1.05,1,2.55-.66,2.88ZM404.26,73.45c-4.51.09-1.41,6.38-5.67,5.62-1.64-3.72,1.86-8.51,5.86-8.34l-.19,2.72Z"/>
        <path class="cls-1" d="M231.66,118.49c-.55-1.27-5.17-7.17-6.34-8.48-1.7-1.93-3.74-3.41-5.58-5.19-.78-6.66-.67-13.87-3.92-19.87-.77-1.43-4.18-6.93-5.1-7.92-2.79-2.99-11.29-1.67-15.25-1.8-1.07-.03-5.77-1.28-6.04.22,3.97,7.72,2.34,16.77-.56,24.57-1.46,3.94-3.48,8.88-7.24,11.06-3.3-2.78-4.38-5.9-8.69-7.49-12.7-4.68-12.49,11.9-6.64,18.76.61.72,3.29,2.96,4.05,3.13,1.86.4,4.93-.3,6.96,0-.79,9.36-11.44,3.42-14.59-1.34-.53,0-1.11,3.11-1.49,3.88-2.12,4.32-6.06,6.59-10.41,8.24.66,1.54.99,3.67,1.86,5.08,1.96,3.21,18.81,16.28,22.87,19.33.86.64,6.44,4.77,6.85,4.7,3.41-2.58,4.73-6.81,6.88-10.3,3.58.07,7.58,1.87,11.12,1.83,2.53-.02,8.99-1.42,11.04-2.91,3.31-2.4,5.47-9.26,5.37-13.26-1.74.19-7.01-.11-7.57-2.11l.15-1.48c2.53-2.52,6.09.02,9.12-.98l3.01-12.04c1.64-1.61,12.74.29,10.14-5.63ZM171,112.93c-6.43-.49-2.4-7.8,2.01-1.33,3.02,4.42-2.63,5.57-2.01,1.33ZM212.9,110.12c-6.09,1.78-5.67-5.37-2.04-6.11,4.18-.85,4.68,5.34,2.04,6.11ZM215.42,91.98c-.3,1.74-12.19,7.93-11.11,2.42.4-2.05,4.25-3.52,6.1-3.82,1.19-.19,5.35-.5,5.01,1.4Z"/>
        <path class="cls-1" d="M587.98,124.43c-.06-.17-2.24-2.45-2.38-2.56-1.81-1.39-4.92-.56-6.3-2.67-2.88,3.08-6.79,6.84-11.47,5.61-2.4-.62-3.53-2.64-2.25-4.97,1.43-.66,2.86.29,4.29.29,8.54.02,17.01-25.06,5.33-26.05-2.9-.24-6.84,1.59-8.94,3.55-1.01.95-4.62,6.46-5.36,6.3-5.86-6.82-11.29-16.51-10.55-25.79.15-1.84,2.77-9.66,2.5-10.11-.27-.42-1.22-.79-1.76-.78-7.35,3.02-14.89,3.65-22.76,3.68-.55.37-3.75,11.02-4.08,12.53-.91,4.06-.65,10.49-3.09,13.52-.88,1.1-2.17,1.56-2.93,2.45-2.42,2.8-6.58,8.18-8.49,11.26-4.63,7.43,9.37,4.14,11.64,6.72,1.34,1.53.68,8.85,2.03,11.21,1.9-.39,8.26-1.9,9.21-.01,1.23,4.78-5.3,3.97-8.31,4.5,1.27,10.37,8.55,16.23,19.07,15.25,2.05-.19,4.86-1.79,6.64-1.26,2.36.71,5.97,7.95,10.37,7.42,1.27-.14,12.31-8.16,14.15-9.57,2.9-2.23,6.87-5.33,9.27-7.99,2.18-2.42,3.79-4.31,4.19-7.72.12-1.02.26-4-.02-4.81ZM575.48,103.94c-3.96-.57-3.36,1.49-4.08,4.45l-2.59-.48c-1.59-4.36,6.66-11.12,6.67-3.97ZM530.72,104.77c-3.86,1.08-5.97-5.1-2.5-6.12,5.92-1.74,4.52,5.56,2.5,6.12ZM538.02,89.6c-.73,1.06-10.22-.68-10.82-1.82-.5-.86.02-2.74,1-3.07,1.59-.54,9.36.16,9.94,2.03.19.65.25,2.35-.12,2.86Z"/>
        <path class="cls-1" d="M281.67,285.24c-.62.61.36,1.57.16,2.37-.27,1.12-3.1,2.94-4.21,1.67l-2.46-10.78-1.51.05-.66.69c-.9,2.36,2.12,6.81-1.63,6.45-3.53-.34-1.28-6.44-1.58-6.74-3.75.32-7.62.83-11.32,1.48-3.63.64-17.25,4.42-19.66,3.24-.51-.25-1.89-2.59-2.91-3.37-5.54-4.26-13.82-2.09-15.81,4.84-1.91,6.63,4.33,20.73,12.64,19.36,1.13-.19,2.23-1.29,3.09-1.21,4.16.35,2.67,5.96-1.3,6.6-5.99.95-9.39-2.06-13.44-5.79-5.88,6.81-13.62,12.2-23.12,10.3l.07,4.43c14.62,3.99,28.58,10.12,39.28,21.12.59.1,3.96-3.4,4.94-3.94,3.17-1.76,8.19-.19,12.05-.52,4.86-.42,11.33-3.75,14.33-7.66,1.71-2.24,3-5.24,3.4-8.04-2.06.18-6.15.11-5.84-2.91.28-2.73,4.51-1.68,5.98-2.12,3.03-.89,1.9-10.7,2.96-13.19,3.2-2.25,10.21-.35,12.11-4.05,1.98-3.88-3.04-9.51-5.56-12.28ZM231.84,295.6c-2.82,0-1.96-4.79-2.54-5.38-.18-.18-.99.18-1.29-.34-.74-1.27-.49-5.23,1.2-5.52,1.64-.28,7.57,11.23,2.63,11.24Z"/>
        <path class="cls-1" d="M560.68,311.92c-6.98-.87-13.66-2.55-19.55-6.44-1.26,5.01-16.72,9.56-16.37,2.9.19-3.45,3.92-1.5,5.99-1.64,10.27-.65,17.06-22.57,6.6-27.59-7.29-3.5-9.74,3.03-13.71,7.82-3.32-2.15-31.17-9.43-32.55-8.46,1.14,2.42,2.94,5.98.23,7.96-3.87-.78-3.58-6.24-2.93-9.31-5.8-.19-12.11,7.37-14.65,12.05-4.52,8.33,8.15,4.6,10.38,7.26,2.28,2.72-1.95,13.59,4.85,15.8,1.93.63,5.6-1.32,4.71,2.69-.81,3.59-6.72,1.22-5.88,6.06,1.2,6.95,10.38,10.44,16.54,11.33,1.25.18,2.64-.11,3.97.06,4.43.57,8.22,3.66,10.83,7.11,11.47-12.17,27.15-18.9,42.87-23.78l-1.33-3.82ZM533.89,285.77c1.3.13,2.99,2.1,2.54,3.5-4.93-.63-4.3,3.29-6.74,6.09-6.1-.22,2.24-9.77,4.2-9.59Z"/>
        <path class="cls-1" d="M606.9,204.46l-7.2,44.23.06.61c4.12.96.3,2.8-1.53,3.7-5.59,2.75-12.43,4.75-18.25,7.11,2.13,12.06,2.25,25.62-2.7,37.01l39.66-6.43c8.61,13.57,9.12,31.65,3.07,46.46-1.57,3.84-8,16.09-11.53,17.64-3.33-8.47-10.17-15.99-18.04-20.55-2.91-1.69-7.43-2.7-9.79-4.57-2.22-1.76-3.9-5.79-5.83-8.08-2-2.37-5.87-4.25-6.98-5.59-1.21-1.47-.95-5.73-2.25-7.61,2.21-1.21,3.51-3.52,4.75-5.64,2.95-5.04,6.56-13.14,7.64-18.84,1.7-8.97.36-18.38-.66-27.34l19.75-6.64,8.06-45.46h1.79Z"/>
        <path class="cls-1" d="M573.23,261.9c-12.7-4.04-30.33-11.28-43.64-7.06-9.37,2.98-16.34,17.54-9.78,25.9-11.09-3.42-22.64-4.47-34.12-5.83l1.35-7.18c.99-.91,3.23,4.92,3.66,5.53,1.29,1.81,3.13,3.06,4.82.89.64-2.03-4.15-9.76-6.61-10.55l-.12-.57c3.56-15.42,16.55-30.53,33.09-32.04,13.16-1.21,25.02,1.33,36.22,8.11,8.64,5.23,15.65,11.82,15.12,22.8Z"/>
        <path class="cls-1" d="M451.58,258.31c.22-2.37-.61-3.94-3.02-4.38-2.89-.53-14.35,2.23-17.53,3.35-2.96,1.04-5.13,3.93-8.07,2.26-1.04-1.96-.83-3.26,1.24-4.16,2.62-1.13,12.64-3.52,15.54-3.76,2.11-.17,3.95-.06,6,.39.8-4.83-4.25-4.72-7.73-4.36-5.46.56-11.94,3.95-16.79,4.35-1.2.1-2.25-.26-2.42-1.59-.33-2.49,1.19-2.68,3.06-3.21,3.43-.97,13.73-3.19,16.97-3.22,1.41-.02,4.63,1.34,4.88,1.3,1.71-.33.33-3.4-1.15-4.23-4.6-2.56-15.18,1.98-20.77,1.81-2.42-.07-2.21-2.45-.73-3.63,1.9-1.52,12.21-2.39,15.36-3.05,4.59-.95,9.71-1.8,13.14-5.25,1.09,1.14,2.32,2.17,3.36,3.36s4.83,7.94,6.29,6.94c1.62-4.17-1.89-8.46-4.71-11.21-2.64-2.59-9.99-6.34-11.1-9.09-2.26-5.61,5.17-4.45,8.39-3.45,4.6,1.43,19.97,13.06,22.26,17.24,1.91,3.5,3.06,9.11,3.52,13.09.21,1.82.84,4.33-.37,5.79-.83,1-8.71,5.14-10.35,5.81-6.61,2.69-27.64,7.56-34.13,5.87-2.15-.56-3.87-1.65-1.96-3.8,6.83-1.03,14-4.3,20.84-3.18Z"/>
        <path class="cls-1" d="M90.67,203.11c-2.82,12.02-4.87,24.29-6.28,36.57-1.15,10.08-2.07,20.83-2.69,30.96-.65,10.69-.29,21.45-1.57,32.08-.86-.97-.84-2.63-1.05-3.89-3.7-21.93-7.22-45.69-9.89-67.75-.52-4.32-1.58-11.03-.93-15.16.79-5.07,7.26-7.65,11.4-9.24,3.55-1.36,7.43-2.28,11.01-3.57Z"/>
        <path class="cls-1" d="M391.43,112.02l-14.37,65.51c-.78.11-.42-1.02-.44-1.56-.27-7.11-.13-12.41-1.56-19.54-.63-3.18-3.66-11.63-3.37-14.08.1-.84,2.95-6.01,3.37-6.1,2.22,1.22,3.58,3.96,6.5,3.59,1.55-1.54-6.72-9.38-8.07-10.55-3.6-3.1-5.07-4.25-9.44-.9-.93.71-8.87,10.26-9.17,11.02-.41,1.04-.24,2.06-.24,3.12,3.38-.11,4.83-3.13,6.73-5.38l3.06,6.13c-3.1,7.94-5.08,16.2-6.14,24.67-.31,2.47-.23,5.2-.49,7.59-.07.67-.1,1.38-.91,1.55.11-3.66-.75-7.29-1.49-10.85-3.04-14.54-7.57-28.8-10.18-43.44,1.69.99,3.46,1.62,5.37,2.04,11.6,2.54,25.09,2.17,34.37-6.06,2.1-1.86,3.54-4.22,5.47-6.17.25-.25-.02-.89,1.03-.57Z"/>
        <path class="cls-1" d="M270.23,265.49c-2.79-.65-13.74,3.34-11.03,7.21,3.81,1.8,6.56-3.11,10.57-3.17-.16,2.18-.15,5,2.82,4.42,1.19-.23,2.11-1.8,3.47-1.72l.45,4.49c-.68-.19-.94-1.04-1.66-1.25-2.25-.67-15.4,1.33-18.63,1.83-4.03.63-8.09,1.5-12.03,2.56,3.55-8.35,2.86-16.84-2.51-24.19-3.35-4.59-9.55-7.91-8.52-14.43,4.46-1.8,9.28-1.2,13.96-1.3,4.26-.09,4.85-1.53,9.06,1.22,8.2,5.35,12.6,14.9,14.04,24.33Z"/>
        <path class="cls-1" d="M659.88,302.73l-.88-46.02-3.16-55.4c8.18,2.98,17.1,4.98,17.54,15.49-4.54,27.37-7.24,55.21-12.23,82.49-.19,1.07-.18,2.96-1.27,3.44Z"/>
        <path class="cls-1" d="M379.16,195.19c.44.25,2.01,2.02,2.62,2.54,2.18,1.85,3.52,1.66,3.75,5.56-2.11,2.64-4.55-1-6.25-2.16-3.52-2.4-12.72-8-16.84-6.13-1.75.79-1.33,1.79.14,2.63,2.34,1.33,6.48,1.86,9.25,3.32,4.14,2.18,11.93,9.58,12.7,14.27.28,1.73-1.09,4.02-2.77,2.73-4.05-5.87-10.79-14.14-18.13-15.53-2.58-.49-3.31-.23-4.95,1.81,3.63,2.2,7.35,2.63,10.77,5.38,1.85,1.48,7.94,8.25,8.07,10.37.17,2.75-2.69.75-3.81-.27-3.73-3.36-6-7.92-11.45-9.64-2.06-.65-8.62-1.87-7.87,1.58,2.24,1.74,4.85,1.13,7.4,2.48,1.23.65,10.42,7.81,9,9.17-3.4-.23-5.38-2.99-8.54-4.25-4.25-1.69-6.89-1.7-11.3-.99-6.04.97-12.94,4.33-18.57.3-.45-.85.87-3.95,1.26-5.04,2.06-5.73,4.7-10.49,9.55-14.24,9.18-7.12,25.65-9.86,35.98-3.89Z"/>
        <path class="cls-1" d="M566.5,220.17c-1.7.33-.47-1.52-.45-2.47.31-12.91-1.82-26.52-2.56-39.43l2.57-5.66c1.26-.92,4.83,6.55,7.56,4.86.11-.07.96-2.12.96-2.41-.01-1.13-12.99-12.95-13.01-16.36,1.01-.09,1.78-.7,2.57-1.25,8.25-5.8,16.9-11.42,23.7-18.94.84-.92,3.74-5.44,4.49-5.38,1.35.11,0,3.12-.22,3.81-3.69,11.18-9.25,22.27-13.36,33.32-5.99,16.09-10.22,32.83-12.24,49.92Z"/>
        <path class="cls-1" d="M176.86,182.02l1.76,4.74c.72,11.47.16,22.76,1.25,34.21.05.49.53,1.53-.32,1.44-2.24-8.39-4.73-16.73-7.63-24.91-5.16-14.58-11.08-26.67-18.78-40.01-2.66-4.61-5.53-9.13-8.43-13.58l.47-.94,1.36-.45,33.05,26.71.21.71c-.53,2.47-1.27,4.68-2.58,6.84-1.14,1.88-6.57,6.85-6.67,7.74-.11,1.08,1.71,2.52,2.43,2.4.58-.1,4.1-3.77,3.89-4.89Z"/>
        <path class="cls-1" d="M501.86,213.44c-.08.7-.66.69-1.16.85-10.01,3.21-20.96,4.86-29.65,11.19l-13.17-8.91c.5-1.85,2.39-2.64,3.39-4.46,1.08-1.97,1.49-4.66,2.47-6.75l38.14,8.08Z"/>
        <path class="cls-1" d="M313.32,163.17l-2.04,26.05,25.83,6.92c-2.1,1.66-1.73,3.94-2.45,5.62-2.46,5.8-5.89,11.29-7.06,17.63-.5,1.17-3.27,1.18-3.89.02-.94-2.82,3.81-14.43,5.79-16.98.83-1.08,4.46-3.65,3.39-5.19-3.49-1.9-31.19-6.75-31.64-8.33-1-3.48,6.36.96,7.39-.61,1.2-7.59,1.89-15.48,3.49-22.99.18-.82-.05-2.52,1.2-2.16Z"/>
        <path class="cls-1" d="M420.6,160.93l4.49,28.72,7.63-.9.03,1.54-30.88,7.55c-.3.61-.92,1.49-.8,2.16.24,1.33,3.91,7.05,4.8,9.09,1.99,4.5,3.66,8.69,3.07,13.77h-5.39c1.43-1.42.01-3.04-.01-4.74-.13-8.61-.55-11.25-4.69-19.05-.64-1.2-1.22-2.32-2.47-2.91l26.93-6.07c-.78-1.87-.63-3.68-.9-5.59-.83-6.03-2.26-12.89-2.68-18.86-.08-1.15-.15-2.93,0-4.04.08-.62.25-1.31.89-.66Z"/>
        <path class="cls-1" d="M599.59,173.37l-9.34,5.34,4.89,11.51c-6.3,12.39-11.31,25.92-18.09,38.03-.82,1.46-1.9,3.47-2.85,4.78-.41.56-.46,1.25-1.43,1.04l19.57-44.41c.19-.46,0-.8-.15-1.22-.84-2.17-5.81-9.08-5.32-10.93.72-2.7,8-4.46,10.17-6.12l5.8-24.83,1.7.66-4.97,26.15Z"/>
        <path class="cls-1" d="M140.04,158.24l9.67,22.43,9.63,4.52c-1.31,1.77.43,3.91.37,4.61-.11,1.49-3.71,6.64-3.44,8.5l17.43,37.13-11.3-18.99c-1.74-5.08-7.52-12.04-8.61-17.01-.62-2.82,4.16-8.18,2.63-10.67-.95-1.55-8.74-3.22-9.75-5.51l-7.94-24.26,1.29-.74Z"/>
        <path class="cls-1" d="M237.01,348.96c-8.56-5.48-16.04-12.8-25.42-16.99-7.31-3.27-15.4-3.99-23.05-6.12,3.7-4.43,10.33-2.16,15.04-.68,10.21,3.2,21.16,8.5,28.95,15.93,2.53,2.41,3.94,4.26,4.48,7.86Z"/>
        <path class="cls-1" d="M553.03,155.55c.93,2.21,4.58,2.95,6.74,3.8-1.43,2.1-5.4,4.75-5.81,7.21-.54,3.28,1.17,7.53,1.72,10.79l-5.78,42.81c-.15-21.48,1.36-42.94,2.24-64.39l.89-.22Z"/>
        <path class="cls-1" d="M399.9,108.94l9.07,23.03c-.27,1.71-7.21,4.16-8.55,5.88,1.32,3.19,5.87,7.46,5.19,10.98-.65,3.32-4.96,11.86-6.61,15.4-3.06,6.57-8.17,18.28-11.97,23.94-.39.58-.5,1.23-1.43,1.03,4.25-10.53,9.54-20.67,13.99-31.1.96-2.25,3.69-8.01,3.88-10.07.21-2.35-5.95-8.33-6.68-11.08,1.58-1.29,9.31-4.56,9.47-6.33l-7.6-21.13c-.3-.94.62-.67,1.24-.55Z"/>
        <path class="cls-1" d="M335.76,113.36l.38,2.35-6.66,17.39,7.97,2.45c-.36,4.05-6.06,9.76-5.71,13.43l16.13,39.32c-.67-.1-.84-.85-1.13-1.34-2.99-5.03-6.18-11.96-8.68-17.35-3.27-7.06-6.22-14.3-8.96-21.59.18-2.49,5.35-8.29,4.79-10.57-.38-1.54-6.27-2.33-7.6-3.72l9.46-20.37Z"/>
        <path class="cls-1" d="M127.89,292.45l-1.07,2.54c-.51.08-4.93-2.34-5.6-2.83-6.95-5.13-13.18-22.52-15.86-30.82-.92-2.86-6.14-19.91-4.82-21.43l1.24.77c2.76,10.93,6.21,22.44,10.8,32.74,3.25,7.3,7.36,16.11,15.31,19.03Z"/>
        <path class="cls-1" d="M568.3,322.03c-1.06-.1-2.04.06-3.07.3-9.44,2.16-20.7,7.75-29.1,12.64-7.16,4.17-11.75,9.76-17.65,15.33,1.29-5.35,6.65-10.62,10.76-14.14,5.41-4.62,25.39-14.46,32.3-15.72,2.23-.41,5.5-.62,6.76,1.59Z"/>
        <path class="cls-1" d="M186.28,168.11c1.15,6.78,2.3,13.58,3.14,20.42.84,6.81,1.81,14.76,2.24,21.54.12,1.86-.07,3.75,0,5.6-.65.11-.62-.79-.75-1.25-.95-3.36-1.32-7.8-2.07-11.39-1-4.81-4.25-14.85-4.31-19.04-.02-1.2.71-2.04.82-3.12.45-4.18-.69-6.99-3.08-10.31l4.01-2.44Z"/>
        <path class="cls-1" d="M621.27,290.17c-.72-3.39,1.57-3.14,3.55-4.75,9.9-8.06,14.77-30.67,19.45-42.49.48-1.21,1.14-3.1,2.14-3.92-2.08,9.48-4.67,18.97-8.07,28.05-3.24,8.66-7.6,19.85-17.06,23.1Z"/>
        <path class="cls-1" d="M487.05,252.02l-4.71-1.8c-1.39-7.62-2.02-16.05-7.85-21.76,4.07-3.25,7.66,2.29,9.05,5.75,2.21,5.52,2.85,11.95,3.51,17.8Z"/>
        <path class="cls-1" d="M623.07,338.19c.79,0,.5,1.96.46,2.48-.57,8.93-4,17.81-11.47,23.08-.52,0-1.66-3.75-1.36-4.47.24-.58,4.46-4.68,5.36-5.88,3.31-4.43,5.84-9.8,7-15.22Z"/>
        <path class="cls-1" d="M140.04,365.56c-7.28-4.59-9.33-13.61-10.76-21.54l7.64,11.43c1.08,1.31,4.09,3.59,4.6,4.86.62,1.53-1.29,3.57-1.48,5.25Z"/>
        <path class="cls-1" d="M533.73,192.57c.11-.37.86-.82,1.34-.67.84.6.38,17.35.44,19.99.02,1.17.45,2.27.49,3.55.09,3.07-.11,6.16-.03,9.22-2.62-.72-1.53-2.37-1.77-4.28-.07-.55-.47-1.2-.47-1.33v-26.48Z"/>
        <path d="M343.44,341.28c-2.07-10.54-14.78-10.77-23.27-12.18-.77-.66-1.16-10.14-.9-11.67.77-4.62,4.76-4.55,5.02-10.88.08-1.83.21-7.96-2.65-7.41-.72.14-1.07,6.66-1.68,8.21-.74,1.92-3.11,3.96-4.12,6.21-2.25,5.02-.83,10.38-.47,15.66-.59.83-2.97.31-4.06.45-5.26.67-14.2,2.69-17.22,7.47-3.7,5.86-1.23,16.37-1.01,22.99-5.4,1-10.49,4.5-11.59,10.18-.29,1.49.44,3.1-.74,4.46.86,3.05,2.96,5.11,5.5,6.86,14.14,9.72,41.2,9.71,56.69,3.44,10.62-4.29,16.24-10.81,9.06-21.9,7.89-8.67,5.4-23.89-8.56-21.89ZM315.03,333.83c5.98-.38,19.37.45,22.9,6,1.4,2.2.98,2.53-1.03,4.07-2.81-1.42-6-2.76-9.11-3.35-5.96-1.12-16.2-1.09-21.99.66-1.25.38-6.2,2.8-6.55,2.74-.77-.14-1.95-1.85-1.88-2.67.47-5.5,13.37-7.17,17.66-7.45ZM296.72,347.16c12.21,7.71,30.22,7.91,42.63.45-.12,6.01-2.97,19.11-7.66,23.08-5.4,4.57-19.26,4.43-25.26,1.08-6.65-3.72-10.25-17.34-9.71-24.61ZM342.15,380.24c-12.79,5.97-32.97,5.9-46.12,1.03-11.92-4.41-14.89-11.56-1.78-17.49,3.71,8.51,9.83,13.87,19.36,14.74,9.18.84,20.73-.21,24.94-9.73,3.41.43,11.17-4.02,12.01,1.51.76,5.05-4.5,8.11-8.41,9.94ZM351.25,356.13c-1.88,4.97-5.23,7.85-10.54,8.53l1.4-6.22c2.67.08,3.92-.41,4.97-2.89,1.63-3.87.78-6.76-3.23-3.45.02-1.64-.32-5.91,1.56-6.29,6.42-1.29,7.66,5.51,5.84,10.32Z"/>
        <path d="M464.23,346.94c6.37-7.4,4.68-25.52-8.6-20.42,0-2.3-1.31-4.94-2.86-6.57-7.84-8.23-35.43-7.91-43.81-.36-2.1,1.89-2.91,4.4-3.16,7.16-.5,5.64.01,12.12.86,17.68-4.51.73-10.16,4.63-11.08,9.34-.34,1.72.26,3.27-1.01,4.86l.19,1.11c2.78,4.99,7.8,7.99,13.05,9.87,14.37,5.14,36.04,4.58,50.04-1.6,9.23-4.06,15.49-12.82,6.38-21.07ZM453.78,343.84c3.2-.19,5.59-3.79,5.47-6.78-.09-2.53-3.37-2-3.63.23-.71.12-.49-.63-.41-1.08.61-3.73,1.94-9.23,6.48-5.21,3.29,2.92,1.19,10.49-1.21,13.61-2.1,2.76-4.75,3.53-8,4.34l1.3-5.11ZM411.77,323.06c2.22-2.42,11.54-4.39,14.88-4.64,4.7-.34,24.18.28,24.03,7.44-1.09,3.72-5.39.41-8.17-.37-6.48-1.79-17.6-1.92-24.04.02-3.11.93-5.79,3.99-7.56.12-.19-.72.4-2.06.86-2.57ZM409.84,331.9c12.71,6.61,29.1,6.93,41.74,0-1.06,6.06-2.43,17.64-6.93,22.01-4.83,4.68-16.74,4.95-22.79,3-8.55-2.75-12.16-17.02-12.02-25.01ZM455.48,363.84c-12.71,5.84-35.44,6.15-48.19.45-10.77-4.81-9.82-12.22.74-16.23,2.06,5.37,5.93,10.98,11.58,12.89,7.46,2.52,20.68,2.38,27.04-2.79,1.36-1.1,3.84-4.91,4.13-5.07.31-.18,5.09-.8,6.29-1.12,2.45-.64,3.96-2.75,5.94-.3,4.17,5.15-3.46,10.3-7.53,12.17Z"/>
        <path d="M385.15,261.22c5.14-4.57,7.29-13.75,1.75-18.8-2.64-2.41-4.87-1.27-8.06-1.82-1.79-7.84-11.16-10.04-18.16-10.56-7.98-.59-27.31-.06-28.5,10.54-.62,5.51-.07,12.82,1.34,18.17-4.29.9-9.74,2.71-11.44,7.19-2.11,5.55.1,8.07,4.75,10.96,12.59,7.81,41.69,8.13,54.74,1.4,7.01-3.62,11.22-11.6,3.58-17.08ZM377.47,255.89c.33-.46,1.84-.19,2.93-1.2.89-.83,2.66-4.99,1.3-5.84l-2.83.03.66-3.6c1.8-1.01,4.39-.59,5.56,1.2,3.67,5.65-2.9,15.01-9.37,14.52.85-1.21,1.04-4.12,1.75-5.11ZM337.1,239.26c.47-3.23,11.06-4.8,13.84-5.05,4.88-.43,10.6-.14,15.37.97,2.73.64,6.34,1.69,7.5,4.51-2.16,3.59-4.1,1.16-7.07.44-5.93-1.44-15.68-1.76-21.66-.56-2.23.45-8.65,4.3-7.98-.31ZM341.49,247.43c6.73,2.47,16.85,2.7,23.83,1.16,3.32-.73,6.49-2.24,9.5-3.74.12,5.25-2.04,16.75-5.59,20.66-4.22,4.64-16.49,4.87-22.04,3.14-9.69-3-10.63-15.25-11.42-23.8,2.04.57,3.68,1.83,5.72,2.58ZM381.97,272.85c-10.36,8.22-41.23,7.44-52.34.79-7.34-4.39-3.31-9.84,3.33-10.75,2.85-.39,2.99,2.26,4.61,4.16,2.66,3.11,4.43,4.42,8.43,5.49,6.96,1.87,18.84,1.86,24.74-2.83,1.45-1.15,2.69-3.5,3.96-4.12.97-.47,7.37-1.6,8.19-1.22,4.19,1.91,1.68,6.42-.92,8.48Z"/>
        <path d="M351.25,94.96c-.78-.14-2.64-1.3-2.85-2.12-.14-.55.77-6.69.96-7.85.83-5.15,3.03-17.33,4.67-21.81.45-1.22.88-2.08,2.38-1.87.47,1.32.49,2.36.4,3.75-.56,8.29-4.11,17.46-4.88,25.86h7.86c1.25,0,1.25,4.04,0,4.04-2.38,0-6.43.37-8.53,0Z"/>
        <path d="M348.78,102.59c1.72.38,3.57-.4,5.12-.41.66,0,1.44.43,2.28.43,3.63,0,12.68-.73,15.09,2.41,2.91,3.81-6.72,1.69-7.89,1.61-4.16-.3-8.38-.39-12.55-.47-1.73-.46-2.28-1.92-2.03-3.58Z"/>
        <path d="M363.29,62.78c1.89-2.14,12.9-2.7,15.09-1.23,1.56,1.05,1,2.56-.66,2.88s-3.57-.49-5.38-.47c-1.21.01-12.4,2.61-9.05-1.18Z"/>
        <path d="M340.48,60.86h9.43c2.37,0,3.23,3.59,1.8,3.59h-10.32c-.72,0-2.59-2.91-.9-3.59Z"/>
        <path d="M404.45,70.73l-.19,2.73c-4.5.09-1.41,6.37-5.67,5.61-1.64-3.72,1.86-8.5,5.86-8.34Z"/>
        <path d="M369.5,72.14c2.81-1.05,4.44-.91,4.45,2.4,0,2.26-.44,2.98-2.95,2.48-1.69-.34-1.7-3.41-1.5-4.88Z"/>
        <path d="M347.41,76.09c-3.43,1.2-6.42-4.66-2.41-4.9,2.85-.17,2.84,2.83,2.41,4.9Z"/>
        <path d="M210.41,90.58c1.19-.19,5.36-.5,5.02,1.4-.31,1.74-12.2,7.93-11.12,2.42.4-2.04,4.25-3.52,6.1-3.81Z"/>
        <path d="M210.86,104.01c4.18-.85,4.68,5.34,2.04,6.11-6.09,1.78-5.67-5.37-2.04-6.11Z"/>
        <path d="M171,112.93c-6.43-.49-2.4-7.81,2.01-1.34,3.01,4.42-2.63,5.58-2.01,1.34Z"/>
        <path d="M528.2,84.71c1.59-.54,9.36.15,9.94,2.03.2.65.25,2.34-.11,2.86-.74,1.05-10.22-.68-10.82-1.82-.5-.87.01-2.74.99-3.07Z"/>
        <path d="M528.22,98.65c5.93-1.74,4.52,5.56,2.51,6.12-3.86,1.07-5.98-5.11-2.51-6.12Z"/>
        <path d="M575.48,103.94c-3.96-.57-3.36,1.5-4.08,4.45l-2.59-.48c-1.6-4.36,6.66-11.12,6.67-3.97Z"/>
        <path d="M229.3,290.22c-.18-.18-.99.18-1.29-.34-.75-1.28-.49-5.23,1.19-5.52s7.57,11.23,2.64,11.24c-2.83,0-1.97-4.79-2.54-5.38Z"/>
        <path d="M536.43,289.27c-4.93-.63-4.3,3.29-6.74,6.09-6.1-.22,2.24-9.77,4.2-9.58,1.3.12,2.99,2.09,2.54,3.5Z"/>
        <path class="cls-1" d="M339.35,347.61c-.13,6.01-2.98,19.11-7.66,23.08-5.4,4.57-19.26,4.44-25.26,1.09-6.66-3.72-10.25-17.34-9.72-24.61,12.22,7.71,30.22,7.9,42.64.45Z"/>
        <path class="cls-1" d="M338.55,368.79c3.41.43,11.17-4.02,12.01,1.51.77,5.05-4.5,8.11-8.41,9.94-12.79,5.97-32.97,5.9-46.12,1.04-11.92-4.41-14.89-11.56-1.78-17.5,3.71,8.51,9.84,13.87,19.36,14.74s20.73-.21,24.94-9.72Z"/>
        <path class="cls-1" d="M315.03,333.83c5.98-.39,19.38.45,22.91,6,1.4,2.2.98,2.53-1.04,4.06-2.8-1.42-5.99-2.76-9.11-3.34-5.96-1.12-16.2-1.09-21.99.66-1.25.38-6.2,2.8-6.55,2.74-.76-.14-1.94-1.84-1.87-2.67.47-5.5,13.37-7.17,17.65-7.45Z"/>
        <path class="cls-1" d="M340.71,364.66l1.4-6.22c2.67.09,3.92-.41,4.97-2.89,1.63-3.87.78-6.76-3.23-3.45.02-1.63-.32-5.91,1.56-6.29,6.42-1.3,7.66,5.51,5.84,10.32s-5.23,7.85-10.54,8.53Z"/>
        <path class="cls-1" d="M451.58,331.9c-1.06,6.06-2.43,17.64-6.93,22.01-4.83,4.68-16.74,4.95-22.79,3-8.55-2.75-12.16-17.02-12.02-25.01,12.71,6.6,29.1,6.93,41.74,0Z"/>
        <path class="cls-1" d="M408.03,348.06c2.06,5.37,5.93,10.99,11.58,12.89,7.46,2.52,20.68,2.38,27.04-2.79,1.36-1.1,3.84-4.91,4.13-5.07.31-.18,5.09-.8,6.29-1.12,2.45-.64,3.96-2.75,5.94-.3,4.17,5.15-3.46,10.3-7.54,12.17-12.71,5.83-35.44,6.15-48.19.45-10.77-4.81-9.82-12.22.75-16.23Z"/>
        <path class="cls-1" d="M411.77,323.06c2.22-2.43,11.53-4.4,14.88-4.64,4.7-.34,24.18.28,24.02,7.43-1.09,3.72-5.38.41-8.17-.36-6.47-1.79-17.6-1.93-24.03.01-3.11.94-5.79,3.99-7.56.13-.19-.72.4-2.06.86-2.57Z"/>
        <path class="cls-1" d="M452.48,348.95l1.29-5.11c3.2-.19,5.59-3.79,5.48-6.78-.09-2.53-3.38-2-3.64.23-.71.13-.49-.62-.41-1.08.62-3.73,1.95-9.23,6.48-5.2,3.29,2.92,1.19,10.49-1.2,13.61-2.11,2.75-4.75,3.53-8,4.34Z"/>
        <path class="cls-1" d="M374.82,244.85c.12,5.26-2.04,16.76-5.59,20.66-4.22,4.64-16.49,4.87-22.04,3.15-9.69-3.01-10.63-15.25-11.42-23.81,2.04.58,3.68,1.83,5.72,2.58,6.73,2.47,16.85,2.7,23.84,1.16,3.32-.73,6.48-2.24,9.49-3.74Z"/>
        <path class="cls-1" d="M332.96,262.89c2.85-.39,2.99,2.26,4.61,4.16,2.66,3.11,4.43,4.42,8.42,5.49,6.96,1.87,18.84,1.86,24.74-2.83,1.45-1.15,2.69-3.5,3.96-4.12.97-.47,7.37-1.6,8.19-1.22,4.19,1.91,1.68,6.42-.92,8.49-10.36,8.21-41.22,7.44-52.33.79-7.34-4.39-3.31-9.84,3.33-10.75Z"/>
        <path class="cls-1" d="M350.94,234.21c4.88-.43,10.6-.14,15.37.97,2.73.64,6.34,1.69,7.51,4.51-2.17,3.59-4.1,1.16-7.07.44-5.94-1.44-15.69-1.76-21.66-.56-2.23.45-8.65,4.3-7.98-.31.47-3.23,11.06-4.81,13.84-5.05Z"/>
        <path class="cls-1" d="M375.72,261c.85-1.21,1.04-4.11,1.75-5.11.33-.46,1.84-.19,2.94-1.2.89-.82,2.65-4.99,1.3-5.84l-2.84.04.66-3.6c1.81-1.01,4.4-.6,5.56,1.19,3.67,5.66-2.9,15.01-9.37,14.52Z"/>
      </g>
    </g>
  </g>
</svg>