<?xml version="1.0" encoding="UTF-8"?>
<svg id="Layer_2" data-name="Layer 2" xmlns="http://www.w3.org/2000/svg" viewBox="0 0 736 430.62">
  <defs>
    <style>
      .cls-1 {
        fill: #dfceaf;
      }

      .cls-2 {
        fill: #fff;
      }

      .cls-3 {
        fill: #681813;
      }

      .cls-4 {
        fill: #c82928;
      }
    </style>
  </defs>
  <g id="Layer_1-2" data-name="Layer 1">
    <g>
      <rect class="cls-4" width="736" height="430.62"/>
      <g>
        <path d="M536.66,205.21H176.14l-.5,13.99c-.7,1.23-1.8,1.12-2.96.72V42.31c0-.32,1.05-.98,1.53-1.07,3.6-.69,9.15.47,12.99,0,110.76.42,222.02-2.3,332.77-.02,6.18.13,12.37-.18,18.55.09l1.38,1.22.14,178.37c-.38,1.29-2.48,1.72-2.88.46l-.5-16.16ZM536.66,44.26H176.14v14.28h11.47c.16,0,1.51.98,1.51,1.08v7.14l13.85-.44c-.65-1.12-.56-5.62,1.08-5.62h11.9c-.66-1.97-.23-4.08.2-6.07l3.86-.81,12.82,1.03c1.37.81.72,4.82.86,6.28h8.01c1.73,0,1.91,3.97,1.08,5.19h14.07c1.74,0,1.96,7.56,2.78,8.9,3.24.7,6.05-1.12,7.91,2.48l9.87,32.32h6.06v-46.51c0-.94.75-3.68,1.95-3.68h13.2v-6.71c0-.07.67-.76.87-.86,1.03-.48,9.98-.39,11.14.1,2.73,1.16,1.64,5.15,1.84,7.46h11.47c.55,0,1.44,1.65,1.54,2.36.91,6.8-.38,15.6-.47,22.5-.12,8.45.35,16.94-.42,25.33l14.28.43v-46.08c0-1.13.52-4.54,1.95-4.54h11.9c.06-1.82-.42-6.14,1.4-7.04,1.49-.74,2.32.1,3.59.12,2.64.04,5.21-.45,7.57.87v7.36c5.39-.91,10.84-1.82,9.52,5.63,2.34.33,10.25-.94,11.37,1.39l2.04,42.3,8.02-.15.54-.49c-.79-6.17-.06-12.5-.06-18.7,0-3.86-.91-26.61.11-27.98.15-.2,1.41-.72,1.56-.72h10.6v-8.44c0-.9,1.21-1.37,1.97-1.47,3.26-.46,8.92-.36,12.51-.49,2.31-.09,3,.69,4.76.9,2.15.26,10.27-.58,11.28.41,1.17,1.16.44,4.86.64,6.5h13.63c.27,0,1.44,1.41,1.52,1.97.22,1.38-.77,3.03-.44,4.52h19.48c0-.97-.37-5.62,1.08-5.62h14.07c-.14.42.43.94.43,1.08v48.67h9.09l-.22-54.95c.4-.72.98-.79,1.71-.88,2.04-.26,10.68-.32,12.56.03,2.24.42,1.41,3.09,1.52,4.75,1.67.29,11.26-.82,11.26,1.08v6.27l10.82.43v-22.93ZM301.21,55.51v54.52h8.23v-54.52h-8.23ZM424.58,55.49h-12.57v54.97h12.57v-54.97ZM355.75,55.94v54.54h6.51v-54.54h-6.51ZM437.14,55.94h-9.54v54.52h9.54v-54.52ZM230.24,57.24h-11.25v53.22h11.25v-53.22ZM501.58,58.1v52.35h9.98v-52.35h-9.98ZM185.9,62h-9.77v48.89h9.77v-48.89ZM341.89,62.84v47.63s10.83,0,10.83,0v-47.63s-10.83,0-10.83,0ZM514.59,62.86v48.03h8.22v-48.03h-8.22ZM298.64,63.29h-11.71v46.73h11.71v-46.73ZM322.01,63.29h-9.54v46.73h9.54v-46.73ZM451.83,63.29h-11.69v47.16h10.82l.87-47.16ZM215.95,64.16h-10.39l.53,46.1c.05.62,1.74.59,2.29.59,2.38,0,5.06-.76,7.57-.39v-46.29ZM372.18,64.15h-7.39s.04,46.31.04,46.31h7.39s-.04-46.31-.04-46.31ZM486.89,64.16h-9.52v46.29h9.52v-46.29ZM233.3,64.58l-.08,45.87h6.89s.08-45.86.08-45.86h-6.89ZM399.89,65.89v44.58h9.09v-44.58h-9.09ZM203.28,69.78h-14.16v41.1h14.16v-41.1ZM254.91,69.78h-11.25l10.59,40.7,9.76-.25-9.09-40.45ZM454.83,69.5l-1.28,40.93,9.12.29,1.28-40.93-9.12-.29ZM473.9,69.78h-7.36l-.87,40.67h8.22v-40.67ZM383.88,70.22h-9.09l.43,40.24,9.32-.14.54-.49-1.2-39.61ZM525.82,70.22v40.67h10.84v-40.67h-10.84ZM250.58,110.45l-7.57-32.02.22,32.02h7.36ZM264.82,78.48c-.15-.13-3.52-.13-4.08-.05-.64.09-.69-.25-.65.65l7.38,31.36h6.91s-9.56-31.96-9.56-31.96ZM536.66,113.47H176.14s0,7.39,0,7.39h360.52s0-7.39,0-7.39ZM536.66,124.3H176.14v67.5h8.66l.82-51.31c.41-.52.93-.55,1.54-.63,1.81-.23,12.86-.28,14.21.11,2.2.63,1.56,3.79,1.6,5.54l12.77.34,15.36-1.21v-7.14c0-1.08,1.51-1.42,2.37-1.52,4.91-.55,9.57-.22,14.47-.04.53-1.53-.28-3.14,1.09-4.32,1.22-.87,12.93-.66,14.12.66.15.16.84,1.65.84,1.76v8h11.04c.17,0,.99.45,1.07.77l.44,4.43c.37.38,8.95-.31,10.59,0,.47.09,1.53.75,1.53,1.07v43.05l4.31-.02,12.35-45.42c1.02-1.23,11.86-.03,14.07.44v-8.65h18.61c0-1.51-.4-4.4,1.51-4.76,1.28-.24,12.89-.12,13.63.22.2.1.87.78.87.86v6.92c3.38,3.1,13.85-2.98,12.99,4.11,6.95-.73,12.38-2.52,10.82,6.92h15.15c.24-1.54-.69-5.52.86-6.28l11.25-.21v-9.73c0-.9,1.21-1.37,1.97-1.47,1.27-.18,13.93-.4,14.58-.06.26.14,1.19,1.85,1.19,1.96v8h11.47c1,0,1.42,4.01,1.51,4.98.94,10.6.78,21.4,1.29,32.03.17,3.48.8,7.03.45,10.58h11.69v-52.57c0-1.92-.01-2.54,2.37-2.82,2.97-.35,10.88-.34,13.83.05,1.05.14,1.98.74,1.98,1.9v6.27h12.98v-7.14c0-.12.67-1.18.87-1.3.19-.15.42-.18.65-.22,1.12-.21,13.48-.17,14.21.07,1.76.59,1,4.93,1.15,6.42h13.42c.15-1.49-.67-4.57,1.17-5.1.99-.29,12.14-.2,12.69.12,1.12.66,1.05,3.65.53,4.78l.55.63h11.04v-18.6ZM261.4,134.68h-9.95v56.68h9.95v-56.68ZM351.42,135.98h-9.74l-.65,55.38h9.52l.87-55.38ZM419.8,137.28l-11.69.43,1.13,53.99,10.99.1-.43-54.52ZM234.56,140.09c.07,17.23-.05,34.48,0,51.7h13.85c-.21-13.76.27-27.59.02-41.33-.07-3.64-.97-7.46-.02-11.02-2.09-.21-13.37-1.07-14.1,0-.26.31.25.54.25.65ZM483.35,139.25l-.9,52.1,11.05.19.9-52.1-11.05-.19ZM464.41,139.87h-12.15v51.92h12.15v-51.92ZM513.29,191.36h7.79l1.3-50.62c-2.69.01-5.37.16-8-.45l-1.09,51.07ZM322.16,140.66l-.25,50.7,16.1.08.25-50.7-16.1-.08ZM200.22,143.32h-12.46s.06,48.48.06,48.48h12.46s-.06-48.48-.06-48.48ZM354.02,147.01v44.78h9.52l.87-47.16-10.2.86c-.02.5-.16,1.04-.19,1.52ZM273.51,144.92l-9.83.15.71,46.43,9.83-.15-.71-46.43ZM496.89,145.49l-.65,45.86,14.01.2.65-45.86-14.01-.2ZM536.66,145.93h-11.69l-.87,45.43h12.55v-45.43ZM432.79,147.23h-9.95l1.08,44.56h10.6l-1.73-44.56ZM374.36,191.79l.81-43.42-.35-.52-7.82.24v43.7h7.36ZM218.55,149.61v42.18h12.99c.18-14.59-.17-29.15-.43-43.7l-12.99.87c-.22.15.42.53.43.64ZM480.39,148.09h-12.98l-.39,43,.85.51c3.77-.04,8-.55,11.65.19l.87-43.7ZM215.09,148.96l-12.12-.43.44,43.27c.15.21.55-.43.64-.43h11.47c.12-.32-.43-.52-.43-.65v-41.75ZM296.02,191.36h11.25l10.83-41.75c-3.42-1.03-7.03-.54-10.56-.68l-11.52,42.43ZM395.98,148.96v42.83h9.56v-42.83h-9.56ZM276.53,150.69v40.67h9.1v-40.67h-9.1ZM377.37,155.45v36.34h15.6v-36.34h-15.6ZM318.96,191.36v-33.31l-8.66,33.31h8.66ZM536.66,194.82H176.14v6.92h360.52v-6.92Z"/>
        <path d="M238.46,224.89c.62-2.18,8.33-1.61,10.38-1.52.37-2.01-1.08-8.61,1.52-9.08,1.45-.27,12.94-.15,13.97.29,1.59.68.77,4.71.96,6.2h12.33c1.57,0,3.25,1.67,3.25,3.24v44.35h11.25v-52.57c0-.17,1.09-1.05,1.41-1.19,1.25-.53,9.7-.56,11.33-.3.63.1,2.41,1.01,2.41,1.49v8.44h12.33c.59,0,1.36,1.9,1.08,2.6h13.85l1.3,41.54,2.11.06c1.92,4.5-2.87,2.97-5.33,2.95-33.59-.34-67.24.35-100.81-.04-.81-.04-2.67-.69-2.82-1.51-.03-.19.78-2.59.83-3.81.6-15.26-.42-30.95-.07-46.26l-.34-.52-10.42.24c-.2,14.92.27,29.88.04,44.81-.02,1.13-.71,1.76-.7,2.38.04,2.46,1.9,6.33,2.01,9.01,15.56,1.69,32.39,2,47.57,5.88,10.25,2.62,11.6,9.71,12.13,19.46.61,11.06.01,26.64-1.32,37.65-.6,4.96-1.61,11.32-7.36,12.57,2.03,7.21,3.87,14.5,5.43,21.83.64,3.01,3.22,13.55,2.8,15.78-.64,3.39-7.96,3.8-9.44.37l-11.53-33.38-37.46,9.21c-1.22.92.32,12.29-2.45,13.12-1.12.34-5,.3-5.78-.66-1.5-1.83-1.2-8.08-1.27-10.51l-6.65.85-2.01,35.5c6.04-.38,12.15-1.36,18.19-.65l.39,1.27c-.41.71-1.18.95-1.94,1.09-5.05.95-11.72.44-16.41,1.33-1.04.2-1.95,1.6-3.24,1.95-3.53.94-6.81-.58-7.33-4.37-.55-3.97-.71-9.25-.92-13.36-.4-7.85-.02-15.8-.67-23.65-13.24-3.02-26.38-6.56-39.13-11.2l-8.66,28.55c3.18-.67,6.5-1.05,9.74-1.29,3.8-.28,9.32-.76,13-.46,1.18.09,2.54.17,1.72,1.76-.47.92-3.22,1.14-4.34,1.28-5.81.75-15.54.25-20.69,1.82-.96.29-1.21,1.7-2.04,2.29-3.12,2.24-8.96.06-8.6-4.26s2.1-10.9,3.12-15.5c1.39-6.3,3.04-12.6,4.96-18.76-6.63-2.92-7.64-9.45-9.21-15.77-5.25-21.15-10.12-47.47-13.12-69.09-1.94-13.97-2.71-26.23,10.35-34.94,13.84-9.22,49.98-12.56,65.84-8.35,7.23,1.92,11.46,6.38,14.86,12.83l7.12,20.35-.25-38.51c.5-1.16.93-1.58,2.18-1.75,1.53-.21,13.28-.13,14.08.24.2.1.87.78.87.86v50.84h5.63v-43.05ZM262.69,217.32h-10.85s.03,51.08.03,51.08h10.85s-.03-51.08-.03-51.08ZM304.24,217.75h-9.09v50.62h9.09v-50.62ZM277.86,224.23h-12.59s.04,44.16.04,44.16h12.59s-.04-44.16-.04-44.16ZM221.15,306.45c-1.21-17.16-4.52-34.62-9.21-51.15-2.88-10.15-6.26-24.76-17.43-28.44-12.88-4.24-37.78-1.64-51.01,1.74-28.91,7.39-24.51,24.38-20.45,48.51,2.9,17.23,6.27,35.68,10.02,52.72.85,3.88,2.55,12.61,4.8,15.54,2.71,3.52,19.58,8.95,24.53,10.52,12.4,3.95,31.08,10.05,43.77,8.48,16.84-2.08,39.64-7.76,55.9-12.91,4.29-1.36,10.69-2.56,12.2-7.27,2.32-7.2,1.67-20.58,1.84-28.45s1.29-15.58-.73-23.03c-2.34-8.62-8.93-7.98-11.49,0-2.1,6.52-.82,14.12-1.18,20.89,7.76,6.18,8.1,24.04.64,30.49-6.96,6.01-29.92,10.14-39.51,11.99-5.01.97-12.88,2.98-17.68,3.13-1.32.04-2.23-.01-3.21-1.01-2.34-14.48-2.23-29.6-5.29-44.04-2.81-13.27-5.78-15.88-18.9-18.75-9.2-2.01-19.83-3.06-29.25-2.82-1.56.04-3.74,1.21-5-.18s1.78-2.03,1.79-2.19c-2.73-10.14-5.04-20.42-8.02-30.49-.68-2.28-5.3-14.82-5.19-15.63.1-.75.84-1.23,1.56-1.04,1.52.4,2.83,4.54,3.43,6.06,5.02,12.83,7.47,27.18,11.3,40.41,8.92-.44,17.94.41,26.79,1.99,11,1.97,21.43,4.17,23.36,17.1l21.64-2.16ZM248.85,226.41h-7.36v41.54h7.36v-41.54ZM318.54,227.27h-11.27v41.1h11.27v-41.1ZM332.81,268.37c.12-.32-.43-.52-.43-.65v-35.91c0-.39-.23-1.67-.65-1.95h-11.04l.87,38.51h11.25ZM259.67,312.51v-15.36c0-.67.89-4,1.18-4.88,1.08-3.29,3.02-5.42,5.31-7.88-12.39-2.01-24.91-3.76-37.44-4.76-.69-.06-7.54-.59-7.58-.22l3.47,27.03c11.84.47,24.06,1.4,35.05,6.06ZM205.57,356.2c13.7-2.58,27.89-4.88,41.3-8.69,4.8-1.36,13.07-3.57,16.02-7.78,3.36-4.81,3.15-16.92-.43-21.58-2.62-3.4-13.56-5.62-17.86-6.38-14.74-2.6-29.44-2.37-44.23-.13l3.03,20.33c17.85-3.52,36.57-5.82,54.1-10.6,1.55-.42,5.41-2.61,4.25,1.21-.45,1.48-8.04,3.1-9.88,3.55-15.68,3.87-32.14,5.8-48,8.91l1.69,21.16ZM147.14,360.53l-6.06-1.73c-1.52,7.63-3.83,15.15-5.06,22.85-.16.99-1.05,4.79-.32,5.32,1.7,1.22,3.69-.03,4.16-1.91l7.28-24.52ZM270.48,360.1l-6.06,1.74,8.19,25.66,3.49.73-5.63-28.13ZM201.24,374.81l-6.49-.43c.11,4.25-.15,8.53-.02,12.78.03.92.41,1.75.45,2.58.12,2.79-.04,13.07,1.09,14.91.79,1.28,3.3,1.26,3.66-.65.67-3.56.69-9.12.9-12.95.29-5.36.21-10.87.42-16.24Z"/>
        <path d="M586.87,351.89c1.3,4.13,2.6,8.26,3.77,12.44,1.77,6.32,4.66,15,5.55,21.27.4,2.81.11,4.73-2.95,5.75-5.92,1.97-7.92-4.78-9.42-8.95-3.05-8.43-5.5-17.23-8.21-25.76-12.23,3.96-24.53,8.18-37.21,10.39l-2.17,35.47c2.93-.11,17.47-3.51,19.07-2.4l.42,1.74c-6.4,1.72-12.97,3.3-19.64,3.67-1.35,3.38-4.07,4.28-7.53,3.15-4.67-1.52-2.96-8.04-3.13-12.02-.04-1.02-.44-1.97-.47-2.99-.25-8.56.26-17.16-.03-25.72l-8.18-.91c-.18,4.25.83,12.21-5.73,11.16-5.05-.81-2.19-9.61-2.92-13.32-13.97-1.74-27.75-5.51-41.38-9.04l-8.82,29.81c5.62-.09,11.97-1.53,17.55-.88.91.11,1.85.34,1.49,1.53-.3,1.02-11.76,2.22-13.63,2.38-1.57.13-5.74-.36-6.7.22-.39.24-.85,1.39-1.51,1.95-3.29,2.78-8.73.97-9.29-3.18,2.72-11.81,4.89-23.79,8.63-35.33-6.14-1.15-7.48-5.48-8.22-11.05-1.42-10.68-2.35-41,1.65-50.26,1.2-2.78,3.77-6.23,6.88-6.96,7.53-1.78,17.29-3.01,25.06-3.94s15.65-1.43,23.48-1.84c3.96-14.04,6.98-40.08,19.39-49.19,11.07-8.13,41.4-6.09,54.77-3.84,12.3,2.07,26.74,6.72,30.76,19.87,3.46,11.3-1.24,30.9-3.29,42.82-2.85,16.54-5.72,37.91-10.38,53.66-1.22,4.14-3.25,8.95-7.66,10.31ZM461.28,314.17c-.44-6.32,3.07-20.89-3.41-24.79-3.25-1.96-5.21-.7-6.71,2.35-3.62,7.34-2.82,37-1.93,46.09.26,2.64.69,8.51,2.8,10.18,1.7,1.35,10.08,3.48,12.68,4.19,17.79,4.89,40.55,10.23,58.79,12.18,14.71,1.57,36.51-5.66,50.59-10.76,3.38-1.22,12.11-4.13,14.25-6.52,3.2-3.58,5.11-16.78,6.17-21.96,2.51-12.32,4.8-24.81,6.92-37.21,5.07-29.57,14.21-52.78-24.01-59.23-12.16-2.05-42.25-4.18-52.34,2.8-7.7,5.33-11.45,19.42-13.84,28.13-4.31,15.68-7.42,32.31-8.35,48.55,8.06.42,16.14,1.17,23.99,3.03,3.04-11.16,8.7-14.15,19.29-16.67,10.03-2.38,20.82-3.75,31.12-3.72,3.47-12.89,6.2-26.62,10.85-39.12.51-1.37,2.23-6.2,3.02-6.93.99-.93,2.53-1,2.64.46.05.68-3.88,10.97-4.47,12.86-2.38,7.68-8.37,25.54-8.89,32.69-.09,1.18.59,2.06.17,3.15-.6.83-9.08.28-10.87.39-6.62.39-14.93,1.76-21.42,3.25-15.33,3.5-16.72,7.28-19.76,22.22-2.43,11.97-3.4,24.44-4.04,36.63-.68,2.41-2.93,2.05-4.96,1.95-10.11-.47-26.09-4.19-36.23-6.61-5.9-1.41-20.56-4.93-24.99-8.33-6.45-4.95-6.36-26.09,2.94-29.25ZM499.43,308.18l3.46-26.82-44.14,5.2,3.65,3.48c4.09,7.02,1.71,15.26,1.98,22.9,11.22-3.69,23.25-4.88,35.05-4.76ZM526.27,314.24c-16.81-2.88-34.29-3.95-51.15-.73-3.63.69-11.25,2.37-14.01,4.6-4.52,3.65-4.96,17.29-1.69,21.63,1.87,2.49,10.36,4.88,13.61,5.87,15.57,4.71,32.4,7.46,48.47,9.74l.89-20.58-61.02-11.91c-.21-3.09,1-2.76,3.6-2.51l58.26,11.63,3.04-17.74ZM461.79,361.83l-6.49-1.73c-.33,3.81-6.95,26.37-5.87,28.12.58.94,2.44,1.04,3.4.45,2.49-1.53,7.19-22.95,8.96-26.84ZM589.58,387.66c.96.79,3.72,1.03,3.76-.49l-7.55-27.07c-1.4,1.09-3.17,1.24-4.78,1.72-.47.14-.79-.3-.61.63,2.74,4,6.44,22.94,9.19,25.21ZM534.93,375.67h-6.92c.09,9.8.09,19.7,1.08,29.42.78,1.63,4.29.95,4.08-1.11l1.77-28.32Z"/>
        <path d="M383.02,274.86c7.82-2.11,13.35,5.31,12.07,12.72l-.83,3.95c10.42,1.13,21.87,2.2,31.71,5.94s10.77,7.54,9.84,17.84c-.28,3.11-1.04,4.56-3.49,6.46-10.5,8.11-43.41,10.39-56.89,10.67-1.24.03-2.19-.77-2.78.18l.85,44.79c6.19-.4,28.97,3.43,30.97,9.93.38,1.22.37,4.88,0,6.1s-2.06,2.25-3.14,2.92c-14.16,8.78-57.3,8.58-71.84.6-4.34-2.38-5.95-8.27-2.08-11.77,5.8-5.24,19.85-7.12,27.48-7.35l.43-45.43c-16.04-.96-32.62-1.62-48.23-5.65-4.03-1.04-14.47-4.17-15.63-8.61-.5-1.91-.45-12.38.13-14.17,1.26-3.86,10.09-6.8,13.77-7.87,12.16-3.52,25.66-4.66,38.27-5.23-.11-4.75-2.57-16.82.63-20.36,4.39-4.87,22.32-4.74,28.46-3.75,4.57.74,10.78,2.23,10.3,8.09ZM379.12,272.27c-6.06-2.58-13.16-3.04-19.71-2.62-1.61.1-12.28,1.65-12.31,3.26.55.64,1.55.98,2.36,1,5.28.17,11.33-1.65,17.34-1.24,4.24.29,9.05,3.11,12.32-.41ZM379.55,276.6c-10.7,2.9-22.68,3.22-33.32,0,.26,12.05.28,25.88,15.42,27.2,17.03,1.49,17.44-14.4,17.9-27.2ZM379.99,296.5c7.19-.28,12.85-5.62,11.58-13.09-.73-4.29-4.46-6.36-8.53-5.06l.4,2.8c5.67.92,6.94,6.53,2.32,10.08-2.6,1.99-5.45,1.39-5.77,5.27ZM382.15,289.57c2.65-1.22,3.78-3.69,1.07-5.62-1.03-.19-.54.47-.62,1.09-.21,1.5-.49,3.01-.45,4.53ZM344.89,294.38c-1.14-.98-23.26,1.7-26.45,2.25-5.45.93-18.71,3.56-22.43,7.43-.4.42-1.14,1.19-1.14,1.75.25,1.03,1.05,1.73,1.87,2.31,9.63,6.78,42.5,9.16,54.88,9.61,16.98.61,63.96.04,77.57-9.02,1.97-1.31,3.62-2.72,1.66-4.86-4.28-4.71-28.73-8.73-35.51-9.06-5.1-.25-3.38.45-6.56,2.52-.84.55-2.54,1.38-3.49,1.71-1.71.58-6.68.92-7.26,1.4s-1.29,2.35-1.95,3.02c.75.55,5.4-.57,6.5-.25,1.59.46,1.82,2.32.41,3.06-1.15.6-7.13,1.03-8.84,1.11-11.42.57-26.15.74-29.27-12.95ZM432.35,316.62c.37-1.69-.27-4.44,0-6.27-10.02,6.54-23.9,8.34-35.71,9.51-25.16,2.5-72.57,2.76-95.97-6.16-2.22-.85-4.21-2.01-6.38-2.92,1.14,1.86-.3,5.62.83,7.17,1,1.37,7.76,4.03,9.66,4.62,14.14,4.43,31.61,5.36,46.42,5.95,21.32.85,44.26.82,65.15-4.11,3.54-.83,15.15-3.82,16.01-7.79ZM370.06,343.66h-11.71v39.39h11.71v-39.39ZM354.88,380.86c-7.08.88-15.34,1.6-21.8,4.82-12.31,6.13,1.79,10.09,7.94,11.43,15.33,3.33,36.38,3.35,51.52-.88,10.15-2.84,13.89-7.09,1.85-11.79-6.48-2.53-13.98-3.4-20.89-3.56.64,5.95-7.25,5.97-11.49,5.64-3.59-.28-7.88-1.08-7.13-5.64Z"/>
        <path d="M548.78,33.01l-384.79-.24-.43,1.3.04,180.03c-.5,2.51.07,7.75-3.39,4.22l-.11-185.97.56-2.69,3.12-.56c122.63.46,244.96-.24,367.45.47l20.82.39.19.68c.49,58.41-.64,116.89-.01,175.24.04,3.89.96,9.28.46,12.99-.46,3.46-3.91,1.97-3.91-1.32V33.01Z"/>
        <path d="M403.36,223.81c4.4-.68,8.69-.04,13.11.09,2.03.6.58,3.93,1.82,5.1h14.07v-9.73c0-.55,1.35-1.03,1.93-1.1,4.75-.64,11.03.44,15.95.11,2.01.59.9,4.78,1.17,6.4h14.5c1.56,0,1,5.12,1.09,6.27.94,12.4.05,25.01.86,37.43h13.42l.41-49.99.89-2.36h14.5c1.57,0,1.01,5.38,1.08,6.49h11.69l.41-6.3,13.57-.19c1.59.42,1.81,8.86.1,8.99-2.24-.59-1.69-4.04-1.96-5.96h-9.09v20.55c0,1.27-3.03.97-3.03.65v-14.06c-.27-.42-1.56-.65-1.95-.65h-9.74l-1.07,45.45c-.92,1.38-6.53.41-8.21.4-33.83-.2-67.23.53-100.86,0-.44-.06-.85-.24-1.14-.59-.82-1.04-.32-16.32-.38-19.11-.04-1.85-.44-3.8-.47-5.58-.14-9.78.08-19.58.11-29.35.32-.94.96-1.07,1.84-1.19,1.51-.2,13.9-.14,14.52.24.22.28.87,1.09.87,1.3v6.71ZM400.41,218.56l-11.34.1.44,49.82,11.34-.1-.44-49.82ZM484.73,218.92l-.64,49.45,10.53.14.64-49.45-10.53-.14ZM448.82,221.21h-13v47.16h13v-47.16ZM403.34,226.83l-.02,41.54h11.72s.02-41.53.02-41.53h-11.72ZM451.38,227.68l-.02,40.69h13.02s.02-40.69.02-40.69h-13.02ZM418.07,232.03v36.34h14.28v-36.34h-14.28Z"/>
        <path d="M276.98,357.07h72.06c.16,0,2.09.7,2.19.84.48.58.17,2.63-.46,2.63h-73.14c-1.1,0-1.24-2.62-.65-3.46Z"/>
        <rect x="376.49" y="357.07" width="71.9" height="3.5"/>
        <path d="M338.33,278.85c1.14,1.2.32,3.03-1.38,2.95h-57.17c-1.72.24-2.61-2.18-1.2-3.08,1.9-1.22,10.56.02,13.36.02,5.63,0,11.23-.01,16.85.04,9.51.09,19.08-.05,28.61-.25.33,0,.72.07.95.31Z"/>
        <path d="M436.17,278.44l18.89-.1c2.64,1.08,1.88,3.14-.85,3.46-10.49,1.22-23.54-.74-34.18-.03-6.26-.54-13.85.78-19.95.04-2.48-.3-1.88-2.76.43-3.07,10.87-1.43,24.54,1.37,35.65-.3Z"/>
        <path d="M369.01,218.67c.68-.22,1.58-.12,1.84.66.39,6.21-10.5,9.75-10.36,15.49.15,5.96,11.52,6.51,10.37,15.56-.65,5.1-6.08,6.33-7.79,10.86-.44,1.17.25,2.95-1.47,3.26-3.33-1.16-.45-6.18,1.09-8.01,1.95-2.34,5.86-3.87,5.52-7.7-.49-5.57-11.28-6.61-10.63-14.68.4-4.99,5.51-7.54,8.35-10.72.83-.92,2.73-4.6,3.09-4.71Z"/>
        <path class="cls-1" d="M536.66,44.26v22.93l-10.82-.43v-6.27c0-1.9-9.58-.79-11.26-1.08-.12-1.66.71-4.33-1.52-4.75-1.87-.35-10.52-.3-12.56-.03-.74.09-1.31.16-1.71.88l.22,54.95h-9.09v-48.67c0-.14-.57-.66-.43-1.08h-14.07c-1.45,0-1.08,4.65-1.08,5.62h-19.48c-.33-1.49.66-3.14.44-4.52-.09-.56-1.26-1.97-1.52-1.97h-13.63c-.2-1.64.53-5.34-.64-6.5-1-.99-9.13-.15-11.28-.41-1.77-.21-2.46-.98-4.76-.9-3.6.13-9.26.03-12.51.49-.76.11-1.97.58-1.97,1.47v8.44h-10.6c-.16,0-1.42.52-1.56.72-1.02,1.36-.11,24.11-.11,27.98,0,6.2-.73,12.53.06,18.7l-.54.49-8.02.15-2.04-42.3c-1.12-2.34-9.03-1.07-11.37-1.39,1.32-7.45-4.13-6.54-9.52-5.63v-7.36c-2.36-1.32-4.93-.83-7.57-.87-1.27-.02-2.09-.85-3.59-.12-1.82.9-1.33,5.22-1.4,7.04h-11.9c-1.43,0-1.95,3.41-1.95,4.54v46.08l-14.28-.43c.77-8.39.3-16.88.42-25.33.09-6.9,1.39-15.7.47-22.5-.09-.7-.99-2.36-1.54-2.36h-11.47c-.2-2.31.89-6.3-1.84-7.46-1.15-.49-10.11-.58-11.14-.1-.2.1-.87.78-.87.86v6.71h-13.2c-1.2,0-1.95,2.74-1.95,3.68v46.51h-6.06l-9.87-32.32c-1.86-3.6-4.67-1.78-7.91-2.48-.82-1.34-1.04-8.9-2.78-8.9h-14.07c.83-1.22.65-5.19-1.08-5.19h-8.01c-.14-1.46.51-5.47-.86-6.28l-12.82-1.03-3.86.81c-.44,1.99-.86,4.1-.2,6.07h-11.9c-1.65,0-1.73,4.5-1.08,5.62l-13.85.44v-7.14c0-.1-1.35-1.08-1.51-1.08h-11.47v-14.28h360.52Z"/>
        <path class="cls-1" d="M536.66,124.3v18.6h-11.04l-.55-.63c.52-1.14.58-4.13-.53-4.78-.55-.32-11.7-.41-12.69-.12-1.84.54-1.02,3.62-1.17,5.1h-13.42c-.15-1.49.61-5.82-1.15-6.42-.73-.25-13.09-.29-14.21-.07-.23.04-.45.07-.65.22-.19.12-.87,1.18-.87,1.3v7.14h-12.98v-6.27c0-1.16-.93-1.77-1.98-1.9-2.95-.39-10.86-.4-13.83-.05-2.38.28-2.37.9-2.37,2.82v52.57h-11.69c.35-3.55-.28-7.11-.45-10.58-.51-10.63-.35-21.43-1.29-32.03-.09-.97-.51-4.98-1.51-4.98h-11.47v-8c0-.11-.93-1.82-1.19-1.96-.65-.35-13.31-.12-14.58.06-.76.11-1.97.58-1.97,1.47v9.73l-11.25.21c-1.56.76-.62,4.74-.86,6.28h-15.15c1.56-9.44-3.87-7.66-10.82-6.92.87-7.09-9.6-1.01-12.99-4.11v-6.92c0-.07-.67-.76-.87-.86-.74-.34-12.34-.46-13.63-.22-1.92.36-1.51,3.25-1.51,4.76h-18.61s0,8.65,0,8.65c-2.21-.47-13.05-1.67-14.07-.44l-12.35,45.42-4.31.02v-43.05c0-.32-1.05-.98-1.53-1.07-1.65-.31-10.23.37-10.59,0l-.44-4.43c-.08-.32-.9-.77-1.07-.77h-11.04v-8c0-.1-.69-1.6-.84-1.76-1.2-1.32-12.91-1.52-14.12-.66-1.38,1.17-.56,2.79-1.09,4.32-4.9-.18-9.56-.51-14.47.04-.87.1-2.37.44-2.37,1.52v7.14l-15.36,1.21-12.77-.34c-.05-1.74.59-4.9-1.6-5.54-1.35-.39-12.4-.34-14.21-.11-.6.08-1.12.1-1.54.63l-.82,51.31h-8.66v-67.5h360.52Z"/>
        <rect class="cls-1" x="176.14" y="113.47" width="360.52" height="7.39"/>
        <rect class="cls-1" x="176.14" y="194.82" width="360.52" height="6.92"/>
        <rect class="cls-1" x="304.74" y="158" width="50.7" height="16.1" transform="translate(162.39 495.3) rotate(-89.71)"/>
        <path class="cls-1" d="M234.56,140.09c0-.11-.51-.34-.25-.65.73-1.06,12.01-.2,14.1,0-.96,3.55-.05,7.37.02,11.02.25,13.74-.23,27.57-.02,41.33h-13.85c-.05-17.23.07-34.47,0-51.7Z"/>
        <rect class="cls-1" x="412.01" y="55.49" width="12.57" height="54.97"/>
        <polygon class="cls-1" points="419.8 137.28 420.24 191.8 409.25 191.7 408.11 137.71 419.8 137.28"/>
        <rect class="cls-1" x="452.26" y="139.87" width="12.15" height="51.92"/>
        <rect class="cls-1" x="480.64" y="161.52" width="45.87" height="14.02" transform="translate(327.96 669.66) rotate(-89.19)"/>
        <rect class="cls-1" x="218.98" y="57.24" width="11.25" height="53.22"/>
        <rect class="cls-1" x="187.79" y="143.33" width="12.46" height="48.47" transform="translate(-.19 .22) rotate(-.07)"/>
        <rect class="cls-1" x="189.12" y="69.78" width="14.16" height="41.1"/>
        <path class="cls-1" d="M218.55,149.61c-.02-.12-.65-.49-.43-.64l12.99-.87c.26,14.55.61,29.11.43,43.7h-12.99v-42.19Z"/>
        <rect class="cls-1" x="462.36" y="159.87" width="52.11" height="11.05" transform="translate(314.6 650.89) rotate(-89.01)"/>
        <rect class="cls-1" x="377.37" y="155.45" width="15.6" height="36.34"/>
        <polygon class="cls-1" points="351.42 135.98 350.55 191.36 341.03 191.36 341.68 135.98 351.42 135.98"/>
        <rect class="cls-1" x="286.93" y="63.29" width="11.71" height="46.73"/>
        <rect class="cls-1" x="251.44" y="134.68" width="9.95" height="56.68"/>
        <polygon class="cls-1" points="536.66 145.93 536.66 191.36 524.11 191.36 524.97 145.93 536.66 145.93"/>
        <path class="cls-1" d="M480.39,148.09l-.87,43.7c-3.66-.74-7.88-.22-11.65-.19l-.85-.51.39-43h12.98Z"/>
        <polygon class="cls-1" points="451.83 63.29 450.96 110.45 440.14 110.45 440.14 63.29 451.83 63.29"/>
        <path class="cls-1" d="M215.09,148.96v41.75c0,.13.55.33.43.65h-11.47c-.09,0-.49.65-.64.43l-.44-43.27,12.12.43Z"/>
        <rect class="cls-1" x="427.59" y="55.94" width="9.54" height="54.52"/>
        <rect class="cls-1" x="323.49" y="81.23" width="47.63" height="10.85" transform="translate(260.55 433.94) rotate(-89.98)"/>
        <rect class="cls-1" x="501.58" y="58.1" width="9.98" height="52.35"/>
        <polygon class="cls-1" points="432.79 147.23 434.52 191.79 423.91 191.79 422.83 147.23 432.79 147.23"/>
        <path class="cls-1" d="M354.02,147.01c.04-.48.17-1.02.19-1.52l10.2-.86-.87,47.16h-9.52v-44.78Z"/>
        <rect class="cls-1" x="176.14" y="62" width="9.77" height="48.89"/>
        <path class="cls-1" d="M215.95,64.16v46.29c-2.51-.37-5.19.39-7.57.39-.55,0-2.24.03-2.29-.59l-.53-46.1h10.39Z"/>
        <path class="cls-1" d="M296.02,191.36l11.52-42.43c3.54.14,7.14-.35,10.56.68l-10.83,41.75h-11.25Z"/>
        <polygon class="cls-1" points="254.91 69.78 264 110.23 254.24 110.48 243.65 69.78 254.91 69.78"/>
        <rect class="cls-1" x="477.37" y="64.16" width="9.52" height="46.29"/>
        <rect class="cls-1" x="264.03" y="145" width="9.84" height="46.43" transform="translate(-2.53 4.12) rotate(-.87)"/>
        <rect class="cls-1" x="312.47" y="63.29" width="9.54" height="46.73"/>
        <rect class="cls-1" x="301.21" y="55.51" width="8.23" height="54.52"/>
        <rect class="cls-1" x="525.82" y="70.22" width="10.84" height="40.67"/>
        <path class="cls-1" d="M513.29,191.36l1.09-51.07c2.64.6,5.32.46,8,.45l-1.3,50.62h-7.79Z"/>
        <rect class="cls-1" x="399.89" y="65.89" width="9.09" height="44.58"/>
        <rect class="cls-1" x="514.59" y="62.86" width="8.22" height="48.03"/>
        <rect class="cls-1" x="395.98" y="148.96" width="9.56" height="42.83"/>
        <polygon class="cls-1" points="383.88 70.22 385.08 109.82 384.54 110.31 375.22 110.46 374.79 70.22 383.88 70.22"/>
        <rect class="cls-1" x="276.53" y="150.69" width="9.1" height="40.67"/>
        <rect class="cls-1" x="438.27" y="85.55" width="40.95" height="9.12" transform="translate(354.33 545.81) rotate(-88.21)"/>
        <polygon class="cls-1" points="374.36 191.79 367 191.79 367 148.09 374.82 147.85 375.16 148.37 374.36 191.79"/>
        <rect class="cls-1" x="355.75" y="55.94" width="6.51" height="54.54"/>
        <rect class="cls-1" x="364.82" y="64.16" width="7.39" height="46.3"/>
        <polygon class="cls-1" points="473.9 69.78 473.9 110.45 465.68 110.45 466.55 69.78 473.9 69.78"/>
        <rect class="cls-1" x="213.77" y="84.08" width="45.87" height="6.89" transform="translate(148.79 324.08) rotate(-89.9)"/>
        <path class="cls-1" d="M264.82,78.48l9.56,31.97h-6.91s-7.38-31.36-7.38-31.36c-.05-.91,0-.56.65-.65.56-.08,3.93-.09,4.08.05Z"/>
        <polygon class="cls-1" points="318.96 191.36 310.3 191.36 318.96 158.05 318.96 191.36"/>
        <polygon class="cls-1" points="250.58 110.45 243.22 110.45 243 78.43 250.58 110.45"/>
        <path class="cls-1" d="M221.15,306.45l-21.64,2.16c-1.94-12.93-12.36-15.13-23.36-17.1-8.84-1.59-17.87-2.43-26.79-1.99-3.83-13.22-6.29-27.58-11.3-40.41-.6-1.52-1.9-5.66-3.43-6.06-.71-.19-1.46.29-1.56,1.04-.11.82,4.52,13.35,5.19,15.63,2.99,10.06,5.29,20.35,8.02,30.49,0,.16-3,.85-1.79,2.19s3.44.22,5,.18c9.42-.25,20.05.8,29.25,2.82,13.12,2.87,16.09,5.47,18.9,18.75,3.05,14.44,2.95,29.55,5.29,44.04.98,1,1.89,1.05,3.21,1.01,4.8-.15,12.67-2.16,17.68-3.13,9.59-1.85,32.55-5.98,39.51-11.99,7.46-6.44,7.12-24.31-.64-30.49.36-6.77-.91-14.37,1.18-20.89,2.57-7.98,9.16-8.62,11.49,0,2.02,7.46.89,15.51.73,23.03s.48,21.25-1.84,28.45c-1.52,4.71-7.91,5.91-12.2,7.27-16.26,5.16-39.05,10.83-55.9,12.91-12.69,1.57-31.37-4.53-43.77-8.48-4.95-1.58-21.82-7-24.53-10.52-2.25-2.93-3.95-11.66-4.8-15.54-3.75-17.04-7.12-35.49-10.02-52.72-4.06-24.12-8.45-41.12,20.45-48.51,13.23-3.38,38.13-5.98,51.01-1.74,11.17,3.68,14.55,18.29,17.43,28.44,4.69,16.53,8,33.99,9.21,51.15ZM189.49,358.73c.23-2.34-.16-4.7-.43-7.01-1.42-12.03-8.49-36.95-4.48-47.43.43-1.13,1.09-2.36,1.93-3.25-1.32-1.78-3.46.56-4.32,1.73-3.59,4.93-2.02,15.64-1.17,21.51,1.64,11.27,4.85,22.4,6.03,33.78l1.05,1.09,1.39-.41Z"/>
        <path class="cls-1" d="M205.57,356.2l-1.69-21.16c15.86-3.11,32.32-5.03,48-8.91,1.83-.45,9.43-2.07,9.88-3.55,1.16-3.82-2.7-1.63-4.25-1.21-17.53,4.78-36.26,7.08-54.1,10.6l-3.03-20.33c14.78-2.24,29.48-2.47,44.23.13,4.3.76,15.24,2.97,17.86,6.38,3.58,4.66,3.8,16.77.43,21.58-2.95,4.22-11.22,6.42-16.02,7.78-13.41,3.81-27.6,6.11-41.3,8.69Z"/>
        <path class="cls-1" d="M259.67,312.51c-10.99-4.66-23.22-5.59-35.05-6.06l-3.47-27.03c.04-.38,6.88.16,7.58.22,12.53,1,25.05,2.75,37.44,4.76-2.29,2.46-4.23,4.58-5.31,7.88-.29.88-1.18,4.21-1.18,4.88v15.36Z"/>
        <rect class="cls-1" x="265.29" y="224.24" width="12.59" height="44.14"/>
        <rect class="cls-1" x="251.85" y="217.32" width="10.85" height="51.08"/>
        <rect class="cls-1" x="295.16" y="217.75" width="9.09" height="50.62"/>
        <rect class="cls-1" x="307.27" y="227.27" width="11.27" height="41.1"/>
        <path class="cls-1" d="M332.81,268.37h-11.25l-.87-38.51h11.04c.42.27.65,1.56.65,1.95v35.91c0,.13.55.33.43.65Z"/>
        <rect class="cls-1" x="241.49" y="226.41" width="7.36" height="41.54"/>
        <path class="cls-1" d="M201.24,374.81c-.21,5.37-.13,10.88-.42,16.24-.21,3.83-.22,9.39-.9,12.95-.36,1.92-2.87,1.94-3.66.65-1.13-1.84-.97-12.12-1.09-14.91-.04-.84-.42-1.66-.45-2.58-.13-4.25.13-8.53.02-12.78l6.49.43Z"/>
        <path class="cls-1" d="M147.14,360.53l-7.28,24.52c-.46,1.88-2.46,3.14-4.16,1.91-.74-.53.16-4.33.32-5.32,1.23-7.7,3.54-15.22,5.06-22.85l6.06,1.73Z"/>
        <polygon class="cls-1" points="270.48 360.1 276.11 388.22 272.62 387.49 264.43 361.83 270.48 360.1"/>
        <path class="cls-1" d="M461.28,314.17c-9.3,3.15-9.39,24.3-2.94,29.25,4.43,3.4,19.09,6.93,24.99,8.33,10.14,2.42,26.12,6.14,36.23,6.61,2.04.09,4.28.46,4.96-1.95.65-12.19,1.61-24.66,4.04-36.63,3.03-14.93,4.43-18.71,19.76-22.22,6.49-1.48,14.8-2.85,21.42-3.25,1.79-.11,10.27.44,10.87-.39.43-1.08-.25-1.97-.17-3.15.52-7.15,6.51-25,8.89-32.69.58-1.89,4.52-12.18,4.47-12.86-.11-1.45-1.65-1.38-2.64-.46-.79.73-2.51,5.57-3.02,6.93-4.65,12.5-7.38,26.24-10.85,39.12-10.3-.03-21.1,1.33-31.12,3.72-10.59,2.52-16.24,5.51-19.29,16.67-7.86-1.86-15.94-2.61-23.99-3.03.93-16.24,4.03-32.87,8.35-48.55,2.4-8.71,6.14-22.8,13.84-28.13,10.09-6.98,40.19-4.86,52.34-2.8,38.22,6.45,29.08,29.66,24.01,59.23-2.13,12.4-4.41,24.88-6.92,37.21-1.06,5.18-2.97,18.38-6.17,21.96-2.14,2.39-10.87,5.3-14.25,6.52-14.08,5.09-35.88,12.33-50.59,10.76-18.24-1.95-41-7.3-58.79-12.18-2.6-.71-10.99-2.85-12.68-4.19-2.11-1.68-2.54-7.55-2.8-10.18-.9-9.09-1.69-38.75,1.93-46.09,1.5-3.04,3.46-4.3,6.71-2.35,6.48,3.9,2.97,18.47,3.41,24.79ZM538.72,359.99c.98-.85,5.05-22.27,5.6-25.34,1.32-7.38,4.63-22.75,1.46-29.31-.79-1.64-2.33-2.92-4.13-3.23-.03,2.27,1.6,4.25,1.9,6.76,1.77,15.19-5.38,34.56-7.33,49.73-.17,1.5,1.48,2.29,2.51,1.39Z"/>
        <path class="cls-1" d="M526.27,314.24l-3.04,17.74-58.26-11.63c-2.6-.25-3.81-.58-3.6,2.51l61.02,11.91-.89,20.58c-16.07-2.28-32.9-5.02-48.47-9.74-3.25-.98-11.73-3.38-13.61-5.87-3.27-4.34-2.83-17.97,1.69-21.63,2.75-2.23,10.38-3.91,14.01-4.6,16.86-3.22,34.34-2.15,51.15.73Z"/>
        <path class="cls-1" d="M499.43,308.18c-11.8-.12-23.82,1.08-35.05,4.76-.27-7.65,2.12-15.89-1.98-22.9l-3.65-3.48,44.14-5.2-3.46,26.82Z"/>
        <path class="cls-1" d="M534.93,375.67l-1.77,28.32c.21,2.06-3.3,2.74-4.08,1.11-.99-9.72-.98-19.62-1.08-29.42h6.92Z"/>
        <path class="cls-1" d="M461.79,361.83c-1.77,3.89-6.47,25.32-8.96,26.84-.95.58-2.82.49-3.4-.45-1.08-1.76,5.53-24.31,5.87-28.12l6.49,1.73Z"/>
        <path class="cls-1" d="M589.58,387.66c-2.75-2.27-6.45-21.21-9.19-25.21-.18-.93.13-.49.61-.63,1.62-.48,3.38-.63,4.78-1.72l7.55,27.07c-.03,1.51-2.79,1.28-3.76.49Z"/>
        <path class="cls-1" d="M344.89,294.38c3.13,13.69,17.85,13.53,29.27,12.95,1.71-.09,7.69-.51,8.84-1.11,1.41-.74,1.18-2.6-.41-3.06-1.1-.32-5.74.8-6.5.25.66-.67,1.39-2.56,1.95-3.02s5.55-.81,7.26-1.4c.95-.32,2.65-1.16,3.49-1.71,3.18-2.07,1.46-2.76,6.56-2.52,6.78.33,31.22,4.35,35.51,9.06,1.95,2.15.31,3.55-1.66,4.86-13.62,9.06-60.6,9.63-77.57,9.02-12.38-.45-45.25-2.82-54.88-9.61-.82-.58-1.63-1.28-1.87-2.31,0-.56.74-1.33,1.14-1.75,3.72-3.87,16.98-6.5,22.43-7.43,3.18-.54,25.31-3.23,26.45-2.25Z"/>
        <path class="cls-1" d="M432.35,316.62c-.86,3.97-12.47,6.96-16.01,7.79-20.88,4.93-43.82,4.96-65.15,4.11-14.8-.59-32.28-1.52-46.42-5.95-1.9-.59-8.66-3.25-9.66-4.62-1.13-1.55.31-5.31-.83-7.17,2.17.91,4.16,2.07,6.38,2.92,23.4,8.93,70.81,8.66,95.97,6.16,11.81-1.17,25.69-2.97,35.71-9.51-.27,1.84.37,4.58,0,6.27Z"/>
        <path class="cls-1" d="M354.88,380.86c-.75,4.56,3.54,5.36,7.13,5.64,4.24.33,12.12.31,11.49-5.64,6.91.17,14.41,1.03,20.89,3.56,12.04,4.71,8.31,8.95-1.85,11.79-15.13,4.23-36.18,4.22-51.52.88-6.15-1.34-20.25-5.29-7.94-11.43,6.46-3.22,14.72-3.94,21.8-4.82Z"/>
        <path class="cls-1" d="M379.55,276.6c-.46,12.8-.88,28.69-17.9,27.2-15.13-1.33-15.15-15.15-15.42-27.2,10.64,3.22,22.62,2.9,33.32,0Z"/>
        <rect class="cls-1" x="358.34" y="343.66" width="11.71" height="39.39"/>
        <path class="cls-1" d="M379.12,272.27c-3.26,3.52-8.07.7-12.32.41-6.01-.42-12.06,1.41-17.34,1.24-.81-.03-1.81-.36-2.36-1,.02-1.61,10.7-3.16,12.31-3.26,6.55-.42,13.65.03,19.71,2.62Z"/>
        <path class="cls-1" d="M379.99,296.5c.31-3.88,3.17-3.27,5.77-5.27,4.62-3.55,3.35-9.16-2.32-10.08l-.4-2.8c4.07-1.3,7.8.77,8.53,5.06,1.27,7.47-4.39,12.81-11.58,13.09Z"/>
        <path class="cls-1" d="M382.15,289.57c-.04-1.52.24-3.03.45-4.53.09-.62-.41-1.28.62-1.09,2.71,1.93,1.58,4.4-1.07,5.62Z"/>
        <rect class="cls-1" x="435.82" y="221.21" width="13" height="47.16"/>
        <rect class="cls-1" x="389.29" y="218.6" width="11.34" height="49.82" transform="translate(-2.15 3.52) rotate(-.51)"/>
        <rect class="cls-1" x="418.07" y="232.03" width="14.28" height="36.34"/>
        <rect class="cls-1" x="437.54" y="241.52" width="40.69" height="13.02" transform="translate(209.6 705.78) rotate(-89.97)"/>
        <rect class="cls-1" x="464.95" y="238.44" width="49.46" height="10.54" transform="translate(239.65 730.19) rotate(-89.26)"/>
        <rect class="cls-1" x="388.42" y="241.75" width="41.54" height="11.72" transform="translate(161.35 656.66) rotate(-89.97)"/>
        <path d="M189.49,358.73l-1.39.41-1.05-1.09c-1.17-11.38-4.39-22.5-6.03-33.78-.85-5.86-2.41-16.57,1.17-21.51.86-1.18,3-3.51,4.32-1.73-.84.89-1.5,2.12-1.93,3.25-4.01,10.48,3.06,35.41,4.48,47.43.27,2.31.66,4.67.43,7.01Z"/>
        <path d="M538.72,359.99c-1.03.9-2.69.11-2.51-1.39,1.95-15.17,9.1-34.55,7.33-49.73-.29-2.5-1.93-4.49-1.9-6.76,1.8.31,3.34,1.59,4.13,3.23,3.17,6.56-.14,21.93-1.46,29.31-.55,3.07-4.62,24.49-5.6,25.34Z"/>
      </g>
      <g>
        <g>
          <circle class="cls-3" cx="362.89" cy="290.8" r="8.94" transform="translate(-74.08 449.9) rotate(-58.71)"/>
          <path class="cls-4" d="M370.36,287.97c-.21-.9-1.78-4.1-4.58-5.02-1.16-.39-1.91-.38-2.49-.39-.83-.02-1.84.19-2.73.5-1.52.53-2.57.24-3.61,1.98s-1.09,2.26-1.65,3.49-.94,2.68-.32,4.5,1.05,2.58,1.91,3.22,1.04.82,1.48,1.29,1.18,1.39,3.15,1.52c.45.03.92.05,1.4,0,.72-.07,1.48-.21,2.19-.36.91-.2,1.75-.41,2.54-1.01,1.81-1.38,2.86-3.47,3.18-4.69s.51-2.32.09-3.29c-.13-.31-.23-.52-.28-.68-.08-.3-.14-.47-.27-1.05Z"/>
        </g>
        <g>
          <path class="cls-2" d="M362.24,294.11c.26-.04.6-.33.72-.84.12-.51.46-.69.46-.69l.03-.59c-.1,0-.2.12-.3.29h0s-.54.89-1.21.52c-.04-.02-.06-.06-.06-.1.02-.26.36-.49.36-.49,0,0,0,.22.14.19.13-.04.33-.47.16-.56s-.77.39-.77,1.05c0,.29.6.33,1.02.09-.17.3-.38.55-.66.55-.71,0-.77-1.13-.91-1.91-.14-.78-.25-2.04-.25-2.04,0,0-.17.26-.23.56-.02.1-.03.42.21,1.75.05.37,0,.47,0,.47-.01.1-.2.27-.2.27,0,0-.13-.42-.44-.35s-.55,1.11-.22,1.12c.33.01.45-.17.45-.17,0,0,.09.04.06.23-.04.19-.54,1.34-3.12,1.43,0,0,1.18.25,2.08.08.91-.17,1.23-1.73,1.22-1.97,0,0,.16-.33.27-.59,0,0,0,0,0,0,.35,1.79.93,1.72,1.18,1.68Z"/>
          <path class="cls-2" d="M358.14,294.32s.45-.14.54-.18c.66-.32,1.01-1.32,1.08-2.01.07-.69-.48-2.24-.43-2.55,0,0-.21.5-.11,1.1.11.6.46,1.46.33,2.05-.22.96-1.4,1.6-1.4,1.6Z"/>
          <path class="cls-2" d="M358.89,291.94c0-.56-.4-.77-.39-1.21,0,0-.1.37-.12.52-.03.3.35.67.35.98,0,.27-.53.66-.85.66s-.88-.12-.85-.91c.03-.63.85-1.01.86-1.99,0,0-.13.41-.31.69-.18.28-.74.95-.66,1.71.13.91.53,1.08.9,1.08s1.02-.33,1.06-1.54Z"/>
          <rect class="cls-2" x="357.52" y="291.72" width=".61" height=".61" transform="translate(-97.14 371.53) rotate(-49.13)"/>
          <path class="cls-2" d="M368,293.35c-.39,1.41-2.6,1.65-2.6,1.65,0,0,.63.1,1.26.07,1.12-.06,1.36-.84,1.59-1.68.23-.85.57-.88.57-.88l.04-.6c-.34.04-.67.77-.86,1.45Z"/>
          <path class="cls-2" d="M365.5,293.22c0,.18.11.36.25.49-.07.19-.14.38-.15.42,0,.06.12-.18.21-.37.11.08.25.14.39.14.05,0,.6.02,1.06-.68.56-.88.55-1.24.12-1.24-.82,0-1.45,1.26-1.45,1.26-.3-.09-.3-.6-.3-.6-.24,0-.32.68-.68.76,0,0,0,0,0,0-.02,0-.05,0-.07,0-.17,0-.58-.06-.81-1.36-.09-.49-.36-2.09-.36-2.09-.06-.24-.09-.39-.09-.39,0,0-.14.28-.15.59,0,.06.41,2.2.51,2.65.15.72.37,1.18.84,1.18s.59-.75.68-.77ZM366.91,292.53c.47-.11.51.12.51.12,0,0-.6.82-1.36.64,0,0,.43-.66.85-.77Z"/>
          <rect class="cls-2" x="365.71" y="291.02" width=".61" height=".61" transform="translate(-93.78 377.48) rotate(-49.13)"/>
          <rect class="cls-2" x="364.06" y="287.98" width=".61" height=".61" transform="translate(-92.05 375.18) rotate(-49.13)"/>
          <rect class="cls-2" x="361.84" y="287.31" width=".61" height=".61" transform="translate(-92.32 373.27) rotate(-49.13)"/>
          <path class="cls-2" d="M361.51,289.24h0s.29.29.82.22.84-.6.91-.86c0,0,0,0,0,0,.04-.11.07-.23.08-.36.02-.13.07-.47.05-.83.53.26.72-.19.87-.61.15-.42.36-.66.36-.66v-.57c-.2.04-.4,1.29-1,1.33-.16,0-.29-.06-.38-.12-.06-.13-.14-.24-.25-.33l-.12.55s.29.36.41.83c-.04.3-.42,1.08-1.11,1.08-.33,0-.82-.11-1.06-.91-.24-.79.82-1.5.58-2.77,0,0,.02.43-.17.82-.19.39-.54,1.08-.53,1.82.02.75.27,1.16.54,1.39Z"/>
          <path class="cls-2" d="M363.29,285.57c.1.13.19.25.19.25l.06-.19c-.04-.05-.12-.15-.19-.25.04-.13.06-.26.09-.37.07-.32-.1-.31-.29-.23-.2.08-.18.38-.05.54.04.04.08.1.13.16-.32.58-1.21,1.19-1.21,1.19,0,0,.54-.3.91-.59.18-.15.29-.33.37-.52ZM363.08,285.04c.17-.12.36-.01.23.27,0,0,0,.01,0,.02-.11-.15-.22-.29-.22-.29Z"/>
          <path class="cls-2" d="M362.7,290.42c-.13.1-.26.19-.41.27-.16.08-.31.19-.43.32-.06.07-.12.14-.17.21-.05.08-.07.17-.08.26.1-.14.22-.26.34-.36.13-.1.27-.19.42-.27.16-.08.31-.19.43-.32.06-.07.11-.14.16-.22.04-.08.05-.17.07-.26-.09.14-.21.26-.33.37Z"/>
          <path class="cls-2" d="M364.56,290.97s.06-.08.1-.12c.02-.02.04-.04.05-.05l.06-.05c.08-.07.16-.13.24-.18.17-.11.35-.21.54-.29.2-.09.38-.2.55-.34.08-.07.16-.15.22-.24.08-.1.11-.24.12-.3-.03.04-.06.08-.09.12-.03.04-.07.07-.11.11-.07.07-.15.13-.24.19-.17.11-.35.21-.53.29-.2.09-.38.2-.55.34-.08.07-.16.15-.23.23-.08.11-.12.24-.13.3Z"/>
          <path class="cls-2" d="M361.31,295.73c-.15-.58-.16-.9-.16-.9,0,0-.18.42-.01.99.05.18.07.21.11.39.05.28,0,.52,0,.53,0,0,.11-.15.12-.19.08-.17.06-.36.02-.53-.03-.11-.04-.15-.08-.29Z"/>
          <rect class="cls-2" x="364.19" y="296.1" width=".35" height=".35" transform="translate(-98.1 377.93) rotate(-49.13)"/>
          <path class="cls-2" d="M363.45,295.85c-.03-.18-.04-.89.03-1.03,0,0,0,0,0,0,0,0-.02,0-.02,0-.08.05-.18.07-.28.08s-.19-.02-.29-.03c-.21-.02-.26.28-.24.35.07-.05.18-.03.27-.02.08,0,.16.01.23,0,.06,0,.16-.06.16-.06,0,0-.07.26-.04.74.02.45.26.89.28.85.05-.08.08-.17.12-.26,0-.01,0-.02,0-.03-.12-.18-.18-.38-.21-.6Z"/>
          <path class="cls-2" d="M362.39,295.71c0-.06,0-.11-.01-.17,0,0,0,0,0,0-.01-.14-.03-.28-.05-.42,0-.03-.05-.29-.31-.29-.24,0-.34.3-.34.56,0,.52.52.16.52.16,0,.81.28,1.24.3,1.2.05-.08.08-.17.12-.26,0-.01,0-.02,0-.03-.15-.22-.2-.48-.22-.74Z"/>
        </g>
      </g>
    </g>
  </g>
</svg>