<?xml version="1.0" encoding="UTF-8"?>
<svg id="Layer_2" data-name="Layer 2" xmlns="http://www.w3.org/2000/svg" viewBox="0 0 736 430.62">
  <defs>
    <style>
      .cls-1 {
        fill: #dfceaf;
      }

      .cls-2 {
        fill: #c82928;
      }
    </style>
  </defs>
  <g id="Layer_1-2" data-name="Layer 1">
    <g>
      <rect class="cls-2" width="736" height="430.62"/>
      <g>
        <path class="cls-1" d="M366.02,345.22c-24.22-.04-48.93.33-72.8-4.01-4.66-.85-10.13-1.86-14.48-3.69-3.59-1.51-7-3.02-2.71-6.32,8.6-6.61,32.11-9.09,43.04-9.76l23.78-.45s.06-.02.09-.02c1.97.06,3.92.25,5.83.57-.69,3.29.78,9.47,1.67,12-6.76-.06-12.63,5.04-4,8.97,5.56,2.54,12.09,1.68,18.07,2.28l1.51.43Z"/>
        <path class="cls-1" d="M420.14,335.08c-1.78,3.09-14.81,5.83-18.56,6.55-11.33,2.16-23.18,2.94-34.7,3.16l8.67-1.06c5.13-.94,11.89-7,3.24-8.9-1.9-.41.15-1,.65-1.47,3.51-3.33,5.13-7.1,1.32-10.5,1.15.07,2.29.17,3.43.29,3.67.9,11.21,1.54,13.08,1.87,6.26,1.1,14.41,2.89,19.94,6.01,1.58.89,4.1,2.03,2.93,4.05Z"/>
        <path d="M460.14,72.68h-13.63c-2.43-52.99-63.84-82.1-107.55-52.36-16.57,11.27-28.53,31.54-29.7,51.64l-.58.72h-14.07v69c.56.73,1.66.77,2.54.83,3.74.25,8.48-.25,12.42-.19,13.73.19,27.28.15,41.1.03,6.33-.06,8.81,1.44,14.82,2.45,9.17,1.53,19.88,1.5,28.93-.69,2.34-.56,5.04-1.97,7.3-2.22,3-.33,5.88.42,8.64.46,16.8.23,33.63-.21,50.43-.02v-69l-.65-.65ZM298.1,75.87l11.22.27c-.54,10.49,2.48,20.58,6.06,30.28h-17.74l-.41-30.07.87-.48ZM347.41,139.3l-49.77-.65v-28.77h19.91c6.07,12.25,16.59,22.44,28.91,28.44.58.29,1.19-.27.95.98ZM377.85,142.15c-35.87,0-64.94-29.06-64.94-64.91s29.07-64.92,64.94-64.92,64.93,29.07,64.93,64.92-29.07,64.91-64.93,64.91ZM457.76,139.3h-49.33c3.1-2.23,6.57-3.86,9.66-6.13,7.15-5.24,13.48-12.39,18.21-19.87.64-1.01,1.51-2.18,1.56-3.42h19.9v29.42ZM457.76,105.77l-.71.61-17.03.04c3.32-7.58,5.74-15.72,6.49-24.02.18-2.03-.61-4.7.65-6.26h10.6v29.63Z"/>
        <path d="M152.66,62.73h155.79s-1.07,3.04-1.07,3.04l-1.29.44c-50.16,0-99.65.4-149.57.16l-.43,1.3c.09,36.13.03,72.23,0,108.2,0,3.16,1.13,5.89-.86,8.84-.55.11-.73-.05-1.1-.4-1.74-1.68-.74-11.56-.77-14.27-.38-33.28-.42-66.71-.33-100.18,0-1.29.66-2.45-.02-3.63l-3.45-.31v-13.75s-.66-.65-.66-.65l-5.16-.47-.16-8.85c-.1-.39-4.03-.82-2.87-2.88.58-.84,5.65-1.23,6.93-1.29,42.7-2.15,87.29,1.71,129.92-.25l40.39.27c-.11,1.28-.98,3.29-2.41,3.47h-168.97s0,6.48,0,6.48h165.96c.58.07-.42,2.33-.82,2.64-.21.16-3.25.82-3.5.82h-155.58v11.25Z"/>
        <path d="M606.63,51.48v14.06c-.82,1.07-2.28.57-3.46.65l.02,100.17c.1,2.38-1.12,3.28-3.05,1.71v-101.88h-152.33l-.43-3.46h155.58l.65-.65v-9.95l-1.49-.67-130.35-.25c-8.17-.01-18.96,1.25-26.78.3-1.94-.24-1.8-1.8-1.92-3.49h166.18v-6.49l-167.28.02c-2.67-.24-3.49-1.13-4.52-3.48h175.48c.16,0,2.09.7,2.19.84,1.42,3.42-2.36,2.07-2.78,3.33l-.25,8.84-5.44.4Z"/>
        <path d="M285.52,72.2h-118.6v70.58h118.61v-70.58ZM205.46,139.3h-35.05v-29.18h35.05v29.18ZM205.46,106.42h-35.44v-30.28h35.44v30.28ZM208.73,76.14h33.88v30.28h-33.88v-30.28ZM242.71,139.3h-33.78v-29.42h33.78v29.42ZM245.71,75.88l36.37.02-.02,30.54-36.36-.02v-30.54ZM282.25,139.3h-36.54v-29.43h36.54v29.43Z"/>
        <path d="M308,164.37v128.49h58.45v-128.49h-58.45ZM311.06,167.9h24.25v24.61h-24.25v-24.61ZM335.31,289.42h-24.25v-28.55h24.25v28.55ZM335.31,257.64h-24.25v-29.25h24.25v29.25ZM335.33,225.25h-24.27v-29.28h24.27v29.28ZM363.42,289.42h-25.1v-28.55h25.1v28.55ZM363.42,257.84h-25.1v-29.42h25.1v29.42ZM363.42,225.36h-25.1v-29.39h25.1v29.39ZM363.42,192.51h-25.1v-24.58h25.1v24.58Z"/>
        <path d="M469.53,72.68v69.65h119.81v-69.65h-119.81ZM549.51,76.14h36.35v30.28h-36.35v-30.28ZM472.91,76.14h36.35v30.28h-36.35v-30.28ZM509.28,139.3h-36.37v-29.42h36.37v29.42ZM546.48,139.3h-34.23v-29.45h34.23v29.45ZM546.48,106.42h-34.22v-30.28h34.22v30.28ZM586.27,139.32h-36.76v-29.48h36.76v29.48Z"/>
        <path d="M446.73,164.39h-56.26c-.08,0-.77.67-.86.87-.32,42.48-.22,84.87.21,127.19h55.83l.61-.7c.18-.31.14-.69-.02-1.05-.29-.67-.98-1.27-1.45-1.28h-24.68v-28.55h26.62l.65-.65v-95.18l-.65-.65ZM392.42,195.97h24.68v28.99h-24.68v-28.99ZM417.1,289.42h-24.68v-28.55h24.68v28.55ZM417.11,257.64h-24.69v-29.22h24.69v29.22ZM417.11,192.51h-24.69v-24.66h24.69v24.66ZM444.35,257.4h-24.24v-29.41h24.24v29.41ZM444.35,224.96h-24.24v-28.99h24.24v28.99ZM444.35,192.51h-24.24v-24.66h24.24v24.66Z"/>
        <path d="M457.76,154.45h-78.33v160.93c0,.32-3.03.62-3.03-.65v-160.07l-78.76-.22.02,132.18c.11,3.28-2.3,5.98-3.49,1.72.74-45.69-.08-91.14.44-136.93l166.18.22v105.13c0,.73-1.45,1.98-2.33,1.48l-.7-.61v-103.18Z"/>
        <path d="M445.21,323.38c-.04.23-.46.66-.48,1.04-.67.44-2.55-.5-2.55-1.04v-17.52h-49.33v11.03c0,.11-1.25,1.28-1.57,1.48-.44.13-1.46-.94-1.46-1.05v-13.84l.65-.65h54.1l.65.65v19.9Z"/>
        <path d="M600.21,249.27l1.64-.31,1.34,2.16v64.07c.18,1.44-2.41,3.45-2.98,1.64,0-13.29-.3-26.55-.33-39.8-.01-5.46-.17-10.95-.17-16.39,0-1.5.15-10.82.51-11.37Z"/>
        <rect x="359.94" y="376.79" width="67.99" height="3.24"/>
        <path d="M427.69,362.1h-48.26v-5.63c12.31-1.5,26.01-2.58,37.37-7.84,2.51-1.16,6.43-2.74,6.78-5.77.26-2.17.27-9.73-.69-11.44-3.17-5.66-20.65-9.02-26.86-9.92-2.87-.42-7.42-1.08-10.66-1.21-3.01-.38-6.04-.58-9.08-.57-.03,0-.06,0-.09.01-.8-.51-1.46-.91-1.64-.99-4.27-1.94-19.42-2.14-23.56.01-.13.06-.28.17-.43.27-.18-.16-.41-.26-.69-.3-.04-.01-.07-.03-.11-.04-2.77-.49-5.57-.74-8.38-.74-3.43-.34-8.42-.04-11.97.02-9.04.15-18.22,1.09-27.23,2.17-1.07-.65-.08-1.45.1-2.49.64-3.78,1.67-8.69,1.86-12.41.08-1.63.32-4.84-1.08-5.88-2.48-1.85-17.74-1.49-20.11.27-.47.34-.58,1.21-1.18,1.41-1.08.37-3.15-.16-4.48.5.88-1.72,3.28-1.48,4.76-2.38-11.13-10.02-7.2-29.09-22.89-35.5,1.11-6.44,3.89-13.78,3.41-20.3-.33-4.46-1.08-5.99-.88-10.84,1.05-26.12-35.81-31.17-43.9-5.82-1.15,3.61.43,5.82.11,7.52-.15.77-2.21,2.27-2.47,3.97-.62,3.94,3.03,8.6,5.08,11.72.03.27-2.05,4.4-2.35,4.81-1.4,1.87-13.89,6.68-17.04,8.53-3.27,1.91-5.95,4.1-8.17,6.51-.02,0-.03-.01-.05-.02-1.98-.45-4.04-.62-6.08-.45-.09.01-.18.03-.27.05-5.23-.21-11.12.71-16.15,1.05v-32.88h35.05v17.53c0,.18.51.96.74,1.11l2.17-.15c.14-.13.56-.86.56-.96v-58.62h33.75v10.16c0,.73,2.04,1.47,2.74.68l.43-.57v-9.64l.56-.57,36.08.15v37.42h-14.06c-.12,0-1.67.72-1.76.84-.91.85,1.19,2.62,1.76,2.62h14.06v42.62c0,.88,2.72,1.63,3.05-2.15.99-11.14-.3-24.61-.29-36,.05-29.47.51-59.1.3-88.63l-.45-1.29-117.44-.14-.66.65.23,22.81c.72,9.41-1.42,21.62-.11,30.74.11.77.09,1.58.67,2.21.82.38,2.24.45,2.56-.51l-.37-11.4h35.48v37.63h-35.05v-6.7c0-1.08-2.69-3.2-3.03.42-1.14,12.09.46,25.82,0,38.05-.05,1.47-.81,3.1-.41,4.74-8.16,1.77-9.29,5.15-8.12,12.9.94,6.21,2.64,12.59,3.64,18.86,3.3,20.48,5.42,41.15,5.32,61.95h-7.35c.94-3.81,1.98-7.62,2.53-11.52,1.06-7.54,1.53-18.35.94-25.92-.18-2.4-.27-4.03-2.61-5.17-1.42-.7-3.13-1.19-4.98-1.55v-3.63h.22v-66.81h-3.05v63.16c-.11.21-.17.43-.17.68v6.15c-5.42-.63-11.52-.48-15.82-.81l-.88-27.46c1.23-10.68-2.93-23.68.98-33.66.48-1.23,1.53-3.6,2.51-4.41,2.58-2.12,8.32-3.74,11.12-6.21,1.91-.4,4.25,1.54,6.39,1.57,1.91.02,5.19-1.04,4.98-3.37-2.66-.93-5.11-.82-7.79-.01-.48-.48,2.49-3.11,2.95-3.75,1.21-1.65,3.79-6.18,1.23-7.44-3.9,1.63-4.45,5.89-6.25,8.9-1.39,2.32-7.6,5.12-10.25,6.63-.32.18-.74.89-1.09.21,4.28-7.76,8.75-15.88,14.72-22.49,1.32-1.46,2.97-3.61,4.95-3.73,1.84-.1,11.73,1.91,10.14-2.71-.79-2.28-6.09-.56-7.56-.31-.45.08-1.17.29-1.05-.39,2.03-1.05,3.69-3.56,5.65-4.96,2.23-1.59,5.65-2.34,6.88-5.17-3.14-3.04-8.01.01-8.76,3.94l-9.18,8.77c-.51-3.56,2.86-8.9-1.81-10.74-2.7-.25-.76,6.47-.58,7.94.2,1.59-.14,2.95.69,4.57l-7.61,10.35c-1.13.13-.68-.03-.87-.63-.88-2.79.22-3.66.44-6.08.53-6.04-3.62-5.97-4.28-1.26-.38,2.71.62,7.93,2.97,9.52l-10.37,18.35-.68-28.56,15.16-22.54c1.88-.31,3.39.29,5.45-.14,5.03-1.05,8.11-6.64,1.04-4.59-1.69.49-2.94,2.11-4.52,1.97,1.43-1.36,2.24-3.66,3.45-5.08,2.19-2.58,6.69-4.57,5.86-8.98l-.97-.81c-4.22-1.14-6.85,11.4-9.87,13.35-.85.21-.98-2.38-1.02-2.86-.23-2.56.65-5.13-1.77-6.88-1.87-.79-2.29,4.4-2.19,5.63.24,2.87,2.84,5.59,1.98,8.46-.46,1.53-3.64,5.77-4.99,6.9.63-2.66.85-5.93-1.61-7.73-5.26,1.11-1.89,7.87.12,10.79l-6.3,8.62c-.84-12.45-.35-24.89.52-37.33.49-2.22,5.04-2.75,7.04-4.2,1.3-.94,5.15-4.72,4.06-6.43-4.91-1.74-7.48,4.44-10.76,6.86.83-2.37.36-6.05,1.55-8.18,1.86-3.36,10.08-7.32,9.28-11.92-.35-2-2.32-.72-3.44.02l-5.66,8.4c.27-2.22.23-4.79.63-6.94,1.03-5.67,5.82-10.17,3.31-16.16-.69-.6-1.41-.44-1.93.26-2.37,3.25-1.72,9.46-2.45,13.33-.99.18-.69-.06-.96-.56-.7-1.27-2.51-8.78-4.66-7.48-1.97,1.87.53,9.02,1.96,10.62,1.14,1.27,1.52-1.07,2.8-.85-1.12,12.96-4.26,25.9-3.46,38.93-1.23.22-.71-.29-.98-.95-1.83-4.59-3.49-9.25-5.86-13.62-.11-1.75,6.29-5.33,3.14-9.63-2.43-3.32-5.07,3.99-4.53,6.03-.2.28-3.38-5.4-3.45-5.87-.35-2.22,2.92-9.59-.74-10.52-3.1-.78-2.1,6.27-1.43,7.74-.8-.55-1.07-1.43-1.96-2.15-1.32-1.09-3.8-2.71-5.55-2.12-3.24,4.56,4.73,6.16,7.7,7.75l5.43,10.15c-1.4.39-2.83-.88-4.32-1.3-1.73-.49-6.56-1.75-7.59.21-.63,7.76,10.35,2.2,12.79,3.68,1.41.85,4.99,12.48,6.62,14.57l.72,32.37-8.13-12.86c.6-2.49,4.49-13.86.5-14.74-2.71-.6-3.25,7.3-3.62,9-.19.14-.46-.25-.63-.45-.43-.54-4.41-7.62-4.48-8.07-.18-1.18.82-3.43.8-5.09,0-1-.41-3.99-.63-5.02-.41-1.87-1.8-4.63-4.04-3.34-1.66,3.5-.04,7.16,1.63,10.28-.85.2-1.03-.43-1.47-.9-2.18-2.24-4.92-6.6-8.67-6.02-4.89.76,2.18,6.92,4.49,7.6,1.26.37,2.72-.14,3.73.6.95.68,2.29,3.58,3.22,4.57-2.1-.12-3.76-1.16-6-1.26-2.13-.09-6.3.32-4.34,3.37,1.92,2.99,8.22,2.49,11.07,1.21l.79.32,15.56,25.14c.43,5.25.77,10.5,1.11,15.76.04.57.32,2.7-.44,2.83-1.17-3.17-2.83-6.17-4.59-9.05-1.29-2.1-6.42-8.27-6.86-9.57-.79-2.28.73-5.52.64-7.96-.07-1.72-1.12-5.57-3.49-4.37-2.3,2.29-.6,5.76-.21,8.46-2.43-1.54-3.54-4.33-5.83-6.28-2.14-1.82-6.47-4.55-8.6-1.64.44,4.21,5.72,3.97,8.14,5.12,1.44.7,3.77,4.32,5.64,5.18-1.54.61-2.96-.82-4.58-1.05-2.49-.35-5.67-.25-6.14,2.71,2.49,4.57,8.52,1.63,12.45.91,1.27,1.1,9.2,12.63,8.66,13.21-1.09.24-1-.91-1.62-1.31-2.22-1.42-7.57-3.01-9.87-1.3-.41.3-1.09,1.39-.99,1.9.52,2.76,10.62,4.08,12.78,2.51l.78.35c1.16,2.56,3.01,5.42,3.49,8.21.46,2.68.47,6.82.64,9.74.25,4.11-.06,8.26.42,12.35-1,.25-.72-.19-.99-.55-2.24-2.86-3.78-8.1-8.08-8.08-2.91,5.75,8.2,8.94,8.97,12.4l.96,26.95c-6.35.11-13.3.27-19.56,1.42-2.35.43-7.45,1.45-8.04,4.08-.62,2.75-.25,11.37-.11,14.63.23,5.25.94,11.12,1.87,16.3.55,3.01,1.57,5.96,2.04,8.99h-16.23c-.24,0-1.85,1.2-1.92,1.56l1.15,1.38,17.57.17c1.29.39,2.02,3.96,3.33,5.32,5.85,6.11,30.87,5.11,38.5,2.16,4.22-1.63,4.33-3.92,6.29-7.56h8c-.37,4.67-.47,9.39-.86,14.06-.64,7.43-2.33,15.63-2.59,22.93-.04,1.16-.17,2.71.08,3.8.8,3.44,10.19,3.73,12.22.72l3.7-27.67,32.27,6.46,3.42,31.19c.68,2.47,2.9,2.86,5.19,3.04,3.71.28,6.68.28,6.77-4.13.12-6.12-1.33-13.63-1.77-19.9-.53-7.49-.9-15-1.3-22.5l.71-1.02,3.62-.06-2.16,20.99c-.7,5.54,1,7.71,6.7,7.13,2.48-.25,2.59-1.86,5.36-.6.39.18,1.71.99,1.78,1.27-2.37,2.71-2.98,7.23-3.06,10.8-.07,3.06.02,4.29,3.05,5.19,2.09.63,8.08,1.95,9.17.31l.54-.07c6.13,5.15,14.83,5.85,22.56,5.18,4.26-.37,8.85-1.92,6.2-7.1-1.83-3.57-9.51-4.85-12.89-7.44-1.14-.88-5.67-5.37-6.09-6.46-.3-.78.28-.57.61-.69,1.69-.63,3.8.42,4.16-2.31.63-4.68.03-12.72-.08-17.73-.15-6.42-.35-13.53-.81-19.93-.41-5.89-1.24-11.79-2.58-17.52,4.08,3.09,3.53,9.04,4.27,13.59,5.18.1,2.09,5.13,3.51,8.47l-3.03.44v3.02l2.6-.43c-.05.69.31,1.32.38,1.99.8,7.59.36,15.32.9,22.9.25,3.43.93,3.87,4.35,4.53-.01,1.43-1.3,1.96-1.71,3.27-.76,2.47-.52,6.27-.25,8.85.87,1.45,10.34,2.56,12.05,2.15.33-.09.27-.81.57-.87,1.29-.27,4.26,1.9,5.78,2.38,5.02,1.61,13.98,2.58,19.07,1.33,2.36-.57,4.22-1.69,4.22-4.35-.02-6.82-10.28-7.27-14.59-9.56-2.09-1.11-3.9-3.59-5.67-5.15l4.35-1.28.41-.88-1.3-41.75,10.33,1.79c.64,2.35-1.3,9.33,1.58,9.88l30.92-.22c2.09-1.34,1.29-3.2-1.06-3.23l-28.08-.06c-1.36-.45-.45-4.73-.71-6l32.72,2.15-.3,38.04c-5.15.97-20.86,4.11-23.23,9.01-1.46,3.02-.43,5.4,2.2,7.13,10.59,6.98,40.67,6.1,52.46,2.09,3.75-1.27,8.8-3.65,6.8-8.56-2.44-5.94-18.45-7.95-23.93-9.91l-.41-38.65,19.47-.86v5.62h-16.44c-.43,1.38-.9,2.69.74,3.37l67.1-.23c1.89-.88.52-3.14-.11-3.14ZM245.68,154.86h36.81v37.97h-36.81v-37.97ZM208.93,154.97h33.75v37.83h-33.75v-37.83ZM170.08,192.86v-37.55h35.38v37.55h-35.38ZM137.95,321.86c2.51.11,5.06-.14,7.57.01,1.46.09,13.62,1.43,13.63,2.37-.59.71-1.64.8-2.49.97-2.22.44-18.44,2.07-19.14,1.41l.43-4.76ZM115.73,323.22c3.52-.63,8.87-1.12,12.49-1.35,2.22-.14,4.49.09,6.71-.01v4.77c-7.56.28-15.04-.82-22.51-1.74-.13-1.51,2.16-1.46,3.31-1.67ZM158.17,363.06c-1.49,5.25-2.07,8.21-7.66,9.64-8.31,2.14-21.73,2.06-29.96-.34-3.77-1.1-4.28-1.87-5.75-5.51-4.8-11.91-4.71-27.1-4.98-39.79,16.85,3.44,34.69,3.8,51.5,0-.11,11.82.09,24.55-3.15,36ZM263.45,282.5l.89,15.81c-.89,2.68.42,6.65-2.18,8.41l1.29-24.22ZM259.08,231.71c.26.93.09,1.45-.22,1.88-.07.09-.13.16-.21.24,0,.01-.02.02-.02.03-.24.25-.51.48-.75.77-.08.1-.16.21-.23.32-.43.69-.56,1.11-.52,1.4.01.04.02.08.03.12.12.33.48.48.86.75.05.02.1.06.14.1.1.07.2.15.29.25.07.07.14.15.2.24.05.07.1.15.15.24.31.59,1.49,4.97,1.59,5.76.27,2.25-.15,5.2-1.49,7.1l-2.36-1.94c3.81-1.58,3.47-4.03,2.23-7.43-.81-2.21-5.23-7.83-3.44-9.56.39-.37,3.48-1.27,3.75-.27ZM232.73,337c-5.32.06-3.06-6.28-1.93-9.49.44-1.27,3.75-9.22,5.82-7.37-2.36,5.54-5.84,10.48-3.89,16.86ZM236.61,317.23c-1.46-9.01-2.73-18.06-4.44-27.04-1.43-7.49-4-15.65-5.07-23.06-.04-.26-.12-.7.22-.64l9.3,7.35c-.05.01-.11.03-.18.06-.14.05-.29.13-.46.23-.19.11-.39.24-.61.39-.36.26-.75.56-1.14.9-.16.14-.32.27-.47.42-.16.14-.32.29-.47.43l-.12.12c-.11.1-.22.21-.33.33-.13.13-.25.26-.37.39-.16.17-.31.33-.44.48-.08.09-.15.18-.22.27-.22.26-.39.49-.52.7-.05.09-.1.17-.14.25-.05.09-.08.17-.1.24-.03.08-.04.14-.04.2,0,.53.46.62,1.07.22,1.54-1.01,3.59-3.75,4.82-5.23,1.02.09,2.1.44,2.32,1.55.58,7.78,2.3,15.67,3.02,23.37.58,6.1.53,12.28.87,18.38-2.18.01-4.47,1.12-6.5-.31ZM242.01,275.99c.36-1.2,2.92-4.34,3.78-5.74,1.17-1.91,1.66-5.24,4.24-1.37.33,6.36.64,12.66.88,19.02.03.83.41,1.66.44,2.58.26,8.12-.58,16.45.42,24.46l-6.49,1.73c-.1-6.12-.29-12.28-.87-18.38-.44-4.62-3.41-18.9-2.4-22.3ZM247.01,256.54c-.24-1.04.19-.7.56-.97,2.35-1.62,6.78-2.76,8.95-.54-2.99,2.16-6.07,1.98-9.51,1.51ZM253.91,275.79c1.07-.59,2.26-1.01,3.49-1.08l-2.17-7.79c.95-.16,1.19.62,1.52,1.3.38.8,2.19,6.93,1.91,7.32l-5.59,1.33c-.23-1.12.25-.75.84-1.08ZM217.98,239.43c-.13-4.4,6.48-4.26,9.12-2.14,1.12.9.57,1.99,1.54,2.8,3.77-1.11,2.95-9.21,1.83-12.23-1.36-3.7-3.83-4.01-7.26-4.84,2.21-3.93,6.02-7.17,10.26-8.78,8.22-3.11,19.35.32,23.29,8.54.54,1.13,2.16,5.09,1.07,5.86-.74.53-2.64.33-3.67,1.53-3.55,4.12,3.43,9.99,3.64,14.97.14,3.12-6.64.51-8.18,1.22-.79.36-1.44,1.96-2.16,2.63-2.23,2.08-4.75,3.88-6.7,6.27-3.47,2.03-8.78-4.84-8.24-8.25-1.83-1.36-2.27,2.41-2.38,3.7-.5,5.75,1.74,10.81,7.2,13.12,1.17.5,5.06,1.22,5.26,1.43.06.07-.21.61-.08.79.44.59,1.46,1.19,1.4,1.88-.07.71-3.22,5.05-3.97,4.98-.97-.09-4.67-3.04-5.7-3.84-2.4-1.86-6.97-5.55-8.37-8.06-1.86-3.35-2.09-6.84-2.67-10.52l4.47.36,1.15-2.53c-5.3,1.22-10.68-3.79-10.85-8.89ZM216.01,262.32c.08-.76-.1-3.15,1.14-2.75v13.19c1.23,1.06,6.9,2.53,7.33,3.95.37,1.25-2.73,3.08-3.22,4.51-.4,1.19,3.81,10.66,4.55,12.73.72,2,5.69,15.55,5.18,16.23-1.66-1.7-2.71-4.63-3.67-6.92-2.94-7.05-5.02-14.48-7.8-21.59-.18-2.12,4.76-4.13,3.69-5.23l-7.39-2.43c.25-3.76-.2-8.02.19-11.69ZM207.78,311.42l.65-.65c.03-6,.4-12.04-.49-17.99-.54-3.62-2.13-7.04-2.04-10.72.75.12.75.87.98,1.4,3.91,9.14,3.7,19.09,2.96,28.84,2.74,1.05,20.78,3.86,21.58,5.46.5.98-1.43.65-1.89.6-7.87-.88-18.64-5.57-26.4-4.67-2.07.24-3.85,1.41-5.89,1.68,1.92-3.42,6.86-4.08,10.54-3.95ZM187.48,272.52c.35-.05.69-.16,1.02-.3.38.01.76.01,1.14.04.21,0,.43.03.64.05.12.01.24.03.37.04.03.01.06.01.09.02.02,0,.04,0,.05.01-7.13,9.64-8.14,22.27-8.71,35.41-.25,5.57-.5,12.29,1.31,17.53l-4.33.44c-.82-11.82-2.12-23.86-4.02-35.57-.62-3.86-1.5-10.47-3-13.86-.44-.97-1.73-1.65-1.63-2.92,1.09-1.04,14.61-.51,17.07-.89ZM174.21,406.78c-.7,1.84-6.61,1.48-7.18.04l3.38-31.53c.06-1.13.12-2.25.16-3.38.04-1.14.08-2.28.11-3.42.13-4.29.12-8.57.01-12.84-.03-1.83-.09-3.65-.17-5.48-.03-.71-.06-1.41-.1-2.12,0-.18,0-.37-.03-.55-.06-1.26-.13-2.53-.21-3.79-.19-3.12-.43-6.24-.72-9.35-.1-1.11-.2-2.22-.31-3.33-.1-1.05-.21-2.09-.33-3.13-.13-1.2-.26-2.4-.4-3.59-.15-1.32-.31-2.64-.48-3.97-.16-1.32-.33-2.64-.51-3.96-.2-1.47-.4-2.94-.61-4.42-.27-1.9-.55-3.8-.84-5.69-.29-1.9-.59-3.79-.89-5.69-1.01-6.26-3.61-14.9-3.79-20.89-.08-2.42,1.61-5.53,4.2-5.75,4.31-.35,5.53,10.2,6.07,13.24,1.04,5.79,1.94,12.24,2.67,18.09.64,5.12,2.62,16.61,1.78,21.12-.34,1.82-2.48,3.21-2.14,6.03.34,2.77,3.15,4.17,3.87,6.11.63,1.7.8,8.07.9,10.36.82,19.53-1.5,38.65-4.44,57.89ZM179.39,328.46c5.82-1.06,6.32,1.33,10.63,3.44,7.03,3.45,19.03,4.63,26.91,5.1,2.43.14,8.69-1.54,6.28,2.82-.76.46-5.03.25-6.29.19-11.72-.53-24.37-4.11-36.24-4.84-4.06-.21-5.66-5.92-1.29-6.71ZM185.75,354.73c1.35.18,2.28,2.57,4.01,2.95,1.91.42,5.01.25,7.21.58,4.55.7,9.06,1.89,13.69,2.11l.43,9.09-29-5.41-.43-8.87,4.09-.45ZM180.79,338.3c1.27.25,5.58-.64,6.02.72l-.88,12.63-4.26.93-.88-14.28ZM180.77,377.85c.46-3.4.94-7.26.46-10.56l30.26,5.66.9,11.21-31.62-6.31ZM218.57,415.84c-1.03-4.64-1.36-11.4-1.85-16.32-1.64-16.47-3.33-34.14-3.9-50.61-.07-1.92-.78-3.66.02-5.82l6.91.4,5.19,75.28c-3.65-.2-5.46,1.18-6.37-2.93ZM224.91,371.44l-1.28-9.13.72-1.04,10.14,1.02.65,7.62-10.23,1.53ZM235.26,398.59l-.64.65c-1.8.25-3.56.24-4.93-1.06l2.79-24.43,2.85-.41-.07,25.25ZM236.19,359.71c-.2-.97,3.17-3.29,4.33-2.8-.36.64-3.91,4.87-4.33,2.8ZM266.27,337.43c-1.89-3.41-2.63-6.84-5.19-9.95-1.04-1.26-6.78-6.46-8.41-5.15l-.28,1.28c3.74,1.32,6.97,4.06,8.98,7.47,1.12,1.9,3.52,7.31.56,8.52-.91.37-.56-.63-.65-1.06-1.01-4.71-1.24-7.95-5.92-10.53-.84-.47-5.88-2.68-5.32-.31.09.39,4.05,2.26,4.9,2.89,2.91,2.16,4.39,4.86,4.18,8.58-2.55.38-2.33-2.45-4.09-4.34-1.29-1.37-6.83-5.7-7.12-1.97l7.72,5.07c-.69,5.35-4.42-.15-6.75-1.28-4.58-2.24-8.75,1.46-13.35-.07-2.03-2.68,1.53-13.54,4.09-15.39.78-.56,1.28-.65,2.17-.86,2.44-.58,9.7-2.01,11.91-1.95,5.23.16,10.4,8.1,12.29,12.42.86,1.97,2.42,5.13.28,6.63ZM384.19,323.15c3.67.9,11.21,1.54,13.08,1.87,6.26,1.1,14.41,2.89,19.94,6.01,1.58.89,4.1,2.03,2.93,4.05-1.78,3.09-14.81,5.83-18.56,6.55-11.33,2.16-23.18,2.94-34.7,3.16l8.67-1.06c5.13-.94,11.89-7,3.24-8.9-1.9-.41.15-1,.65-1.47,3.51-3.33,5.13-7.1,1.32-10.5,1.15.07,2.29.17,3.43.29ZM376.41,324.03c7.17.69,2.4,7.21-1.73,8.65,1.06-2.91,2.17-5.43,1.73-8.65ZM352.83,320.56c6.43-1.43,13.98-.22,20.54.01.38,1.12-1.34,1.07-2.06,1.17-2.92.42-17.57,1.25-19.14-.31-.11-1.13-.03-.71.66-.87ZM352.2,323.77c6.94,1.76,14.59,1.06,21.6-.17-.13,6.13-3.03,14.27-10.24,14.54-8.98.34-11.12-6.29-12.24-13.9l.88-.47ZM351.5,336.13c1.52.68,2.17,1.96,3.69,2.84,3.52,2.02,11.41,2.32,14.87.13.97-.62,1.54-1.86,2.67-2.08,1.14-.22,7.57.49,7.56,1.5-.98.77-2.44,1.61-3.59,2.02-5.44,1.97-26.57,2.09-31.17-1.44-.49-.37-.89-.45-.72-1.22l6.69-1.75ZM319.07,321.44l23.78-.45s.06-.02.09-.02c1.97.06,3.92.25,5.83.57-.69,3.29.78,9.47,1.67,12-6.76-.06-12.63,5.04-4,8.97,5.56,2.54,12.09,1.68,18.07,2.28l1.51.43c-24.22-.04-48.93.33-72.8-4.01-4.66-.85-10.13-1.86-14.48-3.69-3.59-1.51-7-3.02-2.71-6.32,8.6-6.61,32.11-9.09,43.04-9.76ZM286.23,301.59c1.13-.75,14.02-.7,14.87-.06,1.12.84-2.41,1.26-2.82,1.3-1.43.12-12.21.45-12.75,0-.15-.7.18-.9.7-1.24ZM301.1,304.13c-.8,3.25-.12,14.66-3.87,15.81-1.71.52-9.2.45-10.42-.88l-2.15-14.06c5.44.66,11.19.96,16.44-.87ZM271.88,319.72c-.53-2.08-2.85-11.73-2.15-12.99,1.11-1.99,10.89-3.91,12.74-1.47l-.84,2.12c-1.29.77-8.8-.86-7.76,2.56.24.78.75.51,1.26.5,2.58-.1,5.22-.38,7.78-.67.22,1.33.79,2.56-.08,3.78-1.24.61-5.61.2-5.94,1.66-.7,3.1,9.21-1.45,6.42,2.93-1.49,2.33-7.32,1.27-4.89,4.11l4.94-1.25c-.54,3.11-7.42,3.74-9.51,2.8-1.29-.57-1.65-2.83-1.97-4.08ZM355.41,354.5c-20.24.27-58.04-.43-76.04-8.97-3.4-1.61-6.38-2.77-5.52-7,.33-1.6,1.13.06,2.01.57,11.99,6.96,39.58,8.19,53.61,8.7,23.29.86,47.33,1.27,70.38-2.71,7-1.21,14.09-2.8,20.26-6.35,1.39,4.81-1.42,6.18-5.4,7.79-16.06,6.51-41.92,7.74-59.3,7.97Z"/>
        <path class="cls-1" d="M183.39,325.32l-4.33.44c-.82-11.82-2.12-23.86-4.02-35.57-.62-3.86-1.5-10.47-3-13.86-.44-.97-1.73-1.65-1.63-2.92,1.09-1.04,14.61-.51,17.07-.89.35-.05.69-.16,1.02-.3.38.01.76.01,1.14.04.21,0,.43.03.64.05.12.01.24.03.37.04.03.01.06.01.09.02.02,0,.04,0,.05.01-7.13,9.64-8.14,22.27-8.71,35.41-.25,5.57-.5,12.29,1.31,17.53Z"/>
        <path d="M354.55,302.83c.23.04.66.46,1.04.48.44.67-.5,2.55-1.04,2.55h-40.46v11.03l-.7.62-1.89-.41v-13.63l.65-.65h42.41Z"/>
        <path d="M303.05,380.27c-.73-.21-1.37-1.79-1.05-2.56.99-1.46,12.92-.44,14.9-.44,2.13,0,4.42-.73,6.52-.02l15.94-.43c2.72.32,2.56,3.45,1.34,3.45h-37.65Z"/>
        <path d="M386.68,235.02c1.34,1.33-.17,2.7-.35,3.98-.53,3.75-.53,19.23,0,22.97.15,1.03.98,1.74.91,2.55-.13,1.55-3.09,3.44-4.39,1.8-1.19-1.51.32-3.11.5-4.77.56-5.14.48-17.33-.02-22.54-.1-1.06-.88-1.96-.87-2.59.03-1.72,3.01-2.6,4.21-1.4Z"/>
        <path d="M371.5,234.55c2.61-.22,1.44,3.77,1.42,4.89-.15,7.47-.14,15.06,0,22.53.05,2.48,1.65,4.54-1.94,5.38-3.39-1.33-1.29-3.14-1.04-5.37.65-5.82.33-16.91-.02-22.97-.09-1.56-1.42-1.94-.03-3.45.34-.37,1.13-.97,1.6-1.01Z"/>
        <path d="M364.15,302.9c4.37-1.25-.91,5.12-1.09,6.31-.39,2.63,2.7,4.4,1.62,5.89-2.03,2.8-4.65-3.09-4.65-5.13,0-1.81,2.35-6.56,4.12-7.07Z"/>
        <path class="cls-1" d="M161.32,327.06c-.11,11.82.09,24.55-3.15,36-1.49,5.25-2.07,8.21-7.66,9.65-8.3,2.13-21.72,2.06-29.96-.35-3.77-1.1-4.28-1.86-5.74-5.51-4.81-11.92-4.71-27.1-4.98-39.8,16.85,3.44,34.68,3.81,51.49,0Z"/>
        <rect class="cls-1" x="245.68" y="154.86" width="36.82" height="37.98"/>
        <rect class="cls-1" x="170.08" y="155.31" width="35.38" height="37.55"/>
        <rect class="cls-1" x="208.92" y="154.97" width="33.76" height="37.83"/>
        <path class="cls-1" d="M257.83,228.64c1.09-.77-.53-4.73-1.07-5.86-3.94-8.22-15.07-11.65-23.29-8.54-4.24,1.61-8.05,4.85-10.26,8.78,3.43.83,5.9,1.14,7.26,4.84,1.12,3.02,1.94,11.12-1.83,12.23-.97-.81-.42-1.9-1.54-2.8-2.64-2.12-9.25-2.26-9.12,2.14.17,5.1,5.55,10.11,10.85,8.89l-1.15,2.53-4.47-.36c.58,3.68.81,7.17,2.67,10.52,1.4,2.51,5.97,6.2,8.37,8.06,1.03.8,4.73,3.75,5.7,3.84.75.07,3.9-4.27,3.97-4.98.06-.69-.96-1.29-1.4-1.88-.13-.18.14-.72.08-.79-.2-.21-4.09-.93-5.26-1.43-5.46-2.31-7.7-7.37-7.2-13.12.11-1.29.55-5.06,2.38-3.7-.54,3.41,4.77,10.28,8.24,8.25,1.95-2.39,4.47-4.19,6.7-6.27.72-.67,1.37-2.27,2.16-2.63,1.54-.71,8.32,1.9,8.18-1.22-.21-4.98-7.19-10.85-3.64-14.97,1.03-1.2,2.93-1,3.67-1.53ZM226.67,244.42c-1.71.39-1.8-1.21-2.6-1.94-1.03-.93-2.85-1.47-2.6-3.24,4.15-1.49,5.35,1.54,5.2,5.18ZM244.17,238.39c-1.59-1.05-.7-3.18.52-3.42,2.8-.54,2.17,5.19-.52,3.42ZM244.63,231.45c-1.27.11-2.38.51-3.53,1.03-.11.06-.13.52-.26.58-1.51.69-2.42-.55-1.59-1.76,1.47-2.16,10.3-3.22,10.79-.93.39,1.88-4.41,1-5.41,1.08Z"/>
        <path class="cls-1" d="M165.5,273.95c4.31-.36,5.52,10.19,6.07,13.23,1.04,5.79,1.94,12.25,2.67,18.1.64,5.12,2.61,16.61,1.77,21.12-.34,1.83-2.48,3.21-2.14,6.04s3.15,4.16,3.87,6.11c.63,1.69.8,8.07.89,10.35.82,19.53-1.5,38.65-4.44,57.89-.7,1.84-6.61,1.48-7.18.04l3.38-31.53c1.41-25.05-1.35-50.04-5.31-74.71-1.01-6.26-3.61-14.9-3.79-20.88-.07-2.42,1.62-5.53,4.21-5.75Z"/>
        <path class="cls-1" d="M420.11,338.74c1.39,4.81-1.41,6.18-5.4,7.8-16.06,6.51-41.92,7.74-59.3,7.97-20.25.27-58.04-.43-76.04-8.97-3.4-1.61-6.38-2.77-5.52-7,.33-1.6,1.13.06,2,.57,12,6.96,39.58,8.19,53.61,8.71,23.29.85,47.33,1.26,70.39-2.71,6.99-1.21,14.08-2.8,20.26-6.35Z"/>
        <path class="cls-1" d="M219.74,343.5l5.19,75.28c-3.65-.21-5.45,1.18-6.37-2.94-1.03-4.64-1.36-11.4-1.85-16.32-1.63-16.46-3.32-34.14-3.9-50.61-.07-1.92-.78-3.66.03-5.82l6.9.4Z"/>
        <path class="cls-1" d="M252.67,322.33l-.28,1.28c3.74,1.32,6.97,4.06,8.98,7.47,1.12,1.9,3.51,7.31.56,8.52-.92.37-.56-.63-.65-1.06-1.01-4.71-1.24-7.95-5.92-10.53-.85-.47-5.89-2.68-5.32-.31.09.39,4.05,2.26,4.9,2.89,2.91,2.15,4.39,4.86,4.18,8.58-2.55.37-2.33-2.45-4.1-4.34-1.28-1.37-6.83-5.7-7.12-1.97l7.72,5.07c-.68,5.35-4.42-.15-6.74-1.29-4.59-2.23-8.75,1.47-13.35-.06-2.04-2.68,1.53-13.54,4.09-15.4.78-.56,1.28-.65,2.17-.86,2.44-.58,9.7-2.01,11.91-1.94,5.23.16,10.4,8.1,12.29,12.41.87,1.98,2.42,5.13.28,6.64-1.89-3.41-2.63-6.84-5.19-9.95-1.04-1.26-6.78-6.46-8.41-5.16Z"/>
        <path class="cls-1" d="M236.62,273.84c-1.4.34-5.63,4.35-5.61,5.42,0,.53.47.61,1.07.22,1.54-1.01,3.59-3.75,4.82-5.23,1.02.09,2.1.44,2.32,1.55.58,7.77,2.3,15.66,3.03,23.36.58,6.1.53,12.29.87,18.38-2.18.02-4.47,1.12-6.5-.3-1.46-9.01-2.73-18.07-4.44-27.04-1.43-7.49-4-15.65-5.07-23.06-.04-.26-.13-.71.21-.64l9.31,7.35Z"/>
        <path class="cls-1" d="M211.48,372.95l.9,11.21-31.62-6.31c.46-3.39.95-7.26.46-10.56l30.26,5.66Z"/>
        <path class="cls-1" d="M251.35,290.48c-.03-.92-.41-1.75-.44-2.58-.24-6.36-.55-12.66-.88-19.02-2.58-3.87-3.07-.54-4.24,1.37-.86,1.4-3.42,4.54-3.78,5.74-1.01,3.4,1.96,17.68,2.4,22.3.58,6.1.77,12.26.87,18.38l6.49-1.73c-1-8.01-.16-16.34-.42-24.46ZM249.6,279.03c-.83.18-1.03-.42-1.47-.9-.66-.73-4.01-4.33-3.28-5.15,1.56-.11,5.32,5.43,4.75,6.05Z"/>
        <path class="cls-1" d="M210.66,360.37l.43,9.09-29.01-5.4-.43-8.88,4.09-.44c1.35.18,2.28,2.57,4.01,2.95,1.91.42,5.02.25,7.21.58,4.55.7,9.06,1.88,13.69,2.1Z"/>
        <path class="cls-1" d="M373.8,323.6c-.13,6.13-3.03,14.27-10.24,14.54-8.99.34-11.13-6.29-12.24-13.9l.88-.47c6.94,1.76,14.59,1.07,21.61-.17Z"/>
        <path class="cls-1" d="M301.1,304.13c-.8,3.25-.12,14.66-3.87,15.81-1.71.52-9.2.45-10.42-.88l-2.15-14.07c5.44.66,11.19.96,16.44-.87Z"/>
        <path class="cls-1" d="M282.9,309.78c.23,1.32.8,2.56-.08,3.78-1.24.61-5.61.19-5.94,1.65-.7,3.11,9.21-1.45,6.42,2.93-1.49,2.33-7.32,1.27-4.89,4.12l4.94-1.25c-.54,3.11-7.42,3.73-9.51,2.8-1.28-.57-1.65-2.84-1.97-4.09-.53-2.07-2.85-11.73-2.14-12.99,1.11-1.98,10.89-3.91,12.74-1.46l-.84,2.11c-1.29.77-8.8-.86-7.76,2.56.24.79.75.52,1.26.5,2.57-.09,5.22-.38,7.77-.67Z"/>
        <path class="cls-1" d="M179.38,328.46c5.82-1.06,6.32,1.33,10.63,3.44,7.03,3.45,19.03,4.64,26.92,5.1,2.43.14,8.68-1.54,6.28,2.82-.76.46-5.03.25-6.29.19-11.73-.54-24.38-4.12-36.24-4.84-4.06-.21-5.67-5.92-1.3-6.71Z"/>
        <path class="cls-1" d="M235.32,373.35l-.07,25.25-.64.65c-1.8.25-3.56.24-4.93-1.06l2.8-24.43,2.84-.41Z"/>
        <path class="cls-1" d="M209.84,312.31c2.74,1.05,20.78,3.86,21.59,5.46.49.98-1.43.65-1.9.6-7.87-.88-18.64-5.57-26.4-4.67-2.07.24-3.85,1.4-5.89,1.68,1.92-3.43,6.86-4.08,10.54-3.95l.65-.65c.03-6,.39-12.05-.49-17.99-.54-3.62-2.13-7.05-2.04-10.72.75.12.75.86.98,1.4,3.91,9.14,3.7,19.09,2.96,28.84Z"/>
        <polygon class="cls-1" points="224.35 361.27 234.48 362.29 235.14 369.92 224.91 371.44 223.62 362.32 224.35 361.27"/>
        <path class="cls-1" d="M344.81,337.88l6.68-1.75c1.52.68,2.17,1.96,3.69,2.84,3.52,2.02,11.42,2.33,14.87.13.97-.62,1.55-1.86,2.67-2.08s7.57.49,7.56,1.5c-.98.77-2.44,1.6-3.59,2.02-5.43,1.96-26.56,2.08-31.17-1.44-.49-.37-.89-.45-.72-1.22Z"/>
        <path class="cls-1" d="M217.15,259.57v13.19c1.23,1.06,6.9,2.53,7.33,3.95.38,1.24-2.73,3.07-3.22,4.51-.4,1.19,3.8,10.66,4.55,12.73s5.69,15.54,5.18,16.23c-1.66-1.7-2.71-4.63-3.67-6.93-2.94-7.04-5.02-14.48-7.81-21.58-.18-2.12,4.76-4.14,3.69-5.23l-7.39-2.43c.25-3.76-.21-8.02.19-11.7.08-.76-.09-3.15,1.14-2.75Z"/>
        <path class="cls-1" d="M134.92,321.87v4.76c-7.55.28-15.04-.81-22.5-1.73-.13-1.51,2.16-1.46,3.31-1.67,3.52-.63,8.87-1.13,12.49-1.36,2.22-.14,4.49.09,6.71,0Z"/>
        <path class="cls-1" d="M137.52,326.63l.43-4.76c2.51.11,5.06-.15,7.57,0,1.46.09,13.62,1.43,13.63,2.38-.59.7-1.64.8-2.49.96-2.22.44-18.44,2.07-19.14,1.41Z"/>
        <path class="cls-1" d="M185.93,351.66l-4.26.93-.87-14.28c1.27.25,5.57-.64,6.02.71l-.88,12.64Z"/>
        <path class="cls-1" d="M236.62,320.14c-2.36,5.54-5.84,10.49-3.89,16.87-5.32.06-3.06-6.28-1.93-9.5.45-1.27,3.75-9.22,5.82-7.37Z"/>
        <path class="cls-1" d="M373.37,320.57c.38,1.12-1.34,1.07-2.06,1.17-2.92.42-17.57,1.25-19.14-.32-.11-1.13-.03-.71.66-.86,6.43-1.43,13.98-.22,20.54,0Z"/>
        <path class="cls-1" d="M255.33,231.98c.39-.37,3.47-1.27,3.75-.27.53,1.9-.74,2.11-1.43,3.23-1.41,2.27.37,1.64,1.15,3.1.31.59,1.49,4.97,1.59,5.76.28,2.25-.14,5.2-1.48,7.1l-2.36-1.95c3.81-1.58,3.47-4.03,2.23-7.43-.81-2.21-5.23-7.83-3.44-9.56Z"/>
        <path class="cls-1" d="M262.16,306.73l1.29-24.22.89,15.81c-.89,2.68.42,6.65-2.18,8.42Z"/>
        <path class="cls-1" d="M301.1,301.54c1.12.84-2.42,1.26-2.82,1.29-1.44.12-12.21.45-12.76,0-.14-.7.18-.9.7-1.24,1.13-.75,14.02-.69,14.88-.05Z"/>
        <path class="cls-1" d="M374.67,332.69c1.07-2.91,2.17-5.43,1.73-8.65,7.17.7,2.41,7.21-1.73,8.65Z"/>
        <path class="cls-1" d="M247.01,256.54c-.24-1.03.19-.7.56-.96,2.35-1.63,6.78-2.77,8.95-.55-2.99,2.17-6.07,1.98-9.51,1.51Z"/>
        <path class="cls-1" d="M258.66,275.54l-5.59,1.33c-.22-1.12.25-.75.84-1.08,1.07-.58,2.26-1.01,3.48-1.08l-2.16-7.78c.95-.16,1.19.61,1.52,1.29.38.8,2.19,6.93,1.91,7.32Z"/>
        <path class="cls-1" d="M240.51,356.92c-.36.63-3.9,4.87-4.33,2.8-.2-.97,3.17-3.29,4.33-2.8Z"/>
        <path class="cls-1" d="M539.56,260.87c9.21,3.81,18.99,6.33,23.14,16.45s3.14,30.1.97,41.19c-1.15,5.86-2.29,10.24-8.42,12.35-8.91,3.07-20.37,2.01-29.7,2.19l-.69-.64c1.48-6.11-2.56-11.2-6.95-14.87,4.56-.81,9.1-1.89,13.69-2.54,4.34-.61,9.29-1.6,13.48-.18,1.55.53,5.02,3.61,5.67,1.12.85-3.21-8.4-3.91-9.61-4.54-.58-.3-.61-.34-.74-.99-.52-2.67,1.09-6.98.44-9.95.45-4.76,1.81-11.32,3.81-15.66.86-1.87,4.39-5.69,3.66-7.36-.21-.48.03-.69-.76-.55-8.97,8.99-9.56,22.61-9.74,34.61-6.11.83-14.88,1.16-20.55,3.47-2.52,1.03-2.5,4.04-5.42,3.45,1.56-7.06,1.6-14.41,1.73-21.63,5.34.55,2.92-7.19,3.48-10.53l-2.2-.96c2.12-13.37,16.94-20.01,18.63-33.07,5.06,3.78,3.45,10.31,1.85,15.48-.45,1.47-2.72,7.91-4.23,7.9-1.18-.01-4.5-4.23-6.69-3.27-.94.41-6.19,7.62-6.42,8.76-.47,2.33.38,2.7,2.02,1.15,1.33-1.26,4.03-6.3,5.12-6.59,2.51-.68,5.26,4.65,8.37,2.34,2.85-2.12,5.07-13.45,6.04-17.11Z"/>
        <path class="cls-1" d="M510.13,291.37c.18-3.01,2.16-7.93,2.16-9.52.01-4.57-1.69-8.89-2.83-13.18-.28-1.08-.4-4.93-1.31-5.16-1.48.7-3.47-.19-4.47,1.08-1.94,2.47-1.89,6.28-1.77,9.25,3.65-2.47,5.11-1.09,7,2.3.86,1.56,2.51,4.45.57,5.48l-4.09-5.84h-.01c-1.06.45-1.97.64-2.76.64-.19,0-.37-.01-.55-.04h-.02c-.13-.02-.25-.04-.37-.08-.1-.02-.2-.05-.3-.09-.03-.01-.06-.02-.09-.03-.1-.04-.19-.08-.29-.13-.12-.06-.24-.13-.35-.21-.13-.09-.25-.19-.37-.3-.01-.02-.03-.03-.04-.04-.08-.08-.16-.17-.24-.27-.06-.07-.11-.14-.16-.22-.16-.22-.3-.47-.41-.73-.11-.26-.21-.53-.28-.83-.35-1.37-.28-3.07.16-4.79-.75-.76-5.36,3.33-6.07,4.09-4.63,4.96-7.49,15.28-10.3,21.72-.53,1.2-2.57,4.36-2.68,5.15-.25,1.72,3.87,4.97,5,7.09.62,1.18,2,6.08-.25,4.57-.32-.22-3.65-5.27-4.52-6.29-.92-1.08-6.07-6.91-6.94-6.84-3.13,4.21-6.69,7.58-11.06,10.48-1.54,1.02-3.99.85-3.11,3.14.43,1.11,5.85,7.37,7.03,8.59,6.17,6.38,12.78,5.4,20.78,7.56-.12-2.82,2.55-4.99,3.33-7.27.65-1.88.36-3.89.76-5.73.35-1.61,1.87-2.82,1.98-3.68.27-2.01-.83-7.46-.89-9.91-.13-4.69-.46-11.77.75-16.16.11-.4.02-1.33.77-.94,1.78.93.95,9.72,1.07,11.91.27,4.75,1.47,9.97.9,14.7-.21,1.71-1.38,2.68-1.65,3.98-.23,1.12.07,2.29-.14,3.32-.81,4-2.83,6.93-4.28,10.64l19.39-9.81c.18-2.29.7-4.57.94-6.84.31-2.88,1.46-13.04,1.13-15.16-.25-1.62-1.32-2.14-1.12-5.6ZM500.88,316.18c-.53-.09-4.47-1.01-2.16-1.61.94-.25,6.66,0,6.64,1.02-.77,1.38-3.07.85-4.48.59Z"/>
        <path class="cls-1" d="M530.44,252.91c-.21-1.9-1.71-3.6-2.18-5.42-2.83-.12-6.74,3.96-6.88-.9,6.2,1.89,12.98-12.73,6.29-13.44-3.65-.39-4.98,1.87-6.5,4.64-.64.31-4.25-1.23-4.48-1.66-.35-.62.34-1.45.12-2.11-.19-.56-1.91-2.33-2.44-3.57-1.48-3.5-1.7-7.58-.35-11.11-.82-.73-9.64.89-11.48.81-1.55-.07-5.11-1.53-6.16-.28-.05.06-.19.4-.37.88-.05.14-.1.29-.16.45-.24.65-.51,1.45-.78,2.23-.06.2-.13.39-.19.59-.41,1.24-.74,2.32-.74,2.47.04.84,1.39,1.98,1.62,3.12.78,3.99-4.81,10.31-5.98,14.16l6.5,1.09c-1.09,2.23-1.52,2.55-1.29,5.4.3,3.69.69,7.78,4.02,9.82,4.21,2.59,7.45,1.22,11.41-.87.72-.38,4.11-3.32,4.47-1.58.1.52-2.81,3.47-3.05,5.16-.73,5.17,3.01,9.3,2.62,14.52,2.04-2.55,3.49-5.57,5.44-8.19,3.14-4.2,11.13-10.72,10.54-16.21ZM525.59,236.28c1.98-.4,2.39,1.82,1.78,2.47-.14.15-1.02-.01-1.44.48-.72.83-.52,3.48-2.82,3.03-.02-1.92.18-5.51,2.48-5.98ZM495.85,250.49l6.05-.87c1.3,1.85-6.77,5.51-6.05.87ZM503.86,235.75c-1.37,4.05-5.03.46-2.72-2.04,1.02-1.1,3.22.54,2.72,2.04ZM507.96,232.31c-.73.53-2.97-1.81-4.21-2.06-2.45-.5-4.27,1.18-5.73-1.18,2.41-2.22,6.11-1.7,8.61.03.86.59,2.5,2.37,1.33,3.21Z"/>
        <path class="cls-1" d="M577.64,415.31c-1.26-9.56-3.08-19.15-3.89-28.77s-1.33-20.27-.87-29.41c.17-3.41.92-14.55,1.83-17.21.36-1.06,2.2-2.06,2.86-3.19,1.14-1.96,1.55-5.09.26-7.07-.94-1.44-1.68.08-1.51-3.27.31-6.27,2.02-15.15,3.16-21.5.66-3.67,3.6-19.42,5.62-21.42,1.84-1.83,5.62-1.11,6.58,1.19,1.02,2.43-2.41,14.22-3.1,17.65-7.17,35.59-9.95,65.2-5.26,101.47.29,2.25,1.92,8.35,1.69,10-.34,2.38-5.64,1.3-7.37,1.52Z"/>
        <path class="cls-1" d="M530.68,342.64l-7.57,76.8-.21.66c-1.62,1.08-3.72.94-5.58.79l-.65-.65c-.07-11.13,1.95-22.19,2.96-33.26.71-7.75,1.05-15.58,1.75-23.35.6-6.73,1.81-13.48,1.71-20.25.09-.29.98-.73,1.1-.73h6.49Z"/>
        <path class="cls-1" d="M512.57,336.86c-1.78,1.82-4.17,2.11-6.05,3.25-3.66,2.22-6.25,5.54-9.16,8.58-2.13-1.31.56-4.21,1.73-5.62.42-.51,6.03-5.11,3.46-5.62-4.28,2.79-6.76,7.35-10.39,10.81l-1.04-.7c-.6-2.04,3.15-6.35,4.5-7.95s4.33-3.03,3.25-5.18c-.75-.19-.87.31-1.3.64-1.42,1.1-3.71,3.57-4.98,4.97-1.15,1.27-3.37,5.34-4.82,5.52-2.27.27-1.56-2.51-.78-3.76,1.59-2.56,7.98-6.55,8.79-8.52.23-.56.25-1.24-.57-1.01l-7.58,5.62c-.11-2.63,1.35-4.48,3.25-6.05,3.26-2.68,19.45-10.33,23.57-11.08,5.59-1.02,9.87,9.32,6.75,11.53-3.12,2.21-4.31-2.61-4.79-2.62-2.16,2-1.71,5.01-3.83,7.19Z"/>
        <path class="cls-1" d="M569.85,361.67v9.3c-1.68,1.22-4.55.53-6.7.65-5.88.33-11.84,1.11-17.73,1.31-4.68.16-9.41-.16-14.09-.02.04-1.35.26-8.91,1.15-9.11l37.36-2.14Z"/>
        <path class="cls-1" d="M515.76,337.03c1.76-.02,4.39-1.2,5.88-1.3,11.45-.82,21.64.94,33.58-2.3,5.34-1.45,5.89-1.99,11.8-2.48,2.56-.21,8.59-2.08,8.91,1.51.22,2.39-.86,3.34-2.97,3.99-3.1.95-9.38,1.46-12.86,1.85-12.08,1.36-27.79,2.72-39.8,1.73-2.16-.18-4.8-.23-4.54-3.01Z"/>
        <path class="cls-1" d="M445.64,285.97c-.56,4.04,8.18,1.38,9.12-.19.59-.99.03-2.7,1.04-2.4,1.43.43,3.2,1.75,4.63,2.3s4.85.28,4.7,3.06c-.17,2.98-7.02,7.81-9.75,8.8-.99-.8-1.38-1.81-2.4-2.68-3.53-2.99-11.63-4.7-8.52-10.31,1.1-2,7.4-3.4,8.36-2.07,1.76,2.45-5.85,3.35-7.16,3.49Z"/>
        <path class="cls-1" d="M518.34,363.84l-.41,8.79-1.19.61-23.49-4.45c-.29-1.16,2.49-4.2,3.77-4.43l21.33-.52Z"/>
        <path class="cls-1" d="M457.33,270.39c5.13,1.59,10.38.61,15.58.2.57.38.28.66.25,1.1-.13,2.14-2.13,9.25-3.75,10.57s-6.01,1.38-7.96,1.08c-4.72-.73-3.12-9.55-4.13-12.95Z"/>
        <path class="cls-1" d="M571.58,340.04l-1.3,17.3c-1.63-.66-2.98-1.51-4.74-1.96-1.13-.28-4.68-.47-5.23-.83-.93-.61.36-4.39.45-5.65.08-1.1-.08-7.21.19-7.6l10.63-1.26Z"/>
        <path class="cls-1" d="M533.16,401.37c-.16-.2-.72-2.32-.84-2.83-.81-3.36-2.17-10.87-2.29-14.17-.04-1.04.6-8.11.9-8.41l3.89.18c1.1.69,3.28,22.12,3.88,25.11.21,2.01-5.2.53-5.54.12Z"/>
        <path class="cls-1" d="M468.44,291.3c.66.59,2.68,3.18,2.73,3.99.21,3.41-9.3,11.51-12.5,12.07-2.16.38-5.07-4.98-4.31-6.2,5.07-2.17,9.95-5.84,12.94-10.44.09-.07.94.4,1.13.57Z"/>
        <path class="cls-1" d="M639.52,324.89c-7.98,1.37-16.11,1.82-24.24,1.74v-4.76c6.14-.08,12.27-.08,18.33.93,1.91.32,4.91.34,5.9,2.1Z"/>
        <path class="cls-1" d="M612.26,321.87l.43,4.76-19.04-1.73c-.12-.88-.08-.71.54-.97,1.79-.76,17.43-2.71,18.07-2.06Z"/>
        <path class="cls-1" d="M485.46,416.62c-5.54,3.89-14.59,8.15-21.4,8.67-2.27.17-13.11.03-14.08-1.97-.16-.96.33-.64.98-.55,2.13.27,4.2,1.08,6.57,1.23,9.94.61,19.21-3.16,27.93-7.37Z"/>
        <path class="cls-1" d="M472.9,266.93c-.06.59-1.56,1.05-2.05,1.19-4.59,1.34-10.16.33-14.83-.33-1.1-.93,2.43-1.29,2.8-1.31,4.41-.34,9.7-.02,14.08.46Z"/>
        <path class="cls-1" d="M454.3,277.32c.2,1.42-.64,1.92-1.83,2.3-.7.23-6.7,1.1-7.53,1.13-.55.02-1.28-.06-1.45-.64-.85-2.89,9.05-4.01,10.81-2.8Z"/>
        <path class="cls-1" d="M455.16,273.85c-2.47-.46-5.28.52-7.56.46-3.14-.09-2.28-2.28.17-2.86,2.11-.5,8.22-1.09,7.39,2.41Z"/>
        <path class="cls-1" d="M471.61,412.72c-1.48,1.04-7.59-1.24-7.33-2.76.42-2.5,7.8.1,7.33,2.76Z"/>
        <path class="cls-1" d="M565.52,358.21c-.2.65-2.22.81-2.82.86-2.62.22-5.37.11-8,.43,2.41-4.71,6.73-1.02,10.82-1.29Z"/>
        <path class="cls-1" d="M435.69,406.66c-1.37.4-6.21-2.58-6.03-3.63,1.35-3.65,6.77,2.88,6.03,3.63Z"/>
        <polygon class="cls-1" points="514.81 287.76 514.45 294.62 512.97 294.58 512.47 293.73 513.16 287.26 514.81 287.76"/>
        <path class="cls-1" d="M460.36,353.02c.13.5-.25,1.16-.69,1.28-.85.22-7.33-3.98-6.23-5.17l6.92,3.9Z"/>
        <path class="cls-1" d="M474.2,408.82c-2.54.22-4.58-1.67-6.92-2.37.69-1.61,8.43.9,6.92,2.37Z"/>
        <path class="cls-1" d="M490.44,359.94l4.53,3.24c-.86,1.28-1.63,1.02-2.81.22-.51-.35-3.34-3.15-1.72-3.46Z"/>
        <path class="cls-1" d="M438.71,404.07c-.21.21-4.91-2.89-4.75-3.67.55-2.74,5.24,3.18,4.75,3.67Z"/>
        <path class="cls-1" d="M377.85,12.32c-35.87,0-64.94,29.07-64.94,64.92s29.07,64.91,64.94,64.91,64.93-29.06,64.93-64.91-29.07-64.92-64.93-64.92ZM377.83,137.34c-33.28,0-60.26-26.97-60.26-60.24s26.98-60.24,60.26-60.24,60.26,26.97,60.26,60.24-26.98,60.24-60.26,60.24Z"/>
        <path class="cls-1" d="M457.76,109.89v29.42h-49.33c3.1-2.23,6.57-3.86,9.66-6.13,7.15-5.24,13.48-12.39,18.21-19.87.64-1.01,1.51-2.19,1.55-3.42h19.91Z"/>
        <path class="cls-1" d="M317.55,109.89c6.07,12.25,16.59,22.44,28.91,28.44.58.28,1.19-.28.95.97l-49.77-.65v-28.77h19.91Z"/>
        <path class="cls-1" d="M309.32,76.15c-.54,10.49,2.48,20.58,6.06,30.28h-17.74s-.42-30.07-.42-30.07l.88-.47,11.22.27Z"/>
        <path class="cls-1" d="M457.76,76.14v29.63l-.71.6-17.03.04c3.32-7.57,5.74-15.72,6.48-24.01.18-2.03-.61-4.7.65-6.27h10.6Z"/>
        <rect class="cls-1" x="248.61" y="72.98" width="30.54" height="36.37" transform="translate(172.6 355.01) rotate(-89.97)"/>
        <rect class="cls-1" x="245.71" y="109.87" width="36.54" height="29.43"/>
        <rect class="cls-1" x="170.02" y="76.14" width="35.44" height="30.28"/>
        <rect class="cls-1" x="170.41" y="110.13" width="35.05" height="29.18"/>
        <rect class="cls-1" x="208.73" y="76.14" width="33.88" height="30.28"/>
        <rect class="cls-1" x="208.92" y="109.89" width="33.79" height="29.42"/>
        <rect class="cls-1" x="338.32" y="228.42" width="25.1" height="29.42"/>
        <rect class="cls-1" x="338.32" y="195.98" width="25.1" height="29.38"/>
        <rect class="cls-1" x="338.32" y="260.87" width="25.1" height="28.55"/>
        <rect class="cls-1" x="311.05" y="195.98" width="24.27" height="29.28"/>
        <rect class="cls-1" x="311.05" y="228.4" width="24.25" height="29.24"/>
        <rect class="cls-1" x="311.05" y="260.87" width="24.25" height="28.55"/>
        <rect class="cls-1" x="338.32" y="167.94" width="25.1" height="24.58"/>
        <rect class="cls-1" x="311.05" y="167.9" width="24.26" height="24.61"/>
        <rect class="cls-1" x="419.88" y="260.87" width="26.9" height="28.55"/>
        <rect class="cls-1" x="549.51" y="76.14" width="36.35" height="30.28"/>
        <rect class="cls-1" x="472.91" y="76.14" width="36.35" height="30.28"/>
        <rect class="cls-1" x="472.91" y="109.89" width="36.37" height="29.42"/>
        <rect class="cls-1" x="549.51" y="109.85" width="36.76" height="29.48"/>
        <rect class="cls-1" x="512.25" y="76.14" width="34.22" height="30.28"/>
        <rect class="cls-1" x="512.25" y="109.85" width="34.22" height="29.45"/>
        <rect class="cls-1" x="472.91" y="154.88" width="36.35" height="38.09"/>
        <rect class="cls-1" x="512.29" y="154.88" width="34.19" height="38.09"/>
        <rect class="cls-1" x="392.41" y="228.42" width="24.69" height="29.23"/>
        <rect class="cls-1" x="392.41" y="195.98" width="24.68" height="28.99"/>
        <rect class="cls-1" x="392.41" y="260.87" width="24.69" height="28.55"/>
        <rect class="cls-1" x="420.11" y="227.99" width="24.23" height="29.42"/>
        <rect class="cls-1" x="420.11" y="195.98" width="24.23" height="28.99"/>
        <rect class="cls-1" x="392.41" y="167.86" width="24.7" height="24.66"/>
        <rect class="cls-1" x="420.11" y="167.86" width="24.23" height="24.66"/>
        <path d="M241.1,232.49c-.11.05-.13.51-.26.57-1.51.7-2.43-.54-1.6-1.76,1.47-2.16,10.3-3.22,10.79-.92.4,1.88-4.4.99-5.41,1.08-1.27.11-2.38.51-3.53,1.03Z"/>
        <path d="M226.66,244.43c-1.7.38-1.8-1.22-2.6-1.94-1.03-.93-2.85-1.47-2.6-3.24,4.15-1.49,5.34,1.54,5.19,5.18Z"/>
        <path d="M244.68,234.98c2.8-.54,2.17,5.19-.51,3.42-1.6-1.05-.71-3.19.51-3.42Z"/>
        <path d="M249.6,279.04c-.83.18-1.04-.42-1.47-.9-.66-.73-4.01-4.33-3.28-5.15,1.56-.11,5.33,5.43,4.76,6.05Z"/>
        <path d="M498.72,314.57c.94-.25,6.66,0,6.64,1.02-.77,1.38-3.07.85-4.48.59-.53-.1-4.47-1.01-2.16-1.61Z"/>
        <path d="M507.96,232.32c-.73.53-2.97-1.81-4.21-2.06-2.45-.5-4.28,1.18-5.74-1.18,2.41-2.22,6.11-1.69,8.62.03.85.59,2.5,2.37,1.33,3.21Z"/>
        <path d="M527.37,238.75c-.14.15-1.02,0-1.44.48-.72.83-.52,3.48-2.82,3.03-.02-1.93.18-5.52,2.48-5.98,1.99-.4,2.4,1.82,1.78,2.47Z"/>
        <path d="M501.9,249.63c1.3,1.85-6.78,5.51-6.06.86l6.06-.86Z"/>
        <path d="M501.14,233.71c1.02-1.1,3.22.54,2.71,2.04-1.37,4.06-5.03.46-2.71-2.04Z"/>
        <ellipse cx="377.83" cy="77.1" rx="60.26" ry="60.24"/>
        <path d="M394.15,85.22c.6-4.22,6.99-9.91,11.24-7.99,1.74.78,3.79,6.18,1,7.04-1.21.37-11.79,1.36-12.24.95Z"/>
        <path d="M367.37,110.26c-.32-1.2,0-2.26,1.02-2.96l1.5,2.76c-.61,1.1-1.59.6-2.52.2Z"/>
        <path d="M656.18,364.26h-15.79c.23-3.88,1.51-7.66,2.1-11.52,1.11-7.19,1.65-15.15,1.8-22.41.04-1.92.26-4.99-.26-6.72-.74-2.45-7.99-3.49-10.4-3.86-6.19-.93-12.53-.96-18.78-.91-.13-17.28.61-34.4.46-51.72-.01-1.36-.54-2.55-.48-3.86.07-1.31,4.46-11.24,5.21-11.7,3.01-.66,6.27.17,9.27-.25,1.34-.18,5.57-1.6,4.82-3.41-1.48-3.53-8.97.11-11.28.42-.59.08-.83,0-.63-.64.34-1.11,6.92-10.29,7.81-10.79,2.55-1.43,4.87.5,7.55.64,1.78.1,8.6-.86,6.67-3.64-2.63-3.77-9.15.3-12.52-.06l7.56-8.02c1.79-.31,12.63-4.63,8.46-7.13-4.56-2.73-11.83,7.8-14.51,10.6.07-2.65,1.83-4.36.89-7.37-.58-1.88-2.34-2.19-3.57-.72-2.04,2.45-1.48,8.28.26,10.85l-6.66,8.49c-.84-2.12.45-4.21.64-6.27.22-2.27.84-6.91-2.52-5.77-3.5,4.68.89,11.04-.18,15.18-.52,2.03-5.14,8.29-6.46,10.84-.39.76-.62,1.64-.79,2.46-.71.12-.4-.58-.43-1.07-.22-4.12-.63-23.15.68-25.72.73-1.41,3.31-3.91,4.43-5.52,4.51-6.45,8.96-12.91,13.69-19.2,1.27-1.08,2.3.5,3.47.91.92.33,2.55.84,3.48.85,7.73.09,6.86-5.99-.87-5.19-1.43.15-2.79,1.22-4.1.65,2.54-6.45,13.6-2.18,13.41-10.17-4.83-.7-8.04,2.12-11.25,5.19.2-1.98,3.38-9.05.75-10.1-3.43-1.36-4.67,7.11-4.21,9.45.2.98,1.29,1.35,1.13,1.97l-8.28,11.66c-.14-3.61,1.62-6.87,1.06-10.57-.49-3.21-2.89-5.71-4.28-1.3-1.66,5.26-.12,9.8.76,15.02l-9.43,13.29,2.35-32.03c2.47-3.42,4.82-7.01,7.43-10.32.95-1.22,3.52-4.77,4.52-5.44,1.8-1.2,6.34.46,8.81.17,1.54-.18,5.02-1.56,4.52-3.55-.95-3.76-8.15-.1-10.2.47-.53.15-1.33.26-.99-.56.17-.4,3.82-4.85,4.31-5.21,1.93-1.44,8.68-3.9,8.71-6.9.05-3.35-5.57-.66-7.07.63-1.47,1.28-2.13,3.29-3.16,4.74-1.05,1.48-2.8,2.74-3.23,4.79-.71.11-.4-.59-.43-1.07-.12-2.4.26-5.58-2.03-7.09-4.66-1.33-1.57,10.01-.61,11.74-3.25,3.38-5.86,8.52-9.05,11.77-.41.42-.56.82-1.29.65,1.03-3.9.63-7.94.89-11.91.31-4.83.48-12.76,1.37-17.19,1.01-5.01,6.77-8.99,9.42-12.64,2.34-3.22.68-5.39-2.81-3.25-3.44,2.1-3.48,5.85-5.84,8.66v-6.71c0-1.29,6.12-9.12,2.61-11.26-3.04-1.85-4.36,6.18-4.35,8.01l-4.61-5.54c-.96-1-3.48-1.21-3.63.58-.12,1.31,5.3,9.21,7.81,7.99-.14,5.21.53,10.51-.86,15.58-1.92-2.58-2.29-6.28-4.33-8.87-2.74-3.47-3.68-.33-2.83,2.83.5,1.84,1.59,3.55,2.82,4.97,1.27,1.46,3.7,2.6,3.93,4.29-.8,13.69-1.52,27.33-3.49,40.9l-5.06-13.69c.85-4.54,4.39-8.96,2.95-13.74-1.96-2.75-4.71,6.16-4.38,7.54-1.14.12-.68-.02-.87-.64-.41-1.37-1.64-4.63-1.71-5.69-.19-2.6,5.27-5.57,3.67-8.81-1.75-3.58-5.76,3.75-5.63,5.62-.99-2.39-4.22-7.67-7.29-6.95-2.89,4.91,5.25,7.83,6.73,10.54,2.26,4.13,5.71,16.02,7.39,21.17,1.15,3.51,2.1,7.08,3.24,10.6l-.77,26.93-7.68-20.62c1.2-3.63,3.47-7.15,1.97-11.08-1.48-3.87-3.29-1.3-3.4,1.63-.06,1.54.61,3,.48,4.33-.06.61-.3,1.24-.88.65-.27-2.79-6.01-11.79-5.38-13.86.17-.53,1.07-1.27,1.36-2.04,1.08-2.78,1.31-5.46.87-8.43-.8-5.45-3.85-4.93-4.23.74-.14,2.22.63,4.8.47,6.5-.06.61-.32,1.27-.88.65.04-.56-.14-1.04-.42-1.51-2.56-4.43-10.74-19.94-14.85-21.51-3.38-1.29-3.69,1.67-2.42,4.15,1.29,2.52,4.93,2.77,6.88,4.36,1.58,1.3,2.51,3.66,3.45,5.42-.99.76-7.14-3.2-9.95-1.93-1.9.87-1.19,2.68.2,3.68,2.05,1.47,5.4,1.33,7.82,1.31,1.54-.02,2.31-1.05,3.67.18.93.84,3.94,6.38,4.7,7.85,3.38,6.6,5.53,13.81,8.7,20.5-.37.3-5.69-3.42-6.63-3.97-1.04-.6-5.93-2.69-6.24-3.06-.7-.86-1.29-4.97-2.59-6.71-1.85-2.48-6.01-3.39-5.23.87.46,2.49,3.08,3.09,4.25,5.08-4.19.08-6.65-4.65-11.19-2.1-1.01,3.52,2.96,4.63,5.73,4.65,1.42.01,3.81-.85,5.21-.79,1.53.06,3.06,1.47,4.57,1.71l-7.14,2.15c-1.21.57-1.69,3.4-.37,3.84,2.5.41,5.01-.44,6.88-2.09,1.08-.95,1.61-2.69,2.98-2.62.6.03,6.4,3.37,7.31,3.99,2.49,1.69,3.46,2.48,4.64,5.31,2.2,5.29,3.63,11.58,5.18,17.1-1.22-1.84-5.23-5.57-5.84-7.37-.27-.8.41-3.78.02-5.63-.3-1.45-2.33-6.12-4.36-4.78-3.47,2.3,2.57,8.03,1.95,8.7-1.69-1.13-6.69-3.94-8.01-1.3-1.6,3.18,6.15,5.14,8.45,4.08l3.03,3.93c.06.69.1.73-.59.59-1.76-.35-7.25-2.71-8-.08-.67,2.37,4.97,3.6,6.65,3.59,1.33-.01,3.4-1.49,4.1-1.11,1.59,2.19,3.89,4.15,4.29,6.99.49,3.41.12,7.32.93,10.76l-.02,56.91c-3.64.48-15.75.72-20.4,2.6-.59-.2-1.26-.06-1.62.68-1.49,3.04-1.63,6.44-1.94,9.75-.36,3.73-.69,7.46-.86,11.2-.34,7.1-.08,14.24,1.46,21.19h-5.21c.61-18.67,3.19-37.14,6.63-55.45,1.21-6.42,4.11-15.37,4.58-21.39.49-6.33-5.32-8.37-10.43-9.8-5.59-1.57-11.47-2-17.22-2.48-.03.6-.07,1.18.21,1.74.93,1.84,13.32,2.24,16.38,3.89,1.13.75-.44.91-.75,1.32-1.81,2.3-3.09,7.07-3.86,10-2.96,11.18-3.96,23.28-5.88,34.7-.38.54-7.15,1.34-8.28.93-.76-.47.57-3.89.75-4.9,2.5-13.67,5.16-36.31-1.53-48.83-3.05-5.73-7.52-9.06-13.33-11.76-2.13-1-10.55-3.45-11.41-4.18-.63-.53-.69-2.7-1.08-3.67-1.16-2.89-3.59-4.13-6.09-5.63.68-3.84,3.24-6.81,4.58-10.59,1.77-4.97,4.13-13.77,1.23-18.54-.74-1.23-2.05-1.64-2.96-2.67-1.41-1.59-2.15-3.92-3.8-5.41-4.5-4.04-12.32-5.35-19.05-5.14-.07-1.15-.13-2.31-.2-3.46.07-.09.11-.17.11-.26v-6.71h34.19v59.06c0,1.26,3.46,1.56,3.46-.44v-17.09h36.35c-.59,5.34.01,10.84.03,16.23.03,6.25-1.02,15.1-.26,20.96.75,5.83,3.63.2,3.29-2.78-.97-13.96,1.04-28.97-.01-42.86-.1-1.3-.37-4.99-2.31-4.47-.29.07-1.17.91-1.17,1.03v8.43h-35.92v-38.07h29.21c.25,0,1.37-1.28,1.04-1.87l-2.1-1.38-28.15.23v-38.08h35.92v21.85c0,.15-.45.69-.46,1.29-.04,1.29.78,2.35,1.98,2.73,3.06-2.39,1.5-6.27,1.48-9.63-.03-6.31.08-12.65.05-18.98l-1.22-.59-117.81.31v106.2c0,.26,1.28,1.37,1.87,1.04.4-.16.73-.45.93-.83.56-1.11.58-6.42.6-7.96.07-4.15-.41-8.6-.37-12.8h9.3c.13,0,1.58-1.3,1.94-1.51,0-.21-2.07-1.95-2.37-1.95h-8.22l-.69-1.51.04-36.56h35.7c.12.11.21.23.29.36-.05.15-.08.31-.07.47.19,3.27.37,6.53.56,9.8-.96.1-1.88.22-2.75.38-4.32.79-8.62,3.29-13.12,2l-.69,1.01.42,1.99c-4.4-.03-4.6,1.97-2.35,5.16.56.81,2.06,1.76,2.28,2.51.61,2.13-2.94,9-1.25,10.3l1.75.43c-.34,3.37-6.91,11.56-6.51,14.25.38,2.55,4.73,0,5.21,4.77.52,5.1-.43,8.96,4.37,12.51l3.85,2.19c-2.85,1.84-6.38,3.52-8.86,5.85-7.23,6.81-7.39,20.57-14.29,28.11-1.53-2.17-9.31-9.88-8.9-12.28l4.15-1.55c.65-5.34,6.57-5.37,6.72-11.49.07-3.3-2.8-3.11-3.39-4.18-.47-.84.47-2.21-.72-3.39-2.16-2.17-18.45-2.36-21-.18-1.03.88-.91,2.43-.87,3.67-2.12-.01-4.59-.28-6.65.33-1.32.39-2.47,1.13-3.25,2.53-1.45,2.6-.05,2.87-.03,4.24,0,.22-2.05,1.05-2.22,3.5-.15,2.28,1.3,2.53,1.32,3.44.02.73-1.1,2.3-1.25,3.51-.16,1.29.03,2.32.49,3.21.53,1.04,1.42,1.9,2.53,2.77.1.08.23.17.37.26,1.72,1.12,6.13,3.12,6.55,3.75,1.25,1.88-1.79,4.79.16,7.09,4.8,7.84,8.87,15.35,15.82,21.6-11.74.48-29.95-.44-33.62,13.76-2.84,10.95-2.95,30.62-3.18,42.25-.08,4.05.28,8.12-.22,12.15-.19,1.97,5.43,2.61,5.42,3.44-3.57,1.59-6.52,4.27-10,6-5.16,2.58-13.92,3.84-14.61,10.92-.18,1.92-.24,2.93,1.54,4,4.15,2.49,14.95,1.97,19.78,1.31,5.81-.8,11.18-3.59,17.15-3.41-.15,1.15-1.15,1.75-1.68,2.87-1.08,2.3-2.22,5.02-.27,7.08,3.46,3.65,15.57,3.45,20.23,2.49,2.96-.61,16.1-5.68,18.09-7.45,2.05-1.82,1.53-5.96,1.23-8.61-.3-2.64-1.31-5.19-1.71-7.81.07-.51,3.72-.53,3.74-1.94l4.05-29.27,24.25,3.72-3.88,39.57c.05,1.79-.45,6.02,1.16,7.17,2.2,1.55,9.74,1.19,10.71-1.78,1.13-7.84,1.98-15.7,2.82-23.58.08-.74-.08-1.42.67-1.92.61,2.66.64,6.85,3.38,8.3,2.88,1.52,7.76,1.12,9.5-1.93l-3.57-26.28,31.53-1.23c1.09,7.43,1.38,15.09,2.28,22.59.74,6.16,1.73,12.34,2.74,18.45,1.63,4.04,13.03,3.08,13.25-1.08-2.55-15.65-4.53-31.48-4.36-47.38h6.27c2.14,3.79,2.28,5.52,6.6,7.25,8.28,3.32,28.94,3.81,36.99-.01,3.42-1.62,3.92-4.31,5.82-7.17l17.58-.16c2.12-.8.96-2.94-.78-2.94ZM512.29,154.87h34.19v38.1h-34.19v-38.1ZM509.26,192.97h-36.35v-38.1h36.35v38.1ZM533.5,252.21c5.06,3.78,3.45,10.31,1.85,15.48-.46,1.47-2.73,7.92-4.23,7.9-1.18-.01-4.51-4.23-6.69-3.27-.95.41-6.19,7.62-6.42,8.76-.47,2.33.38,2.7,2.02,1.15,1.33-1.26,4.03-6.3,5.12-6.59,2.51-.68,5.26,4.65,8.37,2.34,2.85-2.12,5.08-13.46,6.04-17.11,9.21,3.81,18.99,6.33,23.14,16.44,4.29,10.46,3.14,30.11.97,41.19-1.14,5.87-2.29,10.24-8.42,12.35-8.9,3.08-20.36,2.01-29.69,2.2l-.69-.64c1.48-6.11-2.55-11.2-6.95-14.87,4.55-.81,9.1-1.89,13.69-2.53,4.34-.61,9.29-1.61,13.48-.19,1.55.53,5.01,3.61,5.67,1.12.84-3.21-8.4-3.91-9.61-4.54-.22-.11-.36-.19-.45-.27-.07-.06-.11-.12-.15-.2-.03-.08-.06-.18-.09-.3-.01-.07-.02-.14-.04-.22-.52-2.67,1.09-6.98.44-9.96.45-4.75,1.81-11.31,3.8-15.66.87-1.87,4.4-5.68,3.66-7.36-.21-.48.04-.69-.75-.55-8.97,8.99-9.57,22.61-9.74,34.6-6.12.84-14.88,1.17-20.55,3.47-2.52,1.03-2.5,4.05-5.42,3.45,1.56-7.06,1.6-14.41,1.73-21.63,5.34.55,2.91-7.19,3.48-10.53l-2.2-.96c2.12-13.37,16.94-20.01,18.63-33.07ZM512.47,293.73l.69-6.47,1.66.5-.37,6.85-1.47-.04-.51-.84ZM499.01,260.08c-3.33-2.04-3.72-6.13-4.02-9.82-.23-2.85.2-3.17,1.29-5.4l-6.5-1.09c1.17-3.85,6.76-10.17,5.98-14.16-.23-1.14-1.58-2.28-1.62-3.12,0-.15.33-1.23.74-2.47.06-.2.13-.39.19-.59.27-.78.54-1.58.78-2.23.06-.16.11-.31.16-.45.18-.48.32-.82.37-.88,1.05-1.25,4.61.21,6.16.28,1.84.08,10.66-1.54,11.48-.81-1.35,3.53-1.13,7.61.35,11.11.53,1.24,2.25,3.01,2.44,3.57.22.66-.47,1.49-.12,2.11.23.43,3.84,1.97,4.48,1.66,1.52-2.77,2.85-5.03,6.5-4.64,6.69.71-.09,15.33-6.29,13.44.14,4.86,4.05.78,6.88.9.47,1.82,1.97,3.52,2.18,5.42.59,5.49-7.4,12.01-10.54,16.21-1.95,2.62-3.4,5.64-5.44,8.19.39-5.22-3.35-9.35-2.62-14.52.24-1.69,3.15-4.64,3.05-5.16-.36-1.74-3.75,1.2-4.47,1.58-3.96,2.09-7.2,3.46-11.41.87ZM473.17,271.69c-.13,2.14-2.13,9.25-3.75,10.57-1.57,1.28-6.01,1.38-7.95,1.08-4.72-.74-3.12-9.55-4.14-12.96,5.13,1.6,10.38.61,15.59.21.57.38.28.66.25,1.1ZM458.83,266.47c4.41-.34,9.7-.02,14.08.46-.07.59-1.57,1.05-2.05,1.19-4.59,1.33-10.16.33-14.83-.33-1.1-.93,2.43-1.29,2.8-1.32ZM446.18,272.2s.1-.08.15-.12c.14-.1.29-.19.46-.28.29-.15.62-.27.99-.36,2.11-.5,8.22-1.09,7.39,2.4-2.48-.46-5.28.52-7.56.46-.16,0-.3-.02-.44-.03-.12,0-.24-.03-.35-.06h-.03c-.13-.03-.24-.06-.35-.09-.06-.02-.12-.04-.17-.06-.02-.01-.04-.02-.05-.03-.07-.03-.13-.06-.18-.09-.08-.05-.15-.1-.2-.15s-.1-.1-.13-.16c-.01-.01-.02-.01-.01-.02-.04-.05-.06-.1-.07-.15-.15-.39.07-.86.55-1.26ZM443.45,279.57c.02-.12.06-.25.13-.37.03-.06.07-.12.11-.17.04-.06.09-.12.14-.17.05-.06.11-.11.17-.17.06-.05.12-.1.19-.15.07-.06.14-.11.22-.16.6-.39,1.44-.71,2.38-.96.12-.03.24-.06.37-.09.21-.05.43-.1.66-.14.11-.02.22-.04.34-.06.45-.08.9-.15,1.36-.19.22-.03.44-.05.66-.06,1.83-.13,3.49,0,4.12.43.2,1.42-.64,1.92-1.84,2.3-.12.04-.41.1-.8.17-.1.02-.2.04-.31.06-.11.02-.23.04-.35.06-.12.02-.24.04-.37.06-.91.15-2.02.32-3.02.46-.28.04-.56.08-.82.11-.15.02-.29.04-.43.05-.09.01-.17.02-.25.03-.57.07-1,.12-1.18.13-.55.03-1.28-.06-1.45-.63-.04-.12-.05-.24-.05-.35,0-.06.01-.12.02-.19ZM452.97,294.86c-.66-.56-1.48-1.07-2.35-1.58-.24-.13-.48-.27-.73-.41-.66-.36-1.32-.73-1.97-1.1-.23-.14-.46-.27-.68-.41-.06-.04-.12-.08-.19-.12-.26-.16-.52-.33-.76-.51-.02-.01-.03-.02-.05-.03-.55-.4-1.05-.82-1.45-1.28h-.01s-.01-.01-.01-.02c-.16-.18-.3-.36-.42-.55-.56-.87-.78-1.87-.43-3.06.08-.3.2-.6.36-.92.05-.11.11-.22.17-.33.14-.24.34-.47.61-.69.09-.08.19-.15.29-.22.09-.07.19-.14.3-.2.34-.21.72-.4,1.14-.57.14-.06.28-.11.42-.16.16-.06.32-.12.48-.16.15-.06.3-.1.45-.14.09-.02.18-.05.28-.07.18-.05.36-.1.54-.13.18-.04.37-.08.55-.11.13-.02.26-.04.39-.06.09-.01.17-.02.25-.03.31-.03.61-.05.89-.05.85,0,1.51.16,1.77.53.29.4.33.76.18,1.08-.02.05-.05.09-.08.14-.01.03-.03.06-.06.09-.05.06-.1.12-.17.19-.04.04-.09.08-.13.12-.05.04-.1.08-.15.11-.06.04-.11.08-.17.11-.74.47-1.88.82-3.01,1.07-.13.03-.26.06-.39.08-.74.16-1.46.27-2.04.35-.51.07-.92.12-1.15.14-.02.12-.02.24-.02.35,0,.1,0,.2.02.29,0,.1.04.21.07.3.02.05.04.1.07.15.08.18.19.33.34.46.05.04.1.08.15.11.03.03.07.05.1.07.12.07.24.13.38.18.01,0,.03.01.04.01.2.07.41.12.64.16.8.11,1.79.02,2.78-.18.34-.07.69-.16,1.02-.25.34-.1.66-.21.98-.32.16-.06.32-.12.46-.18.3-.13.57-.25.82-.38s.47-.26.66-.39h.01c.19-.14.34-.26.46-.39.06-.06.1-.12.14-.18.6-.99.03-2.7,1.04-2.4,1.44.43,3.2,1.75,4.63,2.3,1.42.55,4.85.29,4.7,3.06-.17,2.98-7.02,7.81-9.76,8.81-.98-.8-1.37-1.81-2.4-2.68ZM454.37,301.16c5.07-2.17,9.95-5.84,12.94-10.44.09-.06.94.41,1.13.58.66.58,2.68,3.18,2.73,3.99.21,3.41-9.29,11.51-12.5,12.07-2.15.39-5.07-4.98-4.3-6.2ZM453.44,349.12l6.92,3.9c.13.5-.25,1.16-.69,1.28-.85.22-7.33-3.98-6.23-5.18ZM438.72,404.06c-.22.22-4.91-2.88-4.76-3.67.55-2.74,5.25,3.18,4.76,3.67ZM435.69,406.66c-1.37.4-6.22-2.58-6.04-3.63,1.35-3.65,6.78,2.88,6.04,3.63ZM445.48,412.77c-6.17.86-11.24,3.09-17.8,3.4-4.58.22-9.21-.01-13.63-1.3-.28-1.85,3.12-.15,4.16-.04,10.84,1.22,17.17-1.99,26.84-2.93,3.6-.35,7.72.55,11.03-1.09,1.25-1.52-.01-12.27-1.79-14.3,0-.34,1-.49,1.93-.84.31-.12.61-.25.87-.43.34-.23.6-.52.67-.91,1.29-6.62.47-16.68.87-23.83.23-4.27.62-8.6.92-12.88l.66-.65,1.86-.09c1.09-4.77,1.98-10.71,5.03-14.64,4.1-5.27,11.72-6.15,17.93-5.23-.24.53-.37,1.21-.97,1.44-.85.31-5.57.13-7.28.48-10.86,2.23-12.28,12.09-13.39,21.66-1.39,12.07-1.22,24.66-2.63,36.77.07,4.72,2.17,3.5,5.48,5.4.34.56-.52,2.5-.93,3.01-.59.74-6.44,4.95-7.49,5.49-3.51,1.78-8.29.95-12.34,1.51ZM467.29,406.44c.68-1.6,8.43.9,6.92,2.38-2.55.22-4.58-1.67-6.92-2.38ZM471.61,412.71c-1.48,1.04-7.59-1.24-7.33-2.76.42-2.49,7.79.1,7.33,2.76ZM485.46,416.61c-5.54,3.89-14.59,8.15-21.41,8.67-2.27.17-13.11.03-14.07-1.97-.17-.97.33-.64.98-.55,2.13.27,4.2,1.08,6.57,1.22,9.93.61,19.21-3.15,27.93-7.37ZM466.41,320.36c-1.18-1.22-6.6-7.48-7.03-8.59-.88-2.29,1.57-2.12,3.11-3.14,4.37-2.9,7.93-6.27,11.06-10.48.87-.07,6.02,5.76,6.94,6.84.87,1.02,4.2,6.07,4.52,6.29,2.25,1.51.87-3.39.25-4.57-1.13-2.12-5.25-5.37-5-7.09.11-.79,2.15-3.95,2.68-5.15,2.81-6.44,5.67-16.76,10.3-21.72.71-.76,5.32-4.85,6.07-4.09-.44,1.72-.51,3.42-.16,4.79.07.3.17.57.28.83.11.26.25.51.41.73.05.08.1.15.16.22.07.1.16.19.24.27.01.01.03.02.04.04.11.11.24.21.37.3.11.08.23.15.35.21.1.05.19.09.29.13.03.01.06.02.09.03.1.04.2.07.3.09.12.04.24.06.37.08h.02c.17.03.36.04.55.04.79,0,1.7-.19,2.76-.64l4.1,5.84c1.94-1.03.29-3.92-.57-5.48-1.89-3.39-3.35-4.77-7-2.3-.12-2.97-.17-6.78,1.77-9.25,1-1.27,2.99-.38,4.47-1.08.91.23,1.03,4.08,1.31,5.16,1.14,4.29,2.84,8.61,2.83,13.18,0,1.59-1.98,6.51-2.16,9.52-.2,3.46.87,3.98,1.12,5.6.33,2.12-.82,12.28-1.13,15.16-.24,2.27-.76,4.55-.94,6.84l-19.39,9.81c1.45-3.71,3.47-6.64,4.28-10.64.21-1.03-.09-2.2.14-3.32.27-1.3,1.44-2.27,1.65-3.98.57-4.73-.63-9.95-.9-14.7-.12-2.19.71-10.98-1.07-11.91-.75-.39-.66.54-.77.94-1.21,4.39-.88,11.47-.75,16.16.06,2.45,1.16,7.9.89,9.91-.11.86-1.63,2.07-1.98,3.68-.4,1.84-.11,3.85-.76,5.73-.78,2.28-3.45,4.45-3.33,7.27-8-2.16-14.61-1.18-20.78-7.56ZM487.77,345.55c-2.27.27-1.55-2.52-.78-3.76,1.6-2.57,7.99-6.55,8.79-8.53.23-.55.25-1.24-.58-1.01l-7.57,5.62c-.11-2.63,1.35-4.48,3.25-6.04,3.26-2.68,19.45-10.33,23.56-11.08,5.59-1.02,9.88,9.32,6.75,11.53-3.12,2.21-4.31-2.61-4.79-2.62-2.16,2-1.71,5.01-3.83,7.19-1.78,1.83-4.17,2.11-6.05,3.25-3.66,2.22-6.25,5.54-9.16,8.58-2.13-1.31.56-4.21,1.73-5.62.42-.51,6.03-5.11,3.46-5.62-4.29,2.8-6.77,7.36-10.39,10.81l-1.04-.7c-.6-2.04,3.15-6.35,4.5-7.95,1.34-1.58,4.33-3.04,3.25-5.19-.74-.19-.86.31-1.3.65-1.42,1.1-3.71,3.57-4.98,4.97-1.14,1.27-3.36,5.34-4.82,5.52ZM492.16,363.4c-.51-.35-3.34-3.15-1.72-3.46l4.53,3.24c-.86,1.28-1.62,1.02-2.81.22ZM516.74,373.24l-23.49-4.45c-.29-1.17,2.49-4.2,3.77-4.44l21.33-.52-.42,8.8-1.19.61ZM523.12,419.43l-.21.66c-1.62,1.08-3.72.94-5.58.78l-.65-.64c-.07-11.14,1.95-22.19,2.96-33.26.7-7.76,1.05-15.58,1.74-23.35.6-6.73,1.81-13.49,1.71-20.26.09-.29.98-.73,1.1-.73h6.49l-7.56,76.8ZM538.7,401.24c.2,2.01-5.21.53-5.54.13-.16-.2-.72-2.32-.84-2.84-.81-3.35-2.17-10.87-2.29-14.17-.04-1.04.6-8.11.9-8.41l3.89.18c1.1.69,3.28,22.12,3.88,25.11ZM569.85,370.97c-1.68,1.22-4.55.53-6.71.65-5.88.33-11.84,1.11-17.72,1.32-4.68.16-9.41-.17-14.09-.02.04-1.35.26-8.92,1.15-9.11l37.37-2.14v9.3ZM554.7,359.5c2.41-4.71,6.73-1.02,10.82-1.29-.21.65-2.23.81-2.82.86-2.62.22-5.37.1-8,.43ZM570.28,357.34c-1.63-.66-2.98-1.52-4.75-1.96-1.13-.28-4.68-.47-5.22-.83-.94-.61.35-4.39.44-5.65.08-1.11-.08-7.21.2-7.6l10.63-1.26-1.3,17.3ZM560.11,338.3c-12.08,1.36-27.8,2.72-39.81,1.73-.19-.02-.39-.03-.59-.05-.19-.02-.39-.03-.59-.05-.53-.05-1.06-.13-1.53-.27-.12-.03-.23-.06-.34-.11-.03-.01-.05-.02-.08-.03-.19-.08-.37-.17-.53-.28-.07-.05-.14-.1-.21-.16-.1-.08-.19-.18-.27-.28-.13-.18-.24-.38-.31-.61-.1-.33-.13-.71-.09-1.17,1.77-.02,4.39-1.19,5.88-1.3,11.46-.82,21.65.94,33.59-2.3,5.34-1.44,5.89-1.98,11.8-2.47,2.56-.22,8.59-2.08,8.91,1.51.22,2.38-.85,3.34-2.97,3.99-3.1.95-9.39,1.46-12.86,1.85ZM585.02,413.78c-.34,2.39-5.64,1.31-7.38,1.53-1.26-9.56-3.08-19.15-3.89-28.77-.78-9.16-1.33-20.28-.87-29.41.17-3.41.92-14.55,1.83-17.21.36-1.06,2.2-2.06,2.86-3.19,1.14-1.96,1.56-5.09.27-7.07-.94-1.44-1.68.08-1.52-3.26.31-6.28,2.02-15.15,3.17-21.5.66-3.68,3.6-19.42,5.62-21.42,1.84-1.83,5.62-1.11,6.58,1.19,1.02,2.43-2.41,14.22-3.1,17.64-7.17,35.59-9.95,65.2-5.27,101.47.29,2.25,1.93,8.36,1.7,10ZM615.29,321.86c6.14-.07,12.27-.08,18.33.93,1.91.32,4.91.34,5.9,2.1-7.98,1.37-16.11,1.82-24.23,1.74v-4.77ZM594.19,323.92c1.79-.76,17.43-2.71,18.07-2.06l.43,4.76-19.04-1.73c-.12-.88-.08-.71.54-.97ZM633.18,371.55c-5.62,3.53-23.47,2.88-30.1,1.67-5.56-1.02-8.21-1.05-10.17-6.7-.77-2.21-1.34-4.52-1.82-6.85-.8-5.33-.91-10.74-.67-16.12.15-3.43.43-6.84.74-10.25.19-2.05.24-4.28.64-6.39,9.43,4.08,37.42,3.25,47.38.88.74-.17,1.39-.4,2.07-.73.16,8.29-.16,16.61-1.36,24.81-.69,4.78-2.6,17.08-6.71,19.68Z"/>
        <path class="cls-1" d="M639.89,351.87c-.69,4.78-2.6,17.08-6.71,19.68-5.62,3.53-23.47,2.88-30.1,1.67-5.56-1.02-8.21-1.05-10.17-6.7-.77-2.21-1.34-4.52-1.82-6.85-.8-5.33-.91-10.74-.67-16.12.15-3.43.43-6.84.74-10.25.19-2.05.24-4.28.64-6.39,9.43,4.08,37.42,3.25,47.38.88.74-.17,1.39-.4,2.07-.73.16,8.29-.16,16.61-1.36,24.81Z"/>
        <path d="M257.55,233.42c-1.93,0-1.93,3,0,3s1.93-3,0-3Z"/>
      </g>
      <g>
        <path class="cls-1" d="M373.67,97.58c1.93-.26,4.38-2.38,5.28-6.13.9-3.75,3.33-5.07,3.33-5.07l.21-4.33c-.77,0-1.45.88-2.16,2.14l.04-.1s-3.95,6.61-8.84,3.94c-.27-.15-.45-.44-.43-.76.12-1.9,2.62-3.55,2.62-3.55,0,0,.05,1.64,1,1.37.95-.26,2.38-3.43,1.16-4.12-1.21-.69-5.6,2.85-5.6,7.66,0,2.09,4.35,2.4,7.46.62-1.25,2.2-2.76,4.05-4.82,4.05-5.18,0-5.6-8.24-6.66-13.94-1.06-5.7-1.8-14.88-1.8-14.88,0,0-1.27,1.9-1.69,4.12-.13.7-.24,3.04,1.54,12.77.39,2.68,0,3.42,0,3.42-.11.74-1.48,2.01-1.48,2.01,0,0-.95-3.06-3.22-2.59-2.27.48-4.01,8.08-1.58,8.19,2.43.11,3.27-1.21,3.27-1.21,0,0,.69.32.42,1.69-.26,1.37-3.94,9.77-22.82,10.48,0,0,8.59,1.83,15.21.56,6.62-1.27,9.01-12.68,8.94-14.37,0,0,1.15-2.38,1.98-4.34,0,.02,0,.04.01.06,2.54,13.05,6.78,12.56,8.61,12.31Z"/>
        <path class="cls-1" d="M343.72,99.18s3.27-.99,3.93-1.31c4.79-2.32,7.4-9.65,7.89-14.72.49-5.07-3.52-16.34-3.17-18.66,0,0-1.55,3.66-.77,8.03.77,4.37,3.37,10.69,2.39,15-1.59,7.03-10.26,11.66-10.26,11.66Z"/>
        <path class="cls-1" d="M349.21,81.74c0-4.12-2.91-5.65-2.85-8.82,0,0-.74,2.7-.85,3.8-.21,2.17,2.54,4.91,2.54,7.13,0,2.01-3.91,4.86-6.23,4.86s-6.41-.9-6.18-6.66c.18-4.62,6.18-7.4,6.29-14.53,0,0-.94,2.99-2.27,5.07-1.32,2.06-5.41,6.97-4.81,12.47.95,6.66,3.91,7.92,6.6,7.92s7.45-2.38,7.76-11.25Z"/>
        <rect class="cls-1" x="339.23" y="80.15" width="4.44" height="4.44" transform="translate(55.73 286.67) rotate(-49.13)"/>
        <path class="cls-1" d="M415.82,92.09c-2.82,10.32-19.02,12.04-19.02,12.04,0,0,4.6.74,9.24.48,8.2-.47,9.93-6.13,11.62-12.31,1.69-6.18,4.17-6.44,4.17-6.44l.26-4.38c-2.48.26-4.91,5.6-6.29,10.62Z"/>
        <path class="cls-1" d="M397.54,91.14c.06,1.28.77,2.62,1.84,3.59-.55,1.41-1.05,2.78-1.07,3.1-.02.45.85-1.31,1.55-2.72.83.61,1.82.99,2.86.99.37,0,4.38.16,7.76-4.97,4.12-6.44,4.01-9.09.85-9.09-5.97.05-10.56,9.24-10.56,9.24-2.22-.63-2.22-4.38-2.22-4.38-1.74-.05-2.31,4.96-4.97,5.54,0,0,0,0,0,0-.16.03-.33.06-.52.06-1.24,0-4.23-.43-5.89-9.93-.63-3.59-2.63-15.25-2.63-15.25-.41-1.73-.68-2.86-.68-2.86,0,0-1,2.05-1.12,4.31-.02.42,3.02,16.06,3.73,19.39,1.11,5.23,2.68,8.61,6.13,8.61s4.33-5.49,4.97-5.65ZM407.84,86.07c3.43-.79,3.7.9,3.7.9,0,0-4.38,5.97-9.93,4.7,0,0,3.17-4.86,6.23-5.6Z"/>
        <rect class="cls-1" x="399.06" y="75.04" width="4.44" height="4.44" transform="translate(80.28 330.15) rotate(-49.13)"/>
        <rect class="cls-1" x="386.98" y="52.79" width="4.44" height="4.44" transform="translate(92.94 313.33) rotate(-49.13)"/>
        <rect class="cls-1" x="370.79" y="47.96" width="4.44" height="4.44" transform="translate(90.99 299.41) rotate(-49.13)"/>
        <path class="cls-1" d="M368.36,62.01h0s2.13,2.14,5.98,1.63c3.85-.51,6.16-4.39,6.64-6.26,0,0,0,0,0,0,.27-.79.48-1.68.58-2.66.17-.96.55-3.45.37-6.1,3.86,1.88,5.26-1.4,6.33-4.49,1.08-3.1,2.63-4.86,2.63-4.86l.07-4.18c-1.55.27-2.97,9.44-7.35,9.71-1.2,0-2.13-.44-2.78-.89-.44-.93-1.04-1.77-1.85-2.41l-.88,4.01s2.12,2.6,3.01,6.06c-.3,2.23-3.08,7.89-8.08,7.89-2.44,0-5.97-.82-7.72-6.66-1.73-5.78,6.01-10.95,4.21-20.24,0,0,.14,3.11-1.27,5.98-1.41,2.87-3.93,7.89-3.87,13.29.15,5.49,1.97,8.49,3.98,10.17Z"/>
        <path class="cls-1" d="M381.4,35.2c.74.96,1.41,1.86,1.41,1.86l.42-1.37c-.31-.39-.84-1.08-1.4-1.8.27-.95.45-1.88.63-2.69.53-2.35-.71-2.27-2.14-1.72-1.43.55-1.29,2.8-.34,3.94.26.32.6.74.95,1.18-2.32,4.24-8.87,8.72-8.87,8.72,0,0,3.94-2.19,6.66-4.33,1.35-1.06,2.15-2.41,2.68-3.78ZM379.85,31.3c1.24-.9,2.61-.11,1.66,1.95-.02.05-.04.1-.05.15-.84-1.09-1.61-2.1-1.61-2.1Z"/>
        <path class="cls-1" d="M377.04,70.68c-.93.76-1.93,1.42-2.99,1.97-1.15.59-2.24,1.37-3.16,2.32-.45.48-.87.99-1.21,1.56-.33.57-.48,1.24-.56,1.88.69-1.02,1.58-1.87,2.51-2.63.95-.74,1.96-1.38,3.03-1.94,1.16-.61,2.24-1.41,3.13-2.37.44-.49.84-1.02,1.16-1.59.32-.58.39-1.24.51-1.89-.66,1.04-1.52,1.92-2.43,2.7Z"/>
        <path class="cls-1" d="M390.68,74.65c.2-.3.45-.6.7-.87.12-.14.26-.27.39-.4l.41-.38c.55-.5,1.16-.93,1.77-1.34,1.23-.82,2.55-1.5,3.91-2.11,1.43-.64,2.81-1.47,4.01-2.51.6-.52,1.15-1.1,1.63-1.74.59-.74.81-1.79.87-2.19-.19.31-.43.61-.67.89-.24.28-.5.55-.77.8-.54.51-1.13.96-1.73,1.38-1.22.84-2.52,1.54-3.88,2.15-1.43.63-2.81,1.44-4.03,2.46-.61.51-1.17,1.07-1.67,1.7-.61.77-.9,1.76-.94,2.17Z"/>
        <path class="cls-1" d="M366.87,109.43c-1.12-4.27-1.2-6.59-1.2-6.59,0,0-1.3,3.07-.08,7.27.37,1.28.52,1.57.77,2.88.39,2.02,0,3.82.01,3.84.02.06.78-1.12.9-1.39.57-1.23.47-2.61.17-3.88-.2-.83-.3-1.11-.57-2.13Z"/>
        <rect class="cls-1" x="387.94" y="112.17" width="2.53" height="2.53" transform="translate(48.75 333.53) rotate(-49.13)"/>
        <path class="cls-1" d="M382.55,110.35c-.19-1.34-.28-6.49.24-7.51,0-.02.02-.03.02-.05,0-.07-.11-.05-.17-.01-.59.4-1.33.55-2.05.55s-1.42-.15-2.14-.22c-1.53-.15-1.9,2.08-1.72,2.58.54-.39,1.28-.23,1.94-.15.57.07,1.14.07,1.71,0,.41-.05,1.16-.41,1.16-.41,0,0-.49,1.89-.32,5.43.15,3.28,1.89,6.49,2.03,6.24.35-.6.6-1.23.87-1.87.04-.08.02-.16-.03-.23-.88-1.33-1.33-2.79-1.55-4.37Z"/>
        <path class="cls-1" d="M374.81,109.27c-.03-.41-.06-.82-.09-1.23,0,0,0-.02,0-.03-.08-1.04-.18-2.07-.4-3.08-.05-.25-.39-2.13-2.28-2.13-1.74,0-2.47,2.2-2.47,4.06,0,3.77,3.81,1.14,3.81,1.14,0,5.9,2.08,9.04,2.22,8.8.35-.6.6-1.23.87-1.87.04-.08.02-.16-.03-.23-1.07-1.63-1.49-3.53-1.64-5.44Z"/>
      </g>
    </g>
  </g>
</svg>