<?xml version="1.0" encoding="UTF-8"?>
<svg id="Layer_1" xmlns="http://www.w3.org/2000/svg" version="1.1" viewBox="0 0 1920 1080">
  <!-- Generator: Adobe Illustrator 29.5.1, SVG Export Plug-In . SVG Version: 2.1.0 Build 141)  -->
  <g>
    <path d="M1186.42,43.24v7.56h42.89v-7.56h30.27v7.56h42.89v-7.56h29.01v7.56h96.5c2.48,0,7.62,4.02,8.16,6.97.96,5.14.73,25.87.06,31.51-.21,1.74-.37,3.39-1.45,4.86-46.49,57.1-98.06,110.18-144.89,166.95-5.97,7.24-15.51,15.74-13.89,25.47h20.18l.55-6.39,20.11-1.02c2.81.79,1.43,5.55,3.22,6.86,2.43,1.78,35.7.26,40.96-.84,30.14-6.31,20.03-42.94,22.21-64.79.78-7.76,8.64-20.82,17.01-20.82h29.01c2.58,0,2.58,8.83,0,8.83h-29.01c-.28,0-4.06,2.92-4.45,3.45-8.04,10.74-.8,41.04-5.36,56.09-10.75,35.47-42.77,24.65-71.55,26.19l-.17,8.03c-1.21,3.75-17.42,1.91-21.35,1.51l-1.18-9.54h-20.18v22.69c30.46-4.44,31.58,33.92,18.71,52.11-12.34,17.44-39.35,5.37-55.36,10.23-4.19,1.27-6.28,5.7-7.5,9.51,5.7-2.17,9.02,2.62,13.88,4.41,18.21,6.71,34.57,11.53,51.74,21.41,48.75,28.07,77.92,81.12,84.55,136.13l-.06,468.43h29.01v-376.34l1.89-1.89h32.17c-1.98-16.53,2.44-24.7,20.18-22.69v-76.91h-32.17c-6.1,0-19.01-12.47-18.29-19.54l.02-240.78c1.09-12.19,9.71-29.76,18.89-37.86,12.88-11.36,28.09-16.02,44.87-18.19l.56-8.91c-.88-.89-10.91,1.78-12.62-1.89v-20.8h12.61v-34.67c0-13.13,16.4-26.52,28.19-29.82,16.85-4.71,76.66-3.9,96.1-2.37,32.73,2.56,50.62,24.47,52.36,56.09,4.93,89.37-3.54,183.47-.39,273.32-1.81,12.33-13.44,22.99-26.15,22.4-1.66,11.54,3.72,37.16-3.76,46.04-10.66,12.66-30.54,3.5-43.51,8.02-1.41.49-3.19,1.55-3.19,3.3v32.15l11.17.18.89,20.08-12.07,1.17v12.62c3.49-.69,16.4-.21,16.4,4.41v34.67l75.66-.61c.6.28,2.54,2.28,2.54,2.5v52.32h21.44c-4.49-4.23-8.04-6.4-8.86-13.21l.16-185.23c.91-7.86,8.74-22.79,13.45-29.42,3.66-5.15,24.26-23.7,24.26-27.45v-35.3l1.89-1.89h31.53l1.89,1.89v35.3c0,2.01,23.03,25.28,26.52,30.23,6.53,9.23,10.43,19.29,12.45,30.42l.13,178.9c-.28,6.58-5.11,10.99-8.83,15.76h28.38l1.89,1.89v47.28h-19.55l-1.89,1.89v271.06l1.89,1.89h59.29c4.46,0,8.12,4.76,1.22,6.27-582.94,3.07-1166.41.36-1749.56,1.35-2.65-.19-14.14-.75-11.33-5.14,1.48-1.34,3.19-2.11,5.16-2.41,8.13-1.23,52.89,1.89,54.78-.09,1.75-7.42.39-15.9,1.57-23.02.83-4.97,7.96-16.73,7.37-20.33-5.57-2.8-6.54-2.23-6.51-8.98.1-23.04,3.46-50.83,5.16-74.35.75-10.32,3.81-22.31,3.88-32.79.1-15.2-3.12-32.68-3.88-47.93-1.11-22.17-1.81-44.42-2.48-66.61-.49-2.06-8.01-1.23-7.64-5.22-1.63-32.32,3.75-66.26,1.32-98.4-.51-6.76-3-13.55-3.67-20.29-4.51-45.52,3.61-85.84,41.54-114.49,9.4-7.1,28.84-15.36,35.03-24.25,3.18-4.56,10.29-19.87,10.14-25.05-.11-3.87-4.28-7.28-5.53-10.66-3.3-8.96-2.71-33.58.05-42.85,12.94-43.52,70.93-41.22,91.94-6.23,1.58,2.63,4.53,11.18,5.75,11.9,2.33,1.38,12.11-.18,12.72,2.62l-1.26,5-14,2.65c-3.6,15.46,7.22,27.96,8.78,41.51,2.15,18.71-13.25,10.61-15.75,14.3-.47,24.47-14.26,36.4-38.8,30.49l-9.56,16.13c3.84,3.04,10.25,10.99,12.75,15.62,9.18,17,10.7,38.83,13.64,57.61l9.46-34.02c10.76-23.59,28.17-36.49,50.62-47.75,15-7.52,21.68-5.44,26.34-25.35,2.83-12.07-2-13.2-2.02-22.1-.02-5.19,3-12.22,3.73-17.81.94-7.19-.42-13.24,1.83-20.87,10.4-35.29,63.68-42.96,80.55-8.2,1.67,3.45,6.36,15.22,3.59,17.91l-7.62,2.51c1.41,5.36,1.57,10.55,2.91,16.01,3.1,12.64,19.26,38.35-4.06,37.65-1.01,17.3-10.54,35-30.25,32.81-5.19,10.63,2.27,12.14,7.23,19.64,14.48,21.93,14.57,46.85,16.63,72.27,17.25-4.42,35.32-1.85,52.97-2.53-2.92-3.9-.12-7.49-.11-10.84.06-31.53-2.8-65.43,5.23-96.87,9.29-36.39,30.61-69.55,61.52-91.06l.82-64.89-130.38-170.82c-1.84-3.56-2.36-29.57-1.16-33.63.8-2.73,2.9-3.14,5.36-3.46,15.51-2.06,35.59,1.59,51.63.14,4.39-13.16,20.48-13.91,31.56-8.98,4.69-9.02,13.35-12.81,23.54-10.71,6.08,1.25,11.84,8.29,16.76,7.08.58-.14,3.7-7.16,7.19-9.47,6.33-4.19,16.52-4.54,23.08-.5,2.54,1.56,4.98,6.14,5.43,6.2,2.57.39,8.36-2.87,12.41-2.69,5.06.23,7.65,4.31,10.4,4.87.92.19,17.45.32,18.57.22,5.36-.5,7.17-5.16,17.42-3.44,6.58,1.11,9.03,6.18,11.9,7.01,7.06,2.05,12.69-2.16,18.6,6.69.87,1.31.52,3.64.71,3.64h44.78l1.89,1.89v35.3c0,.71-8.09,9.04-9.38,10.79-39.15,53.13-79.5,105.5-119.28,158.15v42.24c30.34-3.43,60.96-2.99,91.5-3.73,64.51-1.57,129.66-3.19,194.26-2.64,2.64.02,5.02.38,7.48,1.3l1.74-1.82c-2.75-4.75-.13-9.35.16-13.93,1.14-17.93,1.8-35.93,5.65-53.61,4.72-21.71,21.5-44.66,45.72-30.48,6.79,3.98,26.79,28.96,31.57,36.43,1.13,1.76,2.55,2.85,4.11,1.64-1.52-3.1-3.06-6.29-5.1-9.09-7.08-9.75-24.47-30.1-35.28-34.37-33.74-13.35-47.21,21.51-50.56,48.41-21.14-3.09-24.35-30.88-14.82-46.97,3.17-5.35,15.64-14.47,15.99-15.54.93-2.79-.18-7.3.51-10.84,4.32-22.46,27.69-20.85,36.53-37.87,4.57-8.79.48-9.23-.19-15.45-2.97-27.81,12.38-60.68,42.51-64.54,24.22-3.1,50.26,8.28,60.85,30.66,13.83-3.25,13.89,7.59,0,5.58-.06,8.63-.32,17.89,2.13,26.25,1.69,5.74,10.43,19.52,9.06,24.55-1.3,4.73-9.37,4.08-10.63,5.86-.68.96-.99,11.58-2.16,15.49-3.55,11.83-14.77,20.6-27.4,18.63l-.07,13.11c20.78,5.77,33.87,25.93,52.96,35.48,10.72-5.71,20.55-14.19,31.6-20.24,14.51-7.94,36.7-19.1,53.31-16.66,5.07.74,9.05,4.01,13.02,4.64,7.93,1.26,20.42-.08,29.02,0,1.9.02,7.83,2.36,6.24-1.18l-163.46-189.65c-2.41-5.53-2.19-31.47,1.54-36.48.64-.86,5.14-4.59,5.5-4.59h101.54v-7.56h29.01ZM1428.6,60.89h-373.37v25.22h373.37v-25.22ZM1424.82,93.67h-364.54l22.01,24.7,323.35-1.02,19.18-23.68ZM1398.33,125.19h-310.3l20.2,24.51,266.74.68c5.3-1.01,18.76-20.63,23.36-25.19ZM603.41,137.56l2.65-6.46c-5.05-7.36-13.96-5.61-18.78,1.02,0,1.65,13.87,6.75,16.13,5.44ZM563.29,144.09c-2.45-4.32-1.09-6.62,2.5-9.44.04-4.59-26.85-2.23-18.05,9.51l15.56-.07ZM612.49,144.09c5.54-.62,16.89,2.35,19.58-3.83,4.86-11.14-21.98-10.33-19.58,3.83ZM662.95,134.02c0,8.47,9.86,10,15.11,4.41-4.29-4.6-9.08-4.97-15.11-4.41ZM1487.89,164.9c-.89,9,.65,19.22,0,28.37h12.61v22.69h-12.62s.18,8.65.18,8.65c24.08,2.51,47.7,13.88,59.37,35.85,1.4,2.63,6.05,15.78,6.05,17.91v64.93h34.69c3.79,0,14.87,5.81,17.66,8.83,9.89,10.68,6.47,25.23,6.89,38.5.53,16.84,1.56,33.54,1.36,50.43-.04,3.37-1.49,6.45-1.42,10.03.26,13.2,13.88,23.59,25.97,15.77,6.35-4.1,7.73-11.2,8.25-18.23,5.5-74.05-4.28-154.81,0-229.57-3.32-31.76,7.09-71.84-33.85-82.16-16.01-4.03-72.06-3.06-90.5-1.68-9.55.71-20.33,3.55-27.12,10.72-4.49,4.75-6.89,12.61-7.52,18.96ZM638.98,144.1h18.92c-5.73-7.68-15.68-12.64-18.92,0ZM515.36,144.1h20.18c.6-2.94-.35-2.02-1.62-2.84-5.57-3.58-15.05-3.26-18.56,2.84ZM568.34,144.1h27.75l-8.81-4.43c-6.37-1.43-14.73-1.48-18.94,4.43ZM1042.62,166.78c-21.85-31.31-71.5-26.08-79.47,13.87l79.47-13.87ZM743.67,151.67h-285.07v25.22h285.07v-25.22ZM1369.32,157.97h-253.54l18.83,22.15,5.68,1.88,208.18-.1,2.63-1.15,18.2-22.78ZM1045.14,170.58l-81.03,16.71c-4.14.88-6.29,4.38-6,8.49,3.02.29,5.91-.07,8.89-.56,19.28-3.14,57.02-14.45,75.37-21.81,1.91-.77,3.41.74,2.77-2.84ZM1059.02,224.78c-1.38-7.28-6.61-13.76-8.26-21.36-.92-4.21-.76-22.86-5.12-23.85-1.06-.24-19.6,6.05-20.62,6.83-2.01,1.53-3.38,6.58-5.54,8.96-2.21,2.45-12.8,10.73-15.64,11.47-10.2,2.64-9.76-5.47-16.36-6.99-18.92-4.35-11.85,23.6,3.31,25.14,1.45,19.98.18,35.38-18.79,45.83,6.4,4.72,14.12,8.48,18.89,15.13,3.46,4.82,5.31,14.85,8.85,17.63,4.06,3.19,18.17,5.75,19.94-.26,1.12-3.78-1.98-18.41-2.34-23.63-.29-4.2,1.34-11.31.95-13.75-.46-2.84-7.11-6.8-4.14-10.97s7.01,1.45,9.24,2.26c14.94,5.41,20.66-2.76,25.48-15.44-.18-2.99-14.81-.29-12.56-8.17l12.61,1.24-1.08-8.64,11.17-1.44ZM739.89,183.18h-276.24c-.33,2.33,1.65,3.63,2.79,5.4,3.06,4.73,9.93,13.3,13.67,17.55,1.72,1.95,4.75,5.6,6.89,6.02l160.23-.04c1.23-.03,6.65,1,6.88,1.34.71,1.07-.6,5.03-1.89,5.03h-160.2c-.21,0-2.2,1.94-1.88,2.5,5.64,1.6,18.39,26.5,22.06,26.5h111c2.38,0,2.38,6.3,0,6.3h-106.59l19.81,26.5c17.16,1.69,38.71-2.32,55.31-.09,8.02,1.08,7.04,6.68-1.3,7.65s-23.82.35-32.76.03c-4.78-.17-10.47-2.49-15.82-1.3l27.74,37.19,62.21.38,108.08-140.97ZM1342.83,189.49h-200.56l20.19,23.31,158.27.62,22.1-23.93ZM1315.08,221.01h-145.06l23.89,27.18,5.67,1.9,89.37-.35c5.4-1.21,6.6-6.84,9.76-10.42,5.39-6.12,11.43-11.8,16.37-18.31ZM1537.08,258.83c-22.85-34.84-84.03-35.95-105.96,0h105.96ZM1284.81,256.31h-83.25c6.09,5.66,9.2,16.85,18.21,17.73,16.27,1.58,33.89-1.88,50.27-1.6l14.77-16.13ZM1434.91,265.13l-8.65.18c-.58.36-3.96,12.21-3.96,13.06v231.35h12.61v-244.59ZM1458.88,265.13h-17.66v244.59h16.4s.05-135.59.05-135.59c-5.93-13.04-1.27-19.89-.04-31.46,2.32-21.78-.65-49.29-.08-71.95.05-2.15.41-3.71,1.33-5.6ZM1481.58,265.13h-17.66v70.6l17.66-8.19v-62.41ZM1505.55,265.13h-18.92v62.41c2.95,2.73,7.38,1.98,11.37,3.77,3.06,1.37,4.35,4.27,7.55,4.43v-70.6ZM1528.25,265.13h-17.66l-.03,76.31c6.12,12.27,3.27,21.58-.02,33.95l.05,134.33h17.66v-244.59ZM1533.3,265.13v244.59h13.88v-227.57c0-4.48-5.12-11.85-5.17-16.89l-8.71-.13ZM1267.15,280.26h-41c-.95,0-2.4,1.62-4.4,0l2.09,3.57,13.04,1.49-8.84,30.24h39.1v-35.3ZM1171.1,287.98c-.69-1.15-12.28-3.95-14.39-3.97-10.51-.11-39.12,14.37-49.35,19.99-20.2,11.09-39.32,26.07-59.31,37.8-3.83,2.25-18.25,11.13-21.19,11.6-.74.12-2.08.33-1.89-.64.72-1.59,6.39-4.1,3.75-6.28-2.84-2.34-8.85-4.13-12.48-6.44-10.47-6.65-10.4-13.4-22.15-4.28-8.99,6.98-16.33,18.49-19.35,29.45,5.27,5.48,11.34,9.77,17.84,13.61,30.03,17.7,39.87,21.83,68.3-.25,21.05-16.35,41.25-35.86,62-52.76,6.71-3.81,14.6.13,21.22-.11,2.21-.08,14.93-3.08,12.05-6.34-4.79-1.94-11.34-.35-15.6-1.44-1.5-.38-2.74-1.93-.82-3.01,5.86-3.28,21.28,5.22,25.27,2.56,3.4-2.36-3.68-7.83-5.39-8.52-5.97-2.42-12.51,1.22-17.32-2.86-1.66-3.37,9.37-3.3,10.76-3.21,5.26.35,7.29,2.86,11.93,3.84-2.7-10.95-11.11-10.69-20.8-10.07-1.64-.2-1.34-4.07,2.58-4.99,7.9-1.86,15.38-1.49,22.66,2.42,1.9-1.08,2.71-4.42,1.7-6.11ZM1312.56,285.27h-8.86s.02,12.67.02,12.67h8.86s-.02-12.67-.02-12.67ZM1226.78,291.62l-46.49-1.07-7.77,14.28c6.87,6.83,9.5,34.28,15.92,38.35,4.54,2.88,17.42,1.68,21.26-2.45,6.95-7.47,12.68-38.39,17.08-49.11ZM1265.89,323.13h-40.36c.29,4.78-3.55,8.78-3.87,13.25-.44,6.18,4.36,11.05,1.99,17.02l-46.04,34.03,39.58.97c7.04-4.94,13.44-16.06,22.13-18.07,10.95-2.54,38.68,3.01,45.35-3.85,3.04-3.13,4.54-9.61,7.72-13.07-3.03-.15-4.22,2.82-7.2,3.51-5.07,1.16-19.29.34-19.29-6.67v-27.11ZM1173.79,326.92l-51.2,36.43-37.46,4.16c-5.87,4.55-11.05,10.05-16.64,14.89-2.44,2.11-6.44,1.55-5.68,5.03,2.42.26,4.63-1.27,6.99-1.3,31.18-.39,62.64-.11,93.82.69l50.53-35.33.63-5.67c-9.68,6.09-20.1,8-30.78,3-7.29-3.41-7.87-14.9-10.21-21.89ZM624.47,331.95c-14.78.69-30.5,0-45.41,0-.58,0-3.34-3.53-3.14.61l11.54,16.83c5.97-1.36,24.35,3.47,27.64-.39.83-.97.8-2.92,1.66-3.97,3.33-4.08,6.52-8.16,9.59-12.48.32-3.85-1.3-.64-1.88-.61ZM1154.88,330.71c-12.82,4.46-25.98-5.27-35.34,5.93l-2.51,20.52c1.97.47,2.91-.38,4.44-1.22,10.49-5.78,23.06-18.28,33.4-25.23ZM1479.99,336.05c-7.05,1.2-16.12,9.66-17.24,16.79-4.33,27.52,31.39,35.09,41.76,14.01,8.23-16.72-6.94-33.78-24.52-30.8ZM1588.17,352.13c-10.04-1.67-24.16,1.23-34.69,0v173.35c0,5.72-11.71,15.76-17.03,15.76h-44.78c-1.42,18.46,1.97,29.99,22.03,31.56,14.36,1.12,29.21-1.16,43.53-.04l2.08-4.89,11.84-.15c1.35-8.86-3.07-34.46,3.08-40.41,11.3-10.92,44.08,6.99,46.16-15.64.43-4.62.71-31.03-.27-33.89-1.13-3.33-13.12-6.02-14.82-17.97-3.76-26.52,3.41-61.02-.44-87.82-1.2-8.35-8.06-18.44-16.7-19.87ZM950.14,357.59c-1.26-1.11-6.03-3.15-4.63.2,1.53,3.68,14.68,13.43,18.81,15.26,1.83.81,1.49,3.07,3.86-.11-3.6-3.23-8.2-5.17-11.93-8.23-2.77-2.28-4.26-5.47-6.11-7.12ZM642.76,447.94h-24.6c-1.73-1.67-2.99-4.7-3.07-7.03-.82-24.44.36-51.07,1.17-75.64.08-2.45,0-6.54-1.89-8.1h-26.49l-1.48,2.5,1.1,94.96c4.16,4.86,34.23,39.97,36.96,39.97h18.92c1.8-1.11,1.74-2.51,1.96-4.35.88-7.51.73-25.22,0-32.91-.36-3.82-1.57-5.95-2.59-9.39ZM1481.58,386.17c-6.55-.49-12.35-4.07-17.66-7.56v131.12h17.66v-123.55ZM1505.55,378.6c-3.21.17-4.49,3.04-7.56,4.43-3.33,1.5-7.71,2.72-11.36,3.14v123.55h18.92v-131.12ZM1191.46,492.07c-6.89-31.47-28.43-64.49-54.34-83.74-4.29-3.18-20.39-13.43-24.78-14.32-7.6-1.54-49.55-1.47-57.66-.2-6.25.98-14.58,8.7-22.77,8.76-7.65.05-15.64-6.06-21.74-7.3-29.38-5.95-88.35-1.74-120.87-1.61-22.36.09-44.75.26-67.01.54-16.9.21-33.93,1.46-50.87.8l22.56,13.36c15.43,11.6,29.29,25.7,40.26,41.71,9.07,13.24,14.89,27.85,22.31,42h334.9ZM1177.59,393.73h-49.19l10.49,6.54,15.37,12.42c8.11-5.83,16.7-11.38,23.33-18.96ZM751.87,394.99c-9.95-1.89-25.35,1.4-35.95,0l29.86,12.39c50.87,26.72,80.39,81.69,83.65,138.28,2.51,43.5-1.85,89.27.01,133h27.75v-149.4c0-20.99-20.17-63.27-32.85-80.34-13.82-18.62-49.51-49.56-72.48-53.93ZM1210.38,394.99h-24.6c-1.69,0-22.32,19.33-27.09,20.22,1.02,9.23,12.02,9.51,18.85,6.84,2.88-1.13,24.57-18.71,28.39-22.06,1.59-1.4,3.62-3.04,4.45-5.01ZM1186.42,422.73h28.38l27.09-22.06c-5.16-3.63-18.21-6.01-23.89-3.73-2.53,1.02-24.89,18.94-28.39,22.05-1.17,1.04-2.81,2.19-3.19,3.74ZM652.85,397.51l-30.27,2.52v40.34c13.53.53,27.47-1.48,29.01,15.76.46,5.14-.02,13.1.06,18.87.07,5.05-.27,10.14-.06,15.19.07,1.55-.96,4.68,1.26,4.4v-97.08ZM821.88,707.66v-164.52c-5.65-65.84-43.53-122.58-108.78-140.92-4.2-1.18-15.78-4.71-19.25-4.71h-33.43v96.45c0,3.11-6.58,7.33-9.76,7.9-4.01.72-25.14.97-28.06-.36-2.19-1-23.82-23.4-27.16-27.07-1.98-2.17-14.49-15.92-14.49-17.04v-30.89c-2.2-.55-2.52.9-3.79,1.88-58.3,44.83-59.36,117.78-56.76,185.34l1.84,2.84,17.09.31c-.52,20.29,1.29,42.56-18.93,53.59v37.19h301.47ZM1224.26,422.73h30.9c.81,0,10.85-8.9,12.39-10.31,1.21-1.11,2.71-1.13,2.12-3.54l-20.79-6.33-24.62,20.18ZM1263.36,422.73h25.86c.2,0,3.69-1.24,3.14-2.51l-15.77-7.52-13.23,10.03ZM281.37,430.29c12.61-.11,25.23.08,37.84,0,12.83,13.29-4.87,36.71-15.03,18.81-3.39-5.98-1.36-8.04.52-13.77h-25.23c-.52,0,.65,8.06-5.47,7.25-6.33-.83-6.97-13.57-19.04-12.19-9.26,1.06-8.73,17.04-2.86,22.2,2.62,2.31,11.23,2.46,9.7,7.31-1.67,5.28-13.31-1.11-13.85-.62-2.83,12.41-7.55,23.08-15.88,32.7,8.03,13.74,20.76,25.3,36.04,30.34l10.83-20.21c-5.42-3.39-9.43-8.41-9.54-15.09,8.81,0,8.08,7.78,17.31,11.06,15.34,5.44,24.24,2.25,30.58-12.97-5.98-3.51-15.46-2.18-15.09-11.96,6.86-1.38,9.1,5.77,16.4,3.78l1.18-8.28,12.7-.54c.15-16.4-10.43-31.2-8.83-47.92l-42.1.17c-1.87.64-3.64,7.57-3.32,9.27.53,2.85,3,.66,3.16.66ZM1206.6,427.77h-28.38c-.45,0-5.87,4.69-6.92,5.67l10.68,14.43,24.62-20.1ZM1246.96,427.77h-30.9l-30.83,24.76c3.17,6.59,4.11,17.91,13.76,13.64l47.98-38.4ZM1283.54,427.77h-27.12c-3.12,0-43.42,33.91-48.56,39.08h27.12l48.56-39.08ZM1244.44,466.86h29.64l38.47-32.16c-6.68-5.36-15.42-10.34-23.91-4.98-9.9,6.25-29.28,22.65-38.49,30.87-2.02,1.8-4.42,3.89-5.71,6.27ZM1752.78,427.77h-22.7l.17,4.25,1.72,2.06h20.81v-6.3ZM311.9,435.52c-5.07,1.43-4.22,11.19-.92,14.34,7.16,4.31,9.96-10.02,5.1-13.94l-4.18-.4ZM1282.28,466.86h28.38l19.53-15.76c-4.89-4.15-7.4-10.01-13.24-13.02l-34.67,28.78ZM463.65,439.11l-37.93.56-4.98,24.66c-3.64,2.47-17.09-16.34-24.02-7.92-7.49,9.1,1.14,23.74,12.55,23.17,3.12,10.93-13.07,2.89-13.74,3.66.27,9.73-5.79,17.94-8.56,26.9,4.77,12.54,16.87,33.26,32.89,29.56,5.94-1.37,12.32-12.33,11.04-17.76-.2-.85-15.28-11.09-6.98-13.48,3.71-1.07,5.03,4.34,7.52,6.33,10.78,8.66,25.41,2.1,27.15-11.37-16,.92-14.4-8.72,1.27-6.32.68-2.99-3.02-8.75-.07-10.79l13.83-.69c-3.29-15.56-12.43-29.52-9.97-46.52ZM1692.23,498.38h98.39c-2.73-25.32-26.09-37.32-37.82-57.38l-23.82-.45c-4.86,15.85-20.78,22.93-28.95,37.25-3.79,6.64-5.58,13.38-7.79,20.58ZM1342.83,466.86l-9.45-11.04-14.52,11.04h23.97ZM1226.78,471.91l-30.28.58c-3.03,2.02,3.43,16.03,4.44,19.57l3.17.69c2.38-2.17,4.41-4.97,6.93-6.95,1.6-1.25,18.08-11.81,15.73-13.89ZM1262.73,471.9c-4.45-1.11-18.21,0-23.97,0-2.4,0-34.1,24.91-35.37,27.72-.48,1.06,3.57,8.41,1.94,11.37l13.83-.69,44.85-35.87c1.18-.67-.94-2.45-1.28-2.53ZM1226.78,510.98h28.38c3,0,39.48-34.91,47.29-36.59l-.64-2.51c-11,1.71-22.48-3.34-32.03,3.29-11.36,7.87-29.29,22.72-39.81,32.07-1.17,1.04-2.81,2.19-3.19,3.74ZM1339.05,471.9h-27.12c-2.65,0-37.11,28.82-41.59,32.81-2.02,1.8-4.42,3.89-5.71,6.27h28.38c13.72-12.96,30.45-23.73,44.42-36.2.84-.75,2.41.09,1.62-2.88ZM1301.2,510.98h27.12l26.56-21.46c1.01-2.07-5.54-14.58-7.79-15.04l-45.89,36.5ZM1364.27,510.98c-1.03-3.37-3.8-15.66-7.07-16.34l-19.42,16.34h26.49ZM895.04,514.77c-.73-5.23,1.9-12.38-1.89-16.39h-34.69l3.78,16.39h32.8ZM942.97,498.38h-42.89l.15,15.61,1.74,1.75c.51.04.95-.97,1.26-.97h38.47l1.26-16.39ZM989.64,498.38h-40.36l-2.52,16.39h40.36l2.52-16.39ZM1036.31,498.38h-40.36l-2.52,16.39h39.1l3.78-16.39ZM1082.98,498.38h-40.36l-3.78,16.39h39.1l5.05-16.39ZM1129.66,498.38h-39.1l-7.57,16.39h40.36l6.31-16.39ZM1176.33,498.38h-39.1l-7.57,16.39h37.84c1.13-6.4,5.96-10.88,8.83-16.39ZM1195.19,498.43c-17.27-3.89-13.04,7.98-22.65,15.69l25.22,1.89-2.57-17.59ZM1791.88,504.68h-99.65v23.95h99.65v-23.95ZM223.98,562.67v64.93c0,.64-2,2.65-1.26,4.41,8.12.1,16.51.45,24.59,1.27,15.96,1.63,50.85,8.89,64.4,3.84,16.81-6.27,23.62-16.08,45.43-17.79,2.28-.18,4.63,1.32,4.98,1.28,2.8-.26.62-3.97.58-5.59-.18-6.74.29-13.52.08-20.26s-3.79-14.56.7-20.83l4.38.62,2.43,44.84h30.9c.65,0,2.87,1.53,4.22,1.46l.74,6.19c.84,1.28,2.48,1.07,3.81,1.23,4.69.59,24.59,1.27,28.92.83,4.01-.41,11.06-6.77,15.84-7.31-2.6-19.47-2.23-43.96-10.15-62.16-1.67-3.84-10.78-19.51-15.37-18.28-2.44.66-3.33,4.23-9.06,4.93-19.76,2.4-32.94-16.08-38.52-32.8-36.86,11.37-61,32.52-69.76,70.83-3.86,16.9-2.71,34.28-8,50.26l-76.11-6.37c.93-1.89,1.28-3.44,1.33-5.59.39-15.71,1.64-42.76-2.23-57.23-.61-2.26.37-3.25-2.89-2.73ZM1547.17,516.03h-124.88c-1.15,8.72,3.65,15.27,12.05,17.58,31.65-2.07,67.22,2.98,98.39.13,10.11-.92,14.66-7.92,14.44-17.72ZM1245.7,517.29h-29.64c-1.08,0-8.2,6.39-8.2,6.93v24.58l37.84-31.52ZM1284.81,517.29h-29.64l-44.17,35.29c-1.18.8.46,1.95,1.27,2.19,1.9.57,25.09-.94,27.08-1.61l45.47-35.87ZM1318.86,517.29h-25.86l-46.04,36.56h29.64c13.37-12.98,29.42-23.2,42.26-36.56ZM1356.71,517.29h-28.38c-14.01,12.72-30.16,23.3-43.52,36.56h27.12l44.78-36.56ZM1321.39,553.85h28.38l21.87-19.79c.4-1.7-2.74-12.3-3.57-14.91-.43-1.36.9-2.27-1.92-1.88l-44.76,36.58ZM863.46,521.07v31.52h99.69v-31.52h-99.69ZM967.48,521.07v31.52h90.27v-31.52h-90.27ZM1153.62,521.07h-90.82v31.52h90.82v-31.52ZM1199.03,521.07h-40.36v31.52h41.63c.33-10.58-.1-21.04-1.26-31.52ZM1791.88,534.94h-99.65v23.95h99.65v-23.95ZM1356.71,553.85h17.66l-1.9-12.62-15.75,12.62ZM1474.01,541.24v76.91c19.55-2.4,23.25,4.13,21.44,22.69h61.81v-33.41c0-.82,1.97-5,3.32-5.51l10.56-.16v-12.62s-12.7-.54-12.7-.54l-1.17-8.28c-33.35-1.58-80.4,11.99-74.42-39.08h-8.84ZM864.76,556.37v37.82h49.19v-37.82h-49.19ZM1011.09,556.37h-92.08v37.82h92.08v-37.82ZM1015.18,556.37v37.82h89.25v-37.82h-89.25ZM1109.5,556.37v37.82h90.8v-37.82h-90.8ZM1229.3,560.17l-21.45,1.24.02,16.4c7.63-5.04,15.53-10.5,21.43-17.64ZM1267.15,560.15h-28.38l-30.25,25.24-.66,11.33c5.79-.5,12.5,1.54,17.61-1.95l41.68-34.62ZM1303.73,560.15h-27.12c-2.74,0-37.61,29.36-43.19,33.67-1.05.82-2.29-.04-1.59,2.89h28.38l43.52-36.56ZM1341.57,560.15h-28.38l-43.52,36.56h27.12l44.78-36.56ZM1375.63,560.15h-25.86c-12.64,11.71-28.86,21.56-41.4,33.01-1.24,1.13-2.69,1.12-2.12,3.55h28.38c2.38,0,34.61-26.65,37.28-29.56,2.01-2.18,2.71-4.33,3.71-7.01ZM1791.88,565.2h-99.65v51.69h15.14v-22.06c0-3.72,13.22-4.91,14.93.21.75,2.24.93,38.74-.07,40.5-1.73,3.04-9.59,3.19-12.66,1.53-3.38-1.83-1.91-10.62-2.19-13.87h-15.14v44.13h99.65v-102.12ZM1375.63,571.5c-2.84.43-5.92,3.28-8.17,5.07-7.95,6.35-16.06,13.05-23.37,20.14h25.86c.4,0,5.68-5.27,5.68-5.67v-19.54ZM1564.85,582.83c5.81-1.01,23.45,3.52,20.02-6.76-1.29-3.85-15.39-1.55-19.23-1.87l-1.54,2.4.75,6.23ZM864.76,597.98v36.56h98.39v-36.56h-98.39ZM966.94,597.98v36.56h90.82v-36.56h-90.82ZM1062.8,597.98v36.56h90.82v-36.56h-90.82ZM1200.29,597.98h-41.63v36.56h41.63v-36.56ZM1253.27,601.76h-28.38l-17.03,14.5v22.06l45.41-36.56ZM1288.59,601.76h-27.12l-43.52,36.56h27.12c2.85,0,38.97-31.65,43.52-36.56ZM1327.69,601.76h-29.64c-2.51,0-34.71,27.66-39.07,31.55-1.59,1.42-3.62,3.03-4.45,5.01h29.64l43.52-36.56ZM1364.27,601.76h-27.12c-2.9,0-40.01,31.81-44.78,36.56h27.12l44.78-36.56ZM1375.63,601.76c-3.69.97-7.65,4.04-10.7,6.33-12.13,9.1-24.22,20.51-35.97,30.23h28.38l18.29-15.76v-20.8ZM1587.54,608.06h-22.07l-1.89,1.89v30.89h23.97v-32.78ZM437.15,637.06v31.52h35.95c2.69,0,11.68-3.67,10.59-7.95-1.73-6.75-11.85.01-16.26-.88v-3.77c4.09-1.61,22.05-.95,20.17-6.93-2.37-5.25-19.01,2.76-17.64-3.77.74-3.56,12.36-.63,15.65-3.04l.8-4.36c-4.77-3.94-10.93.03-17.1-.81-1.72-.24-3.71-.66-1.86-2.5,29.46-3.18,22.61-16.82-3.81-9.5-9.26,2.57-17.18,9.4-26.47,12ZM531.13,623.19h-38.47c2.12,3.86.04,7.12.25,10.43.11,1.73,1.78,3.6,1.89,5.49.31,5.21-1.96,16.13,2.08,20.2,3.05,3.07,10.95,5.68,15.29,5.54,17.14-.56,20.36-26.27,20.33-39.08,0-1.47-.09-1.63-1.37-2.57ZM1453.2,642.1h34.06c3.03-3.39,3.4-14.7-.93-16.72-4.09-1.91-28.63-1.53-32.44,1.02-3.9,2.61-2.25,9.93-2.1,13.86l1.42,1.84ZM398.05,626.97h-41.63l-1.25,11.28c9.96,1.16,14.99,19.79,11.65,27.49-1.66,3.82-6.49,3.7-6.62,7.88h19.55c4.73,0,13.72-8.91,15.5-13.5,1.46-3.78,4.05-31.88,2.79-33.14ZM312.91,676.14c6.29-.73,14.82,0,21.44,0,2.34,0,12.21-2.92,14.58-4.34,4.39-2.62,7.44-6.36.62-7.07-1.01-.11-13.81-.04-8.28-3.11,4.56-2.54,17.85,1.7,18.94.64,1.23-5.35-9.18-9.89-13.26-10.17-2.51-.17-8.79,2.5-9.43-.56-1.67-8,20.61,1.47,21.43.64-1.71-10.3-12.91-10.74-21.44-10.09l.76-3.89,10.54-2.46-.59-7.53c-13.61,2.58-24.88,10.91-36.58,17.65l-1.87,31.53c1.41.47,2.6-1.19,3.14-1.26ZM1375.62,630.76c-.88-1.01-9.6,5.8-10.08,7.55l8.91-.54,1.17-7.01ZM429.59,634.54h-23.97c-.49,12.66-.84,26.16-8.83,36.56h32.8v-36.56ZM913.96,639.58h-49.19v22.69h49.19v-22.69ZM1011.09,639.58h-92.08v22.69h92.08v-22.69ZM1104.43,639.58h-88.3v22.75h88.3v-22.75ZM1200.29,639.58h-90.82v21.43h90.82v-21.43ZM1238.13,643.36h-28.38l-1.89,1.89v22.06c2.88-.42,5.85-3.27,8.17-5.07,7.57-5.87,15.35-12.07,22.11-18.88ZM1275.98,643.36h-28.38c-2.48,0-33.37,27.68-39.24,30.2l-1.75,6.36h25.86l43.52-36.56ZM1312.56,643.36h-27.12l-44.78,36.56h28.38l43.52-36.56ZM1350.4,643.36h-28.38l-44.78,36.56h29.64l43.52-36.56ZM1315.08,679.93h29.64c1.94,0,24.58-23.15,29.71-24.83l.57-10.53c-2.16-2.29-14.31-1.66-17.51.22l-42.41,35.14ZM1615.29,648.41h-198.04v39.15h198.04v-39.15ZM1629.16,648.41h-7.57v46.65c2.71.05,5.83.66,7.57-1.89v-44.76ZM1375.63,679.93v-18.91c-7.25,6.58-16.34,11.53-22.7,18.91h22.7ZM298.4,686.24c-33.67,2.35-71.05,10.45-103.76-1.58-5.87-2.16-16.46-7.63-20.53-12.26-2.94-3.35-4.07-9.73-9.41-10.13,3.73,17.94,26.33,26.97,42.62,29.88,16.9,3.02,72.01,3.34,87.28-2.8,1.52-.61,3.47-1.28,3.8-3.12ZM512.84,671.1c-8.37,1.44-13.81-2.37-20.63-6.18-7.62,9.02-18.42,11-29.83,11.22l1.27,31.52h50.46c.34-.92-1.26-1.51-1.26-1.89v-34.67ZM953.06,668.58h-88.3v3.78h88.3v-3.78ZM1040.1,668.58h-80.73v3.78h80.73v-3.78ZM1142.27,668.58h-95.87v3.78h95.87v-3.78ZM1200.29,668.58h-49.82c-.77,0-2.43,2.6-1.89,3.78,10.35,1.03,20.71-.81,30.85-1.31,6.04-.29,13.23.79,19,.05,1.85-.24,3.92-.98,1.87-2.52ZM1791.88,673.62h-99.65c-1.12,11.07,7.4,18.76,17.59,20.88,10.65,2.21,44.34,1.51,56.26.61,12.98-.98,26.37-6.43,25.8-21.49ZM456.08,676.14c-11.31-1.56-22.52,2.07-33.37,2.57-11.27.52-22.87-.75-34.12-.06-10.47.64-23.65,5.69-34.99,1.19-.96-.38-.98-2.49-1.66-2.5-4.19-.05-17.45,8.45-24.53,5.1l-1.26,51.7,69.38,1.25v-25.85l1.89-1.89h59.92c.34-.92-1.26-1.51-1.26-1.89v-29.63ZM328.68,1019.07v-25.22h-6.31s1.38-249.05,1.38-249.05l-3.92-4.95.02-56.15-12.75,1.99c-4.8,18.05-1.41,37.85-2.3,56.49l-8.91,2.04c1.81,15.25,1.76,31.83,1.32,47.32-1.12,38.91-4.35,78.37-6.35,117.21-1.12,21.75-.8,43.87-3.69,65.35l-1.68,1.25c-9.3-1.61-24.15.91-5.47,4.54,3.23,7.34-10.57,5.69-13.14,11.42l14.53-4.85c8.88,8.22-6.03,7.51-6.96,14.94,6.13-.96,10.91-8.46,17.69-6.99,2.32.5,18.03,8.37,20.17,10.13,4.78,3.92,6.76,8.21,6.29,14.52h10.08ZM859.72,687.49c-1.61.69-3.74-1.26-4.41-1.26h-25.86v21.43h30.27v-20.17ZM1035.05,750.53l3.16,1.23,1.89-1.86v-61.78l-3.13-1.88-1.91,1.88v62.41ZM1223,686.24h-16.4c2.43,4.29,1.04,8.19,0,12.59l16.39-12.59ZM1259.58,686.23h-28.38c-1.46,0-18.4,17.49-23.07,17.9l-1.2,16.82c.5,2.81,8.72,2.41,10.47.64l42.18-35.37ZM1297.42,686.23h-28.38l-44.78,36.56h29.64l43.52-36.56ZM1334,686.23h-27.12l-44.78,36.56h27.12l44.78-36.56ZM1374.36,686.23h-30.9l-44.78,36.56h29.64l46.04-36.56ZM895.04,687.49h-27.75v20.17h27.75v-20.17ZM958.11,688.75h-3.78v61.78h3.78v-61.78ZM1106.95,688.75h-6.31v61.78h64.33v-32.15c0-3.18-7.42-.62-9.41-.57-9.71.26-18.81-1.34-27.8-1.44-6.4-.07-15.15,4.15-20.81-.51v-27.11ZM1375.63,692.53l-37.84,30.26h35.95l1.89-1.89v-28.37ZM1446.26,693.79h-29.01v316.45c3.77.63,2-.99,2.66-2.96,4.17-12.36,9.56-18.89,18.59-28.12-14.52-47.9-18.18-103.65-4.75-152.27,1.85-6.69,10.2-24.46,10.06-29.14-.12-4.16-5.88-9.34-7.69-13.77-4.83-11.8-8.17-26.86,10.14-23.37v-66.82ZM1504.29,693.79h-55.5v66.19l30.91,11.42,24.6-7.01v-70.6ZM1812.07,701.36h-191.73v36.56h191.73v-36.56ZM757.55,740.44l8.33-23.86-1.4-2.61h-360.76l-1.59,1.84-.31,24.64h355.71ZM786.56,713.96l-13.28,1.23c-13.47,50.27-47.77,94.89-93.92,119.2l-50.47,19.5c20.82.33,42.14,0,62.07-6.66,51.73-17.3,94.21-79.35,95.61-133.28ZM857.2,713.97h-31.53v45.39l31.53-45.39ZM892.52,713.97h-27.75c-.2,1.36-.4,3.03-1.24,4.13-12.83,16.88-24.88,35.27-36.55,53.29l2.48,112.78c4.89-2.94,6.41-9.73,8.5-14.82,11.92-28.96,6.85-54.53,8.19-85.11l46.37-70.27ZM1206.6,727.77v68.14h160.2v-68.14h-160.2ZM1664.48,744.22h-44.15v48.62h44.15v-48.62ZM1668.72,743.49l-.45,48.65,79.49.74.45-48.65-79.49-.74ZM289.57,745.48h-117.31c-1.11,9.08.97,18.38,1.31,27.05,1.85,46.59,2.94,85.74-.04,132.45-1.35,21.22-2.13,42.48-3.8,63.66l49.86-2.5c2.41-11.82,6.33-23.36,9.06-35.07,10.07-43.1,14.98-86.71,19.28-130.76.52-5.35.56-35.05,4.44-35.91l4.09,3.29c-1.97,20.9-2.74,41.98-4.74,62.89-3.5,36.47-8.92,71.53-10.14,108.38-.32,9.78,1.34,20.39-1.21,29.68h40.36l8.88-161.96-.05-61.2ZM752.49,746.75l-348.17,1.91c7.51,50.89,59.87,103.04,111.62,106.57,73.5,5.02,158.96-8.22,210.06-65.35,4.77-5.34,29.28-39.02,26.49-43.12ZM792.87,1019.07c-1.33-65.7,1.53-131.65.55-197.3-.24-15.78-.33-33.32-1.82-49.16-.23-2.43-1.81-15.78-3.14-15.79l-15.45,33.44,2.2,3.12c-1.37.19-3.97-.56-4.87.2-.84.71-4.04,11.91-7.74,13.06l3.77,1.25-6.29.63v6.31c-2.57-2.3-11.72,8.63-10.11,10.08l3.79,1.25-4.92,1.14c1.41-5.06-4.17.46-4.84,1.74-3.16,5.98-3.23,4.76-8.07,10.14-.69.77-2.2.72-2.33.89-2.27,2.98,3.91,1.5,2.5,5.01l-5.03-2.51,1.26,7.57,2.52-3.79,3.79,3.17-5.07,1.88v4.24s2.53,1.42,2.53,1.42l-6.31,1.9,2.52,7.55-2.53-3.77-2.5,2.51c.71-5.48,1.75-9.64-.02-15.12l-3.75,1.89c6.12,5.65,2.11,5.42,1.23,10.71l-3.76-2.51.64,5.06,3.14.59-3.88,1.33.1,8.14c.26.37,8.68-4.32,7.55,1.24l-8.82.03c.61,1.65.84,3.77-.02,5.35s-2.95.25-2.5,2.19l6.3-1.24c-2.63,5.05,2.89,4.22,3.79,8.8l-2.51-2.5h-2.51s-2.53,3.77-2.53,3.77l-2.53-3.77c3.06,4.56-1.04,3.39-1.23,4.54s1.47,4.57-.03,6.8l5.03-1.26c.25,4.15,4.54,11.92.02,13.87l-2.53-6.29v7.53s8.82,3.18,8.82,3.18c-2.38,4.82-8.3-2.46-8.81-1.88l2.51,5.03-2.52,1.26,2.53,2.53-6.31,3.78,10.08-1.89-10.08,6.93,5.73-.24,1.82-2.27.66,3.77c-1.55,2.45-7.32-2.22-6.94,3.77l8.8-1.25,1.28,3.77-4.36-1.23-1.89,1.93,1.24,3.63-2.54,1.29,2.51,5.72-6.3-3.76c3.65,5.65-.76,10-1.26,16.37l5.04-2.5c-1.83,4.02-.16,5.78,1.34,9.42l-2.26.9.93,2.26c-1.52,1.13-8.43-6.2-3.14,6.38l3.75-.07.62,2.5c-3.07.94-3.37,3.79-7.54,2.56l4.46,2.48-.67,3.81,6.3-1.24-1.27,5.03c-8.67-5.55-8.23.39-8.82,7.55l6.3-1.24v3.78s-5.04,1.24-5.04,1.24l6.3.02-5.05,3.15c1.44.14,6.84,2.04,7.55,3.18,2,3.18-4.12,1.6-2.49,5.02h73.16ZM823.14,758.09h-22.7l-1.26,260.98h41.63v-127.34h-16.4s-1.26-133.64-1.26-133.64ZM1072.89,758.09h-156.41c-1.35,22.41,23.85,54.23,46.04,56.74,12.2,1.38,60.99,1.4,71.24-1.93,21.7-7.04,40.34-31.67,39.14-54.81ZM1177.59,758.09h-97.13c.48,17.04-7.5,32.77-18.27,45.4l-13.26,11.33h128.66v-56.73ZM877.38,759.35l-8.22,1.24c-1.06,5.24-17.01,24.26-17.01,27.12v27.11h25.23v-55.47ZM878.64,814.83l3.78-3.16c-.97-15.13,1.32-31.79.07-46.71-.24-2.85.17-5.88-3.85-5.61v55.47ZM886.21,759.35h-2.52v51.06c0,1.31.88,4.49,2.52,4.41v-55.47ZM891.25,759.35h-2.52v55.47h2.52v-55.47ZM896.3,759.35h-2.52v55.47h2.52v-55.47ZM901.34,759.35h-2.52v55.47c.82.1,2.52-1.67,2.52-1.89v-53.58ZM905.13,760.61h-1.26v52.95h1.26v-52.95ZM1616.55,1017.8c1.91-1.95-6.83-18.09-8.62-21.01-2.72-4.43-12.87-15.39-12.91-18.65,2.17-11.33,7.64-22.98,10.36-33.9,11.86-47.54,7.48-103.24-12.61-147.93,7.24-10.22,17.94-19.15,14.38-33.25-3.37-4.93-19.8,8.14-24.22,9.97-16.69,6.9-25.37-4.27-41.6-5.96-25.9-2.7-35.34,5.27-57.17,9.36-14.3,2.67-29.25-11.76-44.22-9.52-1.8,12.48,5.59,19.65,12.66,28.42-27.3,57.66-25.11,123.78-7.6,184-8.56,11.53-18.25,21.99-21.4,36.6.28,2.63,10.26.51,12.62.04,6.65-1.3,24.65-9.72,28.21-9.51,3.11.19,10.13,5.39,14.6,6.93,23.92,8.26,63.77,7.99,87.4-.92,3.73-1.41,6.12-4.73,10.41-4.87,4.64-.15,8.01,3.73,12.35,5.37,8.94,3.38,17.64,5.67,27.35,4.81ZM1791.88,765.66h-37.84v5.04h37.84v-5.04ZM1791.88,774.48h-37.84v6.3h37.84v-6.3ZM1791.88,784.57h-37.84v6.3h37.84v-6.3ZM1791.88,794.65h-37.84v6.3h37.84v-6.3ZM398.33,795.6l-17.68,189.29,4.75.44,17.68-189.29-4.75-.44ZM1747.78,798.44h-127.45v119.77h127.45v-119.77ZM1243.18,802.22h-36.58l1.27,13.88c11.57-1.76,23.45.95,35.31,0v-13.87ZM1791.88,804.74h-37.84v7.56c11.77-1.95,25.46-2.15,37.19.02l.65-7.58ZM1791.88,814.83h-37.84v7.56h37.84v-7.56ZM863.5,886.69l13.88-34.67v-29l-1.89-1.89h-22.07c.99,23.37-6.43,44.4-15.14,65.56h25.23ZM1046.4,822.39h-162.72c-.65,10.86.89,22.64-.02,33.39-1.4,16.52-15.11,42.61-3.78,56.42,1.72,2.1,10.92,8.53,13.26,8.53h57.39v-29c-8.61.2-17.29-.24-25.91-.05-6.22.14-13.46,3.71-19.55-.61-3.44-2.99-.13-30.08-1.21-35.9h141.28v-30.89c0-.27,1.89-1.44,1.26-1.89ZM1243.18,822.39h-190.47v32.78h190.47v-32.78ZM1791.88,826.17h-37.84v6.3h37.84v-6.3ZM466.15,1014.02c.22-3.23-1.18-6.2-1.3-9.4-2.02-52.49,1.61-106.29.06-158.92l-20.18-15.75c-.19,3.54.27,7.16-.03,10.7-3.59,42.68-9.33,85.86-11.33,128.62-.25,5.44-1.35,23.51,2.57,26.4,5.21,3.83,19.99,4.65,25.62,10.96l4.58,7.38ZM1791.88,836.26h-37.84v6.3h37.84v-6.3ZM1791.88,846.35h-37.84v6.3h37.84v-6.3ZM471.21,848.87v170.2h17.66v-112.84l1.89-1.89h154.52v114.73h55.5s0-131.75,0-131.75c-6.69.64-.06-2.43.01-2.71.7-2.72,1.05-12.36-2.56-12.42l2.6-1.45-.07-9.26c-2.67-1.29-5.86,2.05-6.93,2.05-.63,0-3.08-1.96-6.22-2.15-56.59-3.53-115,3.94-171.69.15-5.81-.39-13.84-1.76-19.51-3.19-9.05-2.28-16.38-7.28-25.22-9.47ZM1791.88,856.43h-37.84v6.3h37.84v-6.3ZM917.74,886.69v-23.32l-1.89-1.87-1.87,1.87c.02.46,1.24.87,1.24,1.26v22.06h2.52ZM912.7,862.74h-3.78v22.69h3.78v-22.69ZM1185.16,863.98h-6.31v155.09h6.31v-155.09ZM1192.72,863.96l-6.3.05,1.26,155.1,6.3-.05-1.26-155.1ZM1201.55,864h-5.05v155.07h5.05v-155.07ZM1210.38,864h-5.05v155.07h5.05v-155.07ZM1219.21,863.99h-5.05v155.08h5.05v-155.08ZM1221.74,864v155.07h6.31v-155.07h-6.31ZM1235.61,864h-5.05v155.07h5.05v-155.07ZM1051.45,865.26v153.81h3.78v-153.81h-3.78ZM1064.06,865.22l-6.3.05,1.26,153.84,6.3-.05-1.26-153.84ZM1074.15,865.26h-6.31v153.82h6.31v-153.82ZM1082.98,865.26h-6.31v153.81h6.31v-153.81ZM1091.81,865.26h-6.31v153.81h6.31v-153.81ZM1100.64,865.21l-7.56.06,1.26,153.85,7.56-.06-1.26-153.85ZM1110.73,865.26h-6.31v153.81h6.31v-153.81ZM1119.56,865.26h-6.31v153.81h6.31v-153.81ZM1129.66,865.25h-7.57v153.82h7.57v-153.82ZM1139.75,865.25h-7.57v153.82h7.57v-153.82ZM1148.58,865.26h-6.31v153.81h6.31v-153.81ZM1157.41,865.26h-6.31v153.81h6.31v-153.81ZM1166.24,865.21l-7.56.06,1.26,153.85,7.56-.06-1.26-153.85ZM1176.33,865.26h-6.31v153.81h6.31v-153.81ZM1283.54,866.52v18.91h65.59v-18.91h-65.59ZM1791.88,866.52h-37.84v6.3h37.84v-6.3ZM1791.88,876.6h-37.84v6.3h37.84v-6.3ZM1791.88,886.69h-37.84v7.56h37.84v-7.56ZM1046.45,891.73h-89.61v127.34h89.61v-127.34ZM1283.54,891.73v35.3h65.59v-35.3h-65.59ZM859.72,892.99h-12.61v126.08h33.43c5.74,0,14.72-.33,19.57-3.14,2.08-1.2-.03-3.12-.64-3.14-1.22-.03-5.98,5.1-8.2,3.13l8.81-5.7-2.5-3.76,6.29,1.24-5.04-2.52,2.51-5.02h-6.29s5.03-1.27,5.03-1.27l-3.77-5.03,7.56-.03c.04-2.58-2.96-.15-5.17-2.06-3.07-2.66-1.94-9.94-3.68-13.66l6.33-1.9-10.08-.02c-.88-4.67,6.19-.99,7.08-5.63.76-3.96-7.46-6.81-4.56-13.27,1.69,1.37,9.75,5.06,8.82,0-2.86,1.04-6.48-2.09-8.2-2.03-1.28.04-5.09,3.47-8.21.12-1.1-2.77,2.92-1.86,4.43-1.89,4.52-.11,11.24,2.79,13.24-1.23-3.78,1.86-5.33-2.25-5.65-2.29-3.18-.38-7.66,1.58-10.74,2.27l5.03-5.02c-3.21-1.96-9.91-6.97-13.87-4.46-1.73,1.09-1.76,5.33-5.04,4.45.32-4.77-1.97-5.47-6.33-5.06,1.73-2.28-2.94-8.63-6.31-7.56l1.14-3.58-2.38-.19v-37.82ZM1791.88,904.34l-.59-6.39c-.16-.28-5.97-1.17-6.35-1.17h-30.9v7.56h37.84ZM1791.88,908.12h-37.84v6.3h37.84v-6.3ZM577.17,910.64h-23.34l-1.89,1.89v25.85c4.88-1.56,7.55-8.4,12-11.33l13.23-16.41ZM607.44,910.64h-23.97v27.74c8.99-8.1,16.44-18.22,23.97-27.74ZM638.98,910.64h-25.23v27.74c2.54.3,4.17-2.13,5.69-3.77,6.76-7.29,12.69-16.61,19.54-23.97ZM515.36,911.91h-20.18c-.33.92,1.26,1.51,1.26,1.89v20.8l18.92-22.69ZM546.9,911.91h-25.23v29l25.23-29ZM1791.88,918.21h-37.84v6.3h37.84v-6.3ZM1664.48,923.19h-44.15v48.69h44.15v-48.69ZM1747.4,923.19l-79.25.02v48.74s79.26-.02,79.26-.02v-48.74ZM950.54,927.03h-26.49v92.04h26.49v-92.04ZM1791.88,928.3h-37.84v6.3h37.84v-6.3ZM251.73,1019.07h60.55c.26-6.54-3.7-8.23-9.46-8.82-7.13-.74-35.57-1.27-41.64-.03-4.11.84-2.48,4.12-3.32,4.86-4.79,4.25-4.85-3.7-5.82-5.76-1.97-4.2-7.75-7.45-11.6-9.86-1.84-1.15-5.15-1.35-6.06-2.13-5.54-4.73-.57-19.27-.26-25.49.66-13.19.49-26.71.58-39.78l-8.8,40.39-17.05,1.24c-1.18,3.97,3.23,1.83,4.48,3.67,5.68,8.31-10.75,8.55-10.79,15.23,1.83,1.75,18.07-12.42,17.05-2.49-.94,1.86-11.74,7.83-9.48,10.06l12.59-6.95c10.18,7.97,30.25,9.2,29.03,25.87ZM1349.14,933.34h-65.59v84.47h65.59v-84.47ZM1791.88,938.38h-37.84v6.3h37.84v-6.3ZM515.36,942.16h-18.92v24.58c0,.52-3.25,2.2.62,1.89,1.68-2.49,19.65-25.32,18.3-26.47ZM546.26,943.42c-8.16.38-16.44-.27-24.6,0v29l26.48-28.38c.31-3.85-1.3-.64-1.88-.61ZM613.75,944.05v27.11l23.98-28.35c-5.19.76-10.54.81-15.83.68-3.2-.08-6.12-2.54-8.14.57ZM578.43,943.42h-25.23v25.85c0,.51-3.24,2.21.6,1.87,9.66-7.71,16.8-18.21,24.62-27.72ZM608.7,943.42h-25.23v61.78s26.49-31.52,26.49-31.52h-25.23l23.97-30.26ZM1791.88,948.47h-37.84v6.3h37.84v-6.3ZM1791.88,958.55h-37.84v6.3h34.69c.27,0,.68.86,1.26.98,2.45-.21,1.97-5.32,1.89-7.28ZM1791.88,968.64h-37.84v7.56h37.84v-7.56ZM516.62,973.68h-19.55c-.54,0-2.12,1.98-1.83,3.03l1.82,24.72c1.47-3.5,21.63-25.87,19.57-27.75ZM640.24,973.68h-26.49v30.26c2.11.39,4.11-2.5,5.46-3.94,7.65-8.15,14.39-17.4,21.03-26.32ZM548.16,974.94h-26.49v30.26l26.49-30.26ZM579.69,974.94h-27.75c2.66,9.53,1.21,20.48.01,30.26l27.74-30.26ZM1709.89,977.46h-89.56v27.11c0,.83,7.32,12.12,8.2,14.5h81.36v-41.61ZM1747.73,977.46h-34.06v41.61h34.06c.59-13.85-1.74-28.15,0-41.61ZM1791.88,979.99h-37.84v6.3h37.84v-6.3ZM1791.88,990.07h-37.84v6.3h37.84v-6.3ZM408.14,1019.07c-.02-1.78.29-3.68-.25-5.42-1.33-4.32-20.51-10.29-25.86-13.24-2.42-1.34-4.46-4.48-6.31-5.04-2.75-.82-30.37-.88-33.78-.23-1.65.31-5.7,3.56-5.7,4.39v19.54h71.9ZM459.86,1019.07c-.09-12.9-19.36-11.28-28.2-17.83-1.96-1.46-4.83-6.12-5.23-6.12h-37.21l18.3,8.81c4.55,4.38,9.36,8,8.19,15.14h44.15ZM1791.88,1000.16h-37.84v6.3h37.84v-6.3ZM583.48,1019.07h19.55l6.91-9.46-1.86-1.86c-.47.02-.87,1.24-1.26,1.24h-23.34v10.09ZM613.75,1019.07h22.07l5.49-8.42-1.66-2.73-24.73.36-1.18,10.79ZM516.62,1008.98h-20.18v10.09s14.56.09,14.56.09l1.97-.87,3.65-9.31ZM548.16,1008.98h-26.49v10.09h20.81l5.68-10.09ZM578.43,1008.98h-25.23v10.09h19.55l5.66-8.22v-1.87ZM165.96,1019.07h79.47l-2.04-7.64-75.55-.84c-3.04,1.32-1.67,5.94-1.88,8.48ZM1754.04,1010.24v8.83h37.84v-8.83h-37.84Z"/>
    <path d="M442.83,244.96c20.83,2.96,38.23,30.68,20.15,46.62-16.36,14.43-66.21,4.62-89.2,7.92-20.04,2.88-22.04,24.67-2.74,27.3,35.02,4.76,89.2-6.62,121.62,2,28.64,7.61,29.54,49.43.61,52.31-5.24.52-42.29.56-43.5-1.26-.71-1.07.6-5.03,1.89-5.03h45.41c4.89,0,9.72-9.18,10.42-13.54,2.69-16.75-6.76-26.71-22.99-28.11-35.3-3.05-76.02,3.54-111.03.03-19.04-1.91-31.86-21.83-13.18-34.58,16.35-11.15,64.88-3.35,86.33-5.75,11.43-1.28,21.11-11.94,17.45-23.76-1.83-5.89-13.85-17.85-19.98-17.85h-97.13c-.28,0-3.63-3.12-3.17-4.4l3.17-1.91c29.53,3.03,67.34-4.05,95.87,0Z"/>
    <path d="M420.13,219.75c1.53.43,2.6,3.95,1.89,5.03-2.83,4.26-90.08-1.02-102.24,1.84-18.12,3.27-16.52,37.03.78,39.7,31.68,2.32,67.1-2.83,98.32.07,8.73.81,5.6,6.31,3.77,6.31h-102.17c-.84,0-8.07-3.59-9.38-4.49-14.42-9.88-14.42-34.09,0-43.97,1.31-.9,8.54-4.49,9.38-4.49h99.65Z"/>
    <path d="M483.2,352.13c.65.18,3.45,3.07,3.17,4.4.01.49-2.98,1.91-3.17,1.91h-55.5c-.84,0-8.07,3.59-9.38,4.49-5.93,4.06-9.85,10.25-10.24,17.53-.33,6.16,4.16,14.2-1.85,15.67-8.97-9.18-4.14-26.53,4.42-34.57,2.9-2.73,14.79-9.43,18.31-9.43h54.24Z"/>
    <path d="M718.44,596.71v-7.57c-4.17-.51-16.74,1.53-19.02-2.09-2.59-4.1-1.9-13.73,3.52-15.28,5.99-1.72,39.24,1.12,40.68-.32.03-12.58,12.47-21.97,24.36-16.05,15.4,7.67,13.92,45.86-8.5,45.16-12.73-.4-11.34-12.3-22.12-11.41v43.5c0,1.25-6.75,20.97-7.87,23.65-33.78,81.22-155.38,54-161.14-38.79-.31-5.03,1.57-11.33-.65-14.49h-30.9v-6.3h181.64ZM757.55,590.43c2.64,5.32,9.76,1.26,11.65-2.87,7.26-15.88-5.42-39.25-19.2-17.92-1.02,3.44,7.02,1.04,10.08,2.49,5.68,2.7,5.08,17.43-2.53,18.3ZM757.55,579.06h-52.98v2.52h52.98v-2.52ZM729.8,630.12c1.3-8.39-.96-19.63,0-28.37-1.88-.31-1.59,2.36-1.9,3.76-16.44,74.33-116.58,87.73-150.1,18.94-1.85,15.07,8.57,35.85,18.94,46.63,29.08,30.27,72.79,27.04,103.95,1.8,9.64-7.81,27.25-30.71,29.12-42.76ZM718.44,603.02h-138.75c6.91,50.64,61.72,74.15,105.98,49.82,16.52-9.08,34.21-30.1,32.78-49.82Z"/>
    <path d="M643.72,515.1c45.16-6.71,49.64,61.88,9.63,66.34-42.39,4.73-45.4-61.02-9.63-66.34ZM667.55,529.07c-10.29-11.62-27.54-10.1-36.68,2.17-14.45,19.39.65,48.64,24.98,42.65,18.75-4.62,23.64-31.33,11.7-44.82Z"/>
    <path d="M1688.45,866.52h23.97v25.22h-23.97l-.64,10.09h-4.4s0-10.09,0-10.09h-25.23v-25.22h23.97l-.21-6.1c-26.48-8.7-1.82-27.67,2.74-43.06,2.84,3.3,6.43,8.46,8.6,12.19,1.29,2.22,9,16.54,9.09,17.52.87,10.25-16.88,9.63-13.92,19.45Z"/>
    <path d="M1045.14,199.57c-5.26-1.02-11.36,2.86-15.11-1.88-.07-3.69,17.58-6.14,15.11,1.88Z"/>
    <path d="M1038.71,204.73c3.71,2.31-3.24,10.48-7.44,3.02-.67-3.21,5.87-4.01,7.44-3.02Z"/>
    <path d="M461.11,456.76c-2.85.77-5.9-1.13-8.33-1.13-1.4,0-10.86,3.05-9.31-.74,3.95-6.01,17.88-7.02,17.64,1.87Z"/>
    <path d="M457.34,465.6l-.2,4.83c-4.85,3.34-10.78-.33-5.27-4.63l5.47-.2Z"/>
    <path d="M646.21,531.46c23.38-4.25,23.95,29.86,8.27,33.47-24.11,5.55-27.15-30.03-8.27-33.47Z"/>
  </g>
  <g id="Layer_1-2">
    <g>
      <g>
        <circle cx="1523.55" cy="874.94" r="50.94" fill="#681813"/>
        <path d="M1566.08,858.81c-1.18-5.15-10.15-23.33-26.1-28.6-6.62-2.19-10.86-2.14-14.2-2.24-4.7-.14-10.48,1.09-15.55,2.85-8.67,3-14.61,1.38-20.59,11.3-5.97,9.92-6.2,12.85-9.42,19.86-3.25,7.07-5.36,15.29-1.85,25.61,3.52,10.32,5.98,14.68,10.9,18.33s5.92,4.67,8.43,7.35c2.51,2.69,6.74,7.89,17.95,8.67,2.55.18,5.24.27,8,.01,4.11-.38,8.41-1.18,12.48-2.05,5.18-1.11,9.99-2.33,14.45-5.74,10.3-7.89,16.27-19.75,18.1-26.71,1.84-6.95,2.9-13.19.54-18.75-.76-1.79-1.33-2.96-1.58-3.89-.46-1.69-.79-2.67-1.55-6h0Z" fill="#c82928"/>
      </g>
      <g>
        <path d="M1519.82,893.74c1.5-.21,3.42-1.85,4.12-4.78.7-2.92,2.59-3.95,2.59-3.95l.16-3.38c-.6,0-1.13.68-1.68,1.67l.03-.08s-3.08,5.15-6.89,3.07c-.21-.12-.35-.35-.33-.59.1-1.48,2.04-2.77,2.04-2.77,0,0,.04,1.28.78,1.07.74-.2,1.85-2.68.91-3.21s-4.36,2.22-4.36,5.97c0,1.63,3.39,1.87,5.81.48-.97,1.72-2.15,3.16-3.75,3.16-4.03,0-4.36-6.42-5.19-10.87-.82-4.45-1.4-11.6-1.4-11.6,0,0-.99,1.48-1.32,3.21-.1.54-.19,2.37,1.2,9.96.3,2.08,0,2.67,0,2.67-.08.58-1.15,1.57-1.15,1.57,0,0-.74-2.39-2.51-2.02-1.77.37-3.13,6.3-1.24,6.38,1.89.08,2.55-.95,2.55-.95,0,0,.53.25.33,1.32-.2,1.07-3.07,7.61-17.79,8.17,0,0,6.7,1.43,11.86.44s7.03-9.88,6.97-11.2c0,0,.89-1.85,1.54-3.38,0,.02,0,.03,0,.05,1.98,10.17,5.28,9.79,6.71,9.59h0Z" fill="#fff"/>
        <path d="M1496.49,894.98s2.55-.77,3.06-1.02c3.73-1.81,5.76-7.52,6.15-11.47s-2.74-12.73-2.47-14.55c0,0-1.21,2.85-.6,6.26s2.63,8.33,1.87,11.69c-1.24,5.48-8,9.09-8,9.09h0Z" fill="#fff"/>
        <path d="M1500.77,881.39c0-3.21-2.26-4.4-2.22-6.88,0,0-.58,2.1-.66,2.96-.16,1.69,1.98,3.83,1.98,5.56,0,1.57-3.05,3.79-4.86,3.79s-5-.7-4.82-5.19c.14-3.6,4.82-5.76,4.9-11.32,0,0-.73,2.33-1.77,3.95-1.03,1.61-4.22,5.43-3.75,9.72.74,5.19,3.05,6.17,5.15,6.17s5.8-1.85,6.05-8.77h0Z" fill="#fff"/>
        <rect x="1492.98" y="880.16" width="3.46" height="3.46" transform="translate(-150.23 1435.13) rotate(-49.13)" fill="#fff"/>
        <path d="M1552.68,889.46c-2.2,8.04-14.82,9.38-14.82,9.38,0,0,3.58.58,7.2.37,6.39-.36,7.74-4.78,9.06-9.59,1.32-4.82,3.25-5.02,3.25-5.02l.2-3.42c-1.93.2-3.83,4.36-4.9,8.28h0Z" fill="#fff"/>
        <path d="M1538.43,888.72c.04,1,.6,2.04,1.44,2.8-.43,1.1-.82,2.17-.83,2.42-.02.36.66-1.02,1.2-2.12.65.47,1.42.77,2.23.77.29,0,3.42.12,6.05-3.87,3.21-5.02,3.13-7.08.66-7.08-4.65.04-8.23,7.2-8.23,7.2-1.73-.49-1.73-3.42-1.73-3.42-1.36-.04-1.8,3.86-3.88,4.32h0c-.13.03-.26.04-.41.04-.97,0-3.3-.33-4.59-7.74-.49-2.8-2.05-11.88-2.05-11.88-.32-1.35-.53-2.23-.53-2.23,0,0-.78,1.6-.88,3.36-.02.33,2.35,12.52,2.91,15.11.86,4.07,2.09,6.71,4.78,6.71s3.38-4.28,3.87-4.4h0ZM1546.46,884.77c2.68-.62,2.88.7,2.88.7,0,0-3.42,4.65-7.74,3.66,0,0,2.47-3.79,4.86-4.36h0Z" fill="#fff"/>
        <rect x="1539.61" y="876.18" width="3.46" height="3.46" transform="translate(-131.1 1469.01) rotate(-49.13)" fill="#fff"/>
        <rect x="1530.2" y="858.83" width="3.46" height="3.46" transform="translate(-121.23 1455.9) rotate(-49.13)" fill="#fff"/>
        <rect x="1517.58" y="855.07" width="3.46" height="3.46" transform="translate(-122.75 1445.05) rotate(-49.13)" fill="#fff"/>
        <path d="M1515.69,866.02h0s1.66,1.66,4.66,1.27c3-.4,4.8-3.42,5.18-4.88h0c.21-.62.37-1.31.45-2.08.14-.75.42-2.69.29-4.75,3.01,1.46,4.1-1.09,4.94-3.5.84-2.42,2.05-3.79,2.05-3.79l.05-3.26c-1.21.21-2.31,7.36-5.73,7.57-.93,0-1.66-.34-2.16-.69-.35-.73-.81-1.38-1.44-1.88l-.69,3.13s1.65,2.03,2.35,4.73c-.24,1.74-2.4,6.15-6.3,6.15-1.9,0-4.65-.64-6.01-5.19-1.35-4.5,4.69-8.54,3.28-15.78,0,0,.11,2.43-.99,4.66s-3.06,6.15-3.02,10.36c.12,4.28,1.54,6.62,3.1,7.93h0Z" fill="#fff"/>
        <path d="M1525.85,845.12c.58.75,1.1,1.45,1.1,1.45l.33-1.07c-.24-.3-.66-.84-1.09-1.4.21-.74.35-1.47.49-2.1.41-1.83-.56-1.77-1.67-1.34-1.11.43-1.01,2.18-.27,3.07.21.25.47.58.74.92-1.8,3.3-6.91,6.8-6.91,6.8,0,0,3.07-1.71,5.19-3.38,1.05-.83,1.68-1.88,2.09-2.95ZM1524.64,842.08c.97-.7,2.04-.08,1.3,1.52-.01.04-.03.08-.04.12-.65-.85-1.25-1.64-1.25-1.64h0Z" fill="#fff"/>
        <path d="M1522.45,872.77c-.72.59-1.5,1.1-2.33,1.54-.9.46-1.75,1.07-2.46,1.8-.35.37-.68.77-.94,1.21-.26.44-.38.97-.44,1.47.54-.8,1.23-1.46,1.96-2.05.74-.58,1.52-1.08,2.36-1.51.91-.47,1.74-1.09,2.44-1.85.34-.38.65-.8.91-1.24.25-.45.3-.97.4-1.48-.52.81-1.19,1.5-1.9,2.1h0Z" fill="#fff"/>
        <path d="M1533.08,875.87c.16-.24.35-.47.54-.68.1-.11.2-.21.3-.31l.32-.29c.43-.39.9-.72,1.38-1.04.96-.64,1.99-1.17,3.05-1.65,1.12-.5,2.19-1.14,3.13-1.95.47-.41.9-.86,1.27-1.36.46-.58.63-1.4.68-1.71-.15.24-.33.48-.52.69-.19.22-.39.42-.6.62-.42.4-.88.75-1.35,1.08-.95.65-1.97,1.2-3.02,1.67-1.11.49-2.19,1.12-3.14,1.91-.47.4-.91.84-1.3,1.32-.47.6-.7,1.37-.73,1.69h0Z" fill="#fff"/>
        <path d="M1514.53,902.98c-.87-3.33-.94-5.14-.94-5.14,0,0-1.01,2.39-.06,5.67.29,1,.4,1.22.6,2.24.3,1.57,0,2.98.01,2.99.02.05.61-.88.7-1.08.44-.96.36-2.03.13-3.03-.15-.65-.24-.86-.44-1.66h0Z" fill="#fff"/>
        <rect x="1530.95" y="905.11" width="1.97" height="1.97" transform="translate(-155.67 1471.64) rotate(-49.13)" fill="#fff"/>
        <path d="M1526.75,903.69c-.14-1.04-.22-5.06.19-5.85,0-.01.01-.03.01-.04,0-.06-.09-.04-.14,0-.46.31-1.04.42-1.6.43s-1.11-.12-1.67-.17c-1.19-.12-1.48,1.62-1.34,2.01.42-.3,1-.18,1.51-.12.44.06.89.06,1.34,0,.32-.04.91-.32.91-.32,0,0-.38,1.47-.25,4.24.12,2.55,1.47,5.06,1.58,4.86.27-.47.47-.96.68-1.46.03-.07.02-.13-.02-.18-.68-1.04-1.03-2.18-1.2-3.4h0Z" fill="#fff"/>
        <path d="M1520.71,902.86c-.03-.32-.05-.64-.07-.96v-.02c-.06-.81-.14-1.62-.31-2.4-.04-.19-.3-1.66-1.77-1.66-1.35,0-1.92,1.72-1.92,3.16,0,2.94,2.97.89,2.97.89,0,4.6,1.62,7.05,1.73,6.86.27-.47.47-.96.68-1.46.03-.07.02-.13-.02-.18-.83-1.27-1.16-2.75-1.28-4.24h0Z" fill="#fff"/>
      </g>
    </g>
  </g>
  <g id="Layer_1-21" data-name="Layer_1-2">
    <g>
      <g>
        <circle cx="376.55" cy="643.94" r="8.45" fill="#681813"/>
        <path d="M383.61,641.26c-.2-.85-1.68-3.87-4.33-4.75-1.1-.36-1.8-.35-2.36-.37-.78-.02-1.74.18-2.58.47-1.44.5-2.42.23-3.42,1.87-.99,1.65-1.03,2.13-1.56,3.29-.54,1.17-.89,2.54-.31,4.25.58,1.71.99,2.44,1.81,3.04s.98.77,1.4,1.22c.42.45,1.12,1.31,2.98,1.44.42.03.87.04,1.33,0,.68-.06,1.4-.2,2.07-.34.86-.18,1.66-.39,2.4-.95,1.71-1.31,2.7-3.28,3-4.43.3-1.15.48-2.19.09-3.11-.13-.3-.22-.49-.26-.65-.08-.28-.13-.44-.26-.99h0Z" fill="#c82928"/>
      </g>
      <g>
        <path d="M375.93,647.06c.25-.03.57-.31.68-.79.12-.49.43-.66.43-.66l.03-.56c-.1,0-.19.11-.28.28h0s-.51.84-1.14.5c-.04-.02-.06-.06-.06-.1.02-.25.34-.46.34-.46,0,0,0,.21.13.18.12-.03.31-.44.15-.53s-.72.37-.72.99c0,.27.56.31.96.08-.16.28-.36.52-.62.52-.67,0-.72-1.07-.86-1.8-.14-.74-.23-1.92-.23-1.92,0,0-.16.25-.22.53-.02.09-.03.39.2,1.65.05.35,0,.44,0,.44-.01.1-.19.26-.19.26,0,0-.12-.4-.42-.33-.29.06-.52,1.04-.21,1.06.31.01.42-.16.42-.16,0,0,.09.04.05.22-.03.18-.51,1.26-2.95,1.35,0,0,1.11.24,1.97.07s1.17-1.64,1.16-1.86c0,0,.15-.31.26-.56,0,0,0,0,0,0,.33,1.69.88,1.62,1.11,1.59h0Z" fill="#fff"/>
        <path d="M372.06,647.26s.42-.13.51-.17c.62-.3.96-1.25,1.02-1.9s-.46-2.11-.41-2.41c0,0-.2.47-.1,1.04s.44,1.38.31,1.94c-.21.91-1.33,1.51-1.33,1.51h0Z" fill="#fff"/>
        <path d="M372.77,645.01c0-.53-.38-.73-.37-1.14,0,0-.1.35-.11.49-.03.28.33.64.33.92,0,.26-.51.63-.81.63s-.83-.12-.8-.86c.02-.6.8-.96.81-1.88,0,0-.12.39-.29.66-.17.27-.7.9-.62,1.61.12.86.51,1.02.85,1.02s.96-.31,1-1.45h0Z" fill="#fff"/>
        <rect x="371.48" y="644.8" width=".57" height=".57" transform="translate(-359.31 504.11) rotate(-49.13)" fill="#fff"/>
        <path d="M381.38,646.35c-.37,1.33-2.46,1.56-2.46,1.56,0,0,.59.1,1.2.06,1.06-.06,1.28-.79,1.5-1.59s.54-.83.54-.83l.03-.57c-.32.03-.64.72-.81,1.37h0Z" fill="#fff"/>
        <path d="M379.02,646.22c0,.17.1.34.24.46-.07.18-.14.36-.14.4,0,.06.11-.17.2-.35.11.08.24.13.37.13.05,0,.57.02,1-.64.53-.83.52-1.17.11-1.17-.77,0-1.37,1.2-1.37,1.2-.29-.08-.29-.57-.29-.57-.22,0-.3.64-.64.72h0s-.04,0-.07,0c-.16,0-.55-.06-.76-1.28-.08-.46-.34-1.97-.34-1.97-.05-.22-.09-.37-.09-.37,0,0-.13.27-.15.56,0,.05.39,2.08.48,2.51.14.68.35,1.11.79,1.11s.56-.71.64-.73h0ZM380.35,645.57c.44-.1.48.12.48.12,0,0-.57.77-1.28.61,0,0,.41-.63.81-.72h0Z" fill="#fff"/>
        <rect x="379.21" y="644.14" width=".57" height=".57" transform="translate(-356.14 509.73) rotate(-49.13)" fill="#fff"/>
        <rect x="377.65" y="641.26" width=".57" height=".57" transform="translate(-354.5 507.55) rotate(-49.13)" fill="#fff"/>
        <rect x="375.56" y="640.64" width=".57" height=".57" transform="translate(-354.75 505.75) rotate(-49.13)" fill="#fff"/>
        <path d="M375.24,642.46h0s.28.28.77.21c.5-.07.8-.57.86-.81h0c.04-.1.06-.22.08-.35.02-.12.07-.45.05-.79.5.24.68-.18.82-.58.14-.4.34-.63.34-.63v-.54c-.19.03-.38,1.22-.94,1.26-.15,0-.28-.06-.36-.11-.06-.12-.14-.23-.24-.31l-.11.52s.27.34.39.78c-.04.29-.4,1.02-1.05,1.02-.32,0-.77-.11-1-.86-.22-.75.78-1.42.54-2.62,0,0,.02.4-.16.77s-.51,1.02-.5,1.72c.02.71.26,1.1.51,1.32h0Z" fill="#fff"/>
        <path d="M376.93,638.99c.1.12.18.24.18.24l.05-.18c-.04-.05-.11-.14-.18-.23.03-.12.06-.24.08-.35.07-.3-.09-.29-.28-.22-.18.07-.17.36-.04.51.03.04.08.1.12.15-.3.55-1.15,1.13-1.15,1.13,0,0,.51-.28.86-.56.17-.14.28-.31.35-.49ZM376.73,638.49c.16-.12.34-.01.21.25,0,0,0,.01,0,.02-.11-.14-.21-.27-.21-.27h0Z" fill="#fff"/>
        <path d="M376.37,643.58c-.12.1-.25.18-.39.26-.15.08-.29.18-.41.3-.06.06-.11.13-.16.2-.04.07-.06.16-.07.24.09-.13.2-.24.32-.34.12-.1.25-.18.39-.25.15-.08.29-.18.41-.31.06-.06.11-.13.15-.21.04-.07.05-.16.07-.25-.09.14-.2.25-.31.35h0Z" fill="#fff"/>
        <path d="M378.13,644.09s.06-.08.09-.11c.02-.02.03-.03.05-.05l.05-.05c.07-.06.15-.12.23-.17.16-.11.33-.19.51-.27.19-.08.36-.19.52-.32.08-.07.15-.14.21-.22.08-.1.1-.23.11-.28-.02.04-.05.08-.09.12-.03.04-.07.07-.1.1-.07.07-.15.12-.22.18-.16.11-.33.2-.5.28-.18.08-.36.19-.52.32-.08.07-.15.14-.22.22-.08.1-.12.23-.12.28h0Z" fill="#fff"/>
        <path d="M375.05,648.59c-.15-.55-.16-.85-.16-.85,0,0-.17.4-.01.94.05.17.07.2.1.37.05.26,0,.49,0,.5,0,0,.1-.15.12-.18.07-.16.06-.34.02-.5-.03-.11-.04-.14-.07-.28h0Z" fill="#fff"/>
        <rect x="377.78" y="648.94" width=".33" height=".33" transform="translate(-360.22 510.16) rotate(-49.13)" fill="#fff"/>
        <path d="M377.08,648.71c-.02-.17-.04-.84.03-.97,0,0,0,0,0,0,0,0-.01,0-.02,0-.08.05-.17.07-.27.07s-.18-.02-.28-.03c-.2-.02-.25.27-.22.33.07-.05.17-.03.25-.02.07,0,.15,0,.22,0,.05,0,.15-.05.15-.05,0,0-.06.24-.04.7.02.42.24.84.26.81.04-.08.08-.16.11-.24,0-.01,0-.02,0-.03-.11-.17-.17-.36-.2-.56h0Z" fill="#fff"/>
        <path d="M376.08,648.57c0-.05,0-.11-.01-.16h0c-.01-.14-.02-.27-.05-.4,0-.03-.05-.27-.29-.27-.22,0-.32.28-.32.52,0,.49.49.15.49.15,0,.76.27,1.17.29,1.14.04-.08.08-.16.11-.24,0-.01,0-.02,0-.03-.14-.21-.19-.46-.21-.7h0Z" fill="#fff"/>
      </g>
    </g>
  </g>
  <g id="Layer_1-22" data-name="Layer_1-2">
    <g>
      <g>
        <circle cx="512.55" cy="643.94" r="8.45" fill="#681813"/>
        <path d="M519.61,641.26c-.2-.85-1.68-3.87-4.33-4.75-1.1-.36-1.8-.35-2.36-.37-.78-.02-1.74.18-2.58.47-1.44.5-2.42.23-3.42,1.87-.99,1.65-1.03,2.13-1.56,3.29-.54,1.17-.89,2.54-.31,4.25.58,1.71.99,2.44,1.81,3.04s.98.77,1.4,1.22c.42.45,1.12,1.31,2.98,1.44.42.03.87.04,1.33,0,.68-.06,1.4-.2,2.07-.34.86-.18,1.66-.39,2.4-.95,1.71-1.31,2.7-3.28,3-4.43.3-1.15.48-2.19.09-3.11-.13-.3-.22-.49-.26-.65-.08-.28-.13-.44-.26-.99h0Z" fill="#c82928"/>
      </g>
      <g>
        <path d="M511.93,647.06c.25-.03.57-.31.68-.79.12-.49.43-.66.43-.66l.03-.56c-.1,0-.19.11-.28.28h0s-.51.84-1.14.5c-.04-.02-.06-.06-.06-.1.02-.25.34-.46.34-.46,0,0,0,.21.13.18.12-.03.31-.44.15-.53s-.72.37-.72.99c0,.27.56.31.96.08-.16.28-.36.52-.62.52-.67,0-.72-1.07-.86-1.8-.14-.74-.23-1.92-.23-1.92,0,0-.16.25-.22.53-.02.09-.03.39.2,1.65.05.35,0,.44,0,.44-.01.1-.19.26-.19.26,0,0-.12-.4-.42-.33-.29.06-.52,1.04-.21,1.06.31.01.42-.16.42-.16,0,0,.09.04.05.22-.03.18-.51,1.26-2.95,1.35,0,0,1.11.24,1.97.07s1.17-1.64,1.16-1.86c0,0,.15-.31.26-.56,0,0,0,0,0,0,.33,1.69.88,1.62,1.11,1.59h0Z" fill="#fff"/>
        <path d="M508.06,647.26s.42-.13.51-.17c.62-.3.96-1.25,1.02-1.9s-.46-2.11-.41-2.41c0,0-.2.47-.1,1.04s.44,1.38.31,1.94c-.21.91-1.33,1.51-1.33,1.51h0Z" fill="#fff"/>
        <path d="M508.77,645.01c0-.53-.38-.73-.37-1.14,0,0-.1.35-.11.49-.03.28.33.64.33.92,0,.26-.51.63-.81.63s-.83-.12-.8-.86c.02-.6.8-.96.81-1.88,0,0-.12.39-.29.66-.17.27-.7.9-.62,1.61.12.86.51,1.02.85,1.02s.96-.31,1-1.45h0Z" fill="#fff"/>
        <rect x="507.48" y="644.8" width=".57" height=".57" transform="translate(-312.3 606.95) rotate(-49.13)" fill="#fff"/>
        <path d="M517.38,646.35c-.37,1.33-2.46,1.56-2.46,1.56,0,0,.59.1,1.2.06,1.06-.06,1.28-.79,1.5-1.59s.54-.83.54-.83l.03-.57c-.32.03-.64.72-.81,1.37h0Z" fill="#fff"/>
        <path d="M515.02,646.22c0,.17.1.34.24.46-.07.18-.14.36-.14.4,0,.06.11-.17.2-.35.11.08.24.13.37.13.05,0,.57.02,1-.64.53-.83.52-1.17.11-1.17-.77,0-1.37,1.2-1.37,1.2-.29-.08-.29-.57-.29-.57-.22,0-.3.64-.64.72h0s-.04,0-.07,0c-.16,0-.55-.06-.76-1.28-.08-.46-.34-1.97-.34-1.97-.05-.22-.09-.37-.09-.37,0,0-.13.27-.15.56,0,.05.39,2.08.48,2.51.14.68.35,1.11.79,1.11s.56-.71.64-.73h0ZM516.35,645.57c.44-.1.48.12.48.12,0,0-.57.77-1.28.61,0,0,.41-.63.81-.72h0Z" fill="#fff"/>
        <rect x="515.21" y="644.14" width=".57" height=".57" transform="translate(-309.13 612.57) rotate(-49.13)" fill="#fff"/>
        <rect x="513.65" y="641.26" width=".57" height=".57" transform="translate(-307.49 610.39) rotate(-49.13)" fill="#fff"/>
        <rect x="511.56" y="640.64" width=".57" height=".57" transform="translate(-307.74 608.59) rotate(-49.13)" fill="#fff"/>
        <path d="M511.24,642.46h0s.28.28.77.21c.5-.07.8-.57.86-.81h0c.04-.1.06-.22.08-.35.02-.12.07-.45.05-.79.5.24.68-.18.82-.58.14-.4.34-.63.34-.63v-.54c-.19.03-.38,1.22-.94,1.26-.15,0-.28-.06-.36-.11-.06-.12-.14-.23-.24-.31l-.11.52s.27.34.39.78c-.04.29-.4,1.02-1.05,1.02-.32,0-.77-.11-1-.86-.22-.75.78-1.42.54-2.62,0,0,.02.4-.16.77s-.51,1.02-.5,1.72c.02.71.26,1.1.51,1.32h0Z" fill="#fff"/>
        <path d="M512.93,638.99c.1.12.18.24.18.24l.05-.18c-.04-.05-.11-.14-.18-.23.03-.12.06-.24.08-.35.07-.3-.09-.29-.28-.22-.18.07-.17.36-.04.51.03.04.08.1.12.15-.3.55-1.15,1.13-1.15,1.13,0,0,.51-.28.86-.56.17-.14.28-.31.35-.49ZM512.73,638.49c.16-.12.34-.01.21.25,0,0,0,.01,0,.02-.11-.14-.21-.27-.21-.27h0Z" fill="#fff"/>
        <path d="M512.37,643.58c-.12.1-.25.18-.39.26-.15.08-.29.18-.41.3-.06.06-.11.13-.16.2-.04.07-.06.16-.07.24.09-.13.2-.24.32-.34.12-.1.25-.18.39-.25.15-.08.29-.18.41-.31.06-.06.11-.13.15-.21.04-.07.05-.16.07-.25-.09.14-.2.25-.31.35h0Z" fill="#fff"/>
        <path d="M514.13,644.09s.06-.08.09-.11c.02-.02.03-.03.05-.05l.05-.05c.07-.06.15-.12.23-.17.16-.11.33-.19.51-.27.19-.08.36-.19.52-.32.08-.07.15-.14.21-.22.08-.1.1-.23.11-.28-.02.04-.05.08-.09.12-.03.04-.07.07-.1.1-.07.07-.15.12-.22.18-.16.11-.33.2-.5.28-.18.08-.36.19-.52.32-.08.07-.15.14-.22.22-.08.1-.12.23-.12.28h0Z" fill="#fff"/>
        <path d="M511.05,648.59c-.15-.55-.16-.85-.16-.85,0,0-.17.4-.01.94.05.17.07.2.1.37.05.26,0,.49,0,.5,0,0,.1-.15.12-.18.07-.16.06-.34.02-.5-.03-.11-.04-.14-.07-.28h0Z" fill="#fff"/>
        <rect x="513.78" y="648.94" width=".33" height=".33" transform="translate(-313.21 613.01) rotate(-49.13)" fill="#fff"/>
        <path d="M513.08,648.71c-.02-.17-.04-.84.03-.97,0,0,0,0,0,0,0,0-.01,0-.02,0-.08.05-.17.07-.27.07s-.18-.02-.28-.03c-.2-.02-.25.27-.22.33.07-.05.17-.03.25-.02.07,0,.15,0,.22,0,.05,0,.15-.05.15-.05,0,0-.06.24-.04.7.02.42.24.84.26.81.04-.08.08-.16.11-.24,0-.01,0-.02,0-.03-.11-.17-.17-.36-.2-.56h0Z" fill="#fff"/>
        <path d="M512.08,648.57c0-.05,0-.11-.01-.16h0c-.01-.14-.02-.27-.05-.4,0-.03-.05-.27-.29-.27-.22,0-.32.28-.32.52,0,.49.49.15.49.15,0,.76.27,1.17.29,1.14.04-.08.08-.16.11-.24,0-.01,0-.02,0-.03-.14-.21-.19-.46-.21-.7h0Z" fill="#fff"/>
      </g>
    </g>
  </g>
  <g id="Layer_1-23" data-name="Layer_1-2">
    <g>
      <g>
        <circle cx="1197.55" cy="312.94" r="8.45" fill="#681813"/>
        <path d="M1204.61,310.26c-.2-.85-1.68-3.87-4.33-4.75-1.1-.36-1.8-.35-2.36-.37-.78-.02-1.74.18-2.58.47-1.44.5-2.42.23-3.42,1.87-.99,1.65-1.03,2.13-1.56,3.29-.54,1.17-.89,2.54-.31,4.25.58,1.71.99,2.44,1.81,3.04s.98.77,1.4,1.22c.42.45,1.12,1.31,2.98,1.44.42.03.87.04,1.33,0,.68-.06,1.4-.2,2.07-.34.86-.18,1.66-.39,2.4-.95,1.71-1.31,2.7-3.28,3-4.43.3-1.15.48-2.19.09-3.11-.13-.3-.22-.49-.26-.65-.08-.28-.13-.44-.26-.99h0Z" fill="#c82928"/>
      </g>
      <g>
        <path d="M1196.93,316.06c.25-.03.57-.31.68-.79.12-.49.43-.66.43-.66l.03-.56c-.1,0-.19.11-.28.28h0s-.51.84-1.14.5c-.04-.02-.06-.06-.06-.1.02-.25.34-.46.34-.46,0,0,0,.21.13.18.12-.03.31-.44.15-.53s-.72.37-.72.99c0,.27.56.31.96.08-.16.28-.36.52-.62.52-.67,0-.72-1.07-.86-1.8-.14-.74-.23-1.92-.23-1.92,0,0-.16.25-.22.53-.02.09-.03.39.2,1.65.05.35,0,.44,0,.44-.01.1-.19.26-.19.26,0,0-.12-.4-.42-.33-.29.06-.52,1.04-.21,1.06.31.01.42-.16.42-.16,0,0,.09.04.05.22-.03.18-.51,1.26-2.95,1.35,0,0,1.11.24,1.97.07s1.17-1.64,1.16-1.86c0,0,.15-.31.26-.56,0,0,0,0,0,0,.33,1.69.88,1.62,1.11,1.59h0Z" fill="#fff"/>
        <path d="M1193.06,316.26s.42-.13.51-.17c.62-.3.96-1.25,1.02-1.9s-.46-2.11-.41-2.41c0,0-.2.47-.1,1.04s.44,1.38.31,1.94c-.21.91-1.33,1.51-1.33,1.51h0Z" fill="#fff"/>
        <path d="M1193.77,314.01c0-.53-.38-.73-.37-1.14,0,0-.1.35-.11.49-.03.28.33.64.33.92,0,.26-.51.63-.81.63s-.83-.12-.8-.86c.02-.6.8-.96.81-1.88,0,0-.12.39-.29.66-.17.27-.7.9-.62,1.61.12.86.51,1.02.85,1.02s.96-.31,1-1.45h0Z" fill="#fff"/>
        <rect x="1192.48" y="313.8" width=".57" height=".57" transform="translate(174.77 1010.53) rotate(-49.13)" fill="#fff"/>
        <path d="M1202.38,315.35c-.37,1.33-2.46,1.56-2.46,1.56,0,0,.59.1,1.2.06,1.06-.06,1.28-.79,1.5-1.59s.54-.83.54-.83l.03-.57c-.32.03-.64.72-.81,1.37h0Z" fill="#fff"/>
        <path d="M1200.02,315.22c0,.17.1.34.24.46-.07.18-.14.36-.14.4,0,.06.11-.17.2-.35.11.08.24.13.37.13.05,0,.57.02,1-.64.53-.83.52-1.17.11-1.17-.77,0-1.37,1.2-1.37,1.2-.29-.08-.29-.57-.29-.57-.22,0-.3.64-.64.72h0s-.04,0-.07,0c-.16,0-.55-.06-.76-1.28-.08-.46-.34-1.97-.34-1.97-.05-.22-.09-.37-.09-.37,0,0-.13.27-.15.56,0,.05.39,2.08.48,2.51.14.68.35,1.11.79,1.11s.56-.71.64-.73h0ZM1201.35,314.57c.44-.1.48.12.48.12,0,0-.57.77-1.28.61,0,0,.41-.63.81-.72h0Z" fill="#fff"/>
        <rect x="1200.21" y="313.14" width=".57" height=".57" transform="translate(177.95 1016.15) rotate(-49.13)" fill="#fff"/>
        <rect x="1198.65" y="310.26" width=".57" height=".57" transform="translate(179.58 1013.98) rotate(-49.13)" fill="#fff"/>
        <rect x="1196.56" y="309.64" width=".57" height=".57" transform="translate(179.33 1012.18) rotate(-49.13)" fill="#fff"/>
        <path d="M1196.24,311.46h0s.28.28.77.21c.5-.07.8-.57.86-.81h0c.04-.1.06-.22.08-.35.02-.12.07-.45.05-.79.5.24.68-.18.82-.58.14-.4.34-.63.34-.63v-.54c-.19.03-.38,1.22-.94,1.26-.15,0-.28-.06-.36-.11-.06-.12-.14-.23-.24-.31l-.11.52s.27.34.39.78c-.04.29-.4,1.02-1.05,1.02-.32,0-.77-.11-1-.86-.22-.75.78-1.42.54-2.62,0,0,.02.4-.16.77s-.51,1.02-.5,1.72c.02.71.26,1.1.51,1.32h0Z" fill="#fff"/>
        <path d="M1197.93,307.99c.1.12.18.24.18.24l.05-.18c-.04-.05-.11-.14-.18-.23.03-.12.06-.24.08-.35.07-.3-.09-.29-.28-.22-.18.07-.17.36-.04.51.03.04.08.1.12.15-.3.55-1.15,1.13-1.15,1.13,0,0,.51-.28.86-.56.17-.14.28-.31.35-.49ZM1197.73,307.49c.16-.12.34-.01.21.25,0,0,0,.01,0,.02-.11-.14-.21-.27-.21-.27h0Z" fill="#fff"/>
        <path d="M1197.37,312.58c-.12.1-.25.18-.39.26-.15.08-.29.18-.41.3-.06.06-.11.13-.16.2-.04.07-.06.16-.07.24.09-.13.2-.24.32-.34.12-.1.25-.18.39-.25.15-.08.29-.18.41-.31.06-.06.11-.13.15-.21.04-.07.05-.16.07-.25-.09.14-.2.25-.31.35h0Z" fill="#fff"/>
        <path d="M1199.13,313.09s.06-.08.09-.11c.02-.02.03-.03.05-.05l.05-.05c.07-.06.15-.12.23-.17.16-.11.33-.19.51-.27.19-.08.36-.19.52-.32.08-.07.15-.14.21-.22.08-.1.1-.23.11-.28-.02.04-.05.08-.09.12-.03.04-.07.07-.1.1-.07.07-.15.12-.22.18-.16.11-.33.2-.5.28-.18.08-.36.19-.52.32-.08.07-.15.14-.22.22-.08.1-.12.23-.12.28h0Z" fill="#fff"/>
        <path d="M1196.05,317.59c-.15-.55-.16-.85-.16-.85,0,0-.17.4-.01.94.05.17.07.2.1.37.05.26,0,.49,0,.5,0,0,.1-.15.12-.18.07-.16.06-.34.02-.5-.03-.11-.04-.14-.07-.28h0Z" fill="#fff"/>
        <rect x="1198.78" y="317.94" width=".33" height=".33" transform="translate(173.87 1016.59) rotate(-49.13)" fill="#fff"/>
        <path d="M1198.08,317.71c-.02-.17-.04-.84.03-.97,0,0,0,0,0,0,0,0-.01,0-.02,0-.08.05-.17.07-.27.07s-.18-.02-.28-.03c-.2-.02-.25.27-.22.33.07-.05.17-.03.25-.02.07,0,.15,0,.22,0,.05,0,.15-.05.15-.05,0,0-.06.24-.04.7.02.42.24.84.26.81.04-.08.08-.16.11-.24,0-.01,0-.02,0-.03-.11-.17-.17-.36-.2-.56h0Z" fill="#fff"/>
        <path d="M1197.08,317.57c0-.05,0-.11-.01-.16h0c-.01-.14-.02-.27-.05-.4,0-.03-.05-.27-.29-.27-.22,0-.32.28-.32.52,0,.49.49.15.49.15,0,.76.27,1.17.29,1.14.04-.08.08-.16.11-.24,0-.01,0-.02,0-.03-.14-.21-.19-.46-.21-.7h0Z" fill="#fff"/>
      </g>
    </g>
  </g>
</svg>