<?xml version="1.0" encoding="UTF-8"?>
<svg id="Layer_2" data-name="Layer 2" xmlns="http://www.w3.org/2000/svg" viewBox="0 0 402.18 145.75">
  <defs>
    <style>
      .cls-1 {
        fill: #fff;
      }
    </style>
  </defs>
  <g id="Layer_1-2" data-name="Layer 1">
    <g>
      <path class="cls-1" d="M363.18,3.36c3.93-2.25,8.26-3.36,12.99-3.36s9.21,1.11,13.18,3.36c3.97,2.24,7.1,5.3,9.38,9.15,2.29,3.85,3.43,8.14,3.43,12.88s-1.14,8.9-3.43,12.75c-2.29,3.85-5.42,6.88-9.38,9.08-3.98,2.22-8.37,3.31-13.18,3.31s-9.06-1.09-12.99-3.31c-3.94-2.2-7.05-5.21-9.33-9.01-2.29-3.82-3.43-8.06-3.43-12.7s1.14-9.05,3.43-12.95c2.29-3.88,5.4-6.96,9.33-9.2ZM386.35,7.99c-3.01-1.72-6.4-2.57-10.17-2.57s-7.04.86-10.05,2.57c-3.01,1.73-5.37,4.14-7.1,7.23-1.72,3.08-2.59,6.51-2.59,10.29s.87,7.03,2.59,10.04c1.72,3.01,4.09,5.38,7.1,7.1,3.01,1.73,6.36,2.59,10.05,2.59s7.16-.86,10.17-2.59c3.01-1.72,5.37-4.1,7.1-7.15,1.72-3.06,2.59-6.42,2.59-10.11s-.87-7.18-2.59-10.24c-1.72-3.04-4.09-5.43-7.1-7.16ZM385.08,14.08c1.93,1.6,2.89,3.77,2.89,6.49,0,1.85-.5,3.48-1.51,4.88-1,1.41-2.43,2.42-4.27,3.08l6.02,10.58h-6.63l-5.29-9.38h-3.85v9.38h-6.02V11.67h10.83c3.29,0,5.89.79,7.82,2.4ZM376.9,24.79c1.45,0,2.61-.39,3.49-1.14.88-.77,1.33-1.78,1.33-3.08s-.42-2.27-1.27-2.94c-.84-.69-2.03-1.03-3.55-1.03h-4.45v8.19h4.45Z"/>
      <path class="cls-1" d="M390.72,131.7c0,2.55-.62,4.94-1.93,7.1-1.24,2.16-3.01,3.86-5.25,5.1-2.24,1.24-4.63,1.85-7.33,1.85s-5.1-.62-7.26-1.85c-2.24-1.24-3.94-2.93-5.25-5.02-1.24-2.16-1.93-4.56-1.93-7.1,0-2.7.7-5.1,1.93-7.26,1.31-2.16,3.01-3.94,5.25-5.17,2.16-1.24,4.55-1.85,7.26-1.85s5.1.62,7.33,1.85c2.24,1.24,4.01,3.01,5.25,5.17,1.31,2.08,1.93,4.48,1.93,7.18Z"/>
      <path class="cls-1" d="M0,145.75V0h40.16l36.08,94.79L111.91,0h39.54v145.75h-30.17V39.75l-41.79,106h-9.98L27.31,39.75v106H0Z"/>
      <path class="cls-1" d="M187.03,145.75L151.16,0h30.78l24.06,103.76L232.49,0h25.48l27.32,104.37L310.15,0h27.93l-35.87,145.75h-30.58l-27.52-103.55-27.93,103.55h-29.15Z"/>
    </g>
  </g>
</svg>