<?xml version="1.0" encoding="UTF-8"?>
<svg id="Layer_2" data-name="Layer 2" xmlns="http://www.w3.org/2000/svg" viewBox="0 0 379.19 379.65">
  <defs>
    <style>
      .cls-1 {
        fill: #c82928;
      }
    </style>
  </defs>
  <g id="svg2">
    <path class="cls-1" d="M361.04,124.42c-4.74-20.76-40.93-94.07-105.24-115.36C229.08.21,211.99.43,198.51.04c-18.97-.55-42.27,4.4-62.7,11.49-34.95,12.11-58.94,5.57-83.03,45.56-24.09,39.99-25,51.82-38,80.09-13.11,28.52-21.62,61.66-7.44,103.26,14.18,41.6,24.1,59.19,43.96,73.92s23.88,18.82,33.99,29.66c10.11,10.85,27.19,31.81,72.38,34.95,10.3.71,21.15,1.08,32.26.05,16.57-1.53,33.92-4.74,50.34-8.28,20.87-4.49,40.31-9.4,58.26-23.14,41.54-31.8,65.6-79.67,73.01-107.71,7.4-28.03,11.69-53.18,2.17-75.62-3.06-7.21-5.38-11.96-6.38-15.68-1.85-6.81-3.2-10.77-6.26-24.18l-.03.03Z"/>
  </g>
</svg>