<?xml version="1.0" encoding="UTF-8"?>
<svg id="Layer_2" data-name="Layer 2" xmlns="http://www.w3.org/2000/svg" viewBox="0 0 324.1 324.1">
  <defs>
    <style>
      .cls-1 {
        fill: #fff;
      }

      .cls-2 {
        fill: #681813;
      }

      .cls-3 {
        fill: #c82928;
      }
    </style>
  </defs>
  <g id="Layer_1-2" data-name="Layer 1">
    <g>
      <g>
        <circle class="cls-2" cx="162.05" cy="162.05" r="162.01" transform="translate(-67.12 162.05) rotate(-45)"/>
        <path class="cls-3" d="M297.34,110.76c-3.74-16.37-32.28-74.19-83-90.98-21.07-6.98-34.55-6.8-45.18-7.11-14.96-.43-33.34,3.47-49.45,9.06-27.56,9.55-46.48,4.39-65.48,35.93-19,31.54-19.72,40.87-29.97,63.16-10.34,22.49-17.05,48.63-5.87,81.44,11.18,32.81,19.01,46.68,34.67,58.3,15.66,11.62,18.83,14.84,26.81,23.39,7.97,8.56,21.44,25.09,57.08,27.56,8.12.56,16.68.85,25.44.04,13.07-1.21,26.75-3.74,39.7-6.53,16.46-3.54,31.79-7.41,45.95-18.25,32.76-25.08,51.74-62.83,57.58-84.95,5.84-22.11,9.22-41.94,1.71-59.64-2.41-5.69-4.24-9.43-5.03-12.37-1.46-5.37-2.52-8.49-4.94-19.07Z"/>
      </g>
      <g>
        <path class="cls-1" d="M150.21,221.87c4.77-.66,10.87-5.89,13.09-15.19,2.23-9.3,8.25-12.57,8.25-12.57l.52-10.74c-1.9,0-3.6,2.17-5.35,5.3l.11-.26s-9.8,16.38-21.92,9.76c-.68-.37-1.11-1.1-1.06-1.87.31-4.72,6.48-8.8,6.48-8.8,0,0,.13,4.06,2.49,3.4,2.36-.65,5.89-8.51,2.88-10.21s-13.88,7.06-13.88,18.99c0,5.17,10.78,5.94,18.49,1.54-3.1,5.46-6.84,10.04-11.94,10.04-12.83,0-13.88-20.43-16.5-34.57-2.62-14.14-4.45-36.88-4.45-36.88,0,0-3.14,4.71-4.19,10.21-.33,1.73-.59,7.54,3.81,31.67.97,6.63-.01,8.49-.01,8.49-.26,1.83-3.67,4.98-3.67,4.98,0,0-2.36-7.59-7.99-6.42-5.63,1.18-9.95,20.03-3.93,20.3,6.02.26,8.12-3.01,8.12-3.01,0,0,1.7.79,1.05,4.19-.65,3.4-9.78,24.22-56.57,25.97,0,0,21.3,4.54,37.71,1.4,16.41-3.14,22.35-31.43,22.17-35.62,0,0,2.84-5.9,4.9-10.76.01.05.02.1.03.16,6.29,32.34,16.8,31.13,21.34,30.51Z"/>
        <path class="cls-1" d="M75.98,225.81s8.1-2.45,9.73-3.24c11.87-5.76,18.33-23.92,19.55-36.49,1.22-12.57-8.73-40.5-7.86-46.27,0,0-3.84,9.08-1.92,19.9,1.92,10.82,8.35,26.49,5.94,37.19-3.94,17.44-25.44,28.91-25.44,28.91Z"/>
        <path class="cls-1" d="M89.59,182.59c0-10.21-7.2-14.01-7.07-21.87,0,0-1.83,6.69-2.1,9.43-.52,5.37,6.29,12.18,6.29,17.68,0,4.98-9.69,12.05-15.45,12.05s-15.89-2.24-15.32-16.5c.46-11.46,15.32-18.33,15.58-36.01,0,0-2.33,7.42-5.63,12.57-3.27,5.11-13.42,17.28-11.92,30.9,2.36,16.5,9.69,19.64,16.37,19.64s18.46-5.89,19.25-27.89Z"/>
        <rect class="cls-1" x="64.84" y="178.66" width="11" height="11" transform="translate(-114.95 116.85) rotate(-49.13)"/>
        <path class="cls-1" d="M254.7,208.25c-7,25.58-47.14,29.85-47.14,29.85,0,0,11.39,1.83,22.91,1.18,20.32-1.15,24.62-15.19,28.81-30.51,4.19-15.32,10.34-15.97,10.34-15.97l.65-10.87c-6.15.65-12.18,13.88-15.58,26.32Z"/>
        <path class="cls-1" d="M209.4,205.89c.14,3.18,1.92,6.5,4.57,8.89-1.36,3.49-2.61,6.9-2.65,7.69-.06,1.13,2.11-3.24,3.83-6.73,2.06,1.5,4.51,2.45,7.08,2.45.92,0,10.87.39,19.25-12.31,10.21-15.97,9.95-22.52,2.1-22.52-14.8.13-26.19,22.91-26.19,22.91-5.5-1.57-5.5-10.87-5.5-10.87-4.31-.12-5.73,12.29-12.33,13.74,0,0,0,0,0,0-.4.09-.83.14-1.29.14-3.07,0-10.49-1.06-14.61-24.61-1.56-8.91-6.53-37.8-6.53-37.8-1.02-4.29-1.68-7.08-1.68-7.08,0,0-2.48,5.09-2.79,10.68-.06,1.04,7.49,39.81,9.24,48.07,2.75,12.96,6.64,21.34,15.19,21.34s10.74-13.62,12.31-14.01ZM234.93,193.32c8.51-1.96,9.17,2.23,9.17,2.23,0,0-10.87,14.8-24.62,11.65,0,0,7.86-12.05,15.45-13.88Z"/>
        <rect class="cls-1" x="213.15" y="165.99" width="11" height="11" transform="translate(-54.1 224.62) rotate(-49.13)"/>
        <rect class="cls-1" x="183.2" y="110.82" width="11" height="11" transform="translate(-22.73 182.91) rotate(-49.13)"/>
        <rect class="cls-1" x="143.07" y="98.85" width="11" height="11" transform="translate(-27.56 148.42) rotate(-49.13)"/>
        <path class="cls-1" d="M137.06,133.68h-.01s5.28,5.29,14.83,4.04c9.55-1.26,15.28-10.88,16.46-15.53,0,0,0-.01,0-.02.68-1.96,1.18-4.16,1.44-6.6.43-2.38,1.35-8.54.91-15.12,9.56,4.65,13.04-3.48,15.7-11.12,2.68-7.69,6.52-12.04,6.52-12.04l.17-10.37c-3.85.67-7.36,23.41-18.23,24.08-2.97,0-5.28-1.08-6.88-2.2-1.1-2.31-2.59-4.38-4.59-5.97l-2.18,9.95s5.24,6.45,7.46,15.03c-.75,5.52-7.64,19.57-20.04,19.57-6.05,0-14.79-2.04-19.13-16.52-4.3-14.32,14.91-27.15,10.44-50.18,0,0,.35,7.72-3.15,14.83-3.5,7.11-9.73,19.56-9.59,32.95.38,13.62,4.89,21.04,9.86,25.22Z"/>
        <path class="cls-1" d="M169.37,67.23c1.84,2.39,3.49,4.6,3.49,4.6l1.05-3.4c-.77-.96-2.09-2.67-3.47-4.46.67-2.36,1.12-4.66,1.57-6.67,1.31-5.83-1.77-5.63-5.3-4.26-3.54,1.38-3.21,6.94-.85,9.76.66.78,1.49,1.83,2.35,2.93-5.74,10.5-21.99,21.62-21.99,21.62,0,0,9.76-5.43,16.5-10.74,3.35-2.63,5.34-5.97,6.65-9.38ZM165.53,57.56c3.08-2.23,6.48-.26,4.12,4.84-.04.12-.09.25-.13.37-2.07-2.7-3.99-5.22-3.99-5.22Z"/>
        <path class="cls-1" d="M158.57,155.17c-2.3,1.89-4.78,3.51-7.42,4.89-2.86,1.47-5.56,3.41-7.83,5.74-1.12,1.19-2.15,2.46-2.99,3.86-.82,1.41-1.2,3.07-1.39,4.66,1.72-2.54,3.92-4.65,6.22-6.51,2.35-1.84,4.85-3.43,7.52-4.81,2.88-1.5,5.54-3.48,7.77-5.88,1.09-1.22,2.08-2.53,2.89-3.94.79-1.43.97-3.07,1.26-4.7-1.65,2.59-3.78,4.76-6.03,6.68Z"/>
        <path class="cls-1" d="M192.38,165.01c.5-.75,1.1-1.48,1.73-2.15.31-.34.65-.66.96-.99l1.02-.93c1.36-1.23,2.87-2.3,4.38-3.32,3.06-2.03,6.32-3.73,9.7-5.24,3.56-1.59,6.95-3.64,9.94-6.21,1.48-1.29,2.85-2.73,4.04-4.31,1.46-1.85,2.01-4.44,2.16-5.44-.47.77-1.05,1.52-1.66,2.21-.6.7-1.25,1.35-1.92,1.98-1.33,1.27-2.8,2.37-4.29,3.42-3.01,2.08-6.25,3.82-9.62,5.32-3.54,1.57-6.96,3.57-9.98,6.09-1.51,1.26-2.91,2.66-4.14,4.2-1.51,1.92-2.24,4.36-2.33,5.37Z"/>
        <path class="cls-1" d="M133.36,251.23c-2.78-10.6-2.98-16.34-2.98-16.34,0,0-3.21,7.6-.2,18.02.92,3.18,1.28,3.88,1.92,7.14.97,5,.02,9.47.04,9.52.06.16,1.93-2.79,2.23-3.44,1.41-3.04,1.15-6.47.41-9.63-.49-2.07-.75-2.74-1.41-5.28Z"/>
        <rect class="cls-1" x="185.6" y="258.03" width="6.27" height="6.27" transform="translate(-132.25 232.99) rotate(-49.13)"/>
        <path class="cls-1" d="M172.23,253.51c-.46-3.32-.7-16.08.59-18.61.02-.04.04-.08.04-.12,0-.18-.28-.13-.43-.03-1.47.99-3.3,1.35-5.08,1.36-1.78.01-3.53-.37-5.3-.55-3.8-.38-4.7,5.16-4.27,6.4,1.34-.97,3.17-.58,4.81-.37,1.41.18,2.84.18,4.25.02,1.03-.12,2.89-1.01,2.89-1.01,0,0-1.21,4.68-.8,13.47.38,8.12,4.69,16.08,5.04,15.47.86-1.49,1.5-3.04,2.15-4.63.09-.21.05-.41-.07-.58-2.17-3.3-3.29-6.92-3.83-10.82Z"/>
        <path class="cls-1" d="M153.04,250.85c-.08-1.01-.15-2.03-.23-3.04,0-.02,0-.05,0-.07-.2-2.57-.46-5.14-.98-7.63-.13-.62-.96-5.27-5.64-5.27-4.3,0-6.12,5.46-6.12,10.06,0,9.35,9.44,2.83,9.44,2.83,0,14.63,5.16,22.42,5.51,21.81.86-1.49,1.5-3.04,2.15-4.63.09-.21.05-.41-.07-.58-2.65-4.03-3.7-8.74-4.06-13.49Z"/>
      </g>
    </g>
  </g>
</svg>