<?xml version="1.0" encoding="UTF-8"?>
<svg id="Layer_2" data-name="Layer 2" xmlns="http://www.w3.org/2000/svg" viewBox="0 0 322.94 322.94">
  <defs>
    <style>
      .cls-1 {
        fill: #fff;
      }

      .cls-2 {
        fill: #681813;
      }

      .cls-3 {
        fill: #c82928;
      }
    </style>
  </defs>
  <g id="Layer_1-2" data-name="Layer 1">
    <g>
      <g>
        <circle class="cls-2" cx="161.47" cy="161.47" r="161.43" transform="translate(-66.88 161.47) rotate(-45)"/>
        <path class="cls-3" d="M296.27,110.37c-3.73-16.31-32.17-73.92-82.71-90.65-21-6.95-34.43-6.78-45.02-7.08-14.9-.43-33.22,3.46-49.27,9.02-27.46,9.51-46.31,4.38-65.24,35.8-18.93,31.42-19.65,40.73-29.86,62.93-10.3,22.41-16.99,48.46-5.85,81.15,11.14,32.69,18.94,46.52,34.55,58.09,15.61,11.58,18.77,14.78,26.71,23.31s21.37,25,56.88,27.46c8.09.56,16.62.85,25.35.04,13.03-1.21,26.66-3.73,39.56-6.5,16.4-3.52,31.67-7.39,45.78-18.18,32.64-24.99,51.55-62.61,57.37-84.64,5.82-22.04,9.18-41.79,1.7-59.42-2.41-5.67-4.22-9.4-5.02-12.32-1.46-5.35-2.51-8.46-4.93-19Z"/>
      </g>
      <g>
        <path class="cls-1" d="M102.31,75.97c0-.25.04-.5.11-.77.07-.27.21-.52.4-.76.2-.24.46-.43.8-.59.33-.16.76-.23,1.29-.23.67,0,1.28.18,1.81.55s1,.88,1.39,1.52c.38.65.68,1.4.9,2.26.21.86.32,1.78.32,2.76,0,1.37-.11,2.65-.33,3.82-.22,1.18-.56,2.17-1.02,2.98-.46.81-1.04,1.39-1.75,1.75-.71.36-1.55.42-2.51.17l-.2,1.01c.9,1.5,1.79,3.11,2.68,4.83s1.78,3.47,2.67,5.27c.89,1.8,1.79,3.6,2.68,5.39.9,1.8,1.81,3.51,2.75,5.15.92,1.59,2.01,2.82,3.29,3.69,1.28.87,2.71,1.31,4.29,1.31.96,0,1.84-.07,2.64-.21.79-.14,1.51-.31,2.15-.5.64-.2,1.19-.4,1.67-.63.47-.22.87-.42,1.2-.6,0,0-2.77.24-4.5-1.32-.74-.67-1.51-1.49-2.26-2.55-.74-1.06-1.49-2.27-2.23-3.63-.74-1.36-1.48-2.75-2.21-4.19-.73-1.44-1.45-2.86-2.17-4.27-.72-1.41-1.43-2.68-2.13-3.84-.7-1.15-1.39-2.12-2.07-2.91-.68-.78-1.35-1.27-2.02-1.45.96-.33,1.86-.72,2.68-1.19.83-.47,1.54-1.05,2.13-1.77.6-.71,1.06-1.58,1.4-2.6.33-1.02.5-2.25.5-3.69,0-2.94-1.17-5.2-3.52-6.78-2.35-1.58-5.74-2.37-10.19-2.37-1.93,0-3.79.06-5.58.18-1.79.12-3.1,1.16-3.1,3.94v32.07l8.04-3.68v-28.14Z"/>
        <path class="cls-1" d="M178.49,74.42v2.72h-.01s0,26.83,0,26.83c0,0,0,0,0,0v4.77l7.51-3.44v-2.82s0,0,0,0v-12.81c.13-.16.29-.41.48-.74.19-.33.42-.65.69-.98.27-.33.58-.62.94-.87.36-.25.78-.38,1.25-.38.39,0,.78.1,1.16.31.38.21.73.63,1.03,1.28s.55,1.59.74,2.82c.15,1.01.24,2.31.27,3.88v13.67l7.55-3.46v-5.18s0,0,0,0v-3.34s0-.44,0-.44c0-.19.01-.38.01-.58,0-.26,0-.5-.01-.75v-.28h0v-.26s0,0,0,0c-.05-1.87-.19-3.49-.44-4.83-.31-1.64-.76-2.96-1.35-3.96-.59-1-1.32-1.71-2.18-2.13-.87-.42-1.85-.64-2.94-.64-.51,0-1,.07-1.48.2-.48.13-.94.31-1.37.53-.43.22-.84.47-1.23.75-.38.28-.73.56-1.04.86-.77.69-1.45,1.46-2.06,2.33v-9.54h.01v-3.77c0-.36-.03-.77-.09-1.24-.06-.47-.23-.91-.5-1.32-.28-.42-.71-.77-1.3-1.05-.59-.29-1.41-.43-2.48-.43-.69,0-1.34.07-1.96.22-.62.15-1.21.33-1.75.56-.55.23-1.51.8-1.51.8,0,0,2.06.15,2.06,2.73Z"/>
        <path class="cls-1" d="M129.53,87.12v18.93s0,.05,0,.07c0,0,0,0,0,0v1.68l7.51-3.44v-3.06s0,0,0,0v-14.43c0-.36-.03-.77-.09-1.24-.06-.47-.23-.91-.5-1.32-.28-.42-.71-.77-1.3-1.05-.59-.29-1.41-.43-2.48-.43-.69,0-1.34.07-1.96.22-.62.15-1.21.33-1.75.56-.55.23-1.51.8-1.51.8,0,0,2.06.15,2.06,2.73Z"/>
        <rect class="cls-1" x="129.77" y="72.84" width="5.98" height="5.98" transform="translate(-14.74 116.09) rotate(-45)"/>
        <path class="cls-1" d="M149.94,105.78c1.05,1.01,2.23,1.75,3.53,2.19,1.3.45,2.58.67,3.84.67,1.55,0,2.95-.27,4.23-.78l.32-.13c.09-.04.26-.12.26-.12l6.93-3.17v-2.38s0,0,0,0v-27.92c0-.36-.03-.77-.09-1.24-.06-.47-.23-.91-.5-1.32s-.71-.77-1.3-1.05c-.59-.29-1.41-.43-2.48-.43-.69,0-1.34.07-1.96.22-.62.15-1.21.33-1.75.56-.55.23-1.51.8-1.51.8,0,0,2.06.15,2.06,2.73v9.93c-.2-.15-.71-.49-.96-.65-.24-.16-.53-.3-.86-.43-.33-.13-.71-.24-1.15-.33-.44-.09-.94-.14-1.5-.14-1.44,0-2.8.29-4.1.87-1.29.58-2.43,1.42-3.41,2.53-.98,1.1-1.76,2.46-2.34,4.06-.58,1.6-.87,3.43-.87,5.49,0,2.39.33,4.4,1,6.04.67,1.64,1.53,2.97,2.59,3.98ZM154.95,88.01c.6-1.67,1.53-2.5,2.81-2.5,2.9,0,3.47,3.39,3.56,4.19.08.8.14,1.56.17,2.27.03.71.05,1.34.05,1.89v1.09c0,7.47-1.31,11.2-3.92,11.2-.62,0-1.16-.25-1.61-.76-.45-.51-.82-1.22-1.1-2.13-.29-.92-.5-2.01-.64-3.29-.14-1.27-.21-2.68-.21-4.22,0-3.5.3-6.08.9-7.75Z"/>
        <path class="cls-1" d="M219.45,106.64c.47-.39.92-.89,1.36-1.44v3.47l7.55-3.46v-10.56h0v-4.43c0-1.32-.27-2.45-.8-3.38s-1.24-1.7-2.13-2.3c-.89-.6-1.92-1.05-3.08-1.32-1.16-.28-2.38-.42-3.65-.42-1.06,0-2.12.11-3.19.33-.37.08-.72.19-1.06.3,0,0,0-.02,0-.02-.15.04-.29.1-.44.15h0c-3.87,1.32-6.59,5.13-6.01,6.44.91,2.05,6.21.27,6.78-1.22.57-1.48-2.04-1.82-2.04-1.82,0,0,0,0,0,0,.92-.67,2.25-1.16,4.18-1.16,3.9,0,3.97,1.82,3.97,3.03,0,.78-.22,1.55-.65,2.29-.43.74-1.12,1.3-2.07,1.68-1.28.51-2.52.99-3.74,1.45-1.22.46-2.3,1.01-3.26,1.65-.96.65-1.73,1.44-2.32,2.39-.59.95-.88,2.17-.88,3.65,0,1.23.18,2.26.53,3.11.35.85.82,1.54,1.4,2.07.58.53,1.24.92,1.97,1.16.74.25,1.5.37,2.28.37.6,0,1.21-.07,1.8-.2.6-.13,1.19-.34,1.78-.64.59-.29,1.17-.68,1.73-1.15ZM215.92,104.13c-.24-.37-.43-.86-.56-1.48-.14-.62-.21-1.41-.21-2.35s.11-1.84.34-2.59.54-1.37.93-1.88c.39-.51.85-.89,1.36-1.15.52-.26,1.06-.39,1.63-.39.41,0,.74.11,1.01.32.26.21.39.52.39.93v5.98c0,.43-.08.85-.25,1.27-.16.43-.38.81-.66,1.15-.28.34-.6.63-.98.85-.38.22-.78.33-1.2.33-.34,0-.67-.07-.98-.22-.31-.15-.58-.41-.82-.77Z"/>
        <path class="cls-1" d="M119.16,158.91c.58-.25,1.1-.5,1.54-.77.45-.27.82-.51,1.12-.72,0,0-3.07.56-4.02-1.96l-1.91-6.42-.59-2.16-5.27-18.12c-.29-1-.67-1.88-1.12-2.64-.45-.76-1.04-1.39-1.78-1.89-.74-.5-1.65-.86-2.73-1.13-1.48-.37-2.47,1.25-3.17,4.13-.25,1.11-.55,2.42-.91,3.91-.36,1.5-.77,3.1-1.23,4.82-.46,1.72-.94,3.51-1.46,5.37-.51,1.86-1.04,3.71-1.58,5.54l-.64,2.16c-.62,1.91-1.26,3.55-1.91,4.9-.65,1.36-1.36,2.45-2.05,3.35-2.98,3.91-10.62,2.75-10.62,2.75,0,0,.78.63,1.34.87.56.25,1.2.44,1.92.58.73.14,1.48.21,2.27.21,1.42,0,2.71-.25,3.86-.76,1.15-.51,2.21-1.28,3.18-2.33.96-1.05,1.84-2.36,2.64-3.95.79-1.59,1.53-3.46,2.22-5.61h9.24l1.96,6.79c.1.34.23.74.4,1.2.17.46.45.89.83,1.3.38.41.92.75,1.59,1.03.68.28,1.57.42,2.68.42.8,0,1.55-.08,2.26-.25.7-.16,1.34-.37,1.92-.61ZM98.92,146.87c.62-2.08,1.25-4.32,1.88-6.72.63-2.4,1.28-4.97,1.95-7.7l4.17,14.42h-7.99Z"/>
        <path class="cls-1" d="M135.26,121.65c-.59-.29-1.41-.43-2.48-.43-.69,0-1.34.07-1.96.22-.62.15-1.21.34-1.75.56-.55.23-1.51.8-1.51.8,0,0,2.06.15,2.06,2.73v31.63c0,.06,0,.13.01.2v2.4l7.51-3.44v-31.06c0-.36-.03-.77-.09-1.24-.06-.47-.23-.91-.5-1.32-.28-.42-.71-.77-1.3-1.05Z"/>
        <path class="cls-1" d="M241.79,145.83v-.35s-.01,0-.02,0c-.05-1.87-.19-3.49-.44-4.83-.31-1.64-.76-2.96-1.35-3.96-.59-1-1.31-1.71-2.17-2.13-.86-.42-1.84-.64-2.95-.64-.51,0-1,.07-1.48.2-.48.13-.94.31-1.37.53-.43.22-.84.47-1.23.75-.38.28-.73.56-1.04.86-.77.69-1.46,1.46-2.06,2.33,0-.36-.03-.81-.09-1.34-.06-.53-.23-1.04-.5-1.53-.28-.49-.71-.91-1.3-1.26-.59-.35-1.41-.53-2.48-.53-.69,0-1.34.07-1.96.22-.62.15-1.2.33-1.74.56-.54.23-1.51.8-1.51.8,0,0,2.05-.23,2.05,2.73v17.97h0s0,3.65,0,3.65l7.55-3.46v-10.56h-.03v-5.04c.13-.16.29-.41.48-.74.19-.33.42-.65.69-.98.27-.33.59-.62.96-.87.37-.25.79-.38,1.26-.38.39,0,.78.1,1.15.31.38.2.72.63,1.03,1.28.31.65.56,1.59.75,2.82.15.95.23,2.16.27,3.61h0v14.02l7.55-3.46v-10.56h0Z"/>
        <path class="cls-1" d="M147.62,138.53c.1.72.2,1.57.29,2.55.1.98.22,2.03.37,3.16.15,1.13.33,2.3.54,3.51.21,1.21.48,2.39.8,3.53.32,1.14.7,2.23,1.14,3.26.44,1.03.96,1.93,1.57,2.71.6.78,1.3,1.39,2.1,1.84.79.45,1.7.67,2.73.67.83,0,1.61-.18,2.33-.54.72-.36,1.38-.86,1.97-1.5.6-.64,1.14-1.39,1.63-2.24.49-.86.92-1.79,1.3-2.78.33.98.71,1.9,1.14,2.76.43.86.94,1.61,1.51,2.24.57.64,1.22,1.14,1.95,1.51.73.37,1.55.55,2.46.55,1.16,0,2.2-.33,3.11-.99.91-.66,1.72-1.54,2.43-2.65s1.3-2.37,1.8-3.79c.5-1.42.91-2.89,1.23-4.41.32-1.52.55-3.03.7-4.54.15-1.5.22-2.89.22-4.14,0-4.64-1.14-6.08-1.14-6.08l-3.59,1.64s2.18,5.03,1.38,11.45c-.18,1.47-.45,2.77-.8,3.9-.34,1.13-.75,2.04-1.23,2.72-.47.69-.99,1.03-1.54,1.03-.52,0-.98-.35-1.36-1.04-.38-.69-.74-1.7-1.07-3.03-.33-1.32-.64-2.95-.93-4.88-.29-1.93-.6-4.12-.91-6.57-.11-.9-.27-1.64-.47-2.22-.2-.58-.45-1.04-.77-1.37-.32-.34-.72-.56-1.2-.69-.48-.12-1.08-.18-1.78-.18-1.6,0-2.67.38-3.2,1.15-.53.77-.67,1.92-.43,3.46.1.54.19,1.16.27,1.86.08.7.17,1.46.26,2.27.09.81.19,1.65.31,2.54.11.88.25,1.77.42,2.67-.2.9-.43,1.72-.69,2.46-.26.74-.54,1.38-.83,1.9-.29.52-.6.93-.93,1.23-.33.29-.66.44-1.01.44-.52,0-.98-.32-1.36-.97-.38-.65-.74-1.6-1.07-2.87-.33-1.27-.63-2.84-.92-4.72-.29-1.88-.58-4.05-.87-6.52-.07-.46-.17-.97-.32-1.54-.15-.57-.4-1.11-.75-1.61-.35-.5-.83-.92-1.43-1.25-.6-.33-1.4-.5-2.38-.5-.69,0-1.34.07-1.96.22-.62.15-1.2.33-1.74.56s-1.51.8-1.51.8c0,0,1.84-.31,2.22,3.03Z"/>
        <path class="cls-1" d="M195.92,134.3c-.37.08-.72.19-1.06.3,0,0,0-.02,0-.02-.15.04-.29.1-.44.15,0,0,0,0,0,0-3.87,1.32-6.59,5.13-6.01,6.43.91,2.05,6.21.27,6.78-1.21.57-1.48-2.04-1.82-2.04-1.82,0,0,0,0,0,0,.92-.67,2.24-1.16,4.18-1.16,3.9,0,3.97,1.82,3.97,3.03,0,.78-.22,1.55-.65,2.29-.43.74-1.12,1.3-2.07,1.68-1.28.51-2.52.99-3.74,1.45-1.22.46-2.3,1.01-3.26,1.65-.96.65-1.73,1.44-2.32,2.39-.59.95-.88,2.17-.88,3.65,0,1.23.18,2.26.53,3.11.35.85.82,1.54,1.4,2.07.58.53,1.24.92,1.97,1.16.74.25,1.5.37,2.28.37.6,0,1.21-.07,1.8-.2.6-.13,1.19-.34,1.78-.64.59-.29,1.16-.68,1.73-1.15.47-.39.92-.89,1.36-1.44v3.47l7.55-3.46v-10.56h0v-4.43c0-1.32-.27-2.45-.8-3.38-.53-.93-1.24-1.7-2.13-2.31-.89-.6-1.92-1.05-3.08-1.32-1.16-.28-2.38-.42-3.65-.42-1.06,0-2.12.11-3.19.33ZM201.22,152.7c0,.43-.08.85-.25,1.27-.16.43-.38.81-.66,1.15-.28.34-.6.63-.98.85-.38.22-.78.33-1.2.33-.34,0-.67-.07-.98-.22-.31-.15-.58-.4-.82-.77-.24-.37-.43-.86-.56-1.48-.14-.62-.21-1.41-.21-2.35s.11-1.84.34-2.59.54-1.37.93-1.88c.39-.51.85-.89,1.36-1.15.51-.26,1.06-.39,1.63-.39.41,0,.74.11,1.01.32.26.21.39.52.39.93v5.98Z"/>
        <path class="cls-1" d="M98.37,213.09c-.66-.52-1.34-1.16-1.96-2.02-.62-.87-1.17-1.98-1.66-3.35-.48-1.36-.87-3.02-1.15-4.97-.29-1.94-.43-4.24-.43-6.89,0-2.78.14-5.19.43-7.23.29-2.04.66-3.78,1.13-5.21s.99-2.59,1.58-3.49c.59-.9,1.19-1.6,1.8-2.1.61-.5,1.21-.84,1.8-1.02.59-.18,1.1-.27,1.54-.27,3.45,0,3.5,8.99,3.5,8.99l5.2-2.38s-.99-8.72-9.96-8.72c-2.14,0-4.16.45-6.06,1.36-1.9.91-3.55,2.26-4.95,4.05-1.41,1.79-2.52,4.02-3.33,6.68-.82,2.66-1.23,5.76-1.23,9.29,0,3.76.39,6.99,1.16,9.68.78,2.7,1.85,4.91,3.21,6.63,1.36,1.72,2.97,2.99,4.81,3.81,1.84.82,3.83,1.23,5.97,1.23,1.37,0,2.62-.16,3.75-.49,1.13-.33,2.15-.75,3.05-1.26.91-.52,1.7-1.09,2.39-1.72.69-.63,1.27-1.25,1.77-1.85,0,0-7.71,4.96-12.38,1.24Z"/>
        <path class="cls-1" d="M134.45,188.68c-1.04-1.03-2.24-1.79-3.62-2.29-1.37-.5-2.81-.75-4.31-.75s-2.94.27-4.31.81c-1.37.54-2.58,1.35-3.62,2.43-1.04,1.08-1.87,2.42-2.49,4.03-.62,1.61-.93,3.49-.93,5.63s.31,4.02.93,5.64c.62,1.62,1.45,2.97,2.49,4.05,1.04,1.08,2.24,1.89,3.62,2.44,1.37.55,2.81.82,4.31.82s2.94-.29,4.31-.87c1.37-.58,2.58-1.43,3.62-2.56,1.04-1.13,1.87-2.52,2.49-4.17.62-1.65.93-3.55.93-5.69s-.31-4.03-.93-5.6c-.62-1.58-1.45-2.88-2.49-3.91ZM130.11,202.17c-.09,1.28-.27,2.42-.53,3.43-.26,1.01-.64,1.83-1.13,2.45-.49.62-1.14.93-1.94.93s-1.45-.3-1.94-.89c-.49-.6-.87-1.39-1.13-2.37-.26-.98-.43-2.1-.51-3.35-.08-1.25-.12-2.53-.12-3.84s.04-2.58.12-3.82c.08-1.24.25-2.35.51-3.32.26-.97.64-1.76,1.13-2.35.49-.6,1.14-.9,1.94-.9s1.45.28,1.94.85c.49.56.87,1.32,1.13,2.27.26.95.44,2.03.53,3.25.09,1.22.13,2.48.13,3.79s-.05,2.6-.13,3.87Z"/>
        <path class="cls-1" d="M202.28,207.73c-.69-.26-1.31-.61-1.88-1.05-.56-.44-1.06-.94-1.5-1.51-.43-.56-.8-1.16-1.09-1.78-.29-.62-.52-1.24-.67-1.85-.16-.61-.23-1.18-.23-1.7l9.68-5.71c.74-.46,1.32-.99,1.77-1.61.44-.61.66-1.3.66-2.07,0-.64-.15-1.25-.44-1.83-.29-.58-.74-1.09-1.34-1.53-.6-.44-1.34-.79-2.24-1.05-.9-.26-1.95-.39-3.16-.39-.92,0-1.87.13-2.86.38-.99.25-1.96.63-2.9,1.13-.95.5-1.85,1.12-2.71,1.88-.86.75-1.61,1.63-2.26,2.62-.65,1-1.16,2.12-1.53,3.36-.38,1.24-.56,2.61-.56,4.09,0,2.06.31,3.86.94,5.39.63,1.54,1.47,2.82,2.51,3.85,1.05,1.03,2.24,1.8,3.59,2.32,1.35.51,2.73.77,4.16.77s2.69-.18,3.8-.53c1.11-.35,2.08-.79,2.92-1.32.83-.53,1.54-1.1,2.13-1.7.59-.6,1.07-1.16,1.45-1.67,0,0-4.43,2.94-8.24,1.52ZM196.69,196.15c.02-.66.06-1.35.15-2.07.08-.72.2-1.43.36-2.14.16-.71.37-1.34.64-1.9.27-.56.61-1.01,1.03-1.36.42-.35.92-.53,1.51-.53.46,0,.85.15,1.18.44.33.29.6.66.81,1.1.21.44.36.91.45,1.41.09.5.13.95.13,1.36,0,.38-.02.69-.06.94s-.1.47-.18.64c-.08.17-.19.32-.33.44-.14.12-.31.25-.53.38l-5.17,2.97c0-.46,0-1.02.02-1.68Z"/>
        <path class="cls-1" d="M229.76,207.73c-.69-.26-1.31-.61-1.88-1.05-.56-.44-1.06-.94-1.5-1.51-.43-.56-.8-1.16-1.09-1.78-.29-.62-.52-1.24-.67-1.85-.16-.61-.23-1.18-.23-1.7l9.68-5.71c.74-.46,1.32-.99,1.77-1.61.44-.61.66-1.3.66-2.07,0-.64-.15-1.25-.44-1.83-.29-.58-.74-1.09-1.34-1.53-.6-.44-1.34-.79-2.24-1.05-.9-.26-1.95-.39-3.16-.39-.92,0-1.87.13-2.86.38-.99.25-1.96.63-2.9,1.13-.95.5-1.85,1.12-2.71,1.88-.86.75-1.61,1.63-2.26,2.62-.65,1-1.16,2.12-1.53,3.36-.38,1.24-.56,2.61-.56,4.09,0,2.06.31,3.86.94,5.39.63,1.54,1.47,2.82,2.51,3.85,1.05,1.03,2.24,1.8,3.59,2.32,1.35.51,2.73.77,4.16.77s2.69-.18,3.8-.53c1.11-.35,2.08-.79,2.92-1.32.83-.53,1.54-1.1,2.13-1.7.59-.6,1.07-1.16,1.45-1.67,0,0-4.43,2.94-8.24,1.52ZM224.17,196.15c.02-.66.06-1.35.15-2.07.08-.72.2-1.43.36-2.14.16-.71.37-1.34.64-1.9.27-.56.61-1.01,1.03-1.36.42-.35.92-.53,1.51-.53.46,0,.85.15,1.18.44.33.29.6.66.81,1.1.21.44.36.91.45,1.41.09.5.13.95.13,1.36,0,.38-.02.69-.06.94s-.1.47-.18.64c-.08.17-.19.32-.33.44-.14.12-.31.25-.53.38l-5.17,2.97c0-.46,0-1.02.02-1.68Z"/>
        <path class="cls-1" d="M183.19,185.99h-4.4v-6.03c0-.95.09-1.76.27-2.43.18-.67.42-1.22.72-1.66.3-.43.66-.75,1.07-.94.41-.2.84-.29,1.3-.29,2.89,0,3.27,2.31,3.27,2.31,0,0-2.63,0-2.25,1.55.38,1.54,5.41,3.98,6.57,2.06.59-.97.39-7.61-8.22-7.61-.54,0-1.17.05-1.89.15s-1.46.29-2.22.56c-.76.28-1.51.65-2.24,1.13-.74.47-1.39,1.09-1.97,1.84-.58.75-1.05,1.66-1.4,2.73-.35,1.07-.53,2.33-.53,3.76v2.87h-4.51v1.77h4.51v20.57c0,12.97-8.97,13.91-8.97,13.91,0,0,1.57.21,2.4.21,2.35,0,4.41-.38,6.18-1.15,1.77-.77,3.24-1.83,4.41-3.2,1.18-1.36,2.06-2.99,2.64-4.87.58-1.88.87-3.93.87-6.15v-19.32h4.4v-1.77Z"/>
        <path class="cls-1" d="M160.24,185.99h-4.4v-6.03c0-.95.09-1.76.27-2.43.18-.67.42-1.22.72-1.66.3-.43.66-.75,1.07-.94.41-.2.84-.29,1.3-.29,2.89,0,3.27,2.31,3.27,2.31,0,0-2.63,0-2.25,1.55.38,1.54,5.41,3.98,6.57,2.06.59-.97.39-7.61-8.22-7.61-.54,0-1.17.05-1.89.15s-1.46.29-2.22.56c-.76.28-1.51.65-2.24,1.13-.74.47-1.39,1.09-1.97,1.84-.58.75-1.05,1.66-1.4,2.73-.35,1.07-.53,2.33-.53,3.76v2.87h-4.51v1.77h4.51v20.57c0,12.97-8.97,13.91-8.97,13.91,0,0,1.57.21,2.4.21,2.35,0,4.41-.38,6.18-1.15,1.77-.77,3.24-1.83,4.41-3.2,1.18-1.36,2.06-2.99,2.64-4.87.58-1.88.87-3.93.87-6.15v-19.32h4.4v-1.77Z"/>
        <path class="cls-1" d="M132.62,230.09c-.9,0-1.87.22-2.9.65-.77.33-2.52,1.45-2.52,1.45,0,0,2.26-.17,2.26,2.57v17.65l4.97-2.28v-18.1c0-.68-.17-1.17-.51-1.49-.34-.31-.78-.47-1.31-.47Z"/>
        <path class="cls-1" d="M152.54,232.37c-.7-.76-1.51-1.33-2.43-1.71-.92-.38-1.9-.57-2.94-.57-.98,0-1.89.17-2.76.5-.86.33-1.62.82-2.28,1.46s-1.18,1.42-1.56,2.35c-.38.92-.57,1.98-.57,3.16,0,1.07.16,2.02.49,2.86.33.84.76,1.54,1.31,2.12.54.58,1.17,1.01,1.86,1.32.7.3,1.41.45,2.14.45.81,0,1.49-.1,2.04-.3.55-.2,1.02-.43,1.41-.7-.19.96-.44,1.87-.76,2.73-1.37,3.57-5.08,6.39-5.08,6.39,1.03-.26,2.02-.62,2.99-1.1.97-.48,1.87-1.04,2.71-1.69s1.61-1.37,2.31-2.16c.7-.79,1.3-1.63,1.79-2.52.5-.89.89-1.81,1.16-2.77.28-.96.42-1.93.42-2.92,0-1.54-.2-2.88-.61-4.03-.41-1.15-.96-2.1-1.66-2.86ZM149.61,240.32c-.03.63-.09,1.24-.17,1.85-.23.11-.49.21-.8.29-.31.08-.64.12-1,.12-.32,0-.64-.08-.96-.25-.32-.16-.62-.44-.88-.84-.26-.4-.48-.92-.65-1.56-.17-.65-.25-1.46-.25-2.43,0-.91.05-1.74.16-2.49.11-.74.26-1.38.47-1.91.21-.53.45-.94.75-1.22.29-.29.62-.43.98-.43.77,0,1.36.59,1.78,1.76.42,1.18.62,2.9.62,5.17,0,.67-.02,1.31-.05,1.94Z"/>
        <path class="cls-1" d="M193.08,232.8c-.72-.91-1.57-1.59-2.54-2.03-.97-.45-2.01-.67-3.12-.67s-2.15.22-3.11.67c-.97.45-1.81,1.12-2.53,2.03-.72.91-1.29,2.07-1.71,3.49-.42,1.41-.62,3.08-.62,5s.21,3.58.62,4.99c.42,1.41.99,2.56,1.71,3.47.72.91,1.57,1.59,2.53,2.02.96.44,2,.66,3.11.66s2.15-.22,3.12-.66c.97-.44,1.82-1.11,2.54-2.02.72-.91,1.3-2.07,1.72-3.47.42-1.41.63-3.07.63-4.99s-.21-3.59-.63-5c-.42-1.41-.99-2.57-1.72-3.49ZM190.14,244.97c-.08,1-.19,1.84-.34,2.52-.14.68-.31,1.22-.5,1.62-.19.4-.39.71-.6.92-.21.21-.43.35-.65.4-.22.06-.43.08-.62.08s-.4-.03-.62-.08c-.22-.06-.43-.19-.64-.4-.21-.21-.41-.52-.59-.92-.18-.4-.35-.94-.49-1.62-.14-.68-.26-1.52-.35-2.53-.09-1.01-.13-2.22-.13-3.63s.04-2.62.13-3.63c.09-1.01.2-1.86.35-2.55.14-.69.31-1.25.49-1.66s.38-.74.59-.96c.21-.23.42-.37.64-.45.22-.07.42-.11.62-.11s.4.04.62.11c.22.07.44.22.65.45s.41.55.6.96.36.97.5,1.66c.14.69.26,1.54.34,2.55.08,1.01.12,2.22.12,3.63s-.04,2.64-.12,3.64Z"/>
        <path class="cls-1" d="M172.96,239.98c-.54-.58-1.17-1.01-1.86-1.32-.7-.3-1.41-.45-2.14-.45-.81,0-1.49.1-2.04.3s-1.02.43-1.41.7c.19-.97.44-1.87.76-2.73,1.37-3.57,5.08-6.39,5.08-6.39-1.03.26-2.02.62-2.99,1.1-.97.48-1.87,1.04-2.71,1.69-.84.65-1.61,1.37-2.31,2.16-.7.79-1.3,1.63-1.79,2.52-.5.89-.89,1.81-1.16,2.77-.28.96-.42,1.93-.42,2.92,0,1.54.2,2.89.61,4.04.41,1.15.96,2.1,1.66,2.86.7.76,1.51,1.33,2.43,1.71.92.38,1.9.57,2.94.57.98,0,1.89-.17,2.76-.5.86-.33,1.62-.82,2.28-1.46s1.18-1.42,1.56-2.35c.38-.92.57-1.98.57-3.16,0-1.07-.16-2.02-.49-2.86s-.77-1.54-1.31-2.12ZM169.7,247.51c-.11.74-.26,1.38-.47,1.91-.21.53-.45.94-.75,1.22-.29.29-.62.43-.98.43-.77,0-1.36-.59-1.78-1.76-.42-1.18-.62-2.9-.62-5.17,0-.67.02-1.31.05-1.94.03-.63.09-1.24.17-1.85.23-.11.49-.21.8-.29.31-.08.64-.12,1-.12.32,0,.64.08.96.25.32.16.62.44.88.84.26.4.48.92.65,1.56s.25,1.46.25,2.43c0,.91-.05,1.74-.16,2.49Z"/>
      </g>
    </g>
  </g>
</svg>